<svg width="60" height="58" fill="none" xmlns="http://www.w3.org/2000/svg"><path d="M38.505 24.298c10.398 0 18.087 7.684 18.087 17.666v15.235l2.535-.01.021-24.295A20.435 20.435 0 0038.505 12.25v12.048zM38.015 0v12.047c-10.398 0-18.045 7.683-18.045 17.666v5.025a3.247 3.247 0 00-2.72 0l.042-14.011A20.574 20.574 0 0138.015 0M0 34.439v22.815h6.405c4.95 0 7.544-3.36 7.544-6.683 0-2.731-1.48-4.686-4.351-5.824a5.387 5.387 0 002.523-4.596c0-3.574-2.661-5.71-7.112-5.71L0 34.438zm5.44 2.775c2.346 0 3.741 1.1 3.741 2.937a3.35 3.35 0 01-1.44 2.807 6.734 6.734 0 01-3.727.788H2.84V37.22l2.6-.005zm-1.394 9.303a10.566 10.566 0 014.956.797 3.698 3.698 0 01-1.145 6.949l-.747.071-1.89.136H2.84v-7.954l1.206.001zm20.459-2.065c0 2.895 1.859 3.933 5.236 5.797l.612.344a2.352 2.352 0 011.204 2.025 2.594 2.594 0 01-2.73 2.412 4.404 4.404 0 01-3.208-1.724l-.227-.254-1.718 1.958.15.203a6.49 6.49 0 005.1 2.46 5.149 5.149 0 005.255-5.156c0-2.822-1.827-3.864-4.86-5.59l-1.174-.674a2.419 2.419 0 01-1.113-1.934 2.02 2.02 0 012.169-1.884 4.242 4.242 0 013.094 1.488l.217.217 1.793-1.828-.218-.218a6.697 6.697 0 00-4.76-2.31 4.632 4.632 0 00-4.82 4.663" fill="#1E1CCA"/><path d="M38.506 34.439v22.815h6.398c4.96 0 7.543-3.36 7.543-6.683 0-2.731-1.472-4.686-4.341-5.824a5.384 5.384 0 002.518-4.596c0-3.574-2.659-5.71-7.113-5.71l-5.005-.002zm5.439 2.775c2.34 0 3.744 1.1 3.744 2.937a3.358 3.358 0 01-1.44 2.807 6.757 6.757 0 01-3.731.788H41.34V37.22l2.604-.005zm-1.396 9.303a10.59 10.59 0 014.96.797 3.699 3.699 0 01-1.148 6.949l-.745.071-1.893.136h-2.381v-7.954l1.207.001zm-22.152-8.832a1.788 1.788 0 10-3.577 0 1.788 1.788 0 003.577 0zm-.408 2.939l-.02 16.629h-2.742c.03-.418.041-10.994.041-11.422v-5.194c.42.193.878.292 1.34.29a3.3 3.3 0 001.382-.305" fill="#1E1CCA"/></svg>