<svg width="83" height="76" fill="none" xmlns="http://www.w3.org/2000/svg"><path d="M8.362 34.434a7.436 7.436 0 018.199-4.51 7.41 7.41 0 01-4.51 8.2L5.74 40.746l2.623-6.313z" fill="#1E1CCA"/><path d="M6.313 24.308c3.32-1.352 7.01-.204 8.977 2.624a7.477 7.477 0 01-8.977 2.623L0 26.932l6.313-2.623zm16.274-.41a7.436 7.436 0 014.509-8.198l6.313-2.624-2.624 6.313c-1.393 3.32-4.837 5.124-8.198 4.51z" fill="#1E1CCA"/><path d="M23.817 26.932a7.476 7.476 0 018.977-2.623l6.313 2.623-6.313 2.583c-3.28 1.393-7.01.204-8.977-2.583zm-4.264-4.263a7.477 7.477 0 01-2.623-8.978l2.623-6.313 2.624 6.313a7.476 7.476 0 01-2.624 8.978z" fill="#1E1CCA"/><path d="M16.56 23.898a7.436 7.436 0 01-8.198-4.509L5.74 13.076l6.313 2.624c3.32 1.394 5.124 4.837 4.509 8.198zm2.993 7.256a7.476 7.476 0 012.624 8.978l-2.624 6.313-2.582-6.272c-1.394-3.32-.205-7.051 2.582-9.019z" fill="#1E1CCA"/><path d="M22.587 29.925a7.436 7.436 0 018.198 4.509l2.624 6.313-6.313-2.624a7.436 7.436 0 01-4.51-8.198zm-.082 22.668c2.664-6.435 9.387-9.92 15.946-8.772 1.148 6.559-2.337 13.282-8.732 15.946L17.422 64.85l5.083-12.256zm27.588-20.414c-1.148-6.559 2.336-13.282 8.731-15.946l12.257-5.083-5.083 12.298c-2.583 6.354-9.305 9.879-15.905 8.731z" fill="#1E1CCA"/><path d="M52.511 38c3.813-5.452 11.068-7.747 17.463-5.083L82.272 38l-12.298 5.083c-6.395 2.665-13.61.369-17.463-5.083zm-8.239-8.24c-5.452-3.812-7.748-11.027-5.083-17.462L44.272 0l5.083 12.257c2.665 6.436.369 13.65-5.083 17.503zm0 16.48c5.452 3.812 7.748 11.067 5.083 17.462L44.272 76l-5.083-12.298c-2.665-6.395-.37-13.61 5.083-17.462z" fill="#1E1CCA"/><path d="M50.134 43.82c6.559-1.147 13.281 2.337 15.946 8.732l5.083 12.257-12.298-5.083c-6.395-2.623-9.92-9.346-8.731-15.905z" fill="#1E1CCA"/></svg>