<svg width="121" height="87" viewBox="0 0 121 87" fill="none" xmlns="http://www.w3.org/2000/svg">
<path d="M10.36 61.2C8.94667 61.2 7.66667 60.8933 6.52 60.28C5.38667 59.6533 4.49333 58.7933 3.84 57.7C3.2 56.6067 2.88 55.3733 2.88 54C2.88 52.6267 3.20667 51.3933 3.86 50.3C4.51333 49.2067 5.40667 48.3533 6.54 47.74C7.68667 47.1133 8.96667 46.8 10.38 46.8C11.5267 46.8 12.5733 47 13.52 47.4C14.4667 47.8 15.2667 48.38 15.92 49.14L14.24 50.72C13.2267 49.6267 11.98 49.08 10.5 49.08C9.54 49.08 8.68 49.2933 7.92 49.72C7.16 50.1333 6.56667 50.7133 6.14 51.46C5.71333 52.2067 5.5 53.0533 5.5 54C5.5 54.9467 5.71333 55.7933 6.14 56.54C6.56667 57.2867 7.16 57.8733 7.92 58.3C8.68 58.7133 9.54 58.92 10.5 58.92C11.98 58.92 13.2267 58.3667 14.24 57.26L15.92 58.86C15.2667 59.62 14.46 60.2 13.5 60.6C12.5533 61 11.5067 61.2 10.36 61.2ZM24.1336 61.2C22.2003 61.2 20.6936 60.66 19.6136 59.58C18.5336 58.4867 17.9936 56.9267 17.9936 54.9V47H20.5936V54.8C20.5936 57.5467 21.7803 58.92 24.1536 58.92C26.5136 58.92 27.6936 57.5467 27.6936 54.8V47H30.2536V54.9C30.2536 56.9267 29.7136 58.4867 28.6336 59.58C27.5669 60.66 26.0669 61.2 24.1336 61.2ZM42.8548 61L39.9948 56.9C39.8748 56.9133 39.6948 56.92 39.4548 56.92H36.2948V61H33.6948V47H39.4548C40.6682 47 41.7215 47.2 42.6148 47.6C43.5215 48 44.2148 48.5733 44.6948 49.32C45.1748 50.0667 45.4148 50.9533 45.4148 51.98C45.4148 53.0333 45.1548 53.94 44.6348 54.7C44.1282 55.46 43.3948 56.0267 42.4348 56.4L45.6548 61H42.8548ZM42.7948 51.98C42.7948 51.0867 42.5015 50.4 41.9148 49.92C41.3282 49.44 40.4682 49.2 39.3348 49.2H36.2948V54.78H39.3348C40.4682 54.78 41.3282 54.54 41.9148 54.06C42.5015 53.5667 42.7948 52.8733 42.7948 51.98ZM57.2838 61L54.4238 56.9C54.3038 56.9133 54.1238 56.92 53.8838 56.92H50.7238V61H48.1238V47H53.8838C55.0971 47 56.1504 47.2 57.0438 47.6C57.9504 48 58.6438 48.5733 59.1238 49.32C59.6038 50.0667 59.8438 50.9533 59.8438 51.98C59.8438 53.0333 59.5838 53.94 59.0638 54.7C58.5571 55.46 57.8238 56.0267 56.8638 56.4L60.0838 61H57.2838ZM57.2238 51.98C57.2238 51.0867 56.9304 50.4 56.3438 49.92C55.7571 49.44 54.8971 49.2 53.7638 49.2H50.7238V54.78H53.7638C54.8971 54.78 55.7571 54.54 56.3438 54.06C56.9304 53.5667 57.2238 52.8733 57.2238 51.98ZM73.0527 58.82V61H62.5527V47H72.7727V49.18H65.1527V52.82H71.9127V54.96H65.1527V58.82H73.0527ZM88.1911 47V61H86.0511L78.3311 51.52V61H75.7511V47H77.8911L85.6111 56.48V47H88.1911ZM98.2225 61.2C96.8092 61.2 95.5292 60.8933 94.3825 60.28C93.2492 59.6533 92.3558 58.7933 91.7025 57.7C91.0625 56.6067 90.7425 55.3733 90.7425 54C90.7425 52.6267 91.0692 51.3933 91.7225 50.3C92.3758 49.2067 93.2692 48.3533 94.4025 47.74C95.5492 47.1133 96.8292 46.8 98.2425 46.8C99.3892 46.8 100.436 47 101.383 47.4C102.329 47.8 103.129 48.38 103.783 49.14L102.103 50.72C101.089 49.6267 99.8425 49.08 98.3625 49.08C97.4025 49.08 96.5425 49.2933 95.7825 49.72C95.0225 50.1333 94.4292 50.7133 94.0025 51.46C93.5758 52.2067 93.3625 53.0533 93.3625 54C93.3625 54.9467 93.5758 55.7933 94.0025 56.54C94.4292 57.2867 95.0225 57.8733 95.7825 58.3C96.5425 58.7133 97.4025 58.92 98.3625 58.92C99.8425 58.92 101.089 58.3667 102.103 57.26L103.783 58.86C103.129 59.62 102.323 60.2 101.363 60.6C100.416 61 99.3692 61.2 98.2225 61.2ZM111.918 56.06V61H109.318V56.1L103.818 47H106.598L110.698 53.82L114.838 47H117.398L111.918 56.06ZM9.106 82.17C7.90467 82.17 6.81667 81.9093 5.842 81.388C4.87867 80.8553 4.11933 80.1243 3.564 79.195C3.02 78.2657 2.748 77.2173 2.748 76.05C2.748 74.8827 3.02567 73.8343 3.581 72.905C4.13633 71.9757 4.89567 71.2503 5.859 70.729C6.83367 70.1963 7.92167 69.93 9.123 69.93C10.0977 69.93 10.9873 70.1 11.792 70.44C12.5967 70.78 13.2767 71.273 13.832 71.919L12.404 73.262C11.5427 72.3327 10.483 71.868 9.225 71.868C8.409 71.868 7.678 72.0493 7.032 72.412C6.386 72.7633 5.88167 73.2563 5.519 73.891C5.15633 74.5257 4.975 75.2453 4.975 76.05C4.975 76.8547 5.15633 77.5743 5.519 78.209C5.88167 78.8437 6.386 79.3423 7.032 79.705C7.678 80.0563 8.409 80.232 9.225 80.232C10.483 80.232 11.5427 79.7617 12.404 78.821L13.832 80.181C13.2767 80.827 12.591 81.32 11.775 81.66C10.9703 82 10.0807 82.17 9.106 82.17ZM21.0895 82.17C19.8769 82.17 18.7832 81.9093 17.8085 81.388C16.8339 80.8553 16.0689 80.1243 15.5135 79.195C14.9582 78.2543 14.6805 77.206 14.6805 76.05C14.6805 74.894 14.9582 73.8513 15.5135 72.922C16.0689 71.9813 16.8339 71.2503 17.8085 70.729C18.7832 70.1963 19.8769 69.93 21.0895 69.93C22.3022 69.93 23.3959 70.1963 24.3705 70.729C25.3452 71.2503 26.1102 71.9757 26.6655 72.905C27.2209 73.8343 27.4985 74.8827 27.4985 76.05C27.4985 77.2173 27.2209 78.2657 26.6655 79.195C26.1102 80.1243 25.3452 80.8553 24.3705 81.388C23.3959 81.9093 22.3022 82.17 21.0895 82.17ZM21.0895 80.232C21.8829 80.232 22.5969 80.0563 23.2315 79.705C23.8662 79.3423 24.3649 78.8437 24.7275 78.209C25.0902 77.563 25.2715 76.8433 25.2715 76.05C25.2715 75.2567 25.0902 74.5427 24.7275 73.908C24.3649 73.262 23.8662 72.7633 23.2315 72.412C22.5969 72.0493 21.8829 71.868 21.0895 71.868C20.2962 71.868 19.5822 72.0493 18.9475 72.412C18.3129 72.7633 17.8142 73.262 17.4515 73.908C17.0889 74.5427 16.9075 75.2567 16.9075 76.05C16.9075 76.8433 17.0889 77.563 17.4515 78.209C17.8142 78.8437 18.3129 79.3423 18.9475 79.705C19.5822 80.0563 20.2962 80.232 21.0895 80.232ZM40.2451 70.1V82H38.4261L31.8641 73.942V82H29.6711V70.1H31.4901L38.0521 78.158V70.1H40.2451ZM54.0608 70.1L48.8758 82H46.6998L41.4978 70.1H43.8948L47.8558 79.28L51.8508 70.1H54.0608ZM64.0715 80.147V82H55.1465V70.1H63.8335V71.953H57.3565V75.047H63.1025V76.866H57.3565V80.147H64.0715ZM74.1512 82L71.7202 78.515C71.6182 78.5263 71.4652 78.532 71.2612 78.532H68.5752V82H66.3652V70.1H71.2612C72.2925 70.1 73.1879 70.27 73.9472 70.61C74.7179 70.95 75.3072 71.4373 75.7152 72.072C76.1232 72.7067 76.3272 73.4603 76.3272 74.333C76.3272 75.2283 76.1062 75.999 75.6642 76.645C75.2335 77.291 74.6102 77.7727 73.7942 78.09L76.5312 82H74.1512ZM74.1002 74.333C74.1002 73.5737 73.8509 72.99 73.3522 72.582C72.8535 72.174 72.1225 71.97 71.1592 71.97H68.5752V76.713H71.1592C72.1225 76.713 72.8535 76.509 73.3522 76.101C73.8509 75.6817 74.1002 75.0923 74.1002 74.333ZM82.3188 82.17C81.4008 82.17 80.5111 82.0397 79.6498 81.779C78.7998 81.5183 78.1254 81.1727 77.6268 80.742L78.3918 79.025C78.8791 79.4103 79.4741 79.7277 80.1768 79.977C80.8908 80.215 81.6048 80.334 82.3188 80.334C83.2028 80.334 83.8601 80.1923 84.2908 79.909C84.7328 79.6257 84.9538 79.2517 84.9538 78.787C84.9538 78.447 84.8291 78.1693 84.5798 77.954C84.3418 77.7273 84.0358 77.5517 83.6618 77.427C83.2878 77.3023 82.7778 77.1607 82.1318 77.002C81.2251 76.7867 80.4884 76.5713 79.9218 76.356C79.3664 76.1407 78.8848 75.8063 78.4768 75.353C78.0801 74.8883 77.8818 74.265 77.8818 73.483C77.8818 72.8257 78.0574 72.2307 78.4088 71.698C78.7714 71.154 79.3098 70.7233 80.0238 70.406C80.7491 70.0887 81.6331 69.93 82.6758 69.93C83.4011 69.93 84.1151 70.0207 84.8178 70.202C85.5204 70.3833 86.1268 70.644 86.6368 70.984L85.9398 72.701C85.4184 72.395 84.8744 72.1627 84.3078 72.004C83.7411 71.8453 83.1914 71.766 82.6588 71.766C81.7861 71.766 81.1344 71.9133 80.7038 72.208C80.2844 72.5027 80.0748 72.8937 80.0748 73.381C80.0748 73.721 80.1938 73.9987 80.4318 74.214C80.6811 74.4293 80.9928 74.5993 81.3668 74.724C81.7408 74.8487 82.2508 74.9903 82.8968 75.149C83.7808 75.353 84.5061 75.5683 85.0728 75.795C85.6394 76.0103 86.1211 76.3447 86.5178 76.798C86.9258 77.2513 87.1298 77.8633 87.1298 78.634C87.1298 79.2913 86.9484 79.8863 86.5858 80.419C86.2344 80.9517 85.6961 81.3767 84.9708 81.694C84.2454 82.0113 83.3614 82.17 82.3188 82.17ZM89.1512 70.1H91.3612V82H89.1512V70.1ZM99.9689 82.17C98.7562 82.17 97.6625 81.9093 96.6879 81.388C95.7132 80.8553 94.9482 80.1243 94.3929 79.195C93.8375 78.2543 93.5599 77.206 93.5599 76.05C93.5599 74.894 93.8375 73.8513 94.3929 72.922C94.9482 71.9813 95.7132 71.2503 96.6879 70.729C97.6625 70.1963 98.7562 69.93 99.9689 69.93C101.182 69.93 102.275 70.1963 103.25 70.729C104.225 71.2503 104.99 71.9757 105.545 72.905C106.1 73.8343 106.378 74.8827 106.378 76.05C106.378 77.2173 106.1 78.2657 105.545 79.195C104.99 80.1243 104.225 80.8553 103.25 81.388C102.275 81.9093 101.182 82.17 99.9689 82.17ZM99.9689 80.232C100.762 80.232 101.476 80.0563 102.111 79.705C102.746 79.3423 103.244 78.8437 103.607 78.209C103.97 77.563 104.151 76.8433 104.151 76.05C104.151 75.2567 103.97 74.5427 103.607 73.908C103.244 73.262 102.746 72.7633 102.111 72.412C101.476 72.0493 100.762 71.868 99.9689 71.868C99.1755 71.868 98.4615 72.0493 97.8269 72.412C97.1922 72.7633 96.6935 73.262 96.3309 73.908C95.9682 74.5427 95.7869 75.2567 95.7869 76.05C95.7869 76.8433 95.9682 77.563 96.3309 78.209C96.6935 78.8437 97.1922 79.3423 97.8269 79.705C98.4615 80.0563 99.1755 80.232 99.9689 80.232ZM119.124 70.1V82H117.305L110.743 73.942V82H108.55V70.1H110.369L116.931 78.158V70.1H119.124Z" fill="#DD8C2C"/>
<path d="M2.392 22.176H15.41V27.926H2.392V22.176ZM41.4974 31.928V38H17.1634V33.17L29.5834 21.44C30.9021 20.1827 31.7914 19.1093 32.2514 18.22C32.7114 17.3 32.9414 16.3953 32.9414 15.506C32.9414 14.218 32.4967 13.2367 31.6074 12.562C30.7487 11.8567 29.4761 11.504 27.7894 11.504C26.3787 11.504 25.1061 11.78 23.9714 12.332C22.8367 12.8533 21.8861 13.6507 21.1194 14.724L15.6914 11.228C16.9487 9.35733 18.6814 7.90067 20.8894 6.858C23.0974 5.78467 25.6274 5.248 28.4794 5.248C30.8714 5.248 32.9567 5.64667 34.7354 6.444C36.5447 7.21067 37.9401 8.31467 38.9214 9.756C39.9334 11.1667 40.4394 12.838 40.4394 14.77C40.4394 16.518 40.0714 18.1587 39.3354 19.692C38.5994 21.2253 37.1734 22.9733 35.0574 24.936L27.6514 31.928H41.4974ZM47.8734 38.368C46.6161 38.368 45.5581 37.9387 44.6994 37.08C43.8408 36.2213 43.4114 35.148 43.4114 33.86C43.4114 32.5413 43.8408 31.4833 44.6994 30.686C45.5581 29.858 46.6161 29.444 47.8734 29.444C49.1308 29.444 50.1888 29.858 51.0474 30.686C51.9061 31.4833 52.3354 32.5413 52.3354 33.86C52.3354 35.148 51.9061 36.2213 51.0474 37.08C50.1888 37.9387 49.1308 38.368 47.8734 38.368ZM65.6165 5.248C70.1245 5.248 73.6512 6.628 76.1965 9.388C78.7418 12.1173 80.0145 16.058 80.0145 21.21C80.0145 24.8593 79.3245 27.9873 77.9445 30.594C76.5952 33.2007 74.6785 35.1787 72.1945 36.528C69.7105 37.8773 66.8432 38.552 63.5925 38.552C61.8752 38.552 60.2345 38.368 58.6705 38C57.1065 37.6013 55.7725 37.0493 54.6685 36.344L57.4285 30.87C58.9925 31.9433 61.0012 32.48 63.4545 32.48C66.1838 32.48 68.3458 31.6827 69.9405 30.088C71.5352 28.4627 72.3938 26.132 72.5165 23.096C70.5845 25.028 67.9165 25.994 64.5125 25.994C62.4578 25.994 60.5872 25.58 58.9005 24.752C57.2138 23.924 55.8798 22.7587 54.8985 21.256C53.9172 19.7227 53.4265 17.9593 53.4265 15.966C53.4265 13.8193 53.9632 11.9333 55.0365 10.308C56.1098 8.68266 57.5665 7.44067 59.4065 6.582C61.2772 5.69267 63.3472 5.248 65.6165 5.248ZM66.1685 20.428C67.7938 20.428 69.1125 19.9833 70.1245 19.094C71.1672 18.174 71.6885 17.0087 71.6885 15.598C71.6885 14.1873 71.1825 13.0373 70.1705 12.148C69.1892 11.2587 67.8245 10.814 66.0765 10.814C64.4818 10.814 63.1785 11.2433 62.1665 12.102C61.1852 12.9607 60.6945 14.126 60.6945 15.598C60.6945 17.07 61.1852 18.2507 62.1665 19.14C63.1785 19.9987 64.5125 20.428 66.1685 20.428ZM89.6616 23.188C87.3002 23.188 85.3682 22.3907 83.8656 20.796C82.3936 19.1707 81.6576 17.0087 81.6576 14.31C81.6576 11.6113 82.3936 9.46466 83.8656 7.87C85.3682 6.24467 87.3002 5.432 89.6616 5.432C92.0229 5.432 93.9396 6.24467 95.4116 7.87C96.8836 9.46466 97.6196 11.6113 97.6196 14.31C97.6196 17.0087 96.8836 19.1707 95.4116 20.796C93.9396 22.3907 92.0229 23.188 89.6616 23.188ZM108.844 5.8H114.318L92.3296 38H86.8556L108.844 5.8ZM89.6616 19.416C90.7042 19.416 91.5169 18.9867 92.0996 18.128C92.7129 17.2693 93.0196 15.9967 93.0196 14.31C93.0196 12.6233 92.7129 11.3507 92.0996 10.492C91.5169 9.63333 90.7042 9.204 89.6616 9.204C88.6496 9.204 87.8369 9.64867 87.2236 10.538C86.6102 11.3967 86.3036 12.654 86.3036 14.31C86.3036 15.966 86.6102 17.2387 87.2236 18.128C87.8369 18.9867 88.6496 19.416 89.6616 19.416ZM111.512 38.368C109.978 38.368 108.598 38.0153 107.372 37.31C106.176 36.574 105.24 35.5313 104.566 34.182C103.891 32.8327 103.554 31.2687 103.554 29.49C103.554 27.7113 103.891 26.1473 104.566 24.798C105.24 23.4487 106.176 22.4213 107.372 21.716C108.598 20.98 109.978 20.612 111.512 20.612C113.873 20.612 115.79 21.4247 117.262 23.05C118.764 24.6447 119.516 26.7913 119.516 29.49C119.516 32.1887 118.764 34.3507 117.262 35.976C115.79 37.5707 113.873 38.368 111.512 38.368ZM111.512 34.596C112.554 34.596 113.367 34.1667 113.95 33.308C114.563 32.4187 114.87 31.146 114.87 29.49C114.87 27.834 114.563 26.5767 113.95 25.718C113.367 24.8287 112.554 24.384 111.512 24.384C110.5 24.384 109.687 24.8133 109.074 25.672C108.46 26.5307 108.154 27.8033 108.154 29.49C108.154 31.1767 108.46 32.4493 109.074 33.308C109.687 34.1667 110.5 34.596 111.512 34.596Z" fill="#DD8C2C"/>
</svg>
