<svg width="822" height="1688" viewBox="0 0 822 1688" fill="none" xmlns="http://www.w3.org/2000/svg">
<path fill-rule="evenodd" clip-rule="evenodd" d="M36 117V1571C36 1617.94 74.0558 1656 121 1656H701C747.944 1656 786 1617.94 786 1571V117C786 70.0558 747.944 32 701 32H121C74.0558 32 36 70.0558 36 117Z" fill="#FF3B3B"/>
<rect x="36" y="32" width="750" height="1624" rx="85" fill="#D8D8D8" stroke="#979797"/>
<mask id="mask0" mask-type="alpha" maskUnits="userSpaceOnUse" x="35" y="31" width="752" height="1626">
<rect x="36" y="32" width="750" height="1624" rx="85" fill="white" stroke="white"/>
</mask>
<g mask="url(#mask0)">
<path d="M788.883 32H36V1663.25H788.883V32Z" fill="#3E40F8"/>
<g filter="url(#filter0_d)">
<path d="M36 293.156H788.883V1664.82H36V293.156Z" fill="white"/>
</g>
<path d="M36 264.923C36 245.432 51.8005 229.632 71.2914 229.632H391.267C410.757 229.632 426.558 245.432 426.558 264.923V351.975H36V264.923Z" fill="white"/>
<path d="M788.884 328.448H461.85C442.359 328.448 426.558 312.647 426.558 293.157V271.982H788.884V328.448Z" fill="#3E40F8"/>
<path d="M160.696 942.519C160.696 911.333 185.977 886.052 217.163 886.052H803V998.985H217.163C185.977 998.985 160.696 973.704 160.696 942.519Z" fill="#ECEEF8"/>
<path d="M618.706 467.261H587.793V462.661L600.178 450.213C603.952 446.396 606.439 443.672 607.641 442.042C608.841 440.413 609.742 438.825 610.342 437.282C610.942 435.738 611.243 434.075 611.243 432.296C611.243 429.786 610.481 427.803 608.958 426.344C607.436 424.864 605.323 424.125 602.622 424.125C600.67 424.125 598.816 424.448 597.058 425.09C595.319 425.735 593.381 426.901 591.235 428.595L588.405 424.96C592.736 421.358 597.453 419.559 602.559 419.559C606.975 419.559 610.438 420.695 612.949 422.968C615.457 425.219 616.711 428.254 616.711 432.071C616.711 435.051 615.876 437.999 614.203 440.917C612.53 443.832 609.398 447.521 604.81 451.982L594.517 462.049V462.308H618.706V467.261ZM632.877 459.605L633.359 460.346C632.801 462.489 631.997 464.976 630.945 467.807C629.896 470.66 628.802 473.307 627.665 475.752H623.644C624.223 473.521 624.856 470.766 625.541 467.487C626.249 464.205 626.743 461.579 627.021 459.605H632.877ZM673.455 456.452H666.474V467.261H661.359V456.452H638.49V451.789L660.813 419.975H666.474V451.596H673.455V456.452ZM661.359 451.596V435.962C661.359 432.896 661.467 429.433 661.681 425.572H661.425C660.394 427.631 659.43 429.337 658.529 430.687L643.829 451.596H661.359ZM708.276 440.305C708.276 458.704 701.156 467.903 686.917 467.903C684.43 467.903 682.456 467.689 680.998 467.261V462.661C682.713 463.219 684.666 463.496 686.854 463.496C691.999 463.496 695.881 461.911 698.497 458.737C701.135 455.542 702.572 450.653 702.808 444.07H702.422C701.241 445.848 699.676 447.211 697.726 448.154C695.773 449.076 693.575 449.537 691.131 449.537C686.971 449.537 683.668 448.293 681.223 445.806C678.779 443.319 677.556 439.844 677.556 435.383C677.556 430.494 678.918 426.633 681.642 423.803C684.386 420.973 687.99 419.559 692.448 419.559C695.644 419.559 698.432 420.384 700.813 422.034C703.215 423.664 705.059 426.055 706.346 429.207C707.633 432.339 708.276 436.037 708.276 440.305ZM692.448 424.125C689.383 424.125 687.014 425.111 685.341 427.085C683.668 429.057 682.833 431.802 682.833 435.32C682.833 438.406 683.604 440.842 685.148 442.62C686.691 444.38 689.039 445.258 692.192 445.258C694.143 445.258 695.935 444.862 697.563 444.07C699.215 443.274 700.514 442.192 701.457 440.82C702.401 439.446 702.871 438.011 702.871 436.51C702.871 434.259 702.431 432.179 701.554 430.268C700.674 428.36 699.441 426.859 697.853 425.765C696.288 424.671 694.486 424.125 692.448 424.125ZM745.574 443.684C745.574 451.81 744.287 457.878 741.713 461.889C739.163 465.899 735.248 467.903 729.973 467.903C724.912 467.903 721.063 465.856 718.425 461.76C715.788 457.643 714.468 451.617 714.468 443.684C714.468 435.491 715.743 429.412 718.296 425.445C720.849 421.476 724.74 419.493 729.973 419.493C735.076 419.493 738.946 421.563 741.584 425.702C744.244 429.84 745.574 435.835 745.574 443.684ZM719.872 443.684C719.872 450.523 720.677 455.509 722.284 458.64C723.893 461.751 726.455 463.303 729.973 463.303C733.532 463.303 736.106 461.727 737.692 458.577C739.301 455.403 740.106 450.439 740.106 443.684C740.106 436.927 739.301 431.986 737.692 428.854C736.106 425.702 733.532 424.125 729.973 424.125C726.455 424.125 723.893 425.68 722.284 428.788C720.677 431.878 719.872 436.842 719.872 443.684Z" fill="#626189"/>
<path d="M660.105 624.896H654.894V591.378C654.894 588.59 654.981 585.953 655.153 583.466C654.701 583.915 654.197 584.388 653.64 584.88C653.082 585.374 650.529 587.463 645.984 591.152L643.154 587.487L655.602 577.869H660.105V624.896ZM708.276 597.94C708.276 616.339 701.156 625.538 686.917 625.538C684.43 625.538 682.456 625.324 680.998 624.896V620.296C682.713 620.854 684.666 621.131 686.854 621.131C691.999 621.131 695.881 619.546 698.498 616.372C701.135 613.177 702.573 608.288 702.808 601.705H702.422C701.241 603.483 699.676 604.846 697.726 605.789C695.773 606.711 693.576 607.172 691.131 607.172C686.971 607.172 683.668 605.928 681.224 603.441C678.779 600.954 677.556 597.479 677.556 593.018C677.556 588.129 678.918 584.268 681.642 581.438C684.386 578.608 687.99 577.194 692.449 577.194C695.644 577.194 698.432 578.019 700.813 579.669C703.215 581.299 705.059 583.69 706.346 586.842C707.633 589.974 708.276 593.672 708.276 597.94ZM692.449 581.76C689.383 581.76 687.014 582.746 685.341 584.72C683.668 586.692 682.833 589.437 682.833 592.955C682.833 596.042 683.605 598.477 685.148 600.255C686.691 602.015 689.039 602.893 692.192 602.893C694.143 602.893 695.935 602.498 697.564 601.705C699.215 600.909 700.514 599.827 701.457 598.455C702.401 597.081 702.871 595.646 702.871 594.145C702.871 591.894 702.431 589.814 701.554 587.903C700.674 585.995 699.441 584.494 697.853 583.4C696.288 582.306 694.486 581.76 692.449 581.76ZM745.574 601.319C745.574 609.445 744.287 615.513 741.713 619.524C739.163 623.534 735.248 625.538 729.973 625.538C724.912 625.538 721.063 623.491 718.425 619.395C715.788 615.278 714.468 609.252 714.468 601.319C714.468 593.126 715.743 587.047 718.296 583.08C720.849 579.111 724.74 577.128 729.973 577.128C735.076 577.128 738.946 579.198 741.584 583.337C744.245 587.475 745.574 593.47 745.574 601.319ZM719.872 601.319C719.872 608.158 720.677 613.144 722.284 616.275C723.893 619.386 726.455 620.938 729.973 620.938C733.533 620.938 736.106 619.362 737.692 616.212C739.302 613.038 740.106 608.074 740.106 601.319C740.106 594.562 739.302 589.621 737.692 586.489C736.106 583.337 733.533 581.76 729.973 581.76C726.455 581.76 723.893 583.315 722.284 586.423C720.677 589.513 719.872 594.477 719.872 601.319Z" fill="#626189"/>
<path d="M618.706 760.281C618.706 778.679 611.587 787.879 597.348 787.879C594.859 787.879 592.887 787.665 591.428 787.236V782.637C593.143 783.194 595.096 783.472 597.282 783.472C602.43 783.472 606.312 781.886 608.928 778.712C611.565 775.517 613.001 770.628 613.238 764.045H612.852C611.671 765.824 610.107 767.186 608.154 768.13C606.204 769.052 604.006 769.513 601.562 769.513C597.399 769.513 594.099 768.268 591.654 765.782C589.21 763.295 587.986 759.82 587.986 755.359C587.986 750.47 589.348 746.609 592.073 743.779C594.816 740.948 598.418 739.534 602.879 739.534C606.074 739.534 608.862 740.36 611.243 742.009C613.645 743.64 615.49 746.03 616.777 749.183C618.061 752.314 618.706 756.013 618.706 760.281ZM602.879 744.101C599.813 744.101 597.444 745.087 595.771 747.061C594.099 749.032 593.261 751.778 593.261 755.295C593.261 758.382 594.035 760.817 595.578 762.596C597.122 764.356 599.47 765.233 602.623 765.233C604.573 765.233 606.363 764.838 607.994 764.045C609.646 763.25 610.942 762.168 611.885 760.796C612.829 759.422 613.302 757.987 613.302 756.486C613.302 754.234 612.862 752.154 611.982 750.244C611.104 748.336 609.871 746.835 608.283 745.741C606.719 744.647 604.917 744.101 602.879 744.101ZM632.877 779.581L633.359 780.322C632.801 782.465 631.997 784.952 630.945 787.782C629.896 790.636 628.802 793.283 627.665 795.728H623.645C624.223 793.497 624.856 790.742 625.541 787.462C626.249 784.18 626.743 781.554 627.021 779.581H632.877ZM660.105 787.236H654.894V753.719C654.894 750.931 654.981 748.293 655.153 745.807C654.701 746.256 654.197 746.729 653.64 747.221C653.082 747.715 650.53 749.804 645.984 753.493L643.154 749.828L655.602 740.209H660.105V787.236ZM706.506 751.274C706.506 754.277 705.659 756.733 703.965 758.641C702.293 760.549 699.912 761.824 696.825 762.469V762.725C700.599 763.198 703.396 764.398 705.219 766.327C707.043 768.259 707.953 770.788 707.953 773.92C707.953 778.402 706.398 781.853 703.29 784.277C700.18 786.679 695.764 787.879 690.037 787.879C687.55 787.879 685.266 787.686 683.186 787.3C681.127 786.935 679.123 786.281 677.17 785.338V780.256C679.207 781.265 681.374 782.037 683.668 782.573C685.983 783.086 688.171 783.345 690.23 783.345C698.356 783.345 702.422 780.159 702.422 773.79C702.422 768.087 697.94 765.233 688.976 765.233H684.343V760.634H689.039C692.707 760.634 695.613 759.831 697.757 758.222C699.902 756.592 700.973 754.34 700.973 751.467C700.973 749.173 700.18 747.371 698.594 746.063C697.027 744.755 694.893 744.101 692.192 744.101C690.134 744.101 688.193 744.381 686.369 744.936C684.548 745.494 682.468 746.524 680.13 748.025L677.429 744.423C679.358 742.901 681.577 741.71 684.087 740.852C686.616 739.972 689.275 739.534 692.063 739.534C696.632 739.534 700.18 740.583 702.711 742.685C705.241 744.767 706.506 747.628 706.506 751.274ZM729.105 758.511C734.057 758.511 737.951 759.744 740.781 762.21C743.633 764.655 745.059 768.012 745.059 772.28C745.059 777.148 743.504 780.964 740.396 783.731C737.306 786.498 733.039 787.879 727.592 787.879C722.296 787.879 718.254 787.032 715.466 785.338V780.192C716.967 781.157 718.833 781.919 721.063 782.477C723.293 783.011 725.491 783.279 727.658 783.279C731.432 783.279 734.358 782.39 736.438 780.611C738.539 778.83 739.591 776.256 739.591 772.889C739.591 766.327 735.57 763.048 727.528 763.048C725.491 763.048 722.766 763.358 719.357 763.979L716.59 762.21L718.36 740.209H741.746V745.131H722.929L721.738 759.25C724.204 758.759 726.66 758.511 729.105 758.511Z" fill="#626189"/>
<path d="M570.535 966.046H565.324V932.529C565.324 929.741 565.411 927.103 565.58 924.616C565.131 925.066 564.628 925.539 564.07 926.03C563.512 926.525 560.96 928.614 556.414 932.303L553.584 928.637L566.032 919.019H570.535V966.046ZM618.706 966.046H587.793V961.447L600.178 948.998C603.952 945.182 606.439 942.457 607.641 940.827C608.841 939.199 609.742 937.611 610.342 936.067C610.942 934.524 611.243 932.861 611.243 931.082C611.243 928.571 610.481 926.588 608.958 925.129C607.436 923.649 605.323 922.911 602.622 922.911C600.67 922.911 598.816 923.233 597.058 923.875C595.319 924.52 593.381 925.687 591.235 927.381L588.405 923.746C592.736 920.144 597.453 918.344 602.559 918.344C606.975 918.344 610.438 919.48 612.949 921.753C615.457 924.005 616.711 927.04 616.711 930.856C616.711 933.837 615.875 936.785 614.203 939.702C612.53 942.617 609.398 946.307 604.81 950.767L594.517 960.835V961.094H618.706V966.046ZM632.876 958.39L633.359 959.131C632.801 961.275 631.997 963.762 630.945 966.592C629.896 969.446 628.802 972.093 627.665 974.537H623.644C624.223 972.307 624.856 969.552 625.541 966.272C626.249 962.99 626.743 960.364 627.02 958.39H632.876ZM669.467 930.084C669.467 933.086 668.62 935.543 666.926 937.451C665.253 939.359 662.872 940.634 659.783 941.279V941.535C663.559 942.008 666.356 943.208 668.18 945.137C670.001 947.069 670.914 949.598 670.914 952.73C670.914 957.212 669.358 960.663 666.248 963.086C663.14 965.489 658.722 966.689 652.997 966.689C650.508 966.689 648.226 966.496 646.144 966.11C644.085 965.745 642.08 965.091 640.13 964.148V959.066C642.168 960.075 644.332 960.847 646.628 961.383C648.943 961.896 651.132 962.155 653.19 962.155C661.317 962.155 665.38 958.969 665.38 952.6C665.38 946.897 660.898 944.043 651.934 944.043H647.304V939.444H652C655.665 939.444 658.571 938.641 660.717 937.032C662.86 935.401 663.933 933.15 663.933 930.277C663.933 927.983 663.14 926.181 661.552 924.873C659.987 923.565 657.853 922.911 655.152 922.911C653.094 922.911 651.153 923.191 649.329 923.746C647.506 924.304 645.426 925.334 643.09 926.835L640.386 923.233C642.318 921.711 644.537 920.52 647.045 919.662C649.576 918.782 652.235 918.344 655.023 918.344C659.59 918.344 663.14 919.393 665.669 921.494C668.201 923.577 669.467 926.437 669.467 930.084ZM708.275 966.046H677.362V961.447L689.747 948.998C693.521 945.182 696.008 942.457 697.21 940.827C698.41 939.199 699.311 937.611 699.911 936.067C700.514 934.524 700.812 932.861 700.812 931.082C700.812 928.571 700.053 926.588 698.528 925.129C697.006 923.649 694.893 922.911 692.192 922.911C690.242 922.911 688.385 923.233 686.628 923.875C684.891 924.52 682.95 925.687 680.805 927.381L677.974 923.746C682.306 920.144 687.023 918.344 692.128 918.344C696.545 918.344 700.008 919.48 702.518 921.753C705.026 924.005 706.28 927.04 706.28 930.856C706.28 933.837 705.445 936.785 703.772 939.702C702.099 942.617 698.968 946.307 694.38 950.767L684.087 960.835V961.094H708.275V966.046ZM745.315 966.046H714.404V961.447L726.787 948.998C730.563 945.182 733.05 942.457 734.25 940.827C735.452 939.199 736.353 937.611 736.953 936.067C737.553 934.524 737.854 932.861 737.854 931.082C737.854 928.571 737.092 926.588 735.57 925.129C734.048 923.649 731.935 922.911 729.231 922.911C727.281 922.911 725.427 923.233 723.667 923.875C721.931 924.52 719.99 925.687 717.846 927.381L715.016 923.746C719.347 920.144 724.065 918.344 729.168 918.344C733.586 918.344 737.05 919.48 739.558 921.753C742.068 924.005 743.322 927.04 743.322 930.856C743.322 933.837 742.485 936.785 740.812 939.702C739.139 942.617 736.01 946.307 731.419 950.767L721.126 960.835V961.094H745.315V966.046Z" fill="#626189"/>
<path d="M213.541 459.266C210.588 459.266 208.254 460.252 206.538 462.224C204.835 464.186 203.983 466.875 203.983 470.294C203.983 473.811 204.804 476.531 206.446 478.455C208.101 480.366 210.453 481.323 213.505 481.323C215.38 481.323 217.518 480.985 219.92 480.312V483.05C218.057 483.749 215.759 484.097 213.027 484.097C209.069 484.097 206.011 482.897 203.855 480.495C201.71 478.093 200.638 474.682 200.638 470.256C200.638 467.487 201.153 465.061 202.182 462.979C203.224 460.894 204.718 459.29 206.667 458.163C208.628 457.036 210.931 456.471 213.578 456.471C216.397 456.471 218.86 456.986 220.967 458.015L219.644 460.699C217.61 459.744 215.575 459.266 213.541 459.266ZM228.191 463.586V476.653C228.191 478.295 228.565 479.521 229.312 480.331C230.06 481.138 231.23 481.542 232.823 481.542C234.931 481.542 236.468 480.968 237.437 479.815C238.417 478.662 238.907 476.783 238.907 474.173V463.586H241.958V483.73H239.44L238.999 481.029H238.833C238.209 482.02 237.339 482.78 236.224 483.307C235.121 483.834 233.859 484.097 232.437 484.097C229.986 484.097 228.148 483.516 226.923 482.352C225.71 481.187 225.103 479.326 225.103 476.764V463.586H228.191ZM257.637 463.217C258.532 463.217 259.334 463.289 260.045 463.438L259.622 466.268C258.789 466.085 258.054 465.993 257.417 465.993C255.787 465.993 254.39 466.654 253.226 467.979C252.074 469.301 251.498 470.95 251.498 472.922V483.73H248.447V463.586H250.965L251.314 467.315H251.461C252.209 466.005 253.109 464.993 254.163 464.282C255.217 463.572 256.375 463.217 257.637 463.217ZM273.003 463.217C273.899 463.217 274.702 463.289 275.412 463.438L274.989 466.268C274.156 466.085 273.419 465.993 272.784 465.993C271.153 465.993 269.757 466.654 268.592 467.979C267.44 469.301 266.865 470.95 266.865 472.922V483.73H263.813V463.586H266.331L266.681 467.315H266.828C267.575 466.005 268.476 464.993 269.53 464.282C270.584 463.572 271.742 463.217 273.003 463.217ZM287.691 484.097C284.713 484.097 282.36 483.191 280.633 481.378C278.915 479.564 278.059 477.046 278.059 473.823C278.059 470.576 278.854 467.995 280.447 466.085C282.054 464.174 284.204 463.217 286.901 463.217C289.425 463.217 291.42 464.049 292.893 465.718C294.361 467.372 295.098 469.56 295.098 472.279V474.209H281.221C281.282 476.573 281.875 478.368 283.002 479.594C284.143 480.82 285.741 481.432 287.799 481.432C289.969 481.432 292.114 480.98 294.234 480.072V482.794C293.154 483.257 292.133 483.589 291.164 483.784C290.209 483.994 289.051 484.097 287.691 484.097ZM286.863 465.772C285.247 465.772 283.953 466.299 282.986 467.353C282.028 468.407 281.466 469.865 281.294 471.726H291.825C291.825 469.804 291.397 468.334 290.54 467.315C289.682 466.287 288.456 465.772 286.863 465.772ZM314.103 483.73V470.698C314.103 469.056 313.729 467.83 312.983 467.021C312.235 466.214 311.063 465.809 309.471 465.809C307.365 465.809 305.819 466.379 304.84 467.517C303.859 468.658 303.37 470.538 303.37 473.162V483.73H300.318V463.586H302.798L303.295 466.341H303.443C304.069 465.35 304.944 464.583 306.071 464.045C307.198 463.492 308.454 463.217 309.84 463.217C312.266 463.217 314.091 463.805 315.317 464.981C316.543 466.146 317.155 468.014 317.155 470.588V483.73H314.103ZM329.949 481.58C330.488 481.58 331.008 481.542 331.511 481.469C332.012 481.385 332.41 481.298 332.704 481.213V483.547C332.375 483.707 331.883 483.834 331.234 483.933C330.598 484.043 330.022 484.097 329.507 484.097C325.611 484.097 323.662 482.046 323.662 477.94V465.955H320.776V464.485L323.662 463.217L324.947 458.916H326.712V463.586H332.558V465.955H326.712V477.811C326.712 479.025 327.001 479.956 327.577 480.606C328.152 481.255 328.942 481.58 329.949 481.58Z" fill="#79799E"/>
<path d="M217.199 634.215C217.199 636.58 216.341 638.424 214.626 639.746C212.91 641.071 210.582 641.732 207.641 641.732C204.455 641.732 202.004 641.323 200.289 640.502V637.488C201.392 637.951 202.593 638.321 203.892 638.589C205.191 638.859 206.477 638.994 207.752 638.994C209.835 638.994 211.403 638.603 212.457 637.817C213.511 637.022 214.038 635.918 214.038 634.509C214.038 633.577 213.848 632.818 213.468 632.229C213.1 631.629 212.475 631.079 211.593 630.575C210.723 630.074 209.394 629.503 207.604 628.867C205.105 627.971 203.316 626.912 202.237 625.686C201.171 624.461 200.638 622.861 200.638 620.889C200.638 618.819 201.416 617.169 202.973 615.944C204.529 614.718 206.587 614.106 209.149 614.106C211.82 614.106 214.277 614.595 216.519 615.577L215.545 618.296C213.327 617.365 211.17 616.901 209.075 616.901C207.421 616.901 206.128 617.256 205.197 617.967C204.265 618.677 203.8 619.663 203.8 620.924C203.8 621.856 203.971 622.623 204.314 623.223C204.657 623.811 205.233 624.357 206.042 624.858C206.863 625.35 208.113 625.893 209.792 626.496C212.61 627.5 214.546 628.578 215.6 629.731C216.666 630.881 217.199 632.378 217.199 634.215ZM234.625 641.365L234.018 638.497H233.871C232.866 639.761 231.861 640.617 230.856 641.071C229.864 641.511 228.62 641.732 227.125 641.732C225.128 641.732 223.559 641.219 222.42 640.189C221.292 639.158 220.728 637.695 220.728 635.796C220.728 631.728 223.982 629.594 230.489 629.399L233.908 629.288V628.039C233.908 626.458 233.565 625.293 232.878 624.548C232.204 623.788 231.12 623.407 229.625 623.407C227.946 623.407 226.047 623.922 223.927 624.95L222.989 622.616C223.982 622.077 225.066 621.654 226.243 621.348C227.431 621.042 228.62 620.889 229.809 620.889C232.21 620.889 233.987 621.421 235.139 622.489C236.303 623.555 236.885 625.263 236.885 627.616V641.365H234.625ZM227.732 639.215C229.631 639.215 231.12 638.695 232.198 637.652C233.289 636.61 233.834 635.151 233.834 633.276V631.458L230.783 631.587C228.357 631.672 226.604 632.053 225.526 632.726C224.46 633.387 223.927 634.422 223.927 635.831C223.927 636.935 224.258 637.775 224.919 638.351C225.593 638.928 226.531 639.215 227.732 639.215ZM247.601 641.365L239.955 621.221H243.227L247.565 633.168C248.545 635.961 249.121 637.775 249.292 638.608H249.44C249.574 637.958 249.997 636.617 250.708 634.582C251.431 632.535 253.042 628.081 255.542 621.221H258.814L251.167 641.365H247.601ZM265.1 641.365H262.049V621.221H265.1V641.365ZM261.792 615.76C261.792 615.061 261.963 614.553 262.306 614.235C262.649 613.904 263.078 613.739 263.593 613.739C264.083 613.739 264.506 613.904 264.861 614.235C265.217 614.565 265.394 615.075 265.394 615.76C265.394 616.447 265.217 616.962 264.861 617.303C264.506 617.635 264.083 617.8 263.593 617.8C263.078 617.8 262.649 617.635 262.306 617.303C261.963 616.962 261.792 616.447 261.792 615.76ZM285.355 641.365V628.333C285.355 626.691 284.983 625.465 284.235 624.656C283.487 623.849 282.318 623.444 280.725 623.444C278.617 623.444 277.073 624.014 276.092 625.152C275.111 626.293 274.622 628.173 274.622 630.797V641.365H271.57V621.221H274.052L274.549 623.976H274.695C275.32 622.985 276.196 622.218 277.323 621.68C278.45 621.127 279.706 620.851 281.092 620.851C283.517 620.851 285.343 621.44 286.569 622.616C287.795 623.781 288.407 625.649 288.407 628.223V641.365H285.355ZM311.181 621.221V623.15L307.45 623.59C307.793 624.021 308.099 624.583 308.37 625.282C308.638 625.969 308.774 626.745 308.774 627.616C308.774 629.59 308.099 631.164 306.751 632.34C305.403 633.516 303.554 634.105 301.201 634.105C300.601 634.105 300.036 634.055 299.509 633.959C298.21 634.643 297.561 635.507 297.561 636.549C297.561 637.102 297.787 637.511 298.241 637.782C298.695 638.038 299.472 638.168 300.575 638.168H304.142C306.323 638.168 307.996 638.627 309.16 639.546C310.337 640.464 310.925 641.8 310.925 643.553C310.925 645.784 310.028 647.48 308.24 648.645C306.452 649.821 303.841 650.409 300.41 650.409C297.775 650.409 295.74 649.917 294.307 648.939C292.886 647.958 292.176 646.574 292.176 644.784C292.176 643.558 292.566 642.499 293.352 641.605C294.136 640.709 295.239 640.104 296.66 639.784C296.145 639.551 295.71 639.191 295.354 638.699C295.013 638.21 294.841 637.641 294.841 636.991C294.841 636.255 295.037 635.613 295.43 635.06C295.82 634.509 296.439 633.975 297.286 633.462C296.244 633.032 295.392 632.302 294.731 631.274C294.081 630.244 293.757 629.067 293.757 627.745C293.757 625.538 294.418 623.842 295.74 622.654C297.065 621.451 298.94 620.851 301.366 620.851C302.42 620.851 303.37 620.974 304.215 621.221H311.181ZM295.117 644.748C295.117 645.838 295.575 646.666 296.495 647.228C297.413 647.793 298.73 648.075 300.446 648.075C303.008 648.075 304.902 647.689 306.125 646.915C307.365 646.155 307.984 645.12 307.984 643.81C307.984 642.72 307.645 641.96 306.972 641.53C306.297 641.113 305.029 640.906 303.168 640.906H299.509C298.123 640.906 297.046 641.236 296.274 641.899C295.502 642.56 295.117 643.508 295.117 644.748ZM296.771 627.672C296.771 629.081 297.168 630.147 297.966 630.869C298.761 631.592 299.872 631.954 301.293 631.954C304.269 631.954 305.758 630.507 305.758 627.616C305.758 624.59 304.252 623.077 301.236 623.077C299.803 623.077 298.7 623.463 297.928 624.235C297.156 625.006 296.771 626.152 296.771 627.672ZM328.312 635.869C328.312 637.744 327.613 639.191 326.218 640.208C324.82 641.224 322.858 641.732 320.336 641.732C317.663 641.732 315.581 641.311 314.085 640.464V637.634C315.054 638.123 316.089 638.509 317.193 638.791C318.308 639.074 319.378 639.215 320.409 639.215C322.002 639.215 323.227 638.963 324.084 638.462C324.943 637.947 325.371 637.168 325.371 636.126C325.371 635.342 325.027 634.674 324.343 634.123C323.667 633.559 322.345 632.898 320.371 632.138C318.496 631.439 317.162 630.832 316.364 630.319C315.581 629.792 314.993 629.197 314.6 628.536C314.221 627.874 314.03 627.084 314.03 626.164C314.03 624.522 314.699 623.23 316.033 622.287C317.369 621.329 319.202 620.851 321.529 620.851C323.698 620.851 325.818 621.294 327.888 622.176L326.806 624.656C324.783 623.823 322.952 623.407 321.31 623.407C319.863 623.407 318.774 623.635 318.037 624.086C317.301 624.541 316.934 625.166 316.934 625.962C316.934 626.5 317.07 626.962 317.338 627.34C317.621 627.721 318.068 628.081 318.68 628.425C319.294 628.768 320.47 629.265 322.209 629.914C324.599 630.785 326.211 631.66 327.044 632.542C327.888 633.425 328.312 634.533 328.312 635.869Z" fill="#79799E"/>
<path d="M217.199 796.556C217.199 798.92 216.341 800.765 214.626 802.087C212.91 803.412 210.582 804.073 207.641 804.073C204.455 804.073 202.004 803.663 200.289 802.842V799.828C201.392 800.292 202.593 800.661 203.892 800.929C205.191 801.2 206.477 801.334 207.752 801.334C209.835 801.334 211.403 800.944 212.457 800.158C213.511 799.363 214.038 798.259 214.038 796.85C214.038 795.918 213.848 795.158 213.468 794.57C213.1 793.97 212.475 793.419 211.593 792.916C210.723 792.415 209.394 791.843 207.604 791.208C205.105 790.311 203.316 789.253 202.237 788.027C201.171 786.801 200.638 785.201 200.638 783.23C200.638 781.159 201.416 779.51 202.973 778.284C204.529 777.058 206.587 776.447 209.149 776.447C211.82 776.447 214.277 776.936 216.519 777.917L215.545 780.637C213.327 779.705 211.17 779.242 209.075 779.242C207.421 779.242 206.128 779.597 205.197 780.307C204.265 781.018 203.8 782.004 203.8 783.265C203.8 784.197 203.971 784.964 204.314 785.564C204.657 786.152 205.233 786.698 206.042 787.199C206.863 787.69 208.113 788.234 209.792 788.836C212.61 789.841 214.546 790.918 215.6 792.071C216.666 793.222 217.199 794.718 217.199 796.556ZM234.625 803.706L234.018 800.838H233.871C232.866 802.101 231.861 802.958 230.856 803.412C229.864 803.852 228.62 804.073 227.125 804.073C225.128 804.073 223.559 803.56 222.42 802.529C221.292 801.499 220.728 800.035 220.728 798.137C220.728 794.069 223.982 791.935 230.489 791.74L233.908 791.629V790.38C233.908 788.799 233.565 787.634 232.878 786.888C232.204 786.128 231.12 785.747 229.625 785.747C227.946 785.747 226.047 786.262 223.927 787.291L222.989 784.957C223.982 784.418 225.066 783.994 226.243 783.688C227.431 783.383 228.62 783.23 229.809 783.23C232.21 783.23 233.987 783.761 235.139 784.829C236.303 785.895 236.885 787.603 236.885 789.956V803.706H234.625ZM227.732 801.555C229.631 801.555 231.12 801.035 232.198 799.993C233.289 798.951 233.834 797.492 233.834 795.617V793.798L230.783 793.928C228.357 794.012 226.604 794.393 225.526 795.066C224.46 795.728 223.927 796.763 223.927 798.172C223.927 799.275 224.258 800.115 224.919 800.692C225.593 801.268 226.531 801.555 227.732 801.555ZM247.601 803.706L239.955 783.561H243.227L247.565 795.509C248.545 798.301 249.121 800.115 249.292 800.948H249.44C249.574 800.299 249.997 798.958 250.708 796.923C251.431 794.876 253.042 790.422 255.542 783.561H258.814L251.167 803.706H247.601ZM265.1 803.706H262.049V783.561H265.1V803.706ZM261.792 778.101C261.792 777.402 261.963 776.894 262.306 776.576C262.649 776.244 263.078 776.08 263.593 776.08C264.083 776.08 264.506 776.244 264.861 776.576C265.217 776.905 265.394 777.416 265.394 778.101C265.394 778.788 265.217 779.303 264.861 779.644C264.506 779.976 264.083 780.14 263.593 780.14C263.078 780.14 262.649 779.976 262.306 779.644C261.963 779.303 261.792 778.788 261.792 778.101ZM285.355 803.706V790.674C285.355 789.032 284.983 787.806 284.235 786.996C283.487 786.189 282.318 785.785 280.725 785.785C278.617 785.785 277.073 786.354 276.092 787.493C275.111 788.634 274.622 790.514 274.622 793.137V803.706H271.57V783.561H274.052L274.549 786.316H274.695C275.32 785.326 276.196 784.559 277.323 784.02C278.45 783.467 279.706 783.192 281.092 783.192C283.517 783.192 285.343 783.78 286.569 784.957C287.795 786.121 288.407 787.989 288.407 790.563V803.706H285.355ZM311.181 783.561V785.491L307.45 785.931C307.793 786.361 308.099 786.923 308.37 787.622C308.638 788.309 308.774 789.086 308.774 789.956C308.774 791.93 308.099 793.504 306.751 794.681C305.403 795.857 303.554 796.445 301.201 796.445C300.601 796.445 300.036 796.396 299.509 796.299C298.21 796.984 297.561 797.847 297.561 798.89C297.561 799.443 297.787 799.852 298.241 800.122C298.695 800.379 299.472 800.508 300.575 800.508H304.142C306.323 800.508 307.996 800.967 309.16 801.887C310.337 802.805 310.925 804.141 310.925 805.894C310.925 808.124 310.028 809.821 308.24 810.985C306.452 812.162 303.841 812.75 300.41 812.75C297.775 812.75 295.74 812.258 294.307 811.279C292.886 810.298 292.176 808.915 292.176 807.124C292.176 805.898 292.566 804.84 293.352 803.946C294.136 803.049 295.239 802.445 296.66 802.125C296.145 801.892 295.71 801.532 295.354 801.04C295.013 800.551 294.841 799.981 294.841 799.332C294.841 798.595 295.037 797.953 295.43 797.4C295.82 796.85 296.439 796.316 297.286 795.803C296.244 795.372 295.392 794.643 294.731 793.615C294.081 792.584 293.757 791.408 293.757 790.086C293.757 787.879 294.418 786.182 295.74 784.994C297.065 783.792 298.94 783.192 301.366 783.192C302.42 783.192 303.37 783.314 304.215 783.561H311.181ZM295.117 807.089C295.117 808.178 295.575 809.006 296.495 809.569C297.413 810.133 298.73 810.416 300.446 810.416C303.008 810.416 304.902 810.03 306.125 809.256C307.365 808.496 307.984 807.461 307.984 806.15C307.984 805.061 307.645 804.301 306.972 803.87C306.297 803.454 305.029 803.247 303.168 803.247H299.509C298.123 803.247 297.046 803.576 296.274 804.24C295.502 804.901 295.117 805.849 295.117 807.089ZM296.771 790.013C296.771 791.422 297.168 792.488 297.966 793.21C298.761 793.932 299.872 794.295 301.293 794.295C304.269 794.295 305.758 792.848 305.758 789.956C305.758 786.931 304.252 785.418 301.236 785.418C299.803 785.418 298.7 785.804 297.928 786.575C297.156 787.347 296.771 788.493 296.771 790.013ZM328.312 798.21C328.312 800.085 327.613 801.532 326.218 802.548C324.82 803.565 322.858 804.073 320.336 804.073C317.663 804.073 315.581 803.652 314.085 802.805V799.974C315.054 800.464 316.089 800.849 317.193 801.132C318.308 801.414 319.378 801.555 320.409 801.555C322.002 801.555 323.227 801.304 324.084 800.802C324.943 800.287 325.371 799.508 325.371 798.466C325.371 797.683 325.027 797.014 324.343 796.464C323.667 795.899 322.345 795.238 320.371 794.478C318.496 793.779 317.162 793.172 316.364 792.659C315.581 792.132 314.993 791.537 314.6 790.876C314.221 790.215 314.03 789.424 314.03 788.505C314.03 786.862 314.699 785.571 316.033 784.627C317.369 783.67 319.202 783.192 321.529 783.192C323.698 783.192 325.818 783.634 327.888 784.517L326.806 786.996C324.783 786.164 322.952 785.747 321.31 785.747C319.863 785.747 318.774 785.975 318.037 786.427C317.301 786.881 316.934 787.507 316.934 788.302C316.934 788.841 317.07 789.302 317.338 789.681C317.621 790.062 318.068 790.422 318.68 790.766C319.294 791.109 320.47 791.605 322.209 792.255C324.599 793.125 326.211 794.001 327.044 794.883C327.888 795.765 328.312 796.873 328.312 798.21Z" fill="#79799E"/>
<path d="M210.417 403.369L209.626 410.63L216.942 408.588L217.42 411.933L210.417 412.505L214.975 418.495L211.814 420.224L208.579 413.571L205.638 420.224L202.403 418.495L206.851 412.505L199.921 411.933L200.454 408.588L207.641 410.63L206.851 403.369H210.417ZM231.187 403.369L230.397 410.63L237.712 408.588L238.19 411.933L231.187 412.505L235.746 418.495L232.584 420.224L229.349 413.571L226.408 420.224L223.173 418.495L227.621 412.505L220.692 411.933L221.225 408.588L228.412 410.63L227.621 403.369H231.187ZM251.958 403.369L251.167 410.63L258.483 408.588L258.961 411.933L251.958 412.505L256.516 418.495L253.355 420.224L250.12 413.571L247.179 420.224L243.944 418.495L248.392 412.505L241.462 411.933L241.995 408.588L249.182 410.63L248.392 403.369H251.958ZM262.196 423.276V420.481H271.221V423.276H262.196ZM278.021 431.969L289.162 407.908H274.511V405.096H292.397V407.541L281.405 431.969H278.021ZM313.974 418.495C313.974 423.139 313.24 426.607 311.769 428.899C310.311 431.191 308.076 432.336 305.059 432.336C302.168 432.336 299.968 431.167 298.462 428.826C296.954 426.473 296.201 423.031 296.201 418.495C296.201 413.815 296.931 410.34 298.387 408.075C299.846 405.807 302.071 404.673 305.059 404.673C307.977 404.673 310.188 405.856 311.696 408.221C313.216 410.585 313.974 414.011 313.974 418.495ZM299.288 418.495C299.288 422.405 299.749 425.255 300.667 427.043C301.587 428.819 303.05 429.708 305.059 429.708C307.094 429.708 308.565 428.807 309.471 427.007C310.391 425.193 310.849 422.356 310.849 418.495C310.849 414.637 310.391 411.811 309.471 410.023C308.565 408.221 307.094 407.319 305.059 407.319C303.05 407.319 301.587 408.209 300.667 409.985C299.749 411.75 299.288 414.587 299.288 418.495ZM329.01 431.969H326.032V412.815C326.032 411.223 326.081 409.717 326.18 408.296C325.924 408.552 325.634 408.821 325.317 409.103C324.997 409.385 323.54 410.58 320.94 412.688L319.324 410.592L326.437 405.096H329.01V431.969Z" fill="#353550"/>
<path d="M210.417 561.004L209.626 568.265L216.942 566.223L217.42 569.568L210.417 570.14L214.975 576.13L211.814 577.859L208.579 571.206L205.638 577.859L202.403 576.13L206.851 570.14L199.921 569.568L200.454 566.223L207.641 568.265L206.851 561.004H210.417ZM231.187 561.004L230.397 568.265L237.712 566.223L238.19 569.568L231.187 570.14L235.746 576.13L232.584 577.859L229.349 571.206L226.408 577.859L223.173 576.13L227.621 570.14L220.692 569.568L221.225 566.223L228.412 568.265L227.621 561.004H231.187ZM251.958 561.004L251.167 568.265L258.483 566.223L258.961 569.568L251.958 570.14L256.516 576.13L253.355 577.859L250.12 571.206L247.179 577.859L243.944 576.13L248.392 570.14L241.462 569.568L241.995 566.223L249.182 568.265L248.392 561.004H251.958ZM262.196 580.911V578.116H271.221V580.911H262.196ZM278.021 589.604L289.162 565.543H274.511V562.731H292.397V565.176L281.405 589.604H278.021ZM313.974 576.13C313.974 580.774 313.24 584.242 311.769 586.534C310.311 588.826 308.076 589.971 305.059 589.971C302.168 589.971 299.968 588.802 298.462 586.461C296.954 584.108 296.201 580.666 296.201 576.13C296.201 571.45 296.931 567.975 298.387 565.71C299.846 563.442 302.071 562.308 305.059 562.308C307.977 562.308 310.188 563.491 311.696 565.856C313.216 568.22 313.974 571.646 313.974 576.13ZM299.288 576.13C299.288 580.04 299.749 582.89 300.667 584.678C301.587 586.454 303.05 587.343 305.059 587.343C307.094 587.343 308.565 586.442 309.471 584.642C310.391 582.828 310.849 579.991 310.849 576.13C310.849 572.272 310.391 569.446 309.471 567.658C308.565 565.856 307.094 564.954 305.059 564.954C303.05 564.954 301.587 565.844 300.667 567.62C299.749 569.385 299.288 572.222 299.288 576.13ZM335.37 589.604H317.705V586.976L324.783 579.862C326.94 577.681 328.361 576.125 329.048 575.194C329.733 574.262 330.248 573.356 330.591 572.474C330.935 571.592 331.107 570.641 331.107 569.625C331.107 568.189 330.671 567.058 329.801 566.223C328.93 565.378 327.723 564.954 326.18 564.954C325.065 564.954 324.004 565.14 322.999 565.507C322.006 565.874 320.898 566.543 319.672 567.51L318.056 565.434C320.531 563.376 323.227 562.345 326.142 562.345C328.667 562.345 330.646 562.995 332.081 564.293C333.514 565.58 334.231 567.314 334.231 569.495C334.231 571.199 333.754 572.883 332.796 574.551C331.841 576.217 330.053 578.325 327.429 580.873L321.547 586.626V586.774H335.37V589.604Z" fill="#353550"/>
<path d="M210.417 723.345L209.626 730.605L216.942 728.563L217.42 731.909L210.417 732.48L214.975 738.471L211.814 740.2L208.579 733.546L205.638 740.2L202.403 738.471L206.851 732.48L199.921 731.909L200.454 728.563L207.641 730.605L206.851 723.345H210.417ZM231.187 723.345L230.397 730.605L237.712 728.563L238.19 731.909L231.187 732.48L235.746 738.471L232.584 740.2L229.349 733.546L226.408 740.2L223.173 738.471L227.621 732.48L220.692 731.909L221.225 728.563L228.412 730.605L227.621 723.345H231.187ZM251.958 723.345L251.167 730.605L258.483 728.563L258.961 731.909L251.958 732.48L256.516 738.471L253.355 740.2L250.12 733.546L247.179 740.2L243.944 738.471L248.392 732.48L241.462 731.909L241.995 728.563L249.182 730.605L248.392 723.345H251.958ZM262.196 743.251V740.456H271.221V743.251H262.196ZM278.021 751.945L289.162 727.883H274.511V725.072H292.397V727.516L281.405 751.945H278.021ZM313.974 738.471C313.974 743.115 313.24 746.583 311.769 748.875C310.311 751.166 308.076 752.312 305.059 752.312C302.168 752.312 299.968 751.143 298.462 748.802C296.954 746.449 296.201 743.007 296.201 738.471C296.201 733.791 296.931 730.316 298.387 728.05C299.846 725.782 302.071 724.648 305.059 724.648C307.977 724.648 310.188 725.832 311.696 728.196C313.216 730.561 313.974 733.986 313.974 738.471ZM299.288 738.471C299.288 742.381 299.749 745.23 300.667 747.018C301.587 748.795 303.05 749.684 305.059 749.684C307.094 749.684 308.565 748.783 309.471 746.983C310.391 745.169 310.849 742.332 310.849 738.471C310.849 734.612 310.391 731.786 309.471 729.998C308.565 728.196 307.094 727.295 305.059 727.295C303.05 727.295 301.587 728.184 300.667 729.961C299.749 731.725 299.288 734.563 299.288 738.471ZM334.358 731.396C334.358 733.111 333.876 734.513 332.907 735.605C331.951 736.694 330.591 737.424 328.827 737.791V737.939C330.984 738.207 332.582 738.894 333.624 739.998C334.666 741.101 335.186 742.546 335.186 744.336C335.186 746.896 334.297 748.87 332.521 750.253C330.744 751.627 328.22 752.312 324.947 752.312C323.526 752.312 322.223 752.201 321.032 751.983C319.856 751.773 318.71 751.399 317.597 750.86V747.957C318.759 748.531 319.997 748.973 321.31 749.279C322.632 749.573 323.881 749.722 325.058 749.722C329.702 749.722 332.024 747.901 332.024 744.261C332.024 741.002 329.465 739.372 324.343 739.372H321.696V736.744H324.378C326.474 736.744 328.135 736.285 329.361 735.365C330.584 734.433 331.199 733.146 331.199 731.504C331.199 730.194 330.744 729.165 329.839 728.417C328.942 727.669 327.723 727.295 326.18 727.295C325.004 727.295 323.896 727.455 322.853 727.775C321.811 728.093 320.623 728.681 319.286 729.54L317.743 727.481C318.847 726.61 320.115 725.93 321.547 725.439C322.994 724.938 324.514 724.686 326.107 724.686C328.716 724.686 330.744 725.286 332.191 726.488C333.636 727.676 334.358 729.311 334.358 731.396Z" fill="#353550"/>
<path d="M740.719 1615.05H192.391C186.581 1615.05 181.871 1619.76 181.871 1625.57C181.871 1631.38 186.581 1636.09 192.391 1636.09H740.719C746.529 1636.09 751.239 1631.38 751.239 1625.57C751.239 1619.76 746.529 1615.05 740.719 1615.05Z" fill="#ECEEF8"/>
<path d="M192.526 1615.05H192.391C186.581 1615.05 181.871 1619.76 181.871 1625.57C181.871 1631.38 186.581 1636.09 192.391 1636.09H192.526C198.336 1636.09 203.046 1631.38 203.046 1625.57C203.046 1619.76 198.336 1615.05 192.526 1615.05Z" fill="#3634E3"/>
<path d="M207.163 1598.94L203.818 1590.39H193.047L189.738 1598.94H186.577L197.201 1571.95H199.829L210.398 1598.94H207.163ZM202.844 1587.58L199.719 1579.25C199.315 1578.2 198.898 1576.91 198.469 1575.37C198.2 1576.55 197.813 1577.84 197.311 1579.25L194.15 1587.58H202.844ZM229.073 1598.94H214.093V1572.07H229.073V1574.84H217.218V1583.5H228.357V1586.26H217.218V1596.14H229.073V1598.94ZM256.498 1585.25C256.498 1589.68 255.291 1593.08 252.877 1595.43C250.475 1597.77 247.013 1598.94 242.491 1598.94H235.047V1572.07H243.282C247.46 1572.07 250.708 1573.22 253.024 1575.54C255.34 1577.86 256.498 1581.09 256.498 1585.25ZM253.189 1585.36C253.189 1581.85 252.307 1579.21 250.542 1577.43C248.79 1575.66 246.18 1574.77 242.712 1574.77H238.172V1596.24H241.977C245.702 1596.24 248.502 1595.32 250.377 1593.5C252.252 1591.66 253.189 1588.95 253.189 1585.36ZM281.734 1598.94H278.758V1579.78C278.758 1578.19 278.807 1576.69 278.904 1575.27C278.647 1575.52 278.358 1575.79 278.04 1576.07C277.723 1576.35 276.264 1577.55 273.666 1579.66L272.048 1577.56L279.162 1572.07H281.734V1598.94ZM300.373 1582.52C303.203 1582.52 305.429 1583.23 307.045 1584.64C308.676 1586.04 309.49 1587.95 309.49 1590.39C309.49 1593.17 308.603 1595.36 306.824 1596.93C305.059 1598.52 302.622 1599.31 299.509 1599.31C296.484 1599.31 294.173 1598.82 292.58 1597.85V1594.91C293.437 1595.46 294.503 1595.9 295.778 1596.22C297.053 1596.52 298.309 1596.68 299.547 1596.68C301.702 1596.68 303.375 1596.17 304.563 1595.15C305.765 1594.13 306.365 1592.66 306.365 1590.74C306.365 1586.99 304.069 1585.12 299.472 1585.12C298.309 1585.12 296.752 1585.3 294.804 1585.65L293.223 1584.64L294.234 1572.07H307.598V1574.88H296.843L296.164 1582.95C297.573 1582.66 298.975 1582.52 300.373 1582.52ZM327.742 1598.94H324.691V1570.34H327.742V1598.94ZM342.722 1599.31C339.746 1599.31 337.393 1598.4 335.664 1596.59C333.949 1594.77 333.09 1592.25 333.09 1589.03C333.09 1585.78 333.888 1583.2 335.481 1581.29C337.085 1579.38 339.236 1578.43 341.932 1578.43C344.456 1578.43 346.454 1579.26 347.924 1580.93C349.395 1582.58 350.131 1584.77 350.131 1587.49V1589.42H336.252C336.313 1591.78 336.909 1593.58 338.036 1594.8C339.174 1596.03 340.774 1596.64 342.833 1596.64C345.002 1596.64 347.146 1596.19 349.265 1595.28V1598C348.188 1598.47 347.164 1598.8 346.197 1598.99C345.242 1599.2 344.082 1599.31 342.722 1599.31ZM341.897 1580.98C340.278 1580.98 338.986 1581.51 338.017 1582.56C337.062 1583.62 336.497 1585.07 336.325 1586.93H346.858C346.858 1585.01 346.43 1583.54 345.572 1582.52C344.715 1581.5 343.489 1580.98 341.897 1580.98ZM364.431 1581.16H359.302V1598.94H356.251V1581.16H352.649V1579.78L356.251 1578.68V1577.56C356.251 1572.61 358.413 1570.14 362.74 1570.14C363.805 1570.14 365.055 1570.35 366.49 1570.78L365.699 1573.22C364.523 1572.84 363.518 1572.65 362.686 1572.65C361.533 1572.65 360.681 1573.04 360.13 1573.81C359.578 1574.57 359.302 1575.8 359.302 1577.49V1578.79H364.431V1581.16ZM374.614 1596.79C375.153 1596.79 375.673 1596.75 376.176 1596.68C376.677 1596.59 377.077 1596.51 377.371 1596.42V1598.76C377.04 1598.92 376.55 1599.04 375.901 1599.14C375.263 1599.25 374.687 1599.31 374.172 1599.31C370.276 1599.31 368.327 1597.25 368.327 1593.15V1581.16H365.441V1579.69L368.327 1578.43L369.614 1574.12H371.379V1578.79H377.223V1581.16H371.379V1593.02C371.379 1594.23 371.666 1595.16 372.242 1595.81C372.819 1596.46 373.609 1596.79 374.614 1596.79Z" fill="#353550"/>
<path d="M707.381 1592.76H703.393V1598.94H700.471V1592.76H687.402V1590.1L700.158 1571.92H703.393V1589.99H707.381V1592.76ZM700.471 1589.99V1581.05C700.471 1579.3 700.532 1577.32 700.655 1575.12H700.509C699.921 1576.29 699.368 1577.27 698.853 1578.04L690.453 1589.99H700.471ZM718.889 1571.68C721.34 1571.68 723.281 1572.25 724.716 1573.39C726.149 1574.53 726.867 1576.1 726.867 1578.11C726.867 1579.44 726.455 1580.64 725.634 1581.74C724.813 1582.82 723.502 1583.82 721.7 1584.71C723.881 1585.75 725.432 1586.85 726.352 1588C727.269 1589.14 727.73 1590.46 727.73 1591.97C727.73 1594.2 726.951 1595.99 725.396 1597.32C723.839 1598.64 721.707 1599.31 718.999 1599.31C716.131 1599.31 713.927 1598.68 712.381 1597.43C710.837 1596.17 710.066 1594.39 710.066 1592.08C710.066 1589.01 711.941 1586.61 715.691 1584.9C714 1583.94 712.786 1582.91 712.051 1581.81C711.315 1580.69 710.948 1579.45 710.948 1578.08C710.948 1576.13 711.666 1574.58 713.098 1573.43C714.545 1572.26 716.475 1571.68 718.889 1571.68ZM713.08 1592.16C713.08 1593.63 713.588 1594.77 714.607 1595.59C715.635 1596.41 717.075 1596.83 718.926 1596.83C720.752 1596.83 722.173 1596.4 723.189 1595.54C724.206 1594.68 724.716 1593.5 724.716 1592.01C724.716 1590.82 724.236 1589.77 723.281 1588.85C722.326 1587.92 720.66 1587.02 718.282 1586.14C716.456 1586.93 715.134 1587.8 714.312 1588.76C713.491 1589.7 713.08 1590.83 713.08 1592.16ZM718.851 1574.16C717.319 1574.16 716.119 1574.53 715.249 1575.27C714.378 1576 713.943 1576.98 713.943 1578.21C713.943 1579.33 714.305 1580.3 715.028 1581.11C715.752 1581.92 717.086 1582.73 719.034 1583.54C720.787 1582.8 722.025 1582.01 722.749 1581.16C723.484 1580.32 723.851 1579.33 723.851 1578.21C723.851 1576.97 723.404 1575.99 722.51 1575.27C721.627 1574.53 720.409 1574.16 718.851 1574.16ZM739.934 1582.52C742.764 1582.52 744.99 1583.23 746.606 1584.64C748.237 1586.04 749.051 1587.95 749.051 1590.39C749.051 1593.17 748.164 1595.36 746.388 1596.93C744.623 1598.52 742.183 1599.31 739.071 1599.31C736.045 1599.31 733.735 1598.82 732.142 1597.85V1594.91C732.998 1595.46 734.066 1595.9 735.339 1596.22C736.614 1596.52 737.871 1596.68 739.108 1596.68C741.263 1596.68 742.936 1596.17 744.127 1595.15C745.327 1594.13 745.927 1592.66 745.927 1590.74C745.927 1586.99 743.63 1585.12 739.033 1585.12C737.871 1585.12 736.313 1585.3 734.365 1585.65L732.784 1584.64L733.796 1572.07H747.159V1574.88H736.405L735.725 1582.95C737.134 1582.66 738.539 1582.52 739.934 1582.52Z" fill="#79799E"/>
<path d="M723.006 133.169C703.516 133.169 687.715 148.969 687.715 168.46C687.715 187.951 703.516 203.752 723.006 203.752C724.07 203.752 725.128 203.704 726.182 203.609C727.164 203.521 728.133 203.387 729.098 203.218L729.469 203.153C747.388 199.809 759.813 183.368 758.138 165.215C756.46 147.063 741.235 133.174 723.006 133.169ZM720.171 201.274H720.089C719.174 201.193 718.265 201.071 717.364 200.914C717.313 200.905 717.261 200.899 717.211 200.889C716.331 200.732 715.459 200.536 714.597 200.308L714.388 200.255C713.548 200.027 712.715 199.762 711.897 199.468C711.812 199.438 711.727 199.411 711.64 199.379C710.838 199.084 710.047 198.753 709.271 198.395C709.174 198.352 709.078 198.311 708.981 198.265C708.219 197.912 707.471 197.515 706.739 197.097C706.636 197.038 706.532 196.979 706.429 196.921C705.706 196.5 705.001 196.049 704.309 195.572C704.205 195.499 704.1 195.428 703.996 195.355C703.316 194.874 702.655 194.362 702.008 193.826L701.831 193.671V183.753C701.841 176.61 707.629 170.822 714.772 170.813H731.241C738.384 170.822 744.172 176.61 744.181 183.753V193.673L744.026 193.803C743.367 194.352 742.692 194.871 742 195.362C741.906 195.426 741.814 195.487 741.722 195.551C741.024 196.037 740.306 196.494 739.572 196.924C739.48 196.977 739.386 197.028 739.294 197.08C738.551 197.504 737.793 197.904 737.024 198.264C736.935 198.305 736.845 198.343 736.756 198.381C735.972 198.743 735.177 199.075 734.368 199.373C734.285 199.403 734.205 199.429 734.132 199.457C733.307 199.752 732.471 200.019 731.627 200.248L731.424 200.299C730.561 200.527 729.69 200.723 728.808 200.881C728.759 200.89 728.707 200.897 728.658 200.905C727.756 201.062 726.846 201.184 725.931 201.266H725.848C724.907 201.347 723.964 201.391 723.011 201.391C722.058 201.391 721.11 201.355 720.171 201.274ZM746.534 191.492V183.753C746.524 175.311 739.683 168.47 731.241 168.46H714.772C706.33 168.47 699.488 175.311 699.479 183.753V191.49C686.809 178.559 686.95 157.826 699.794 145.068C712.64 132.31 733.373 132.31 746.219 145.068C759.062 157.826 759.203 178.559 746.534 191.49V191.492Z" fill="#1210A2" stroke="#1210A2" stroke-width="0.6"/>
<path d="M723.006 142.58C716.51 142.58 711.242 147.846 711.242 154.344C711.242 160.841 716.51 166.107 723.006 166.107C729.502 166.107 734.77 160.841 734.77 154.344C734.763 147.849 729.5 142.587 723.006 142.58ZM723.006 163.755C717.809 163.755 713.595 159.541 713.595 154.344C713.595 149.146 717.809 144.933 723.006 144.933C728.203 144.933 732.417 149.146 732.417 154.344C732.412 159.539 728.201 163.749 723.006 163.755Z" fill="#1210A2" stroke="#1210A2" stroke-width="0.6"/>
<path d="M138.737 1566H107.367C103.044 1566 99.5245 1569.52 99.5245 1573.84V1636.58C99.5245 1640.91 103.044 1644.42 107.367 1644.42H138.737C143.063 1644.42 146.58 1640.91 146.58 1636.58V1573.84C146.58 1569.52 143.063 1566 138.737 1566ZM143.443 1636.58C143.443 1639.18 141.331 1641.29 138.737 1641.29H107.367C104.773 1641.29 102.661 1639.18 102.661 1636.58V1573.84C102.661 1571.25 104.773 1569.14 107.367 1569.14H138.737C141.331 1569.14 143.443 1571.25 143.443 1573.84V1636.58Z" fill="#3634E3"/>
<path d="M126.189 1572.27H119.915C119.049 1572.27 118.347 1572.98 118.347 1573.84C118.347 1574.71 119.049 1575.41 119.915 1575.41H126.189C127.055 1575.41 127.758 1574.71 127.758 1573.84C127.758 1572.98 127.055 1572.27 126.189 1572.27Z" fill="#3634E3"/>
<path d="M123.052 1635.02C122.186 1635.02 121.483 1635.72 121.483 1636.58C121.483 1637.45 122.186 1638.15 123.052 1638.15C123.918 1638.15 124.62 1637.45 124.62 1636.58C124.62 1635.72 123.918 1635.02 123.052 1635.02Z" fill="#3634E3"/>
<path d="M145.011 1578.55H101.093C100.227 1578.55 99.5245 1579.25 99.5245 1580.12C99.5245 1580.98 100.227 1581.69 101.093 1581.69H145.011C145.877 1581.69 146.58 1580.98 146.58 1580.12C146.58 1579.25 145.877 1578.55 145.011 1578.55Z" fill="#3634E3"/>
<path d="M145.011 1628.74H101.093C100.227 1628.74 99.5245 1629.44 99.5245 1630.31C99.5245 1631.17 100.227 1631.88 101.093 1631.88H145.011C145.877 1631.88 146.58 1631.17 146.58 1630.31C146.58 1629.44 145.877 1628.74 145.011 1628.74Z" fill="#3634E3"/>
<path d="M36 1566C36 1553.01 46.5337 1542.47 59.5276 1542.47H765.356C778.35 1542.47 788.883 1553.01 788.883 1566V1664.82H36V1566Z" fill="#F8F8FC"/>
<path d="M135.11 1618.05L121.582 1604.53L135.11 1618.05ZM126.091 1593.25C126.091 1595.32 125.683 1597.38 124.89 1599.29C124.097 1601.21 122.934 1602.95 121.468 1604.41C120.003 1605.88 118.263 1607.04 116.348 1607.83C114.433 1608.63 112.381 1609.04 110.308 1609.04C108.235 1609.04 106.183 1608.63 104.268 1607.83C102.353 1607.04 100.613 1605.88 99.1476 1604.41C97.6821 1602.95 96.5196 1601.21 95.7262 1599.29C94.9331 1597.38 94.5249 1595.32 94.5249 1593.25C94.5249 1589.07 96.1878 1585.05 99.1476 1582.09C102.108 1579.13 106.122 1577.47 110.308 1577.47C114.494 1577.47 118.508 1579.13 121.468 1582.09C124.428 1585.05 126.091 1589.07 126.091 1593.25Z" stroke="#9595B7" stroke-width="2" stroke-linecap="round" stroke-linejoin="round"/>
<path d="M581.84 1584.82L563.018 1603.64L553.607 1594.23L539.491 1608.35M563.018 1584.82H581.84H563.018ZM581.84 1584.82V1603.64V1584.82Z" stroke="#9595B7" stroke-width="2" stroke-linecap="round" stroke-linejoin="round"/>
<path d="M270.925 1601.61C270.925 1604.05 270.032 1606.06 268.246 1607.65C266.46 1609.23 263.882 1610.21 260.512 1610.58V1616.06H257.15V1610.73C252.972 1610.66 249.543 1610.02 246.864 1608.81V1603.48C248.313 1604.18 250.006 1604.78 251.944 1605.27C253.882 1605.74 255.617 1605.99 257.15 1606V1596.55L255.028 1595.77C252.264 1594.71 250.242 1593.44 248.962 1591.98C247.698 1590.49 247.066 1588.67 247.066 1586.49C247.066 1584.17 247.968 1582.26 249.77 1580.75C251.59 1579.26 254.05 1578.35 257.15 1578.03V1573.78H260.512V1577.95C263.932 1578.07 267.176 1578.76 270.242 1580.02L268.397 1584.65C265.752 1583.6 263.123 1582.98 260.512 1582.78V1591.98L262.433 1592.71C265.634 1593.94 267.85 1595.24 269.08 1596.6C270.31 1597.97 270.925 1599.64 270.925 1601.61ZM264.96 1601.99C264.96 1601.01 264.615 1600.21 263.924 1599.58C263.25 1598.94 262.112 1598.33 260.512 1597.74V1605.8C263.477 1605.35 264.96 1604.07 264.96 1601.99ZM253.006 1586.44C253.006 1587.4 253.3 1588.2 253.89 1588.84C254.497 1589.48 255.583 1590.12 257.15 1590.74V1582.88C255.803 1583.08 254.775 1583.49 254.067 1584.12C253.359 1584.74 253.006 1585.52 253.006 1586.44Z" fill="#1311C0"/>
<path d="M708.89 1594.23H708.913H708.89ZM718.301 1594.23H718.324H718.301ZM727.712 1594.23H727.735H727.712ZM739.475 1594.23C739.475 1604.63 729.994 1613.06 718.301 1613.06C714.84 1613.07 711.419 1612.3 708.29 1610.82L697.126 1613.06L700.408 1604.3C698.33 1601.39 697.126 1597.94 697.126 1594.23C697.126 1583.84 706.607 1575.41 718.301 1575.41C729.994 1575.41 739.475 1583.84 739.475 1594.23Z" stroke="#9595B7" stroke-width="2" stroke-linecap="round" stroke-linejoin="round"/>
<path d="M400.678 1568.48C396.714 1568.92 392.956 1570.48 389.836 1572.96C386.717 1575.45 384.364 1578.76 383.044 1582.53C381.727 1586.29 381.496 1590.35 382.383 1594.24C383.27 1598.12 385.234 1601.68 388.055 1604.5C390.876 1607.32 394.434 1609.29 398.323 1610.18C402.21 1611.06 406.271 1610.83 410.033 1609.51C413.797 1608.19 417.112 1605.84 419.597 1602.72C422.081 1599.6 423.634 1595.84 424.076 1591.88H400.678V1568.48Z" stroke="#9595B7" stroke-width="2" stroke-linecap="round" stroke-linejoin="round"/>
<path d="M423.001 1582.47H410.089V1569.56C413.065 1570.61 415.771 1572.32 418.004 1574.55C420.236 1576.79 421.945 1579.49 423.001 1582.47Z" stroke="#9595B7" stroke-width="2" stroke-linecap="round" stroke-linejoin="round"/>
<path d="M200.787 1622.48H207.768C211.006 1622.48 213.343 1622.95 214.78 1623.89C216.227 1624.84 216.951 1626.33 216.951 1628.37C216.951 1629.74 216.598 1630.88 215.89 1631.79C215.182 1632.7 214.164 1633.28 212.834 1633.51V1633.68C214.485 1633.99 215.697 1634.6 216.469 1635.52C217.252 1636.43 217.643 1637.67 217.643 1639.24C217.643 1641.35 216.903 1643.01 215.423 1644.21C213.954 1645.4 211.907 1645.99 209.28 1645.99H200.787V1622.48ZM204.631 1632.2H208.331C209.939 1632.2 211.113 1631.94 211.853 1631.44C212.593 1630.92 212.963 1630.06 212.963 1628.83C212.963 1627.73 212.56 1626.93 211.756 1626.44C210.963 1625.94 209.698 1625.7 207.961 1625.7H204.631V1632.2ZM204.631 1635.31V1642.76H208.717C210.325 1642.76 211.537 1642.46 212.352 1641.84C213.177 1641.22 213.59 1640.25 213.59 1638.92C213.59 1637.7 213.172 1636.79 212.335 1636.2C211.499 1635.61 210.228 1635.31 208.524 1635.31H204.631ZM233.26 1645.99L232.504 1643.52H232.375C231.517 1644.6 230.654 1645.34 229.786 1645.74C228.917 1646.12 227.802 1646.32 226.441 1646.32C224.693 1646.32 223.326 1645.84 222.339 1644.9C221.364 1643.96 220.876 1642.62 220.876 1640.9C220.876 1639.06 221.556 1637.68 222.918 1636.75C224.28 1635.81 226.355 1635.3 229.142 1635.22L232.214 1635.12V1634.17C232.214 1633.04 231.946 1632.19 231.41 1631.63C230.885 1631.06 230.065 1630.78 228.95 1630.78C228.038 1630.78 227.164 1630.91 226.328 1631.18C225.491 1631.45 224.687 1631.76 223.915 1632.13L222.693 1629.43C223.658 1628.92 224.714 1628.54 225.862 1628.29C227.009 1628.02 228.092 1627.88 229.11 1627.88C231.373 1627.88 233.077 1628.38 234.225 1629.36C235.383 1630.35 235.962 1631.9 235.962 1634.01V1645.99H233.26ZM227.631 1643.42C229.003 1643.42 230.102 1643.04 230.928 1642.28C231.764 1641.51 232.182 1640.43 232.182 1639.05V1637.5L229.898 1637.6C228.119 1637.66 226.821 1637.96 226.006 1638.5C225.202 1639.03 224.8 1639.83 224.8 1640.93C224.8 1641.72 225.036 1642.34 225.508 1642.78C225.979 1643.21 226.687 1643.42 227.631 1643.42ZM245.017 1645.99H241.237V1620.97H245.017V1645.99ZM261.566 1645.99L260.811 1643.52H260.682C259.824 1644.6 258.961 1645.34 258.092 1645.74C257.224 1646.12 256.109 1646.32 254.747 1646.32C252.999 1646.32 251.632 1645.84 250.646 1644.9C249.67 1643.96 249.182 1642.62 249.182 1640.9C249.182 1639.06 249.863 1637.68 251.225 1636.75C252.587 1635.81 254.661 1635.3 257.449 1635.22L260.521 1635.12V1634.17C260.521 1633.04 260.253 1632.19 259.717 1631.63C259.191 1631.06 258.371 1630.78 257.256 1630.78C256.345 1630.78 255.471 1630.91 254.635 1631.18C253.798 1631.45 252.994 1631.76 252.222 1632.13L251 1629.43C251.965 1628.92 253.021 1628.54 254.168 1628.29C255.315 1628.02 256.398 1627.88 257.417 1627.88C259.679 1627.88 261.384 1628.38 262.531 1629.36C263.689 1630.35 264.268 1631.9 264.268 1634.01V1645.99H261.566ZM255.937 1643.42C257.31 1643.42 258.409 1643.04 259.234 1642.28C260.071 1641.51 260.489 1640.43 260.489 1639.05V1637.5L258.205 1637.6C256.425 1637.66 255.128 1637.96 254.313 1638.5C253.509 1639.03 253.107 1639.83 253.107 1640.93C253.107 1641.72 253.343 1642.34 253.814 1642.78C254.286 1643.21 254.994 1643.42 255.937 1643.42ZM285.193 1645.99H281.398V1635.06C281.398 1633.68 281.118 1632.66 280.56 1631.99C280.014 1631.31 279.139 1630.97 277.939 1630.97C276.342 1630.97 275.172 1631.44 274.434 1632.39C273.692 1633.33 273.323 1634.91 273.323 1637.13V1645.99H269.544V1628.2H272.502L273.034 1630.54H273.227C273.763 1629.69 274.525 1629.04 275.511 1628.58C276.497 1628.12 277.591 1627.88 278.791 1627.88C283.059 1627.88 285.193 1630.06 285.193 1634.4V1645.99ZM297.625 1646.32C294.933 1646.32 292.886 1645.53 291.482 1643.97C290.087 1642.39 289.39 1640.13 289.39 1637.2C289.39 1634.2 290.119 1631.91 291.578 1630.3C293.046 1628.69 295.164 1627.88 297.931 1627.88C299.808 1627.88 301.495 1628.23 302.996 1628.93L301.855 1631.97C300.257 1631.35 298.938 1631.04 297.898 1631.04C294.82 1631.04 293.284 1633.08 293.284 1637.16C293.284 1639.16 293.663 1640.66 294.425 1641.67C295.197 1642.67 296.324 1643.16 297.801 1643.16C299.486 1643.16 301.079 1642.74 302.58 1641.91V1645.21C301.904 1645.6 301.18 1645.89 300.408 1646.06C299.646 1646.23 298.719 1646.32 297.625 1646.32ZM314.529 1646.32C311.763 1646.32 309.596 1645.51 308.031 1643.9C306.476 1642.28 305.699 1640.06 305.699 1637.23C305.699 1634.32 306.422 1632.04 307.871 1630.38C309.318 1628.72 311.306 1627.88 313.838 1627.88C316.186 1627.88 318.04 1628.6 319.402 1630.02C320.764 1631.45 321.444 1633.41 321.444 1635.91V1637.95H309.591C309.645 1639.68 310.111 1641.01 310.991 1641.94C311.871 1642.86 313.108 1643.32 314.706 1643.32C315.757 1643.32 316.732 1643.23 317.633 1643.03C318.543 1642.83 319.52 1642.5 320.559 1642.04V1645.11C319.637 1645.55 318.705 1645.86 317.762 1646.04C316.819 1646.22 315.741 1646.32 314.529 1646.32ZM313.838 1630.75C312.635 1630.75 311.671 1631.13 310.941 1631.89C310.224 1632.65 309.796 1633.76 309.654 1635.22H317.729C317.708 1633.75 317.355 1632.64 316.668 1631.89C315.981 1631.13 315.038 1630.75 313.838 1630.75Z" fill="#1311C0"/>
<path d="M117.222 167.369C119.669 168.143 121.586 169.448 122.972 171.284C124.359 173.078 125.052 175.3 125.052 177.951C125.052 181.703 123.584 184.599 120.648 186.638C117.752 188.636 113.511 189.635 107.924 189.635H85.7797V146.815H106.7C111.92 146.815 115.917 147.814 118.69 149.812C121.504 151.81 122.911 154.522 122.911 157.948C122.911 160.028 122.401 161.884 121.382 163.515C120.403 165.146 119.016 166.43 117.222 167.369ZM95.6283 154.278V164.371H105.477C107.924 164.371 109.779 163.943 111.044 163.087C112.308 162.23 112.94 160.966 112.94 159.294C112.94 157.622 112.308 156.378 111.044 155.562C109.779 154.706 107.924 154.278 105.477 154.278H95.6283ZM107.19 182.172C109.8 182.172 111.757 181.744 113.062 180.888C114.408 180.031 115.081 178.706 115.081 176.911C115.081 173.363 112.451 171.589 107.19 171.589H95.6283V182.172H107.19ZM143.933 156.235C149.03 156.235 152.945 157.459 155.678 159.906C158.41 162.312 159.776 165.962 159.776 170.855V189.635H150.845V185.537C149.051 188.595 145.707 190.124 140.813 190.124C138.284 190.124 136.082 189.696 134.206 188.84C132.371 187.983 130.964 186.801 129.985 185.292C129.007 183.783 128.517 182.07 128.517 180.153C128.517 177.095 129.659 174.689 131.943 172.935C134.267 171.182 137.836 170.305 142.648 170.305H150.233C150.233 168.225 149.601 166.634 148.337 165.533C147.073 164.392 145.176 163.821 142.648 163.821C140.894 163.821 139.161 164.106 137.448 164.677C135.776 165.207 134.349 165.941 133.166 166.879L129.741 160.211C131.535 158.947 133.676 157.969 136.164 157.275C138.692 156.582 141.282 156.235 143.933 156.235ZM143.199 183.701C144.83 183.701 146.277 183.334 147.542 182.6C148.806 181.826 149.703 180.704 150.233 179.236V175.871H143.688C139.773 175.871 137.815 177.156 137.815 179.725C137.815 180.949 138.284 181.927 139.222 182.661C140.201 183.355 141.526 183.701 143.199 183.701ZM167.189 144.246H176.732V189.635H167.189V144.246ZM197.639 156.235C202.737 156.235 206.652 157.459 209.384 159.906C212.117 162.312 213.483 165.962 213.483 170.855V189.635H204.552V185.537C202.758 188.595 199.413 190.124 194.52 190.124C191.991 190.124 189.789 189.696 187.913 188.84C186.078 187.983 184.671 186.801 183.692 185.292C182.713 183.783 182.224 182.07 182.224 180.153C182.224 177.095 183.366 174.689 185.65 172.935C187.974 171.182 191.543 170.305 196.355 170.305H203.94C203.94 168.225 203.308 166.634 202.044 165.533C200.78 164.392 198.883 163.821 196.355 163.821C194.601 163.821 192.868 164.106 191.155 164.677C189.483 165.207 188.056 165.941 186.873 166.879L183.447 160.211C185.242 158.947 187.383 157.969 189.871 157.275C192.399 156.582 194.989 156.235 197.639 156.235ZM196.905 183.701C198.537 183.701 199.984 183.334 201.248 182.6C202.513 181.826 203.41 180.704 203.94 179.236V175.871H197.395C193.48 175.871 191.522 177.156 191.522 179.725C191.522 180.949 191.991 181.927 192.929 182.661C193.908 183.355 195.233 183.701 196.905 183.701ZM240.899 156.235C244.978 156.235 248.26 157.459 250.748 159.906C253.276 162.352 254.541 165.982 254.541 170.794V189.635H244.998V172.262C244.998 169.652 244.427 167.715 243.285 166.451C242.143 165.146 240.492 164.493 238.33 164.493C235.924 164.493 234.007 165.248 232.58 166.757C231.153 168.225 230.439 170.427 230.439 173.363V189.635H220.896V156.725H230.011V160.578C231.275 159.192 232.845 158.132 234.721 157.398C236.597 156.623 238.656 156.235 240.899 156.235ZM278.231 190.124C274.723 190.124 271.563 189.411 268.749 187.983C265.976 186.515 263.794 184.497 262.203 181.927C260.654 179.358 259.879 176.442 259.879 173.18C259.879 169.917 260.654 167.002 262.203 164.432C263.794 161.863 265.976 159.865 268.749 158.437C271.563 156.969 274.723 156.235 278.231 156.235C281.696 156.235 284.715 156.969 287.284 158.437C289.893 159.865 291.79 161.924 292.973 164.616L285.571 168.592C283.859 165.574 281.391 164.065 278.17 164.065C275.68 164.065 273.622 164.881 271.991 166.512C270.36 168.143 269.544 170.366 269.544 173.18C269.544 175.994 270.36 178.216 271.991 179.848C273.622 181.479 275.68 182.294 278.17 182.294C281.431 182.294 283.899 180.786 285.571 177.768L292.973 181.805C291.79 184.415 289.893 186.454 287.284 187.922C284.715 189.39 281.696 190.124 278.231 190.124ZM329.062 173.302C329.062 173.425 329.001 174.281 328.879 175.871H303.982C304.431 177.911 305.492 179.521 307.163 180.704C308.836 181.887 310.915 182.478 313.402 182.478C315.115 182.478 316.626 182.233 317.929 181.744C319.275 181.214 320.519 180.398 321.66 179.297L326.738 184.802C323.639 188.35 319.112 190.124 313.158 190.124C309.447 190.124 306.165 189.411 303.309 187.983C300.455 186.515 298.253 184.497 296.702 181.927C295.154 179.358 294.378 176.442 294.378 173.18C294.378 169.958 295.133 167.063 296.641 164.493C298.192 161.884 300.293 159.865 302.942 158.437C305.633 156.969 308.631 156.235 311.934 156.235C315.157 156.235 318.072 156.929 320.682 158.315C323.293 159.702 325.331 161.7 326.799 164.31C328.309 166.879 329.062 169.877 329.062 173.302ZM311.995 163.454C309.835 163.454 308.019 164.065 306.551 165.289C305.083 166.512 304.186 168.184 303.859 170.305H320.07C319.745 168.225 318.846 166.573 317.378 165.35C315.91 164.086 314.117 163.454 311.995 163.454Z" fill="#F8F8FC"/>
<path d="M127.758 490.788C153.745 490.788 174.813 469.721 174.813 443.733C174.813 417.745 153.745 396.678 127.758 396.678C101.77 396.678 80.7024 417.745 80.7024 443.733C80.7024 469.721 101.77 490.788 127.758 490.788Z" fill="#0D2062"/>
<path d="M119.783 452.65C120.491 435.108 130.824 419.711 146.471 409.679H136.138C123.384 419.657 115.236 433.552 114.646 449.163C114.173 460.482 117.775 471.159 124.27 480.278H127.222C122.085 471.964 119.369 462.574 119.783 452.65Z" fill="white" stroke="#0A0F4E" stroke-width="0.1"/>
<path d="M132.478 409.679H124.389C115.415 417.297 109.215 428.348 107.798 441.062C106.086 456.567 111.872 470.942 122.205 480.332H124.979C116.064 471.051 111.163 457.692 112.758 443.422C114.293 429.207 121.909 417.135 132.478 409.679Z" fill="#FFA600"/>
<path d="M132.478 409.679H124.389C115.415 417.297 109.215 428.348 107.798 441.062C106.086 456.567 111.872 470.942 122.205 480.332H124.979C116.064 471.051 111.163 457.692 112.758 443.422C114.293 429.207 121.909 417.135 132.478 409.679Z" stroke="#FFA600" stroke-width="0.05"/>
<path d="M141.276 440.096C141.276 433.979 139.269 428.346 135.785 423.627C137.143 427.596 137.734 431.833 137.911 436.179C138.324 448.251 132.242 458.443 123.622 466.489C134.25 462.198 141.276 451.578 141.276 440.096Z" fill="white"/>
<path d="M134.899 447.285C134.663 442.994 133.069 439.023 130.471 435.804C131.534 438.594 132.124 441.545 132.419 444.655C133.187 453.186 129.29 460.642 123.622 466.597C130.825 463.11 135.313 455.386 134.899 447.285Z" fill="#FFA600" stroke="#FFA600" stroke-width="0.05"/>
<path d="M127.758 648.423C153.745 648.423 174.813 627.356 174.813 601.368C174.813 575.38 153.745 554.313 127.758 554.313C101.77 554.313 80.7024 575.38 80.7024 601.368C80.7024 627.356 101.77 648.423 127.758 648.423Z" fill="#0D2062"/>
<path d="M119.783 610.285C120.491 592.743 130.824 577.346 146.471 567.314H136.138C123.384 577.292 115.236 591.187 114.646 606.798C114.173 618.117 117.775 628.794 124.27 637.913H127.222C122.085 629.599 119.369 620.209 119.783 610.285Z" fill="white" stroke="#0A0F4E" stroke-width="0.1"/>
<path d="M132.478 567.314H124.389C115.415 574.932 109.215 585.983 107.798 598.697C106.086 614.202 111.872 628.578 122.205 637.967H124.979C116.064 628.686 111.163 615.327 112.758 601.057C114.293 586.842 121.909 574.77 132.478 567.314Z" fill="#FFA600"/>
<path d="M132.478 567.314H124.389C115.415 574.932 109.215 585.983 107.798 598.697C106.086 614.202 111.872 628.578 122.205 637.967H124.979C116.064 628.686 111.163 615.327 112.758 601.057C114.293 586.842 121.909 574.77 132.478 567.314Z" stroke="#FFA600" stroke-width="0.05"/>
<path d="M141.276 597.731C141.276 591.614 139.269 585.981 135.785 581.262C137.143 585.231 137.734 589.468 137.911 593.814C138.324 605.886 132.242 616.078 123.622 624.124C134.25 619.833 141.276 609.213 141.276 597.731Z" fill="white"/>
<path d="M134.899 604.92C134.663 600.629 133.069 596.658 130.471 593.439C131.534 596.229 132.124 599.18 132.419 602.29C133.187 610.821 129.29 618.277 123.622 624.232C130.825 620.745 135.313 613.021 134.899 604.92Z" fill="#FFA600" stroke="#FFA600" stroke-width="0.05"/>
<path d="M127.758 810.764C153.745 810.764 174.813 789.696 174.813 763.709C174.813 737.721 153.745 716.653 127.758 716.653C101.77 716.653 80.7024 737.721 80.7024 763.709C80.7024 789.696 101.77 810.764 127.758 810.764Z" fill="#0D2062"/>
<path d="M119.783 772.625C120.491 755.083 130.824 739.686 146.471 729.654H136.138C123.384 739.632 115.236 753.528 114.646 769.138C114.173 780.457 117.775 791.134 124.27 800.254H127.222C122.085 791.939 119.369 782.549 119.783 772.625Z" fill="white" stroke="#0A0F4E" stroke-width="0.1"/>
<path d="M132.478 729.654H124.389C115.415 737.273 109.215 748.323 107.798 761.038C106.086 776.542 111.872 790.92 122.205 800.308H124.979C116.064 791.026 111.163 777.669 112.758 763.398C114.293 749.182 121.909 737.11 132.478 729.654Z" fill="#FFA600"/>
<path d="M132.478 729.654H124.389C115.415 737.273 109.215 748.323 107.798 761.038C106.086 776.542 111.872 790.92 122.205 800.308H124.979C116.064 791.026 111.163 777.669 112.758 763.398C114.293 749.182 121.909 737.11 132.478 729.654Z" stroke="#FFA600" stroke-width="0.05"/>
<path d="M141.276 760.071C141.276 753.957 139.269 748.322 135.785 743.602C137.143 747.571 137.734 751.811 137.911 756.156C138.324 768.226 132.242 778.418 123.622 786.467C134.25 782.173 141.276 771.553 141.276 760.071Z" fill="white"/>
<path d="M134.899 767.261C134.663 762.97 133.069 758.998 130.471 755.78C131.534 758.57 132.124 761.52 132.419 764.631C133.187 773.162 129.29 780.618 123.622 786.572C130.825 783.086 135.313 775.362 134.899 767.261Z" fill="#FFA600" stroke="#FFA600" stroke-width="0.05"/>
<path d="M540.185 443.733L537.677 437.322H529.597L527.115 443.733H524.746L532.713 423.495H534.684L542.611 443.733H540.185ZM536.945 435.214L534.602 428.97C534.298 428.179 533.985 427.21 533.665 426.059C533.463 426.941 533.174 427.911 532.797 428.97L530.426 435.214H536.945ZM556.901 443.733H545.664V423.579H556.901V425.659H548.008V432.153H556.362V434.221H548.008V441.637H556.901V443.733ZM577.751 433.463C577.751 436.79 576.846 439.336 575.034 441.1C573.234 442.856 570.637 443.733 567.246 443.733H561.663V423.579H567.839C570.973 423.579 573.408 424.448 575.145 426.184C576.883 427.92 577.751 430.348 577.751 433.463ZM575.269 433.546C575.269 430.918 574.608 428.937 573.284 427.605C571.971 426.271 570.013 425.605 567.411 425.605H564.007V441.707H566.86C569.653 441.707 571.754 441.023 573.161 439.653C574.566 438.275 575.269 436.237 575.269 433.546Z" fill="#626189"/>
<path d="M594.367 581.214V594.256C594.367 596.552 593.675 598.359 592.287 599.672C590.899 600.987 588.991 601.643 586.565 601.643C584.139 601.643 582.259 600.982 580.928 599.658C579.603 598.335 578.942 596.517 578.942 594.199V581.214H581.285V594.364C581.285 596.046 581.744 597.338 582.664 598.239C583.582 599.14 584.934 599.589 586.718 599.589C588.417 599.589 589.727 599.14 590.645 598.239C591.565 597.328 592.023 596.027 592.023 594.338V581.214H594.367ZM611.372 596.006C611.372 597.78 610.728 599.161 609.443 600.154C608.156 601.147 606.41 601.643 604.204 601.643C601.813 601.643 599.976 601.335 598.689 600.721V598.46C599.517 598.808 600.418 599.084 601.392 599.286C602.366 599.488 603.331 599.589 604.286 599.589C605.848 599.589 607.025 599.295 607.815 598.707C608.606 598.11 609.001 597.284 609.001 596.225C609.001 595.529 608.86 594.957 608.573 594.517C608.297 594.065 607.829 593.653 607.168 593.277C606.514 592.898 605.519 592.472 604.175 591.995C602.3 591.322 600.959 590.529 600.15 589.609C599.352 588.689 598.952 587.492 598.952 586.012C598.952 584.457 599.536 583.221 600.703 582.301C601.87 581.384 603.413 580.925 605.333 580.925C607.337 580.925 609.18 581.292 610.862 582.026L610.133 584.066C608.469 583.37 606.85 583.019 605.279 583.019C604.039 583.019 603.07 583.285 602.371 583.819C601.672 584.353 601.321 585.092 601.321 586.038C601.321 586.736 601.451 587.31 601.707 587.762C601.966 588.202 602.397 588.612 603.004 588.988C603.62 589.357 604.556 589.764 605.818 590.216C607.93 590.969 609.382 591.778 610.173 592.642C610.973 593.505 611.372 594.628 611.372 596.006ZM631.865 591.098C631.865 594.425 630.959 596.971 629.148 598.735C627.348 600.491 624.75 601.368 621.36 601.368H615.777V581.214H621.953C625.087 581.214 627.522 582.083 629.258 583.819C630.997 585.555 631.865 587.983 631.865 591.098ZM629.383 591.181C629.383 588.553 628.722 586.572 627.397 585.24C626.084 583.906 624.127 583.24 621.525 583.24H618.12V599.342H620.974C623.767 599.342 625.868 598.658 627.275 597.289C628.679 595.91 629.383 593.872 629.383 591.181Z" fill="#626189"/>
<path d="M537.832 763.708L535.324 757.297H527.245L524.763 763.708H522.393L530.36 743.47H532.331L540.258 763.708H537.832ZM534.592 755.189L532.249 748.945C531.946 748.154 531.633 747.185 531.313 746.034C531.11 746.917 530.821 747.886 530.444 748.945L528.073 755.189H534.592ZM554.548 763.708H543.312V743.555H554.548V745.634H545.655V752.128H554.01V754.196H545.655V761.612H554.548V763.708ZM575.399 753.439C575.399 756.765 574.493 759.311 572.681 761.076C570.881 762.831 568.284 763.708 564.894 763.708H559.31V743.555H565.486C568.62 743.555 571.055 744.423 572.792 746.159C574.53 747.895 575.399 750.324 575.399 753.439ZM572.916 753.521C572.916 750.893 572.255 748.912 570.931 747.58C569.618 746.246 567.66 745.58 565.058 745.58H561.654V761.683H564.508C567.3 761.683 569.401 760.998 570.808 759.629C572.213 758.25 572.916 756.213 572.916 753.521Z" fill="#626189"/>
<path d="M500.188 937.813L497.68 931.401H489.601L487.118 937.813H484.749L492.716 917.574H494.687L502.614 937.813H500.188ZM496.948 929.293L494.605 923.049C494.301 922.259 493.988 921.289 493.668 920.139C493.466 921.021 493.177 921.99 492.8 923.049L490.429 929.293H496.948ZM516.904 937.813H505.668V917.659H516.904V919.739H508.011V926.232H516.366V928.3H508.011V935.716H516.904V937.813ZM537.754 927.543C537.754 930.87 536.849 933.415 535.037 935.18C533.237 936.935 530.64 937.813 527.249 937.813H521.666V917.659H527.842C530.976 917.659 533.411 918.527 535.148 920.263C536.886 922 537.754 924.428 537.754 927.543ZM535.272 927.625C535.272 924.997 534.611 923.016 533.287 921.684C531.974 920.35 530.016 919.685 527.414 919.685H524.01V935.787H526.864C529.656 935.787 531.757 935.102 533.164 933.733C534.569 932.354 535.272 930.317 535.272 927.625Z" fill="#626189"/>
<path d="M788.883 519.021H36" stroke="#F8F8FC" stroke-width="2"/>
<path d="M788.883 681.362H36" stroke="#F8F8FC" stroke-width="2"/>
<path d="M504.378 262.575C500.687 262.575 497.769 263.808 495.623 266.274C493.497 268.725 492.431 272.087 492.431 276.36C492.431 280.757 493.457 284.157 495.511 286.562C497.579 288.952 500.52 290.147 504.333 290.147C506.677 290.147 509.349 289.726 512.352 288.884V292.307C510.022 293.18 507.152 293.615 503.736 293.615C498.788 293.615 494.967 292.114 492.271 289.112C489.589 286.11 488.25 281.844 488.25 276.315C488.25 272.852 488.892 269.819 490.179 267.216C491.48 264.612 493.351 262.606 495.786 261.197C498.235 259.787 501.115 259.083 504.425 259.083C507.947 259.083 511.027 259.726 513.66 261.013L512.006 264.367C509.465 263.173 506.921 262.575 504.378 262.575ZM530.124 267.516C531.242 267.516 532.244 267.608 533.134 267.791L532.604 271.33C531.564 271.099 530.644 270.984 529.849 270.984C527.812 270.984 526.063 271.812 524.609 273.466C523.17 275.12 522.45 277.181 522.45 279.647V293.156H518.636V267.975H521.784L522.219 272.638H522.405C523.339 271 524.464 269.737 525.781 268.848C527.099 267.958 528.546 267.516 530.124 267.516ZM548.01 293.615C544.288 293.615 541.347 292.484 539.187 290.215C537.044 287.947 535.971 284.802 535.971 280.771C535.971 276.713 536.966 273.49 538.959 271.099C540.966 268.709 543.653 267.516 547.024 267.516C550.179 267.516 552.676 268.556 554.513 270.64C556.351 272.709 557.271 275.442 557.271 278.842V281.254H539.924C540.001 284.211 540.742 286.456 542.152 287.987C543.577 289.519 545.575 290.284 548.149 290.284C550.859 290.284 553.541 289.717 556.191 288.585V291.985C554.842 292.566 553.565 292.98 552.353 293.225C551.158 293.486 549.711 293.615 548.01 293.615ZM546.977 270.709C544.956 270.709 543.34 271.368 542.128 272.685C540.935 274.003 540.229 275.824 540.015 278.153H553.181C553.181 275.748 552.645 273.911 551.572 272.638C550.499 271.351 548.968 270.709 546.977 270.709ZM580.466 289.778H580.259C578.497 292.338 575.862 293.615 572.354 293.615C569.063 293.615 566.496 292.491 564.658 290.239C562.835 287.987 561.924 284.785 561.924 280.635C561.924 276.482 562.842 273.259 564.682 270.96C566.519 268.664 569.077 267.516 572.354 267.516C575.77 267.516 578.389 268.756 580.212 271.238H580.511L580.351 269.422L580.259 267.652V257.406H584.073V293.156H580.97L580.466 289.778ZM572.836 290.423C575.441 290.423 577.325 289.717 578.49 288.307C579.669 286.884 580.259 284.595 580.259 281.44V280.635C580.259 277.066 579.662 274.523 578.466 273.007C577.288 271.476 575.396 270.709 572.792 270.709C570.554 270.709 568.839 271.582 567.644 273.327C566.465 275.059 565.875 277.511 565.875 280.68C565.875 283.896 566.465 286.324 567.644 287.964C568.825 289.604 570.554 290.423 572.836 290.423ZM595.526 293.156H591.713V267.975H595.526V293.156ZM591.39 261.151C591.39 260.278 591.607 259.642 592.035 259.243C592.463 258.83 593 258.623 593.642 258.623C594.256 258.623 594.783 258.83 595.228 259.243C595.672 259.657 595.893 260.293 595.893 261.151C595.893 262.008 595.672 262.652 595.228 263.081C594.783 263.494 594.256 263.701 593.642 263.701C593 263.701 592.463 263.494 592.035 263.081C591.607 262.652 591.39 262.008 591.39 261.151ZM611.278 290.467C611.951 290.467 612.603 290.423 613.231 290.331C613.859 290.223 614.356 290.117 614.725 290.008V292.926C614.311 293.126 613.697 293.286 612.885 293.408C612.09 293.547 611.37 293.615 610.725 293.615C605.855 293.615 603.42 291.051 603.42 285.919V270.939H599.813V269.099L603.42 267.516L605.027 262.139H607.234V267.975H614.539V270.939H607.234V285.757C607.234 287.275 607.594 288.439 608.314 289.251C609.034 290.063 610.022 290.467 611.278 290.467ZM646.019 262.575C642.328 262.575 639.408 263.808 637.264 266.274C635.135 268.725 634.072 272.087 634.072 276.36C634.072 280.757 635.097 284.157 637.149 286.562C639.217 288.952 642.158 290.147 645.972 290.147C648.315 290.147 650.988 289.726 653.99 288.884V292.307C651.663 293.18 648.791 293.615 645.374 293.615C640.426 293.615 636.606 292.114 633.909 289.112C631.23 286.11 629.888 281.844 629.888 276.315C629.888 272.852 630.533 269.819 631.82 267.216C633.121 264.612 634.989 262.606 637.424 261.197C639.876 259.787 642.756 259.083 646.064 259.083C649.588 259.083 652.666 259.726 655.301 261.013L653.647 264.367C651.103 263.173 648.56 262.575 646.019 262.575ZM675.763 293.156L675.003 289.573H674.819C673.563 291.15 672.306 292.222 671.052 292.789C669.81 293.34 668.255 293.615 666.387 293.615C663.891 293.615 661.931 292.973 660.505 291.686C659.096 290.399 658.392 288.569 658.392 286.195C658.392 281.11 662.458 278.445 670.591 278.2L674.866 278.061V276.499C674.866 274.523 674.436 273.069 673.579 272.132C672.737 271.184 671.382 270.709 669.511 270.709C667.413 270.709 665.039 271.351 662.389 272.638L661.218 269.721C662.458 269.048 663.813 268.518 665.283 268.135C666.77 267.751 668.255 267.561 669.742 267.561C672.744 267.561 674.965 268.227 676.405 269.561C677.859 270.892 678.588 273.029 678.588 275.969V293.156H675.763ZM667.144 290.467C669.521 290.467 671.382 289.818 672.728 288.514C674.092 287.213 674.774 285.39 674.774 283.047V280.771L670.961 280.934C667.926 281.04 665.735 281.515 664.389 282.357C663.055 283.185 662.389 284.479 662.389 286.242C662.389 287.618 662.804 288.667 663.629 289.387C664.472 290.107 665.643 290.467 667.144 290.467ZM697.486 267.516C698.603 267.516 699.608 267.608 700.495 267.791L699.968 271.33C698.926 271.099 698.006 270.984 697.21 270.984C695.173 270.984 693.427 271.812 691.971 273.466C690.531 275.12 689.811 277.181 689.811 279.647V293.156H685.997V267.975H689.145L689.583 272.638H689.766C690.7 271 691.827 269.737 693.142 268.848C694.46 267.958 695.909 267.516 697.486 267.516ZM721.877 289.778H721.67C719.907 292.338 717.272 293.615 713.764 293.615C710.473 293.615 707.906 292.491 706.068 290.239C704.245 287.987 703.335 284.785 703.335 280.635C703.335 276.482 704.252 273.259 706.092 270.96C707.93 268.664 710.487 267.516 713.764 267.516C717.181 267.516 719.799 268.756 721.623 271.238H721.921L721.761 269.422L721.67 267.652V257.406H725.483V293.156H722.38L721.877 289.778ZM714.247 290.423C716.851 290.423 718.736 289.717 719.9 288.307C721.079 286.884 721.67 284.595 721.67 281.44V280.635C721.67 277.066 721.072 274.523 719.877 273.007C718.698 271.476 716.806 270.709 714.202 270.709C711.964 270.709 710.249 271.582 709.054 273.327C707.875 275.059 707.285 277.511 707.285 280.68C707.285 283.896 707.875 286.324 709.054 287.964C710.235 289.604 711.965 290.423 714.247 290.423ZM749.366 286.286C749.366 288.63 748.493 290.437 746.748 291.709C745.002 292.98 742.55 293.615 739.395 293.615C736.057 293.615 733.452 293.088 731.584 292.029V288.493C732.793 289.105 734.087 289.587 735.466 289.94C736.861 290.293 738.2 290.467 739.487 290.467C741.478 290.467 743.009 290.154 744.082 289.526C745.155 288.884 745.691 287.91 745.691 286.609C745.691 285.628 745.263 284.792 744.404 284.103C743.562 283.4 741.908 282.571 739.442 281.623C737.097 280.75 735.429 279.99 734.433 279.348C733.452 278.689 732.716 277.946 732.226 277.12C731.751 276.292 731.514 275.304 731.514 274.156C731.514 272.102 732.349 270.488 734.019 269.306C735.687 268.111 737.979 267.516 740.889 267.516C743.6 267.516 746.249 268.067 748.839 269.17L747.484 272.271C744.955 271.229 742.666 270.709 740.614 270.709C738.805 270.709 737.443 270.991 736.523 271.558C735.605 272.125 735.144 272.906 735.144 273.901C735.144 274.577 735.313 275.151 735.65 275.626C736.003 276.101 736.563 276.553 737.327 276.981C738.094 277.409 739.565 278.031 741.739 278.842C744.727 279.929 746.741 281.026 747.781 282.127C748.839 283.23 749.366 284.616 749.366 286.286Z" fill="#A3ADF5"/>
<path d="M85.3207 259.565H94.8098C99.2671 259.565 102.492 260.232 104.483 261.564C106.474 262.897 107.47 265.003 107.47 267.883C107.47 269.874 106.911 271.52 105.793 272.822C104.69 274.108 103.074 274.944 100.944 275.327V275.558C106.045 276.431 108.596 279.11 108.596 283.6C108.596 286.602 107.577 288.945 105.54 290.63C103.518 292.314 100.684 293.156 97.0386 293.156H85.3207V259.565ZM89.2265 273.948H95.6599C98.4171 273.948 100.401 273.52 101.611 272.662C102.821 271.789 103.426 270.325 103.426 268.274C103.426 266.389 102.752 265.034 101.404 264.206C100.056 263.364 97.9117 262.943 94.9708 262.943H89.2265V273.948ZM89.2265 277.256V289.825H96.2344C98.9455 289.825 100.983 289.305 102.346 288.263C103.725 287.206 104.414 285.559 104.414 283.322C104.414 281.24 103.709 279.708 102.3 278.727C100.906 277.748 98.7771 277.256 95.9126 277.256H89.2265ZM130.274 293.156L129.516 289.573H129.332C128.076 291.15 126.82 292.222 125.564 292.789C124.323 293.34 122.768 293.615 120.9 293.615C118.403 293.615 116.442 292.973 115.018 291.686C113.609 290.399 112.904 288.569 112.904 286.195C112.904 281.11 116.971 278.445 125.104 278.2L129.378 278.061V276.499C129.378 274.523 128.949 273.069 128.091 272.132C127.249 271.184 125.893 270.709 124.025 270.709C121.926 270.709 119.552 271.351 116.902 272.638L115.73 269.721C116.971 269.048 118.326 268.518 119.797 268.135C121.283 267.751 122.768 267.561 124.254 267.561C127.257 267.561 129.478 268.227 130.917 269.561C132.373 270.892 133.1 273.029 133.1 275.969V293.156H130.274ZM121.658 290.467C124.032 290.467 125.893 289.818 127.241 288.514C128.604 287.213 129.286 285.39 129.286 283.047V280.771L125.472 280.934C122.439 281.04 120.249 281.515 118.901 282.357C117.568 283.185 116.902 284.479 116.902 286.242C116.902 287.618 117.315 288.667 118.143 289.387C118.985 290.107 120.157 290.467 121.658 290.467ZM157.742 293.156V276.866C157.742 274.814 157.275 273.283 156.341 272.271C155.407 271.259 153.944 270.756 151.953 270.756C149.318 270.756 147.388 271.466 146.163 272.892C144.937 274.316 144.324 276.668 144.324 279.946V293.156H140.51V267.975H143.612L144.232 271.422H144.416C145.197 270.179 146.293 269.222 147.702 268.549C149.111 267.86 150.681 267.516 152.412 267.516C155.445 267.516 157.727 268.25 159.259 269.721C160.791 271.177 161.556 273.511 161.556 276.729V293.156H157.742ZM172.712 280.266C173.371 279.332 174.374 278.108 175.722 276.591L183.855 267.975H188.382L178.18 278.703L189.094 293.156H184.476L175.584 281.254L172.712 283.736V293.156H168.944V257.406H172.712V276.36C172.712 277.202 172.651 278.506 172.528 280.266H172.712ZM226.638 293.156L222.456 282.473H208.992L204.856 293.156H200.905L214.185 259.427H217.471L230.682 293.156H226.638ZM221.238 278.957L217.333 268.549C216.827 267.232 216.306 265.616 215.77 263.701C215.433 265.172 214.951 266.787 214.323 268.549L210.371 278.957H221.238ZM244.319 293.615C240.673 293.615 237.847 292.498 235.84 290.263C233.849 288.009 232.853 284.832 232.853 280.727C232.853 276.513 233.864 273.259 235.886 270.96C237.924 268.664 240.819 267.516 244.571 267.516C245.781 267.516 246.992 267.645 248.202 267.907C249.412 268.165 250.361 268.471 251.051 268.824L249.879 272.064C249.036 271.727 248.117 271.452 247.122 271.238C246.126 271.008 245.245 270.892 244.479 270.892C239.363 270.892 236.805 274.156 236.805 280.68C236.805 283.774 237.426 286.148 238.666 287.804C239.922 289.458 241.776 290.284 244.227 290.284C246.325 290.284 248.477 289.832 250.683 288.929V292.307C248.998 293.18 246.877 293.615 244.319 293.615ZM266.273 293.615C262.627 293.615 259.801 292.498 257.794 290.263C255.803 288.009 254.808 284.832 254.808 280.727C254.808 276.513 255.819 273.259 257.841 270.96C259.878 268.664 262.773 267.516 266.526 267.516C267.736 267.516 268.946 267.645 270.156 267.907C271.365 268.165 272.316 268.471 273.005 268.824L271.834 272.064C270.99 271.727 270.071 271.452 269.076 271.238C268.08 271.008 267.199 270.892 266.434 270.892C261.318 270.892 258.76 274.156 258.76 280.68C258.76 283.774 259.38 286.148 260.621 287.804C261.877 289.458 263.73 290.284 266.181 290.284C268.279 290.284 270.431 289.832 272.638 288.929V292.307C270.952 293.18 268.831 293.615 266.273 293.615ZM299.9 280.543C299.9 284.646 298.865 287.856 296.796 290.168C294.728 292.467 291.872 293.615 288.228 293.615C285.976 293.615 283.976 293.088 282.231 292.029C280.485 290.973 279.137 289.458 278.186 287.482C277.236 285.505 276.763 283.192 276.763 280.543C276.763 276.438 277.788 273.243 279.84 270.96C281.894 268.664 284.743 267.516 288.388 267.516C291.91 267.516 294.707 268.688 296.775 271.031C298.857 273.374 299.9 276.544 299.9 280.543ZM280.713 280.543C280.713 283.759 281.358 286.211 282.645 287.896C283.932 289.58 285.823 290.423 288.319 290.423C290.816 290.423 292.707 289.587 293.994 287.917C295.295 286.232 295.947 283.774 295.947 280.543C295.947 277.341 295.295 274.913 293.994 273.259C292.707 271.589 290.799 270.756 288.272 270.756C285.776 270.756 283.892 271.575 282.621 273.212C281.351 274.852 280.713 277.294 280.713 280.543ZM309.723 267.975V284.31C309.723 286.364 310.188 287.896 311.122 288.905C312.056 289.917 313.52 290.423 315.513 290.423C318.145 290.423 320.068 289.703 321.279 288.263C322.505 286.823 323.117 284.472 323.117 281.209V267.975H326.931V293.156H323.783L323.232 289.778H323.025C322.244 291.02 321.157 291.968 319.762 292.627C318.383 293.286 316.807 293.615 315.028 293.615C311.965 293.615 309.668 292.888 308.137 291.434C306.619 289.978 305.862 287.651 305.862 284.449V267.975H309.723ZM351.804 293.156V276.866C351.804 274.814 351.336 273.283 350.402 272.271C349.468 271.259 348.004 270.756 346.014 270.756C343.379 270.756 341.449 271.466 340.224 272.892C338.998 274.316 338.384 276.668 338.384 279.946V293.156H334.57V267.975H337.673L338.292 271.422H338.476C339.259 270.179 340.353 269.222 341.762 268.549C343.172 267.86 344.741 267.516 346.473 267.516C349.505 267.516 351.788 268.25 353.319 269.721C354.851 271.177 355.618 273.511 355.618 276.729V293.156H351.804ZM371.139 290.467C371.812 290.467 372.464 290.423 373.092 290.331C373.72 290.223 374.216 290.117 374.583 290.008V292.926C374.172 293.126 373.558 293.286 372.746 293.408C371.951 293.547 371.231 293.615 370.586 293.615C365.716 293.615 363.281 291.051 363.281 285.919V270.939H359.672V269.099L363.281 267.516L364.888 262.139H367.095V267.975H374.4V270.939H367.095V285.757C367.095 287.275 367.455 288.439 368.174 289.251C368.894 290.063 369.883 290.467 371.139 290.467ZM395.412 286.286C395.412 288.63 394.54 290.437 392.794 291.709C391.048 292.98 388.596 293.615 385.441 293.615C382.103 293.615 379.498 293.088 377.63 292.029V288.493C378.84 289.105 380.134 289.587 381.512 289.94C382.905 290.293 384.246 290.467 385.533 290.467C387.524 290.467 389.055 290.154 390.128 289.526C391.201 288.884 391.737 287.91 391.737 286.609C391.737 285.628 391.307 284.792 390.45 284.103C389.608 283.4 387.954 282.571 385.486 281.623C383.143 280.75 381.475 279.99 380.477 279.348C379.498 278.689 378.762 277.946 378.273 277.12C377.797 276.292 377.56 275.304 377.56 274.156C377.56 272.102 378.395 270.488 380.065 269.306C381.733 268.111 384.025 267.516 386.935 267.516C389.646 267.516 392.295 268.067 394.883 269.17L393.528 272.271C391.001 271.229 388.712 270.709 386.658 270.709C384.851 270.709 383.489 270.991 382.569 271.558C381.649 272.125 381.19 272.906 381.19 273.901C381.19 274.577 381.359 275.151 381.696 275.626C382.049 276.101 382.606 276.553 383.373 276.981C384.138 277.409 385.608 278.031 387.785 278.842C390.77 279.929 392.787 281.026 393.827 282.127C394.883 283.23 395.412 284.616 395.412 286.286Z" fill="#1311C0"/>
<path d="M127.758 646.07C152.446 646.07 172.46 626.056 172.46 601.368C172.46 576.679 152.446 556.666 127.758 556.666C103.069 556.666 83.0552 576.679 83.0552 601.368C83.0552 626.056 103.069 646.07 127.758 646.07Z" fill="white" stroke="#EEEEEE" stroke-width="2"/>
<path d="M145.442 584.835H109.929V620.348H145.442V584.835Z" fill="white"/>
<path d="M145.538 620.348L163.295 602.591L145.538 584.835V620.348Z" fill="#DB0011"/>
<path d="M109.929 620.348L92.1721 602.591L109.929 584.835V620.348Z" fill="#DB0011"/>
<path d="M145.538 584.835L127.685 602.591L109.929 584.835H145.538Z" fill="#DB0011"/>
<path d="M109.929 620.35L127.685 602.594L145.538 620.35H109.929Z" fill="#DB0011"/>
<path d="M127.758 808.411C152.446 808.411 172.46 788.397 172.46 763.709C172.46 739.02 152.446 719.006 127.758 719.006C103.069 719.006 83.0552 739.02 83.0552 763.709C83.0552 788.397 103.069 808.411 127.758 808.411Z" fill="white" stroke="#EEEEEE" stroke-width="2"/>
<path d="M145.442 747.176H109.929V782.688H145.442V747.176Z" fill="white"/>
<path d="M145.538 782.688L163.295 764.932L145.538 747.176V782.688Z" fill="#DB0011"/>
<path d="M109.929 782.688L92.1721 764.932L109.929 747.176V782.688Z" fill="#DB0011"/>
<path d="M145.538 747.176L127.685 764.932L109.929 747.176H145.538Z" fill="#DB0011"/>
<path d="M109.929 782.688L127.685 764.932L145.538 782.688H109.929Z" fill="#DB0011"/>
<path d="M127.758 810.764C153.745 810.764 174.813 789.696 174.813 763.709C174.813 737.721 153.745 716.653 127.758 716.653C101.77 716.653 80.7024 737.721 80.7024 763.709C80.7024 789.696 101.77 810.764 127.758 810.764Z" fill="#FFA600"/>
<path d="M155.736 769.814C157.771 768.795 159.297 766.76 160.061 764.727C159.043 764.471 157.771 764.217 156.754 764.217C155.482 764.217 154.465 764.727 153.447 765.236C152.43 765.744 151.413 766.506 150.904 767.271C150.141 768.033 149.632 769.049 149.378 770.322C151.413 771.085 153.702 770.83 155.736 769.814Z" fill="white"/>
<path d="M152.684 762.944C151.158 765.233 148.869 767.014 146.071 767.522C145.562 764.725 146.071 762.182 147.597 759.638C149.123 757.349 151.413 755.568 154.21 755.06C154.719 757.857 154.21 760.655 152.684 762.944Z" fill="white"/>
<path d="M145.562 758.111C145.562 754.806 144.291 751.754 142.256 749.211C139.967 751.754 138.695 754.806 138.695 758.111C138.695 761.419 139.712 764.471 142.002 767.014C144.036 764.471 145.308 761.419 145.562 758.111Z" fill="white"/>
<path d="M134.88 755.824C132.59 752.262 129.284 749.211 125.469 747.176C124.96 751.5 125.723 755.824 127.758 759.638C130.047 763.2 133.354 766.252 137.169 768.287C137.677 763.708 136.914 759.638 134.88 755.824Z" fill="white"/>
<path d="M121.908 758.876C116.566 756.079 110.716 754.806 104.612 754.806C107.664 759.893 111.988 763.963 117.075 767.014C122.417 769.814 128.267 771.085 134.371 771.085C131.319 766.252 127.249 761.928 121.908 758.876Z" fill="white"/>
<path d="M110.716 770.068C102.831 770.322 95.2006 772.103 88.3331 775.155C95.4549 778.207 103.086 779.988 110.716 780.242C118.601 780.242 126.232 778.461 133.099 775.155C125.977 771.847 118.347 770.068 110.716 770.068Z" fill="white"/>
<path d="M226.112 958.988H222.1L205.578 933.615H205.413C205.633 936.592 205.743 939.323 205.743 941.803V958.988H202.497V928.755H206.467L222.948 954.026H223.113C223.086 953.652 223.024 952.461 222.927 950.447C222.831 948.421 222.796 946.974 222.824 946.104V928.755H226.112V958.988ZM243.058 959.402C239.708 959.402 237.061 958.381 235.118 956.341C233.188 954.301 232.223 951.468 232.223 947.843C232.223 944.189 233.119 941.288 234.911 939.135C236.717 936.985 239.136 935.909 242.169 935.909C245.009 935.909 247.256 936.848 248.91 938.723C250.565 940.584 251.392 943.045 251.392 946.104V948.275H235.779C235.848 950.936 236.517 952.958 237.785 954.334C239.067 955.713 240.866 956.402 243.182 956.402C245.622 956.402 248.035 955.894 250.42 954.873V957.934C249.207 958.456 248.055 958.83 246.967 959.049C245.891 959.284 244.588 959.402 243.058 959.402ZM242.128 938.784C240.308 938.784 238.854 939.377 237.764 940.563C236.689 941.749 236.055 943.389 235.862 945.485H247.711C247.711 943.321 247.228 941.667 246.263 940.521C245.298 939.363 243.92 938.784 242.128 938.784ZM264.161 956.569C264.768 956.569 265.354 956.527 265.919 956.444C266.484 956.348 266.932 956.251 267.263 956.155V958.781C266.891 958.959 266.339 959.105 265.609 959.216C264.892 959.338 264.244 959.402 263.665 959.402C259.281 959.402 257.089 957.091 257.089 952.473V938.992H253.843V937.338L257.089 935.909L258.537 931.072H260.522V936.323H267.098V938.992H260.522V952.329C260.522 953.694 260.846 954.741 261.493 955.473C262.141 956.202 263.031 956.569 264.161 956.569ZM300.474 958.988L296.316 945.692C296.055 944.878 295.566 943.031 294.848 940.149H294.684C294.133 942.563 293.648 944.424 293.237 945.732L288.955 958.988H284.986L278.802 936.323H282.4C283.861 942.017 284.971 946.353 285.729 949.332C286.501 952.308 286.943 954.315 287.054 955.348H287.218C287.371 954.562 287.611 953.548 287.943 952.308C288.286 951.054 288.583 950.061 288.832 949.332L292.987 936.323H296.709L300.763 949.332C301.535 951.701 302.06 953.694 302.335 955.308H302.5C302.556 954.811 302.699 954.044 302.935 953.012C303.182 951.979 304.624 946.414 307.257 936.323H310.812L304.546 958.988H300.474ZM334.067 947.636C334.067 951.329 333.135 954.219 331.274 956.298C329.413 958.366 326.844 959.402 323.561 959.402C321.536 959.402 319.736 958.926 318.164 957.974C316.593 957.023 315.381 955.658 314.524 953.88C313.67 952.101 313.242 950.019 313.242 947.636C313.242 943.939 314.167 941.067 316.014 939.013C317.861 936.945 320.425 935.909 323.707 935.909C326.876 935.909 329.394 936.966 331.255 939.074C333.128 941.184 334.067 944.038 334.067 947.636ZM316.8 947.636C316.8 950.529 317.378 952.736 318.536 954.252C319.693 955.769 321.397 956.527 323.644 956.527C325.891 956.527 327.594 955.776 328.752 954.273C329.923 952.758 330.509 950.544 330.509 947.636C330.509 944.753 329.923 942.568 328.752 941.081C327.594 939.577 325.877 938.827 323.604 938.827C321.357 938.827 319.661 939.563 318.517 941.038C317.371 942.514 316.8 944.713 316.8 947.636ZM350.021 935.909C351.028 935.909 351.929 935.994 352.729 936.159L352.253 939.342C351.317 939.135 350.489 939.034 349.771 939.034C347.938 939.034 346.367 939.777 345.056 941.267C343.762 942.756 343.113 944.61 343.113 946.829V958.988H339.68V936.323H342.513L342.906 940.521H343.073C343.913 939.046 344.927 937.909 346.113 937.109C347.298 936.309 348.599 935.909 350.021 935.909ZM363.864 956.569C364.471 956.569 365.057 956.527 365.622 956.444C366.189 956.348 366.636 956.251 366.967 956.155V958.781C366.593 958.959 366.043 959.105 365.314 959.216C364.596 959.338 363.947 959.402 363.368 959.402C358.985 959.402 356.792 957.091 356.792 952.473V938.992H353.547V937.338L356.792 935.909L358.241 931.072H360.224V936.323H366.8V938.992H360.224V952.329C360.224 953.694 360.549 954.741 361.196 955.473C361.846 956.202 362.735 956.569 363.864 956.569ZM386.601 958.988V944.328C386.601 942.478 386.18 941.1 385.34 940.191C384.498 939.281 383.183 938.827 381.39 938.827C379.007 938.827 377.261 939.474 376.16 940.77C375.07 942.067 374.525 944.189 374.525 947.139V958.988H371.092V926.811H374.525V936.552C374.525 937.723 374.47 938.695 374.36 939.467H374.567C375.242 938.377 376.2 937.523 377.44 936.902C378.696 936.269 380.122 935.952 381.722 935.952C384.493 935.952 386.566 936.613 387.945 937.937C389.338 939.246 390.034 941.335 390.034 944.203V958.988H386.601Z" fill="#79799E"/>
</g>
<path fill-rule="evenodd" clip-rule="evenodd" d="M3 103C3 47.7715 47.7715 3 103 3H719C774.229 3 819 47.7715 819 103V1585C819 1640.23 774.228 1685 719 1685H103C47.7715 1685 3 1640.23 3 1585V103ZM36 117C36 70.0558 74.0558 32 121 32H204.027C204.009 32.331 204 32.6644 204 33V70C204 91.5391 221.461 109 243 109H579C600.539 109 618 91.5391 618 70V33C618 32.6644 617.991 32.331 617.973 32H701C747.944 32 786 70.0558 786 117V1571C786 1617.94 747.944 1656 701 1656H121C74.0558 1656 36 1617.94 36 1571V117Z" fill="url(#paint0_linear)"/>
<path d="M204.027 32L206.424 32.1312L206.562 29.6H204.027V32ZM617.973 32V29.6H615.438L615.576 32.1312L617.973 32ZM103 0.6C46.446 0.6 0.6 46.446 0.6 103H5.4C5.4 49.097 49.097 5.4 103 5.4V0.6ZM719 0.6H103V5.4H719V0.6ZM821.4 103C821.4 46.446 775.554 0.6 719 0.6V5.4C772.903 5.4 816.6 49.097 816.6 103H821.4ZM821.4 1585V103H816.6V1585H821.4ZM719 1687.4C775.554 1687.4 821.4 1641.55 821.4 1585H816.6C816.6 1638.9 772.903 1682.6 719 1682.6V1687.4ZM103 1687.4H719V1682.6H103V1687.4ZM0.6 1585C0.6 1641.55 46.446 1687.4 103 1687.4V1682.6C49.097 1682.6 5.4 1638.9 5.4 1585H0.6ZM0.6 103V1585H5.4V103H0.6ZM121 29.6C72.7303 29.6 33.6 68.7303 33.6 117H38.4C38.4 71.3813 75.3813 34.4 121 34.4V29.6ZM204.027 29.6H121V34.4H204.027V29.6ZM206.4 33C206.4 32.7083 206.408 32.4186 206.424 32.1312L201.631 31.8688C201.61 32.2435 201.6 32.6206 201.6 33H206.4ZM206.4 70V33H201.6V70H206.4ZM243 106.6C222.786 106.6 206.4 90.2136 206.4 70H201.6C201.6 92.8646 220.135 111.4 243 111.4V106.6ZM579 106.6H243V111.4H579V106.6ZM615.6 70C615.6 90.2136 599.214 106.6 579 106.6V111.4C601.865 111.4 620.4 92.8646 620.4 70H615.6ZM615.6 33V70H620.4V33H615.6ZM615.576 32.1312C615.592 32.4185 615.6 32.7081 615.6 33H620.4C620.4 32.6208 620.39 32.2436 620.369 31.8688L615.576 32.1312ZM701 29.6H617.973V34.4H701V29.6ZM788.4 117C788.4 68.7303 749.27 29.6 701 29.6V34.4C746.619 34.4 783.6 71.3813 783.6 117H788.4ZM788.4 1571V117H783.6V1571H788.4ZM701 1658.4C749.27 1658.4 788.4 1619.27 788.4 1571H783.6C783.6 1616.62 746.619 1653.6 701 1653.6V1658.4ZM121 1658.4H701V1653.6H121V1658.4ZM33.6 1571C33.6 1619.27 72.7303 1658.4 121 1658.4V1653.6C75.3813 1653.6 38.4 1616.62 38.4 1571H33.6ZM33.6 117V1571H38.4V117H33.6Z" fill="black" fill-opacity="0.03"/>
<defs>
<filter id="filter0_d" x="32" y="289.156" width="760.883" height="1379.66" filterUnits="userSpaceOnUse" color-interpolation-filters="sRGB">
<feFlood flood-opacity="0" result="BackgroundImageFix"/>
<feColorMatrix in="SourceAlpha" type="matrix" values="0 0 0 0 0 0 0 0 0 0 0 0 0 0 0 0 0 0 127 0"/>
<feOffset/>
<feGaussianBlur stdDeviation="2"/>
<feColorMatrix type="matrix" values="0 0 0 0 0.0483839 0 0 0 0 0.0432 0 0 0 0 0.4968 0 0 0 0.3 0"/>
<feBlend mode="normal" in2="BackgroundImageFix" result="effect1_dropShadow"/>
<feBlend mode="normal" in="SourceGraphic" in2="effect1_dropShadow" result="shape"/>
</filter>
<linearGradient id="paint0_linear" x1="94.9871" y1="-266.102" x2="-807.843" y2="1325.25" gradientUnits="userSpaceOnUse">
<stop stop-color="#151516"/>
<stop offset="1" stop-color="#0B0B0C"/>
</linearGradient>
</defs>
</svg>
