<svg width="512" height="512" viewBox="0 0 512 512" fill="none" xmlns="http://www.w3.org/2000/svg">
<rect width="512" height="512" fill="white"/>
<path d="M446.601 365.863C406.589 376.216 402.112 351.313 412.465 321.374C430.372 270.17 438.767 233.516 417.222 195.463C398.195 162.446 347.271 166.363 347.271 166.363C347.271 166.363 332.721 88.2983 245.702 86.0599C120.63 82.9821 51.7986 199.1 65.7888 300.949C75.8617 373.138 122.869 408.673 176.031 408.673C216.323 408.673 238.987 391.325 252.138 370.34C241.225 375.097 228.075 378.454 212.406 378.734C187.503 379.014 166.238 371.179 150.569 355.51C135.18 340.121 127.066 319.416 127.066 294.234C127.066 284.72 127.905 275.767 129.304 267.372C130.143 269.051 130.703 270.45 131.822 272.129C136.579 279.964 143.854 284.72 152.248 286.119C153.647 286.399 154.766 286.399 155.885 286.399C156.445 286.399 156.725 286.399 157.284 286.399L171.834 300.669C172.953 301.788 174.073 302.068 175.472 302.068C176.871 302.068 177.99 301.508 179.109 300.669C181.068 298.71 181.068 295.633 179.109 293.674L172.394 286.959C189.182 273.248 190.581 254.501 190.581 248.905C191.141 242.47 193.939 240.791 197.016 241.351C199.814 241.631 202.053 244.708 200.934 251.144C200.934 251.703 200.654 251.983 200.654 252.543C199.814 254.781 199.255 257.02 198.695 259.258C196.737 269.331 198.695 279.404 203.732 287.518C208.768 295.912 216.882 301.508 226.116 303.187C228.075 303.467 230.033 303.747 231.992 303.747C239.267 303.747 246.262 301.229 252.418 296.472C258.293 291.995 262.77 285.839 265.288 278.565C266.128 276.326 266.687 274.088 267.247 271.849C267.807 269.611 267.807 267.372 267.807 265.134C267.807 264.295 267.807 263.455 267.807 262.616L277.88 254.222H266.687C263.33 241.071 253.257 230.438 240.106 227.92C227.235 225.682 214.644 231.278 206.81 241.91C205.411 238.553 202.613 235.755 198.975 234.915C194.778 234.076 190.581 235.475 187.503 238.832C184.146 226.241 174.912 216.448 162.88 214.769C160.082 214.49 157.284 214.49 154.486 215.049C173.233 193.225 197.856 182.032 227.515 182.032C252.977 182.032 273.962 189.867 289.352 205.816C303.622 220.086 311.176 238.832 312.575 261.497L276.481 269.611C274.522 269.891 273.403 271.569 273.403 273.528C273.683 275.207 275.082 276.606 276.76 276.606C277.04 276.606 277.04 276.606 277.32 276.606L312.575 268.492C312.575 280.803 310.896 289.757 308.378 302.348L308.098 303.187L297.186 350.474C287.393 401.398 316.213 426.86 362.1 426.86C412.465 426.86 448 388.807 448 388.807L446.601 365.863ZM233.951 234.076C235.35 234.076 237.028 234.076 238.427 234.356C245.982 235.755 252.418 240.791 256.335 247.227C256.894 250.304 256.894 254.781 254.656 258.699C254.376 258.978 254.376 258.978 254.096 259.258C254.096 259.258 253.537 260.377 252.418 261.497C251.298 262.896 249.899 264.295 247.941 265.414C244.863 267.093 240.946 268.492 235.909 267.372C229.194 265.694 226.955 259.818 226.396 254.781C226.116 251.983 223.598 250.025 220.8 250.304C218.002 250.584 216.043 253.102 216.323 255.9C217.722 267.372 224.157 275.207 233.951 277.166C235.07 277.445 236.469 277.445 237.588 277.445C240.106 277.445 242.345 277.445 244.583 276.886C249.899 275.766 254.656 273.248 258.573 269.331L260.252 267.932C260.252 268.492 260.252 269.051 259.972 269.611C259.413 273.248 258.293 276.326 256.615 279.404C254.376 283.601 251.578 287.238 247.941 289.757C241.785 294.513 234.51 296.472 227.235 295.073C219.96 293.674 213.805 289.477 209.608 282.762C205.411 276.046 204.012 267.652 205.411 259.538C208.209 244.988 220.52 234.076 233.951 234.076ZM153.087 278.844C146.932 278.005 141.615 274.367 137.978 268.212C135.18 263.735 133.781 258.419 133.501 253.102C133.501 251.144 133.501 248.905 133.781 246.667C134.9 238.832 138.538 231.837 143.854 227.081C148.331 223.163 153.367 220.925 158.683 220.925C159.523 220.925 160.642 220.925 161.481 221.205C172.114 222.604 179.669 232.397 181.068 244.429C180.788 244.708 180.788 245.268 180.508 245.548C180.228 246.107 179.948 246.387 179.669 246.947C177.15 250.584 173.233 253.382 167.637 252.263C163.72 251.424 160.642 247.506 159.803 243.869C159.523 242.75 159.523 241.631 159.523 240.791C159.523 240.791 159.523 240.791 159.523 240.511V239.392V239.112L159.803 234.356H143.014L149.45 241.351C149.45 243.03 149.73 244.988 150.01 246.667C151.688 253.102 157.284 260.657 165.679 262.336C166.238 262.336 166.798 262.616 167.357 262.616C175.192 263.175 178.829 258.419 178.829 258.419L179.389 258.699C178.549 261.497 177.43 264.574 175.751 267.932C170.995 274.647 164.28 278.565 157.005 278.844C155.326 278.844 154.207 278.844 153.087 278.844Z" fill="#3E40F8"/>
<path d="M211.846 314.1C210.447 316.338 205.131 323.613 198.416 322.214C194.219 321.374 191.421 318.576 189.742 313.82C188.903 311.302 186.104 309.623 183.306 310.462C180.788 311.301 179.109 314.1 179.949 316.898C182.467 325.012 188.343 330.328 196.177 332.007C197.297 332.287 198.696 332.287 199.815 332.287C207.37 332.287 214.644 327.53 219.961 319.416C221.36 317.177 220.8 314.1 218.562 312.421C216.603 311.022 213.525 311.861 211.846 314.1Z" fill="#3E40F8"/>
<path d="M278.719 323.053C274.802 323.053 271.444 326.131 271.444 330.048C271.444 333.966 274.522 337.043 278.719 337.043C282.636 337.043 285.994 333.966 285.994 330.048C285.714 326.131 282.636 323.053 278.719 323.053Z" fill="#3E40F8"/>
</svg>
