<svg xmlns="http://www.w3.org/2000/svg" viewBox="0 0 623.6 623.6"><style>.st1{fill-opacity:.45}.st2{fill:#fff}</style><path d="M538.6 623.6H85c-46.8 0-85-38.3-85-85V50C0 22.5 22.5 0 50 0h488.5c46.8 0 85 38.3 85 85v453.5c.1 46.8-38.2 85.1-84.9 85.1z" fill="#fbc547"/><path class="st1" d="M49.8 140.3l262.8-52.5v39.4L49.8 166.6z"/><path class="st2" d="M312.6 87.8l262.8 52.5v26.3l-262.8-39.4z"/><path class="st1" d="M49.8 190.3V432l59.1 6.6V287.5L168 396.6l61.8-109.1V457l69.6 9.2V156.1l-74.8 10.5L168 275.7l-56.5-92z"/><path class="st2" d="M575.4 190.3V432l-59.1 6.6V287.5l-59.2 109.1-61.7-109.1V457l-69.7 9.2V156.1l74.9 10.5 56.5 109.1 56.5-92z"/><path class="st1" d="M49.8 482l262.8 52.5v-39.4L49.8 455.7z"/><path class="st2" d="M312.6 534.5L575.4 482v-26.3l-262.8 39.4z"/><path d="M410 483.1l-93.3 52.7v-41l58.1-31.9 35.2 20.2zm6.4-5.7V367.1l-34.2 19.7v70.8l34.2 19.8zm-201.3 5.7l93.3 52.7v-41l-58.2-31.9-35.1 20.2zm-6.3-5.7V367.1l34.2 19.7v70.8l-34.2 19.8zm3.9-117.5l95.7-54v39.7L247 379.2l-.5.3-33.8-19.6zm199.6 0l-95.7-54v39.7l61.4 33.6.5.3 33.8-19.6z" fill="#8ed6fb"/><path d="M308.4 485.8l-57-31.5v-62.4l57 33.1v60.8zm8.1 0l57-31.5v-62.4l-57 33.1v60.8zm-61.3-101.1l57.3-31.7 57.3 31.7-57.3 33.3-57.3-33.3z" fill="#1c78c0"/></svg>