<svg width="164" height="232" fill="none" xmlns="http://www.w3.org/2000/svg"><path d="M154.939 134.535c-12.5-12.9.9-23.2 7.2-52.8 2.5-11.7 2.7-23.4-2.9-31.6-9.9-14.2-30.8-16.9-31-16.9l-3.7-.4-.9-3.5c-3.2-15.7-15.1-28.6-41.9-29.3-33.7-.9-57.2 15.4-71.2 45.7-6.7 14.5-11 31.6-10.5 48.2.3 11.5 2.5 20.7 6.6 27.9 4.3 7.6 10.1 13.4 17.1 17.4 7.1 4 14.8 6 22.9 6 9.6 0 18-2.6 24.3-7.6 4.1-3.3 7.3-7.2 9.7-12.3-4.7 2.1-10.5 3.5-17.4 3.6-10.9.1-20.1-3.4-27-10.2-6.8-6.7-10.2-15.8-10.2-26.9 0-14.1 4-25.9 11.7-34.9 8.2-9.6 18.9-14.5 31.9-14.5 11.1 0 20.2 3.5 26.9 10.4 6.7 6.8 10.1 15.9 10.1 26.9 0 5.6-.8 9.6-1.8 15.2l-.1.3-4.7 20.7c-.8 3.8-1.3 7.4-1.3 10.8 0 9.2 2.5 15.6 7.9 20.4l.1.1c5.6 4.9 14 7.4 25 7.4 9.2 0 16.7-3.8 23.7-12.1 1.6-1.9 3.1-3.5 4.5-4.9-1.8-.7-3.6-1.6-5-3.1z" fill="#3E40F8"/><path d="M58.04 108.535c-.5 0-1-.1-1.6-.2-3.4-.7-5.9-3-7.1-6.6-.4-1.2.3-2.4 1.4-2.8 1.2-.4 2.4.3 2.8 1.4.7 2.1 1.9 3.2 3.8 3.6 2.9.6 5.2-2.6 5.8-3.6.7-1 2-1.3 3-.7 1 .7 1.3 2 .7 3-2.4 3.9-5.6 5.9-8.8 5.9zm-10.9-13.4c-.6 0-1.1-.2-1.6-.6l-6.6-6.6 2.3-1.5c8.5-5.6 8.1-14.6 8.1-15-.1-1.2.9-2.2 2.1-2.3 1.2-.1 2.2.8 2.3 2 0 .5.6 10.4-7.9 17.4l2.9 2.9c.9.9.9 2.3 0 3.1-.5.4-1 .6-1.6.6zm27.2-10.4c-.5 0-1-.1-1.6-.2-4.3-.9-7-4.2-7.7-9.3-.1-1.2.7-2.3 1.9-2.4 1.2-.1 2.3.7 2.4 1.9.3 2.2 1.2 4.9 4.2 5.5 2.9.6 5.2-2.6 5.8-3.6.7-1 2-1.3 3-.7 1 .7 1.3 2 .7 3-2.3 3.7-5.5 5.8-8.7 5.8z" fill="#3E40F8"/><path d="M71.24 92.635c-1 0-2.1-.1-3.1-.4-3.7-.9-6.7-3.3-8.6-6.7-1.9-3.4-2.4-7.4-1.5-11.3.9-3.9 3.2-7.3 6.4-9.4 3.3-2.2 7.1-2.9 10.7-2 7.5 1.8 12.1 9.9 10.1 18-.9 3.9-3.2 7.3-6.4 9.4-2.3 1.6-4.9 2.4-7.6 2.4zm.9-27.1c-2.1 0-4.1.6-6 1.9-2.6 1.7-4.4 4.5-5.2 7.6-.8 3.2-.3 6.4 1.2 9.2 1.5 2.7 3.9 4.5 6.7 5.2 2.8.7 5.8.1 8.4-1.6 2.6-1.7 4.4-4.5 5.2-7.6 1.6-6.5-2-13-7.9-14.4-.8-.3-1.6-.3-2.4-.3z" fill="#FF626D"/><path d="M59.84 74.435h-.4c-.8-.2-1.3-1-1.1-1.8.5-1.9-.3-3.7-1.6-4-1.3-.3-2.8 1-3.2 2.9-.2.8-1 1.3-1.8 1.1-.8-.2-1.3-1-1.1-1.8.8-3.5 3.9-5.8 6.9-5.1 2.9.7 4.6 4.1 3.8 7.7-.2.5-.9 1-1.5 1z" fill="#FF626D"/><path d="M44.74 78.135c-.6 0-1.3-.1-1.9-.2-3.6-.7-6-4-6.8-6.8-.3-1.2-.4-2.4-.2-3.4.2-1.2 1.4-2 2.6-1.7 1.2.2 2 1.4 1.7 2.6-.1.4 0 .9.1 1.4.4 1.5 1.7 3.3 3.4 3.7 3 .6 4.9-1.5 6-3.4.6-1.1 1.9-1.4 3-.8 1.1.6 1.4 1.9.8 3-2.1 3.6-5.2 5.6-8.7 5.6z" fill="#3E40F8"/><path d="M88.14 81.835c-.7 0-1.4-.6-1.5-1.3-.1-.8.5-1.6 1.3-1.7l23.099-3c.8-.1 1.6.5 1.7 1.3.1.8-.5 1.6-1.3 1.7l-23.1 3h-.2zm-48.3 2.5c-1 0-1.9-.1-2.9-.3-7-1.7-11.3-9.2-9.5-16.8.9-3.7 3-6.8 6-8.8 3-2 6.6-2.7 10-1.9 3.4.8 6.3 3 8.1 6.3 1.8 3.2 2.2 6.9 1.4 10.6-.9 3.7-3 6.8-6 8.8-2.1 1.3-4.6 2.1-7.1 2.1zm.9-25.2c-1.9 0-3.8.6-5.5 1.7-2.4 1.6-4.1 4.1-4.8 7-1.4 6 1.8 11.9 7.2 13.2 2.6.6 5.3.1 7.7-1.5 2.4-1.6 4.1-4.1 4.8-7 .7-2.9.3-5.9-1.1-8.4-1.4-2.5-3.6-4.2-6.2-4.8-.7-.1-1.4-.2-2.1-.2z" fill="#FF626D"/><path d="M98.34 153.835a4.7 4.7 0 100-9.4 4.7 4.7 0 000 9.4zm-10 4.8a4.7 4.7 0 100-9.4 4.7 4.7 0 000 9.4zm-11.5-.2a4.7 4.7 0 100-9.4 4.7 4.7 0 000 9.4zm-9.9-5.9a4.7 4.7 0 100-9.4 4.7 4.7 0 000 9.4z" fill="#F4B640"/><path d="M111.439 153.435s-13.7 17.2-35.7 11.9c-9.3-2.2-16.7-11.2-18.6-15.3 0 0-18.7 20.5-8.7 44.3 10 23.8 5 24.8-1.6 42.7-11.6 31.5-1.7 80.1 22.5 106.3 11.9 12.8 4.8 4.4 13.9-13.1 15.3-29.6 27.3-72.8 15.3-98.9-23.9-51.3 23.3-50.4 12.9-77.9z" fill="#FF626D"/><path d="M110.539 153.435s23.7 14 29.6 27.8c3.3 7.8-13.2 31-29.4 38.8l-7.8-10 24-25.1-15.7-15.8-.7-15.7z" fill="#FF626D"/><path d="M37.74 213.735s3.3 4.1 2.9 7.3c0 0-2.3-5.4-2.9-3.6-1.6 5.1.8 9.3 6.4 10 5.7.7 13.2-7.3 12.7-12.2-.4-5-9-7.9-9-7.9l-10.1 6.4z" fill="#fff"/><path d="M57.34 150.735c-21.6 0-41 15.2-46.6 28.3-3.2 7.4 15.4 30.7 30.7 38.2l7.4-9.5-27.2-26.1 30.4-16.6 5.3-14.3z" fill="#FF626D"/><path d="M110.739 219.935s-4.7 2.8-5.6 6.1c0 0 4.3-4.5 4.2-2.5-.3 5.6-4.2 8.9-10 7.5-5.9-1.4-10.3-12-8.1-16.7 2.2-4.7 11.7-4.5 11.7-4.5l7.8 10.1z" fill="#fff"/></svg>