<svg width="18" height="18" fill="none" xmlns="http://www.w3.org/2000/svg"><path d="M14.464.027a.408.408 0 00-.398.06C14.05.1 12.542 1.273 11.33 1.656c-.287.09-.692.203-1.157.334-2.22.62-4.11 1.185-4.736 1.812-.699.698-1.157 3.451-1.305 4.465C1.794 8.64 0 10.649 0 13.09A4.914 4.914 0 004.91 18c2.706 0 4.908-2.184 4.908-4.892 0-.594-.114-1.174-.326-1.731.728-.409 1.476-.692 2.002-.743.114-.01.223-.015.33-.02.59-.028 1.201-.056 2.326-.874.604-.44.951-1.012 1.32-1.619.505-.834 1.028-1.696 2.326-2.449A.409.409 0 0018 5.318c0-3.893-3.5-5.277-3.536-5.29zM4.91 17.2a4.096 4.096 0 01-4.09-4.09 4.096 4.096 0 014.09-4.091c.446 0 .887.08 1.306.221a5.83 5.83 0 00-.917.887.403.403 0 00-.389-.308.409.409 0 00-.409.41v.429a1.43 1.43 0 00-1.227 1.411c0 .79.642 1.432 1.432 1.432h.409a.615.615 0 010 1.227H3.682a.409.409 0 100 .819H4.5v.409a.409.409 0 10.818 0v-.43a1.43 1.43 0 001.227-1.411c0-.79-.642-1.432-1.431-1.432h-.41a.615.615 0 010-1.227h.02c.01.267.112.505.305.698.375.374.849.525 1.354.525.812 0 1.705-.39 2.403-.864.142.419.214.853.214 1.294A4.096 4.096 0 014.91 17.2zm9.86-9.502c-.337.557-.629 1.039-1.1 1.381-.927.674-1.35.693-1.884.718-.12.006-.241.012-.37.024-.828.079-2.028.588-3.057 1.298-.913.631-2.164 1.043-2.75.456-.048-.047-.088-.112-.059-.259.13-.64 1.322-1.675 1.968-1.936.776-.313 2.629-1.161 3.088-2.268a.41.41 0 00-.037-.383c-.273-.41-.7-.596-1.01-.733-.095-.041-.22-.09-.222-.092a.41.41 0 00-.519-.133c-.25.125-.915.317-1.15.38a.41.41 0 00-.264.22L6.42 8.449a4.913 4.913 0 00-1.45-.245c.23-1.49.658-3.435 1.045-3.823.526-.525 2.938-1.2 4.378-1.603.475-.133.89-.249 1.184-.342 1.086-.342 2.318-1.203 2.793-1.553.653.322 2.695 1.54 2.806 4.208-1.331.832-1.926 1.812-2.407 2.607zm-7.516.906l.81-1.714c.22-.062.59-.172.877-.282.087.05.185.092.29.137.168.075.353.156.497.27-.427.597-1.55 1.211-2.474 1.59z" fill="#3634E3"/></svg>