<svg width="19" height="20" fill="none" xmlns="http://www.w3.org/2000/svg"><path d="M17.777 7.708l-6.973-6.185a1.886 1.886 0 00-2.608 0L5.862 3.645v-.818h.303c.182 0 .303-.122.303-.303V1.31c0-.182-.121-.303-.303-.303H2.527c-.182 0-.304.12-.304.303v1.213c0 .181.122.303.304.303h.303v3.486L1.223 7.708a.713.713 0 00-.182.758.701.701 0 00.637.425H2.83v8.489h-.303c-.182 0-.304.121-.304.303v1.213c0 .182.122.303.304.303h13.946c.152 0 .304-.121.304-.333v-1.213a.273.273 0 00-.091-.212.275.275 0 00-.213-.091h-.303V8.86h1.152c.303 0 .546-.151.637-.424a.665.665 0 00-.182-.728zm-.394.546c-.03.03-.06.03-.06.03h-1.456c-.182 0-.303.121-.303.303v9.096c0 .182.121.303.303.303h.303v.607H2.83v-.607h.303c.182 0 .303-.12.303-.303V8.587c0-.181-.121-.303-.303-.303H1.678c-.03 0-.061 0-.061-.03s0-.06.03-.091l1.698-1.455a.344.344 0 00.091-.243V2.524c0-.182-.121-.304-.303-.304H2.83v-.606h3.032v.606h-.304c-.181 0-.303.122-.303.304v1.819c0 .121.06.242.182.333.121.03.243.03.334-.06l2.85-2.608c.485-.485 1.243-.485 1.758 0l6.974 6.185c.03 0 .06.03.03.06z" fill="#3634E3" stroke="#3634E3" stroke-width=".2"/><path d="M11.32 9.497h-1.214V8.284h.91c.182 0 .303-.121.303-.303s-.121-.303-.303-.303H8.59c-.181 0-.303.121-.303.303s.122.303.303.303h.91v1.213H5.558c-.181 0-.303.121-.303.303v1.82c0 .181.122.302.303.302h5.337c.06 0 .121.061.121.122v1.697c0 .182.121.304.303.304h1.82a.287.287 0 00.303-.303v-2.123a2.11 2.11 0 00-2.123-2.122zm1.515 3.941h-1.213v-1.394a.738.738 0 00-.727-.728H5.862v-1.213h5.457a1.5 1.5 0 011.516 1.516v1.82h0zm-.394 1.304a.293.293 0 00-.425 0l-.606.607a1.153 1.153 0 00.819 1.97c.303 0 .606-.09.818-.333a1.153 1.153 0 000-1.637l-.606-.607zm.182 1.82a.568.568 0 01-.788 0 .568.568 0 010-.789l.394-.394.394.394a.568.568 0 010 .788z" fill="#3634E3" stroke="#3634E3" stroke-width=".2"/></svg>