<svg width="77" height="76" fill="none" xmlns="http://www.w3.org/2000/svg"><path d="M6.206 35.9c0 18.331 14.88 33.195 33.235 33.195 18.355 0 33.235-14.864 33.235-33.194 0-4.616-.943-9.012-2.647-13.005.976.007 1.978.056 3.012.137a37.92 37.92 0 013.065 14.97C76.106 58.988 59.07 76 38.052 76 17.036 76 0 58.989 0 38.002S17.036 0 38.052 0a37.9 37.9 0 0120.2 5.79c-.72.447-1.417.924-2.094 1.42A33.11 33.11 0 0039.44 2.712c-18.354 0-33.234 14.861-33.234 33.19z" fill="#1E1CCA"/><path d="M18.617 31.703c0 13.02 10.57 23.571 23.604 23.571 13.034 0 23.603-10.552 23.603-23.571 0-2.928-.538-5.73-1.513-8.32A27.06 27.06 0 0167.12 23a28.25 28.25 0 012.13 10.803c0 15.675-12.724 28.379-28.417 28.379-15.7 0-28.423-12.704-28.423-28.379 0-15.676 12.724-28.381 28.423-28.381a28.35 28.35 0 0113.37 3.33 41.27 41.27 0 00-1.85 1.66A23.517 23.517 0 0042.22 8.134c-13.034 0-23.603 10.552-23.603 23.569z" fill="#1E1CCA"/><path d="M31.031 27.507c0 7.703 6.257 13.95 13.97 13.95 7.712 0 13.965-6.247 13.965-13.95 0-.8-.065-1.59-.196-2.356.934-.42 1.864-.779 2.8-1.072a18.81 18.81 0 01.828 5.523c0 10.363-8.413 18.762-18.788 18.762-10.371 0-18.784-8.399-18.784-18.761 0-10.358 8.413-18.76 18.784-18.76 2.468 0 4.826.477 6.984 1.341a57.549 57.549 0 00-1.723 1.915 13.863 13.863 0 00-3.87-.544c-7.713 0-13.97 6.246-13.97 13.952z" fill="#1E1CCA"/><path d="M63.224 9.549s4.512 3.704 7.768 8.93c-7.933-1.341-16.096 1.56-22.865 8.159l-1.782-.007c3.172-6.756 10.482-14.803 16.88-17.082z" fill="#1E1CCA"/></svg>