<svg width="146" height="110" fill="none" xmlns="http://www.w3.org/2000/svg"><path fill-rule="evenodd" clip-rule="evenodd" d="M86.383 42.273s-.694.107-.694.696.641.75.641.75-.374-.322-.32-.803c.107-.482.373-.643.373-.643zm-1.067 4.604v-1.553s.053-.856.907-.856c.855 0 .748.75.748.75v1.605h-1.655v.054zm-.801 7.815h3.097v1.766h-3.097v-1.766zm0-7.387h3.097v1.766h-3.097v-1.766zm.64 2.462h1.87v4.443h-1.87v-4.443zm0 7.387h1.87v10.117h-1.87V57.154zm-22.05 9.207h3.417v-1.873h3.417v.642h-2.35v1.285h2.243v.749h-6.727v-.803zm18.42-2.89s-.694.107-.694.695c0 .59.64.75.64.75s-.373-.321-.32-.803c.107-.482.374-.642.374-.642zm-3.951 3.854s1.335-1.767 3.364-1.767c2.028 0 3.577 1.66 3.577 1.66l-6.941.107zm.694-17.933c.747 0 1.709-.588 1.762-1.98.053-1.124-1.388-2.355-1.602-2.998-.213-.642-.267-.963-.267-.963s-.427.589-.587 1.231c-.16.589-1.602 1.713-1.335 3.051.16.857.854 1.66 2.029 1.66zm-1.068.429h2.029l.908 9.796h-3.898l.961-9.796zm-10.09 6.905h2.456v2.355H67.11v-2.355zm-3.898 0h2.456v2.355h-2.456v-2.355zm0-7.762h2.456v2.355h-2.456v-2.355zm6.087 2.463s.16-.375.694-.375c.587 0 .64.267.961.214.374 0 .64-.214.64-.214s-.32.482-.747.535c-.427.054-.747-.268-1.067-.214-.267 0-.481.054-.481.054zm-.374-.482s.16-.696.801-.696c.694 0 .801.268 1.335.16.587-.106.908-.267.908-.267s-.374.589-1.068.696c-.64.107-.855-.321-1.388-.214-.427.107-.588.32-.588.32zm0-3.051s0-.643.267-1.553c.267-.856.855-1.391.855-1.391s-.054.535.053.856c.107.321.427.75.427.75s.214-.643.48-1.018c.268-.374.588-.642.588-.642s-.267 1.285-.16 1.82c.106.535.32 1.231.32 1.231l-2.83-.053zm-1.655 1.391h4.645s-.106.536-.64.59c-.534.053-1.015-.483-1.816-.161-.8.32-1.014.91-1.014.91s-.534-.482-.748-.75c-.267-.214-.427-.589-.427-.589zm-6.62-7.226h.64v1.178h2.777v-1.178h.64v2.516h-.694v-.75h-2.776v.696h-.587V42.06zm-1.229 2.462v-4.443s.16-.481.588-.481h4.752v.696h-4.645v.856h4.645v.696h-4.645v2.623h-.695v.053zm-1.815-5.995h.854l-.053.696s.374-.75.64-.75h5.66v.59h-5.5s-.64 1.391-.693 2.944c-.054 2.248.587 2.944.587 2.944h5.713l-.053.695h-5.767s-.267-.053-.48-.642v.535h-.908v-7.012zm15.59.214v13.918h-15.59v-5.246h10.038V38.74h5.553zm8.01 0v21.947h-23.6V55.12h17.887V38.74h5.712zm2.028 0h5.873v29.71h-31.5v-5.246h25.627V38.74zm-13.508 44l-4.698-4.603h29.365s2.456-.267 2.83-2.087c.374-1.82 0-2.623 0-2.623l4.699-4.336v8.725s-1.389 4.818-6.407 4.818h-25.79v.107zm21.73-6.904l-6.513.107 20.716-20.877s1.548-1.927.534-3.479-1.815-1.82-1.815-1.82l.267-6.37 6.193 6.21s2.403 4.443-1.121 7.922l-18.26 18.307zm3.311-40.843l.053 6.584-20.77-20.822s-1.922-1.553-3.47-.536c-1.549 1.017-1.816 1.82-1.816 1.82l-6.407-.32 6.194-6.21s4.431-2.409 7.902 1.124l18.313 18.36zm7.261 21.465l-4.591 4.71v-29.44s-.267-2.462-2.083-2.837c-1.815-.375-2.616 0-2.616 0l-4.271-4.71h8.703s4.805 1.391 4.805 6.423v25.854h.053zm-51.63 16.005l-.107-6.53 20.77 20.823s1.922 1.552 3.47.535c1.549-1.017 1.816-1.82 1.816-1.82l6.353.267-6.193 6.21s-4.432 2.409-7.902-1.124l-18.207-18.36zm-7.314-22.107l4.591-4.71v29.44s.267 2.463 2.083 2.837c1.815.375 2.616 0 2.616 0l4.325 4.71h-8.703s-4.806-1.39-4.806-6.423V50.356h-.106zm10.838-19.86l6.514-.106-20.77 20.822s-1.548 1.927-.533 3.48c1.014 1.552 1.815 1.82 1.815 1.82l-.267 6.37-6.087-6.156s-2.403-4.443 1.121-7.922l18.207-18.307zm21.464-6.423l4.698 4.604H50.718s-2.457.268-2.83 2.088c-.374 1.82 0 2.622 0 2.622l-4.699 4.336v-8.778s1.389-4.818 6.407-4.818h25.789v-.054z" fill="#3634E3"/></svg>