<svg width="17" height="20" fill="none" xmlns="http://www.w3.org/2000/svg"><path d="M11.194 3.224A2.605 2.605 0 008.627 1c-.825 0-1.608.398-2.095 1.065a.305.305 0 10.492.36c.373-.51.972-.815 1.603-.815.98 0 1.825.731 1.963 1.7a.305.305 0 00.604-.086zM15.6 6.64l-.915-1.526a.305.305 0 00-.261-.148h-.877a.305.305 0 000 .61h.704l.55.916H2.453l.55-.916h.322a.305.305 0 000-.61H2.83a.305.305 0 00-.261.148L1.654 6.64a.305.305 0 00.261.462H15.34a.305.305 0 00.261-.462z" fill="#3634E3" stroke="#3634E3" stroke-width=".2"/><path d="M14.08 3.827a.304.304 0 00-.19-.137l-4.159-.972a.306.306 0 00-.366.227L9.05 4.286a.305.305 0 10.594.139L9.89 3.38l3.565.834-.56 2.395a.305.305 0 10.594.139l.63-2.692a.304.304 0 00-.038-.23zm-5.292.72l-.278-2.35a.305.305 0 00-.338-.268l-5.103.603a.305.305 0 00-.267.34l.463 3.92a.305.305 0 10.606-.071l-.427-3.619 4.496-.531.242 2.048a.305.305 0 00.606-.072z" fill="#3634E3" stroke="#3634E3" stroke-width=".2"/><path d="M11.201 6.68l-.605-2.517a.306.306 0 00-.368-.226L5.313 5.12a.305.305 0 00-.225.368l.302 1.259a.305.305 0 10.594-.143l-.232-.962 4.322-1.039.534 2.222a.305.305 0 10.593-.143z" fill="#3634E3" stroke="#3634E3" stroke-width=".2"/><path d="M15.644 6.78a.305.305 0 00-.305-.29H1.915a.305.305 0 00-.304.29L1 18.678a.305.305 0 00.304.321H15.95a.306.306 0 00.305-.32l-.61-11.899zM1.626 18.39l.58-11.288h12.843l.579 11.288H1.626z" fill="#3634E3" stroke="#3634E3" stroke-width=".2"/><path d="M10.915 7.712a.916.916 0 000 1.83.916.916 0 000-1.83zm0 1.22a.305.305 0 110-.61.305.305 0 010 .61zm-4.576-1.22a.916.916 0 000 1.83.916.916 0 000-1.83zm0 1.22a.305.305 0 110-.61.305.305 0 010 .61z" fill="#3634E3" stroke="#3634E3" stroke-width=".2"/><path d="M10.915 8.627h-.023a.305.305 0 00-.282.423v1.56c0 1.093-.89 1.983-1.983 1.983a1.985 1.985 0 01-1.983-1.983V8.932a.305.305 0 00-.61 0v1.678a2.596 2.596 0 002.593 2.593 2.596 2.596 0 002.593-2.593V8.932a.305.305 0 00-.305-.305z" fill="#3634E3" stroke="#3634E3" stroke-width=".2"/></svg>