<svg width="24" height="24" fill="none" xmlns="http://www.w3.org/2000/svg"><path d="M17.143 4.286H2.57A2.571 2.571 0 000 6.857V21.43A2.571 2.571 0 002.571 24h14.572a2.571 2.571 0 002.571-2.57V6.857a2.571 2.571 0 00-2.571-2.571zM18 21.428a.857.857 0 01-.857.858H2.57a.857.857 0 01-.857-.858V6.858c0-.474.384-.858.857-.858h14.572c.473 0 .857.384.857.857V21.43z" fill="#79799E"/><path d="M21.429 0H6a2.571 2.571 0 00-2.57 2.571.857.857 0 101.714 0c0-.473.384-.857.857-.857H21.43c.473 0 .857.384.857.857V18a.857.857 0 01-.857.857.857.857 0 000 1.715A2.571 2.571 0 0024 18V2.571A2.571 2.571 0 0021.43 0z" fill="#79799E"/></svg>