<svg width="82" height="63" viewBox="0 0 82 63" fill="none" xmlns="http://www.w3.org/2000/svg">
<path d="M2.392 22.176H15.41V27.926H2.392V22.176ZM32.3017 18.91C35.123 19.37 37.285 20.428 38.7877 22.084C40.2904 23.7093 41.0417 25.7333 41.0417 28.156C41.0417 30.0267 40.551 31.7593 39.5697 33.354C38.5884 34.918 37.0857 36.1753 35.0617 37.126C33.0684 38.0767 30.615 38.552 27.7017 38.552C25.4324 38.552 23.1937 38.2607 20.9857 37.678C18.8084 37.0647 16.953 36.206 15.4197 35.102L18.3177 29.398C19.5444 30.318 20.955 31.0387 22.5497 31.56C24.175 32.0507 25.831 32.296 27.5177 32.296C29.3884 32.296 30.8604 31.9433 31.9337 31.238C33.007 30.502 33.5437 29.4747 33.5437 28.156C33.5437 25.5187 31.535 24.2 27.5177 24.2H24.1137V19.278L30.7377 11.78H17.0297V5.8H39.5697V10.63L32.3017 18.91ZM50.1051 23.188C47.7438 23.188 45.8118 22.3907 44.3091 20.796C42.8371 19.1707 42.1011 17.0087 42.1011 14.31C42.1011 11.6113 42.8371 9.46466 44.3091 7.87C45.8118 6.24467 47.7438 5.432 50.1051 5.432C52.4665 5.432 54.3831 6.24467 55.8551 7.87C57.3271 9.46466 58.0631 11.6113 58.0631 14.31C58.0631 17.0087 57.3271 19.1707 55.8551 20.796C54.3831 22.3907 52.4665 23.188 50.1051 23.188ZM69.2871 5.8H74.7611L52.7731 38H47.2991L69.2871 5.8ZM50.1051 19.416C51.1478 19.416 51.9605 18.9867 52.5431 18.128C53.1565 17.2693 53.4631 15.9967 53.4631 14.31C53.4631 12.6233 53.1565 11.3507 52.5431 10.492C51.9605 9.63333 51.1478 9.204 50.1051 9.204C49.0931 9.204 48.2805 9.64867 47.6671 10.538C47.0538 11.3967 46.7471 12.654 46.7471 14.31C46.7471 15.966 47.0538 17.2387 47.6671 18.128C48.2805 18.9867 49.0931 19.416 50.1051 19.416ZM71.9551 38.368C70.4218 38.368 69.0418 38.0153 67.8151 37.31C66.6191 36.574 65.6838 35.5313 65.0091 34.182C64.3345 32.8327 63.9971 31.2687 63.9971 29.49C63.9971 27.7113 64.3345 26.1473 65.0091 24.798C65.6838 23.4487 66.6191 22.4213 67.8151 21.716C69.0418 20.98 70.4218 20.612 71.9551 20.612C74.3165 20.612 76.2331 21.4247 77.7051 23.05C79.2078 24.6447 79.9591 26.7913 79.9591 29.49C79.9591 32.1887 79.2078 34.3507 77.7051 35.976C76.2331 37.5707 74.3165 38.368 71.9551 38.368ZM71.9551 34.596C72.9978 34.596 73.8105 34.1667 74.3931 33.308C75.0065 32.4187 75.3131 31.146 75.3131 29.49C75.3131 27.834 75.0065 26.5767 74.3931 25.718C73.8105 24.8287 72.9978 24.384 71.9551 24.384C70.9431 24.384 70.1305 24.8133 69.5171 25.672C68.9038 26.5307 68.5971 27.8033 68.5971 29.49C68.5971 31.1767 68.9038 32.4493 69.5171 33.308C70.1305 34.1667 70.9431 34.596 71.9551 34.596Z" fill="#3634E3"/>
<path d="M15.48 46.18V50.44H22.24V52.64H15.48V58H12.88V44H23.1V46.18H15.48ZM33.9414 58L30.1414 52.68L26.3814 58H23.4214L28.6214 50.86L23.7014 44H26.6414L30.2214 48.98L33.7614 44H36.5814L31.6814 50.76L36.9414 58H33.9414ZM46.7159 46.18V50.44H53.4759V52.64H46.7159V58H44.1159V44H54.3359V46.18H46.7159ZM67.1503 55.82V58H56.6503V44H66.8703V46.18H59.2503V49.82H66.0103V51.96H59.2503V55.82H67.1503ZM80.3488 55.82V58H69.8488V44H80.0688V46.18H72.4488V49.82H79.2088V51.96H72.4488V55.82H80.3488Z" fill="#3634E3"/>
</svg>
