<svg width="115" height="63" viewBox="0 0 115 63" fill="none" xmlns="http://www.w3.org/2000/svg">
<path d="M2.392 22.176H15.41V27.926H2.392V22.176ZM29.1981 17.898C33.7368 17.898 37.0795 18.8027 39.2261 20.612C41.4035 22.4213 42.4921 24.844 42.4921 27.88C42.4921 29.8427 42.0015 31.6367 41.0201 33.262C40.0388 34.8567 38.5361 36.1447 36.5121 37.126C34.5188 38.0767 32.0501 38.552 29.1061 38.552C26.8368 38.552 24.5981 38.2607 22.3901 37.678C20.2128 37.0647 18.3575 36.206 16.8241 35.102L19.7681 29.398C20.9948 30.318 22.4055 31.0387 24.0001 31.56C25.5948 32.0507 27.2355 32.296 28.9221 32.296C30.7928 32.296 32.2648 31.928 33.3381 31.192C34.4115 30.456 34.9481 29.4287 34.9481 28.11C34.9481 26.73 34.3808 25.6873 33.2461 24.982C32.1421 24.2767 30.2101 23.924 27.4501 23.924H19.2161L20.8721 5.8H40.5141V11.78H27.0821L26.5761 17.898H29.1981ZM69.8036 21.256C71.6436 21.8387 73.0849 22.82 74.1276 24.2C75.1702 25.5493 75.6916 27.2207 75.6916 29.214C75.6916 32.0353 74.5876 34.2127 72.3796 35.746C70.2022 37.2487 67.0129 38 62.8116 38H46.1596V5.8H61.8916C65.8169 5.8 68.8222 6.55133 70.9076 8.054C73.0236 9.55666 74.0816 11.596 74.0816 14.172C74.0816 15.736 73.6982 17.1313 72.9316 18.358C72.1956 19.5847 71.1529 20.5507 69.8036 21.256ZM53.5656 11.412V19.002H60.9716C62.8116 19.002 64.2069 18.68 65.1576 18.036C66.1082 17.392 66.5836 16.4413 66.5836 15.184C66.5836 13.9267 66.1082 12.9913 65.1576 12.378C64.2069 11.734 62.8116 11.412 60.9716 11.412H53.5656ZM62.2596 32.388C64.2222 32.388 65.6942 32.066 66.6756 31.422C67.6876 30.778 68.1936 29.7813 68.1936 28.432C68.1936 25.764 66.2156 24.43 62.2596 24.43H53.5656V32.388H62.2596ZM79.9534 5.8H94.5814C98.0774 5.8 101.159 6.47466 103.827 7.824C106.526 9.14267 108.611 11.0133 110.083 13.436C111.586 15.8587 112.337 18.68 112.337 21.9C112.337 25.12 111.586 27.9413 110.083 30.364C108.611 32.7867 106.526 34.6727 103.827 36.022C101.159 37.3407 98.0774 38 94.5814 38H79.9534V5.8ZM94.2134 31.882C97.4334 31.882 99.9941 30.9927 101.895 29.214C103.827 27.4047 104.793 24.9667 104.793 21.9C104.793 18.8333 103.827 16.4107 101.895 14.632C99.9941 12.8227 97.4334 11.918 94.2134 11.918H87.4054V31.882H94.2134Z" fill="#DD8C2C"/>
<path d="M31.74 58L31.72 48.72L27.12 56.4H25.96L21.36 48.84V58H18.88V44H21.02L26.58 53.28L32.04 44H34.18L34.2 58H31.74ZM37.7816 44H40.3816V58H37.7816V44ZM56.4083 44V58H54.2683L46.5483 48.52V58H43.9683V44H46.1083L53.8283 53.48V44H56.4083ZM75.207 50.72C75.9804 50.9733 76.5937 51.4 77.047 52C77.5004 52.5867 77.727 53.32 77.727 54.2C77.727 55.4133 77.2604 56.3533 76.327 57.02C75.3937 57.6733 74.0337 58 72.247 58H65.287V44H71.847C73.5004 44 74.7737 44.3267 75.667 44.98C76.5604 45.62 77.007 46.5067 77.007 47.64C77.007 48.3333 76.847 48.9467 76.527 49.48C76.207 50.0133 75.767 50.4267 75.207 50.72ZM67.887 46.04V49.9H71.567C72.4737 49.9 73.167 49.74 73.647 49.42C74.1404 49.0867 74.387 48.6067 74.387 47.98C74.387 47.34 74.1404 46.86 73.647 46.54C73.167 46.2067 72.4737 46.04 71.567 46.04H67.887ZM72.087 55.96C74.1004 55.96 75.107 55.2867 75.107 53.94C75.107 52.5933 74.1004 51.92 72.087 51.92H67.887V55.96H72.087ZM89.3819 54.76H82.3819L81.0019 58H78.3219L84.6219 44H87.1819L93.5019 58H90.7819L89.3819 54.76ZM88.5219 52.72L85.8819 46.6L83.2619 52.72H88.5219ZM95.0823 44H97.6823V55.8H105.002V58H95.0823V44ZM108.02 58.14C107.567 58.14 107.18 57.9867 106.86 57.68C106.54 57.36 106.38 56.96 106.38 56.48C106.38 55.9867 106.534 55.5867 106.84 55.28C107.16 54.9733 107.554 54.82 108.02 54.82C108.487 54.82 108.874 54.9733 109.18 55.28C109.5 55.5867 109.66 55.9867 109.66 56.48C109.66 56.96 109.5 57.36 109.18 57.68C108.86 57.9867 108.474 58.14 108.02 58.14Z" fill="#DD8C2C"/>
</svg>
