<svg width="347" height="78" viewBox="0 0 347 78" fill="none" xmlns="http://www.w3.org/2000/svg">
<circle cx="5.5" cy="44.5" r="5.5" fill="#ECEEF8"/>
<rect y="53" width="11" height="25" rx="2" fill="#ECEEF8"/>
<circle cx="21.5" cy="44.5" r="5.5" fill="#ECEEF8"/>
<rect x="16" y="53" width="11" height="25" rx="2" fill="#ECEEF8"/>
<circle cx="37.5" cy="44.5" r="5.5" fill="#ECEEF8"/>
<rect x="32" y="53" width="11" height="25" rx="2" fill="#ECEEF8"/>
<circle cx="53.5" cy="36.5" r="5.5" fill="#ECEEF8"/>
<rect x="48" y="45" width="11" height="25" rx="2" fill="#ECEEF8"/>
<circle cx="69.5" cy="32.5" r="5.5" fill="#ECEEF8"/>
<rect x="64" y="41" width="11" height="25" rx="2" fill="#ECEEF8"/>
<circle cx="85.5" cy="35.5" r="5.5" fill="#ECEEF8"/>
<rect x="80" y="44" width="11" height="25" rx="2" fill="#ECEEF8"/>
<circle cx="101.5" cy="38.5" r="5.5" fill="#ECEEF8"/>
<rect x="96" y="47" width="11" height="25" rx="2" fill="#ECEEF8"/>
<circle cx="117.5" cy="41.5" r="5.5" fill="#ECEEF8"/>
<rect x="112" y="50" width="11" height="25" rx="2" fill="#ECEEF8"/>
<circle cx="133.5" cy="44.5" r="5.5" fill="#ECEEF8"/>
<rect x="128" y="53" width="11" height="25" rx="2" fill="#ECEEF8"/>
<circle cx="149.5" cy="36.5" r="5.5" fill="#ECEEF8"/>
<rect x="144" y="45" width="11" height="25" rx="2" fill="#ECEEF8"/>
<circle cx="165.5" cy="28.5" r="5.5" fill="#ECEEF8"/>
<rect x="160" y="37" width="11" height="25" rx="2" fill="#ECEEF8"/>
<circle cx="181.5" cy="20.5" r="5.5" fill="#ECEEF8"/>
<rect x="176" y="29" width="11" height="25" rx="2" fill="#ECEEF8"/>
<circle cx="197.5" cy="12.5" r="5.5" fill="#ECEEF8"/>
<rect x="192" y="21" width="11" height="25" rx="2" fill="#ECEEF8"/>
<circle cx="213.5" cy="5.5" r="5.5" fill="#ECEEF8"/>
<rect x="208" y="14" width="11" height="25" rx="2" fill="#ECEEF8"/>
<circle cx="229.5" cy="5.5" r="5.5" fill="#ECEEF8"/>
<rect x="224" y="14" width="11" height="25" rx="2" fill="#ECEEF8"/>
<circle cx="245.5" cy="5.5" r="5.5" fill="#ECEEF8"/>
<rect x="240" y="14" width="11" height="25" rx="2" fill="#ECEEF8"/>
<circle cx="261.5" cy="5.5" r="5.5" fill="#ECEEF8"/>
<rect x="256" y="14" width="11" height="25" rx="2" fill="#ECEEF8"/>
<circle cx="277.5" cy="5.5" r="5.5" fill="#ECEEF8"/>
<rect x="272" y="14" width="11" height="25" rx="2" fill="#ECEEF8"/>
<circle cx="293.5" cy="5.5" r="5.5" fill="#ECEEF8"/>
<rect x="288" y="14" width="11" height="25" rx="2" fill="#ECEEF8"/>
<circle cx="309.5" cy="5.5" r="5.5" fill="#ECEEF8"/>
<rect x="304" y="14" width="11" height="25" rx="2" fill="#ECEEF8"/>
<circle cx="325.5" cy="5.5" r="5.5" fill="#ECEEF8"/>
<rect x="320" y="14" width="11" height="25" rx="2" fill="#ECEEF8"/>
<circle cx="341.5" cy="5.5" r="5.5" fill="#ECEEF8"/>
<rect x="336" y="14" width="11" height="25" rx="2" fill="#ECEEF8"/>
</svg>
