<svg width="1024" height="1024" viewBox="0 0 1024 1024" fill="none" xmlns="http://www.w3.org/2000/svg">
<rect x="0.5" y="0.5" width="1023" height="1023" fill="white"/>
<path d="M906.578 707.366C823.746 728.798 814.478 677.245 835.91 615.266C872.982 509.265 890.359 433.384 845.757 354.608C806.369 286.257 700.947 294.366 700.947 294.366C700.947 294.366 670.826 132.758 490.682 128.124C231.761 121.752 89.2673 362.138 118.229 572.982C139.082 722.426 236.395 795.99 346.451 795.99C429.861 795.99 476.78 760.077 504.005 716.634C481.414 726.481 454.19 733.432 421.752 734.011C370.2 734.59 326.177 718.371 293.74 685.934C261.881 654.076 245.083 611.212 245.083 559.08C245.083 539.386 246.821 520.85 249.717 503.473C251.455 506.948 252.614 509.844 254.931 513.32C264.778 529.539 279.838 539.386 297.215 542.282C300.111 542.861 302.428 542.861 304.745 542.861C305.904 542.861 306.483 542.861 307.641 542.861L337.762 572.402C340.079 574.719 342.396 575.299 345.292 575.299C348.188 575.299 350.505 574.14 352.822 572.402C356.877 568.348 356.877 561.976 352.822 557.921L338.921 544.02C373.675 515.637 376.571 476.828 376.571 465.243C377.73 451.92 383.522 448.445 389.894 449.603C395.686 450.182 400.32 456.554 398.003 469.877C398.003 471.035 397.424 471.614 397.424 472.773C395.686 477.407 394.528 482.041 393.369 486.675C389.315 507.527 393.369 528.38 403.796 545.178C414.222 562.555 431.02 574.14 450.135 577.616C454.19 578.195 458.244 578.774 462.299 578.774C477.359 578.774 491.84 573.561 504.584 563.714C516.748 554.446 526.016 541.703 531.229 526.642C532.966 522.008 534.125 517.374 535.284 512.741C536.442 508.107 536.442 503.473 536.442 498.839C536.442 497.101 536.442 495.363 536.442 493.626L557.295 476.248H534.125C527.174 449.024 506.321 427.013 479.097 421.8C452.452 417.166 426.386 428.75 410.167 450.762C407.271 443.811 401.479 438.018 393.949 436.281C385.26 434.543 376.571 437.439 370.2 444.39C363.249 418.324 344.134 398.051 319.226 394.575C313.434 393.996 307.641 393.996 301.849 395.154C340.658 349.974 391.631 326.804 453.031 326.804C505.742 326.804 549.185 343.023 581.044 376.039C610.585 405.581 626.225 444.39 629.121 491.309L554.398 508.107C550.344 508.686 548.027 512.161 548.027 516.216C548.606 519.691 551.502 522.588 554.978 522.588C555.557 522.588 555.557 522.588 556.136 522.588L629.121 505.79C629.121 531.276 625.645 549.812 620.432 575.878L619.853 577.616L597.262 675.507C576.989 780.929 636.651 833.641 731.646 833.641C835.91 833.641 909.474 754.864 909.474 754.864L906.578 707.366ZM466.354 434.543C469.25 434.543 472.725 434.543 475.622 435.122C491.261 438.018 504.584 448.445 512.693 461.767C513.852 468.139 513.852 477.407 509.218 485.516C508.638 486.095 508.638 486.095 508.059 486.675C508.059 486.675 506.901 488.992 504.584 491.309C502.267 494.205 499.371 497.101 495.316 499.418C488.944 502.893 480.835 505.79 470.408 503.473C456.507 499.997 451.873 487.833 450.714 477.407C450.135 471.614 444.922 467.56 439.129 468.139C433.337 468.718 429.282 473.931 429.862 479.724C432.758 503.473 446.08 519.691 466.354 523.746C468.671 524.325 471.567 524.325 473.884 524.325C479.097 524.325 483.731 524.325 488.365 523.167C499.371 520.85 509.218 515.637 517.327 507.527L520.802 504.631C520.802 505.79 520.802 506.948 520.223 508.107C519.065 515.637 516.748 522.008 513.272 528.38C508.638 537.069 502.846 544.599 495.316 549.812C482.573 559.659 467.512 563.714 452.452 560.818C437.392 557.921 424.648 549.233 415.96 535.331C407.271 521.429 404.375 504.052 407.271 487.254C413.063 457.133 438.55 434.543 466.354 434.543ZM298.953 527.222C286.21 525.484 275.204 517.954 267.674 505.21C261.881 495.943 258.985 484.937 258.406 473.931C258.406 469.877 258.406 465.243 258.985 460.609C261.302 444.39 268.832 429.909 279.838 420.062C289.106 411.952 299.532 407.319 310.538 407.319C312.275 407.319 314.592 407.319 316.33 407.898C338.341 410.794 353.981 431.067 356.877 455.975C356.298 456.554 356.298 457.713 355.719 458.292C355.139 459.45 354.56 460.03 353.981 461.188C348.768 468.718 340.658 474.511 329.073 472.194C320.964 470.456 314.592 462.346 312.855 454.816C312.275 452.499 312.275 450.182 312.275 448.445C312.275 448.445 312.275 448.445 312.275 447.865V445.548V444.969L312.855 435.122H278.1L291.423 449.603C291.423 453.079 292.002 457.133 292.581 460.609C296.057 473.931 307.641 489.571 325.019 493.046C326.177 493.046 327.336 493.626 328.494 493.626C344.713 494.784 352.243 484.937 352.243 484.937L353.402 485.516C351.664 491.309 349.347 497.68 345.871 504.631C336.024 518.533 322.123 526.642 307.062 527.222C303.587 527.222 301.27 527.222 298.953 527.222Z" fill="#3E40F8"/>
<path d="M420.594 600.206C417.698 604.84 406.693 619.9 392.791 617.004C384.102 615.266 378.31 609.474 374.834 599.627C373.097 594.413 367.304 590.938 361.512 592.676C356.299 594.413 352.823 600.206 354.561 605.998C359.774 622.796 371.938 633.802 388.157 637.277C390.474 637.857 393.37 637.857 395.687 637.857C411.327 637.857 426.387 628.009 437.393 611.211C440.289 606.578 439.13 600.206 434.496 596.73C430.442 593.834 424.07 595.572 420.594 600.206Z" fill="#3E40F8"/>
<path d="M559.034 618.741C550.925 618.741 543.974 625.113 543.974 633.222C543.974 641.332 550.345 647.703 559.034 647.703C567.143 647.703 574.094 641.332 574.094 633.222C573.515 625.113 567.143 618.741 559.034 618.741Z" fill="#3E40F8"/>
<rect x="0.5" y="0.5" width="1023" height="1023" stroke="white"/>
</svg>
