<svg width="140" height="51" fill="none" xmlns="http://www.w3.org/2000/svg"><path d="M40.783 28.957c1.039 1.038 1.537 2.616 1.537 4.693v8.057h-4.942V34.48c0-.996-.166-1.702-.54-2.2-.374-.457-.914-.707-1.578-.707-.748 0-1.33.25-1.786.79-.457.54-.665 1.328-.665 2.367v6.977h-4.942V34.48c0-1.91-.706-2.865-2.118-2.865-.747 0-1.37.249-1.827.789-.457.54-.665 1.329-.665 2.367v6.978h-4.983V27.628h2.076c1.163 0 2.118.955 2.118 2.118.748-.997 1.662-1.62 2.41-1.91.705-.291 1.494-.416 2.366-.416.997 0 1.87.166 2.658.54.79.374 1.412.914 1.91 1.661.54-.706 1.247-1.246 2.119-1.62a6.807 6.807 0 012.782-.58c1.661 0 3.032.498 4.07 1.536zm19.104-1.329v14.079h-1.993a2.127 2.127 0 01-2.118-2.118c-1.163 1.744-2.866 2.367-4.735 2.367-1.287 0-2.45-.29-3.488-.914-1.039-.58-1.87-1.453-2.492-2.575-.623-1.12-.914-2.408-.914-3.862 0-1.453.29-2.741.914-3.82.623-1.08 1.453-1.953 2.492-2.534 1.038-.582 2.2-.873 3.488-.873 1.661 0 2.99.499 3.904 1.454v-1.204h4.942zm-5.69 9.51c.54-.58.831-1.412.831-2.491 0-1.039-.29-1.87-.83-2.45-.54-.582-1.246-.873-2.119-.873-.872 0-1.578.29-2.118.872-.54.582-.83 1.412-.83 2.45 0 1.039.29 1.87.83 2.492.54.582 1.246.914 2.118.914.873 0 1.579-.332 2.118-.913zm9.677 3.489c-.955-.872-1.453-2.16-1.453-3.82v-14.37h4.942v14.079c0 .54.124.913.415 1.204.25.29.665.415 1.122.415.415 0 .789-.083 1.12-.249l.209 3.697a7.183 7.183 0 01-2.326.373c-1.745 0-3.073-.457-4.029-1.329zM15.782 27.628v14.08h-1.994a2.127 2.127 0 01-2.118-2.119c-1.163 1.744-2.865 2.367-4.734 2.367-1.288 0-2.45-.29-3.489-.913-1.038-.582-1.869-1.454-2.492-2.575C.291 37.388 0 36.1 0 34.647c0-1.454.29-2.741.914-3.821.623-1.08 1.453-1.952 2.492-2.534 1.038-.581 2.2-.872 3.488-.872 1.661 0 2.99.498 3.904 1.454v-1.205h4.984v-.041zm-5.69 9.51c.54-.58.83-1.411.83-2.491 0-1.039-.29-1.87-.83-2.45-.54-.582-1.246-.873-2.118-.873-.872 0-1.578.29-2.118.872-.54.582-.83 1.412-.83 2.45 0 1.039.29 1.87.83 2.493.54.581 1.246.913 2.118.913.83 0 1.537-.332 2.118-.913zm129.7 4.402c-5.939 1.538-6.603-2.159-5.066-6.603 2.658-7.6 3.903-13.04.706-18.69-2.824-4.9-10.383-4.318-10.383-4.318S122.889.34 109.973.009c-18.564-.457-28.78 16.779-26.704 31.896 1.495 10.716 8.472 15.99 16.363 15.99 5.981 0 9.345-2.575 11.296-5.69-1.619.706-3.571 1.205-5.897 1.246-3.696.042-6.852-1.121-9.178-3.447-2.284-2.284-3.489-5.357-3.489-9.095 0-1.412.125-2.741.332-3.987.125.249.208.456.374.706.706 1.163 1.786 1.869 3.032 2.076.208.042.374.042.54.042h.208l2.16 2.118c.165.166.331.208.54.208.207 0 .373-.084.539-.208a.727.727 0 000-1.038l-.997-.997c2.492-2.035 2.7-4.818 2.7-5.649.083-.955.498-1.204.955-1.12.415.04.747.498.581 1.453 0 .083-.041.124-.041.207a8.922 8.922 0 00-.291.997c-.291 1.495 0 2.99.748 4.195.747 1.246 1.952 2.076 3.322 2.326.291.041.582.083.872.083 1.08 0 2.118-.374 3.032-1.08a5.635 5.635 0 001.91-2.658c.125-.332.208-.665.291-.997.083-.332.083-.664.083-.997v-.373l1.495-1.246h-1.661c-.498-1.952-1.993-3.53-3.945-3.904-1.911-.333-3.78.498-4.942 2.076-.208-.498-.623-.913-1.163-1.038-.623-.125-1.246.083-1.703.581-.498-1.869-1.869-3.322-3.655-3.571a4.186 4.186 0 00-1.246.041c2.783-3.24 6.438-4.9 10.84-4.9 3.779 0 6.894 1.162 9.178 3.53 2.118 2.118 3.239 4.9 3.447 8.264l-5.357 1.205c-.291.041-.457.29-.457.581.041.25.249.457.498.457h.083l5.233-1.204c0 1.827-.249 3.156-.623 5.025l-.041.125-1.62 7.019c-1.454 7.558 2.824 11.338 9.635 11.338 7.476 0 12.75-5.648 12.75-5.648l-.208-3.406zm-31.563-19.56c.208 0 .457 0 .664.04 1.122.209 2.077.956 2.658 1.911.084.457.084 1.122-.249 1.703l-.083.083s-.083.166-.249.332a2.312 2.312 0 01-.664.582c-.457.25-1.039.457-1.786.29-.997-.249-1.329-1.12-1.412-1.868a.75.75 0 00-.831-.665.75.75 0 00-.664.83c.207 1.704 1.162 2.866 2.616 3.157.166.042.374.042.54.042.374 0 .706 0 1.038-.083a4.09 4.09 0 002.077-1.122l.249-.207c0 .083 0 .166-.042.249-.083.54-.249.997-.498 1.453-.332.623-.748 1.163-1.287 1.537-.914.706-1.994.997-3.074.79-1.08-.208-1.993-.831-2.616-1.828-.623-.997-.831-2.243-.623-3.447.415-2.16 2.243-3.78 4.236-3.78zm-12.002 6.644c-.914-.124-1.703-.664-2.243-1.578-.415-.664-.623-1.453-.664-2.242 0-.291 0-.623.041-.956.166-1.163.706-2.2 1.495-2.907.665-.581 1.412-.914 2.201-.914.125 0 .29 0 .415.042 1.579.207 2.7 1.661 2.908 3.447-.042.042-.042.125-.083.166-.042.083-.083.125-.125.208-.374.54-.955.955-1.786.789-.581-.125-1.038-.706-1.163-1.246-.041-.166-.041-.332-.041-.457v-.249l.041-.706h-2.492l.956 1.038c0 .25.041.54.083.79.249.954 1.08 2.076 2.326 2.325.083 0 .166.042.249.042 1.162.083 1.702-.623 1.702-.623l.084.041a8.489 8.489 0 01-.54 1.37c-.706.997-1.703 1.579-2.783 1.62h-.581z" fill="#D4D3E3"/><path d="M104.948 33.858c-.207.332-.996 1.412-1.993 1.204-.623-.125-1.038-.54-1.288-1.246a.779.779 0 00-.955-.498.779.779 0 00-.498.955c.374 1.204 1.246 1.993 2.409 2.243.166.041.373.041.539.041 1.122 0 2.202-.706 2.991-1.91a.788.788 0 00-.208-1.039c-.291-.207-.748-.083-.997.25zm9.926 1.329c-.581 0-1.08.456-1.08 1.038 0 .581.457 1.038 1.08 1.038.582 0 1.08-.457 1.08-1.038-.042-.582-.498-1.038-1.08-1.038z" fill="#D4D3E3"/></svg>