<svg xmlns="http://www.w3.org/2000/svg" viewBox="0 0 403.1 340"><style>.st0{fill-opacity:.45}.st1{fill:#fff}</style><path class="st0" d="M0 40L200 0v30L0 60z"/><path class="st1" d="M200 0l200 40v20L200 30z"/><path class="st0" d="M0 78v184l45 5V152l45 83 47-83v129l53 7V52l-57 8-43 83-43-70z"/><path class="st1" d="M400 78v184l-45 5V152l-45 83-47-83v129l-53 7V52l57 8 43 83 43-70z"/><path class="st0" d="M0 300l200 40v-30L0 280z"/><path class="st1" d="M200 340l200-40v-20l-200 30z"/><path d="M274.1 300.9l-71 40.1v-31.2l44.2-24.3 26.8 15.4zm4.9-4.4v-83.9l-26 15v53.9l26 15zm-153.2 4.4l71 40.1v-31.2l-44.3-24.3-26.7 15.4zm-4.8-4.4v-83.9l26 15v53.9l-26 15zm3-89.4l72.8-41.1v30.2l-46.7 25.6-.4.2-25.7-14.9zm151.9 0L203.1 166v30.2l46.7 25.6.4.2 25.7-14.9z" fill="#8ed6fb"/><path d="M196.8 302.9l-43.4-24v-47.5l43.4 25.2v46.3zm6.2 0l43.4-24v-47.5L203 256.6v46.3zM156.3 226l43.6-24.1 43.6 24.1-43.6 25.3-43.6-25.3z" fill="#1c78c0"/></svg>