<svg width="822" height="1688" viewBox="0 0 822 1688" fill="none" xmlns="http://www.w3.org/2000/svg">
<path fill-rule="evenodd" clip-rule="evenodd" d="M36 117V1571C36 1617.94 74.0558 1656 121 1656H701C747.944 1656 786 1617.94 786 1571V117C786 70.0558 747.944 32 701 32H121C74.0558 32 36 70.0558 36 117Z" fill="#FF3B3B"/>
<rect x="36" y="32" width="750" height="1624" rx="85" fill="#D8D8D8" stroke="#979797"/>
<mask id="mask0" mask-type="alpha" maskUnits="userSpaceOnUse" x="35" y="31" width="752" height="1626">
<rect x="36" y="32" width="750" height="1624" rx="85" fill="white" stroke="white"/>
</mask>
<g mask="url(#mask0)">
<path d="M788.931 32H36V1663.35H788.931V32Z" fill="#3E40F8"/>
<g filter="url(#filter0_d)">
<path d="M36 293.173H788.931V1664.92H36V293.173Z" fill="white"/>
</g>
<path d="M36 264.938C36 245.446 51.8015 229.645 71.2937 229.645H391.29C410.781 229.645 426.583 245.446 426.583 264.938V351.996H36V264.938Z" fill="white"/>
<path d="M788.932 328.467H461.877C442.385 328.467 426.583 312.665 426.583 293.173V271.997H788.932V328.467Z" fill="#3E40F8"/>
<path d="M160.704 942.577C160.704 911.389 185.987 886.107 217.174 886.107H803.049V999.046H217.174C185.987 999.046 160.704 973.764 160.704 942.577Z" fill="#ECEEF8"/>
<path d="M618.743 467.288H587.828V462.689L600.214 450.239C603.988 446.423 606.475 443.698 607.677 442.068C608.877 440.439 609.779 438.851 610.379 437.308C610.979 435.764 611.28 434.101 611.28 432.322C611.28 429.811 610.517 427.828 608.995 426.369C607.473 424.889 605.36 424.15 602.659 424.15C600.706 424.15 598.852 424.473 597.094 425.115C595.355 425.76 593.416 426.927 591.271 428.621L588.44 424.985C592.772 421.383 597.489 419.583 602.595 419.583C607.012 419.583 610.475 420.72 612.986 422.993C615.494 425.244 616.748 428.28 616.748 432.096C616.748 435.077 615.913 438.025 614.24 440.943C612.567 443.858 609.435 447.548 604.847 452.009L594.553 462.077V462.336H618.743V467.288ZM632.915 459.632L633.397 460.373C632.839 462.517 632.035 465.004 630.983 467.834C629.934 470.688 628.839 473.335 627.703 475.78H623.682C624.261 473.55 624.894 470.794 625.578 467.514C626.287 464.232 626.781 461.606 627.058 459.632H632.915ZM673.495 456.479H666.514V467.288H661.399V456.479H638.529V451.816L660.853 420H666.514V451.623H673.495V456.479ZM661.399 451.623V435.988C661.399 432.922 661.507 429.458 661.721 425.597H661.465C660.434 427.656 659.47 429.362 658.569 430.712L643.867 451.623H661.399ZM708.318 440.331C708.318 458.731 701.199 467.931 686.959 467.931C684.472 467.931 682.498 467.717 681.039 467.288V462.689C682.754 463.246 684.707 463.524 686.895 463.524C692.041 463.524 695.923 461.938 698.54 458.764C701.177 455.569 702.615 450.679 702.85 444.096H702.464C701.283 445.875 699.719 447.237 697.768 448.18C695.815 449.103 693.617 449.564 691.173 449.564C687.013 449.564 683.709 448.319 681.265 445.832C678.82 443.345 677.597 439.87 677.597 435.409C677.597 430.52 678.959 426.658 681.684 423.828C684.427 420.997 688.032 419.583 692.49 419.583C695.686 419.583 698.474 420.409 700.855 422.058C703.257 423.689 705.102 426.08 706.389 429.232C707.676 432.364 708.318 436.063 708.318 440.331ZM692.49 424.15C689.425 424.15 687.055 425.136 685.382 427.11C683.709 429.082 682.874 431.828 682.874 435.345C682.874 438.432 683.646 440.868 685.189 442.646C686.733 444.406 689.081 445.284 692.234 445.284C694.185 445.284 695.977 444.889 697.606 444.096C699.257 443.301 700.556 442.218 701.5 440.846C702.443 439.472 702.914 438.037 702.914 436.536C702.914 434.284 702.474 432.204 701.596 430.294C700.716 428.385 699.483 426.884 697.895 425.79C696.33 424.696 694.528 424.15 692.49 424.15ZM745.619 443.71C745.619 451.837 744.332 457.905 741.758 461.917C739.207 465.926 735.292 467.931 730.017 467.931C724.956 467.931 721.107 465.884 718.469 461.787C715.831 457.67 714.511 451.644 714.511 443.71C714.511 435.517 715.787 429.437 718.339 425.47C720.892 421.501 724.784 419.517 730.017 419.517C735.12 419.517 738.991 421.588 741.629 425.727C744.29 429.865 745.619 435.861 745.619 443.71ZM719.916 443.71C719.916 450.55 720.721 455.536 722.328 458.667C723.937 461.778 726.499 463.331 730.017 463.331C733.577 463.331 736.151 461.754 737.737 458.604C739.346 455.43 740.151 450.465 740.151 443.71C740.151 436.952 739.346 432.011 737.737 428.88C736.151 425.727 733.577 424.15 730.017 424.15C726.499 424.15 723.937 425.705 722.328 428.814C720.721 431.903 719.916 436.868 719.916 443.71Z" fill="#626189"/>
<path d="M660.145 624.933H654.933V591.414C654.933 588.626 655.02 585.988 655.192 583.501C654.74 583.951 654.237 584.423 653.679 584.915C653.122 585.409 650.569 587.499 646.023 591.188L643.192 587.522L655.642 577.903H660.145V624.933ZM708.319 597.976C708.319 616.376 701.199 625.576 686.959 625.576C684.472 625.576 682.498 625.362 681.039 624.933V620.334C682.754 620.891 684.707 621.169 686.895 621.169C692.041 621.169 695.923 619.583 698.54 616.409C701.178 613.214 702.615 608.324 702.85 601.741H702.465C701.283 603.52 699.719 604.882 697.768 605.825C695.815 606.748 693.618 607.209 691.173 607.209C687.013 607.209 683.71 605.964 681.265 603.477C678.82 600.99 677.597 597.515 677.597 593.054C677.597 588.165 678.959 584.303 681.684 581.473C684.427 578.642 688.032 577.228 692.491 577.228C695.686 577.228 698.474 578.054 700.855 579.703C703.257 581.334 705.102 583.725 706.389 586.878C707.676 590.009 708.319 593.708 708.319 597.976ZM692.491 581.795C689.425 581.795 687.055 582.781 685.382 584.755C683.71 586.727 682.874 589.473 682.874 592.99C682.874 596.077 683.646 598.513 685.189 600.291C686.733 602.051 689.081 602.929 692.234 602.929C694.185 602.929 695.978 602.534 697.606 601.741C699.258 600.946 700.556 599.863 701.5 598.491C702.443 597.117 702.914 595.682 702.914 594.181C702.914 591.929 702.474 589.849 701.596 587.939C700.716 586.03 699.483 584.529 697.895 583.435C696.331 582.341 694.528 581.795 692.491 581.795ZM745.619 601.355C745.619 609.482 744.332 615.55 741.758 619.562C739.208 623.571 735.292 625.576 730.017 625.576C724.956 625.576 721.107 623.529 718.469 619.432C715.831 615.315 714.511 609.289 714.511 601.355C714.511 593.162 715.787 587.082 718.34 583.115C720.893 579.146 724.784 577.162 730.017 577.162C735.121 577.162 738.991 579.233 741.629 583.372C744.29 587.51 745.619 593.506 745.619 601.355ZM719.916 601.355C719.916 608.195 720.721 613.181 722.328 616.312C723.937 619.423 726.5 620.976 730.017 620.976C733.577 620.976 736.151 619.399 737.737 616.249C739.346 613.075 740.151 608.11 740.151 601.355C740.151 594.597 739.346 589.656 737.737 586.525C736.151 583.372 733.577 581.795 730.017 581.795C726.5 581.795 723.937 583.35 722.328 586.459C720.721 589.548 719.916 594.513 719.916 601.355Z" fill="#626189"/>
<path d="M618.743 760.328C618.743 778.727 611.623 787.927 597.383 787.927C594.894 787.927 592.922 787.713 591.464 787.285V782.685C593.179 783.243 595.132 783.52 597.318 783.52C602.466 783.52 606.348 781.934 608.965 778.76C611.602 775.565 613.037 770.676 613.275 764.092H612.889C611.708 765.871 610.143 767.233 608.19 768.177C606.24 769.099 604.042 769.56 601.598 769.56C597.435 769.56 594.134 768.316 591.689 765.829C589.245 763.342 588.021 759.866 588.021 755.405C588.021 750.516 589.384 746.655 592.108 743.824C594.852 740.994 598.454 739.58 602.915 739.58C606.11 739.58 608.899 740.405 611.28 742.055C613.682 743.685 615.527 746.076 616.814 749.229C618.098 752.361 618.743 756.059 618.743 760.328ZM602.915 744.147C599.849 744.147 597.48 745.132 595.807 747.107C594.134 749.078 593.296 751.824 593.296 755.342C593.296 758.429 594.071 760.864 595.614 762.643C597.158 764.403 599.506 765.28 602.659 765.28C604.609 765.28 606.4 764.885 608.03 764.092C609.682 763.297 610.979 762.215 611.922 760.843C612.866 759.469 613.339 758.033 613.339 756.532C613.339 754.281 612.899 752.201 612.019 750.29C611.141 748.382 609.908 746.881 608.32 745.787C606.755 744.692 604.953 744.147 602.915 744.147ZM632.915 779.628L633.397 780.37C632.839 782.513 632.035 785 630.983 787.831C629.934 790.685 628.84 793.332 627.703 795.777H623.682C624.261 793.546 624.894 790.791 625.578 787.511C626.287 784.228 626.781 781.603 627.058 779.628H632.915ZM660.145 787.285H654.933V753.765C654.933 750.977 655.02 748.339 655.192 745.852C654.74 746.302 654.237 746.775 653.679 747.267C653.122 747.761 650.569 749.85 646.023 753.539L643.192 749.874L655.642 740.255H660.145V787.285ZM706.549 751.321C706.549 754.323 705.702 756.779 704.008 758.688C702.335 760.596 699.954 761.871 696.867 762.516V762.772C700.641 763.245 703.439 764.445 705.262 766.375C707.086 768.306 707.996 770.836 707.996 773.967C707.996 778.45 706.441 781.901 703.333 784.325C700.222 786.727 695.806 787.927 690.079 787.927C687.592 787.927 685.307 787.734 683.227 787.348C681.168 786.984 679.164 786.33 677.211 785.386V780.304C679.248 781.313 681.415 782.085 683.709 782.621C686.025 783.134 688.213 783.393 690.272 783.393C698.399 783.393 702.464 780.207 702.464 773.838C702.464 768.135 697.982 765.28 689.018 765.28H684.385V760.68H689.081C692.749 760.68 695.655 759.878 697.799 758.269C699.945 756.638 701.015 754.386 701.015 751.514C701.015 749.219 700.222 747.417 698.636 746.109C697.069 744.801 694.935 744.147 692.234 744.147C690.175 744.147 688.234 744.427 686.411 744.982C684.589 745.539 682.509 746.57 680.171 748.071L677.469 744.469C679.399 742.947 681.618 741.756 684.128 740.897C686.658 740.017 689.316 739.58 692.105 739.58C696.674 739.58 700.222 740.629 702.754 742.73C705.283 744.812 706.549 747.674 706.549 751.321ZM729.149 758.558C734.102 758.558 737.996 759.791 740.826 762.257C743.678 764.702 745.104 768.059 745.104 772.327C745.104 777.196 743.549 781.012 740.44 783.779C737.351 786.546 733.083 787.927 727.636 787.927C722.34 787.927 718.297 787.08 715.509 785.386V780.24C717.01 781.205 718.876 781.967 721.107 782.525C723.337 783.059 725.535 783.327 727.702 783.327C731.476 783.327 734.403 782.438 736.483 780.659C738.584 778.878 739.636 776.304 739.636 772.937C739.636 766.375 735.615 763.095 727.572 763.095C725.535 763.095 722.81 763.405 719.401 764.026L716.634 762.257L718.403 740.255H741.791V745.177H722.972L721.782 759.297C724.248 758.805 726.704 758.558 729.149 758.558Z" fill="#626189"/>
<path d="M570.57 966.106H565.358V932.586C565.358 929.798 565.445 927.16 565.614 924.673C565.165 925.123 564.661 925.596 564.104 926.087C563.546 926.581 560.993 928.671 556.447 932.36L553.617 928.694L566.066 919.076H570.57V966.106ZM618.743 966.106H587.828V961.506L600.214 949.056C603.988 945.24 606.475 942.515 607.677 940.885C608.877 939.257 609.778 937.668 610.378 936.125C610.978 934.581 611.28 932.918 611.28 931.139C611.28 928.628 610.517 926.645 608.995 925.186C607.473 923.706 605.36 922.967 602.659 922.967C600.706 922.967 598.852 923.29 597.094 923.932C595.355 924.577 593.416 925.744 591.27 927.438L588.44 923.803C592.772 920.2 597.489 918.4 602.595 918.4C607.011 918.4 610.475 919.537 612.985 921.81C615.494 924.062 616.748 927.097 616.748 930.913C616.748 933.894 615.912 936.843 614.24 939.76C612.567 942.675 609.435 946.365 604.847 950.826L594.553 960.894V961.153H618.743V966.106ZM632.915 958.449L633.397 959.19C632.839 961.334 632.035 963.821 630.983 966.652C629.933 969.506 628.839 972.153 627.703 974.597H623.682C624.261 972.367 624.894 969.611 625.578 966.332C626.286 963.049 626.781 960.423 627.058 958.449H632.915ZM669.507 930.141C669.507 933.144 668.66 935.6 666.966 937.508C665.293 939.417 662.912 940.692 659.822 941.337V941.593C663.599 942.066 666.397 943.266 668.22 945.195C670.041 947.127 670.954 949.656 670.954 952.788C670.954 957.27 669.399 960.722 666.288 963.146C663.18 965.548 658.761 966.748 653.037 966.748C650.547 966.748 648.265 966.555 646.183 966.169C644.124 965.804 642.119 965.15 640.169 964.207V959.125C642.206 960.134 644.371 960.906 646.667 961.442C648.983 961.955 651.171 962.214 653.23 962.214C661.357 962.214 665.42 959.028 665.42 952.659C665.42 946.955 660.938 944.101 651.973 944.101H647.343V939.501H652.039C655.705 939.501 658.611 938.699 660.757 937.09C662.9 935.459 663.973 933.207 663.973 930.334C663.973 928.04 663.18 926.238 661.592 924.93C660.027 923.621 657.893 922.967 655.192 922.967C653.133 922.967 651.192 923.247 649.369 923.803C647.545 924.36 645.465 925.391 643.129 926.892L640.425 923.29C642.357 921.767 644.576 920.577 647.084 919.718C649.616 918.838 652.274 918.4 655.063 918.4C659.63 918.4 663.18 919.45 665.709 921.551C668.241 923.633 669.507 926.494 669.507 930.141ZM708.318 966.106H677.403V961.506L689.789 949.056C693.563 945.24 696.05 942.515 697.253 940.885C698.453 939.257 699.354 937.668 699.954 936.125C700.556 934.581 700.855 932.918 700.855 931.139C700.855 928.628 700.095 926.645 698.57 925.186C697.048 923.706 694.935 922.967 692.234 922.967C690.283 922.967 688.427 923.29 686.669 923.932C684.933 924.577 682.992 925.744 680.846 927.438L678.015 923.803C682.347 920.2 687.065 918.4 692.17 918.4C696.587 918.4 700.05 919.537 702.561 921.81C705.069 924.062 706.323 927.097 706.323 930.913C706.323 933.894 705.488 936.843 703.815 939.76C702.142 942.675 699.01 946.365 694.422 950.826L684.128 960.894V961.153H708.318V966.106ZM745.36 966.106H714.448V961.506L726.831 949.056C730.607 945.24 733.094 942.515 734.294 940.885C735.497 939.257 736.398 937.668 736.998 936.125C737.598 934.581 737.899 932.918 737.899 931.139C737.899 928.628 737.137 926.645 735.614 925.186C734.092 923.706 731.979 922.967 729.276 922.967C727.325 922.967 725.471 923.29 723.711 923.932C721.975 924.577 720.033 925.744 717.89 927.438L715.059 923.803C719.391 920.2 724.109 918.4 729.212 918.4C733.631 918.4 737.094 919.537 739.603 921.81C742.113 924.062 743.367 927.097 743.367 930.913C743.367 933.894 742.53 936.843 740.857 939.76C739.184 942.675 736.054 946.365 731.464 950.826L721.17 960.894V961.153H745.36V966.106Z" fill="#626189"/>
<path d="M213.553 459.293C210.599 459.293 208.265 460.279 206.549 462.251C204.846 464.213 203.994 466.903 203.994 470.321C203.994 473.839 204.815 476.559 206.457 478.484C208.112 480.394 210.464 481.352 213.516 481.352C215.391 481.352 217.529 481.013 219.931 480.34V483.079C218.069 483.778 215.771 484.126 213.038 484.126C209.08 484.126 206.022 482.926 203.865 480.524C201.721 478.121 200.649 474.71 200.649 470.284C200.649 467.514 201.163 465.089 202.193 463.006C203.234 460.921 204.729 459.317 206.678 458.19C208.639 457.063 210.943 456.498 213.59 456.498C216.408 456.498 218.871 457.013 220.979 458.042L219.656 460.726C217.621 459.771 215.587 459.293 213.553 459.293ZM228.203 463.613V476.681C228.203 478.324 228.577 479.549 229.325 480.359C230.072 481.166 231.243 481.571 232.835 481.571C234.943 481.571 236.481 480.997 237.45 479.844C238.43 478.691 238.92 476.811 238.92 474.201V463.613H241.972V483.759H239.453L239.012 481.058H238.846C238.221 482.048 237.351 482.808 236.236 483.335C235.133 483.862 233.871 484.126 232.45 484.126C229.999 484.126 228.16 483.545 226.935 482.38C225.722 481.215 225.115 479.354 225.115 476.792V463.613H228.203ZM257.651 463.244C258.546 463.244 259.349 463.317 260.06 463.465L259.637 466.296C258.803 466.112 258.068 466.02 257.431 466.02C255.801 466.02 254.404 466.681 253.24 468.006C252.088 469.328 251.512 470.978 251.512 472.95V483.759H248.46V463.613H250.979L251.328 467.343H251.475C252.222 466.032 253.123 465.02 254.177 464.31C255.231 463.599 256.389 463.244 257.651 463.244ZM273.018 463.244C273.914 463.244 274.717 463.317 275.427 463.465L275.004 466.296C274.171 466.112 273.434 466.02 272.799 466.02C271.168 466.02 269.771 466.681 268.607 468.006C267.455 469.328 266.879 470.978 266.879 472.95V483.759H263.828V463.613H266.346L266.695 467.343H266.843C267.59 466.032 268.491 465.02 269.545 464.31C270.598 463.599 271.757 463.244 273.018 463.244ZM287.707 484.126C284.728 484.126 282.375 483.22 280.648 481.406C278.931 479.592 278.074 477.074 278.074 473.851C278.074 470.604 278.87 468.023 280.463 466.112C282.07 464.201 284.22 463.244 286.917 463.244C289.441 463.244 291.437 464.077 292.909 465.745C294.378 467.399 295.114 469.587 295.114 472.307V474.237H281.237C281.298 476.601 281.891 478.397 283.018 479.622C284.159 480.848 285.757 481.46 287.815 481.46C289.985 481.46 292.131 481.008 294.251 480.1V482.822C293.171 483.286 292.149 483.618 291.18 483.813C290.225 484.022 289.067 484.126 287.707 484.126ZM286.879 465.799C285.263 465.799 283.968 466.326 283.001 467.38C282.044 468.434 281.481 469.893 281.31 471.754H291.841C291.841 469.832 291.413 468.361 290.557 467.343C289.698 466.314 288.472 465.799 286.879 465.799ZM314.121 483.759V470.726C314.121 469.084 313.747 467.858 313.001 467.048C312.253 466.241 311.081 465.837 309.488 465.837C307.382 465.837 305.836 466.406 304.858 467.545C303.876 468.686 303.387 470.566 303.387 473.19V483.759H300.335V463.613H302.815L303.312 466.368H303.46C304.086 465.378 304.961 464.611 306.088 464.072C307.215 463.519 308.472 463.244 309.857 463.244C312.283 463.244 314.109 463.832 315.335 465.009C316.561 466.173 317.173 468.041 317.173 470.616V483.759H314.121ZM329.968 481.608C330.507 481.608 331.027 481.571 331.53 481.498C332.031 481.413 332.429 481.326 332.723 481.241V483.575C332.394 483.735 331.902 483.862 331.253 483.961C330.617 484.072 330.041 484.126 329.525 484.126C325.629 484.126 323.681 482.074 323.681 477.968V465.983H320.794V464.512L323.681 463.244L324.966 458.943H326.73V463.613H332.577V465.983H326.73V477.839C326.73 479.053 327.02 479.985 327.596 480.634C328.17 481.284 328.961 481.608 329.968 481.608Z" fill="#79799E"/>
<path d="M217.211 634.254C217.211 636.618 216.353 638.463 214.637 639.785C212.922 641.11 210.593 641.771 207.652 641.771C204.466 641.771 202.015 641.362 200.299 640.541V637.527C201.402 637.99 202.603 638.36 203.902 638.628C205.201 638.898 206.488 639.033 207.763 639.033C209.846 639.033 211.414 638.642 212.468 637.856C213.522 637.061 214.049 635.957 214.049 634.548C214.049 633.616 213.859 632.856 213.479 632.268C213.112 631.668 212.487 631.117 211.604 630.614C210.734 630.113 209.405 629.541 207.615 628.906C205.115 628.009 203.326 626.95 202.248 625.724C201.182 624.499 200.649 622.899 200.649 620.927C200.649 618.856 201.427 617.207 202.983 615.981C204.54 614.755 206.598 614.143 209.16 614.143C211.831 614.143 214.288 614.633 216.531 615.614L215.557 618.334C213.338 617.402 211.182 616.939 209.086 616.939C207.432 616.939 206.139 617.294 205.207 618.005C204.276 618.715 203.81 619.701 203.81 620.962C203.81 621.894 203.982 622.661 204.325 623.261C204.668 623.849 205.244 624.395 206.053 624.896C206.874 625.388 208.124 625.931 209.803 626.534C212.622 627.539 214.558 628.616 215.612 629.769C216.678 630.92 217.211 632.416 217.211 634.254ZM234.637 641.404L234.031 638.536H233.884C232.879 639.8 231.874 640.656 230.869 641.11C229.876 641.55 228.632 641.771 227.137 641.771C225.14 641.771 223.571 641.258 222.431 640.228C221.304 639.197 220.74 637.734 220.74 635.835C220.74 631.767 223.994 629.633 230.501 629.437L233.92 629.327V628.077C233.92 626.496 233.577 625.332 232.891 624.586C232.217 623.826 231.132 623.444 229.637 623.444C227.958 623.444 226.059 623.96 223.939 624.988L223.001 622.654C223.994 622.115 225.079 621.692 226.255 621.386C227.444 621.08 228.632 620.927 229.821 620.927C232.223 620.927 234 621.459 235.152 622.527C236.316 623.593 236.898 625.301 236.898 627.654V641.404H234.637ZM227.744 639.254C229.643 639.254 231.132 638.734 232.211 637.691C233.301 636.649 233.847 635.19 233.847 633.315V631.496L230.795 631.626C228.369 631.71 226.616 632.091 225.538 632.764C224.472 633.426 223.939 634.461 223.939 635.87C223.939 636.974 224.27 637.814 224.931 638.39C225.605 638.967 226.543 639.254 227.744 639.254ZM247.615 641.404L239.968 621.259H243.24L247.578 633.207C248.558 636 249.134 637.814 249.306 638.647H249.453C249.588 637.997 250.011 636.656 250.721 634.621C251.445 632.574 253.056 628.12 255.556 621.259H258.828L251.181 641.404H247.615ZM265.115 641.404H262.063V621.259H265.115V641.404ZM261.806 615.798C261.806 615.099 261.978 614.59 262.321 614.273C262.664 613.941 263.093 613.776 263.607 613.776C264.098 613.776 264.52 613.941 264.876 614.273C265.231 614.602 265.409 615.113 265.409 615.798C265.409 616.485 265.231 617 264.876 617.341C264.52 617.673 264.098 617.837 263.607 617.837C263.093 617.837 262.664 617.673 262.321 617.341C261.978 617 261.806 616.485 261.806 615.798ZM285.371 641.404V628.371C285.371 626.729 284.999 625.503 284.251 624.694C283.503 623.887 282.333 623.482 280.74 623.482C278.632 623.482 277.089 624.052 276.108 625.19C275.126 626.331 274.637 628.211 274.637 630.835V641.404H271.585V621.259H274.068L274.564 624.014H274.71C275.336 623.023 276.211 622.256 277.338 621.717C278.465 621.165 279.722 620.889 281.107 620.889C283.533 620.889 285.359 621.477 286.585 622.654C287.811 623.819 288.423 625.687 288.423 628.261V641.404H285.371ZM311.199 621.259V623.188L307.467 623.628C307.811 624.059 308.117 624.621 308.387 625.32C308.655 626.007 308.792 626.783 308.792 627.654C308.792 629.628 308.117 631.202 306.768 632.378C305.42 633.555 303.571 634.143 301.218 634.143C300.618 634.143 300.053 634.094 299.526 633.997C298.227 634.682 297.578 635.546 297.578 636.588C297.578 637.141 297.804 637.55 298.258 637.821C298.712 638.077 299.488 638.207 300.592 638.207H304.159C306.34 638.207 308.013 638.665 309.178 639.585C310.354 640.503 310.942 641.84 310.942 643.592C310.942 645.823 310.046 647.519 308.258 648.684C306.469 649.861 303.858 650.449 300.427 650.449C297.792 650.449 295.757 649.957 294.324 648.978C292.903 647.997 292.192 646.614 292.192 644.823C292.192 643.597 292.583 642.538 293.368 641.644C294.152 640.748 295.256 640.143 296.677 639.823C296.161 639.59 295.726 639.23 295.371 638.738C295.03 638.249 294.858 637.68 294.858 637.03C294.858 636.294 295.053 635.651 295.446 635.098C295.837 634.548 296.455 634.014 297.303 633.501C296.26 633.07 295.408 632.341 294.747 631.313C294.098 630.282 293.773 629.106 293.773 627.783C293.773 625.576 294.434 623.88 295.757 622.692C297.081 621.489 298.957 620.889 301.382 620.889C302.437 620.889 303.387 621.012 304.232 621.259H311.199ZM295.133 644.788C295.133 645.877 295.592 646.705 296.512 647.268C297.43 647.832 298.747 648.115 300.463 648.115C303.025 648.115 304.919 647.729 306.142 646.955C307.382 646.195 308.001 645.16 308.001 643.849C308.001 642.76 307.662 642 306.989 641.569C306.314 641.153 305.046 640.945 303.185 640.945H299.526C298.14 640.945 297.063 641.275 296.291 641.938C295.519 642.6 295.133 643.548 295.133 644.788ZM296.787 627.71C296.787 629.12 297.185 630.186 297.983 630.908C298.778 631.63 299.888 631.993 301.31 631.993C304.286 631.993 305.775 630.546 305.775 627.654C305.775 624.628 304.27 623.115 301.253 623.115C299.82 623.115 298.717 623.501 297.945 624.273C297.173 625.044 296.787 626.19 296.787 627.71ZM328.33 635.908C328.33 637.783 327.632 639.23 326.236 640.247C324.839 641.263 322.876 641.771 320.354 641.771C317.681 641.771 315.599 641.35 314.102 640.503V637.673C315.072 638.162 316.107 638.548 317.211 638.83C318.326 639.113 319.396 639.254 320.427 639.254C322.02 639.254 323.246 639.002 324.102 638.501C324.961 637.985 325.389 637.207 325.389 636.164C325.389 635.381 325.046 634.713 324.361 634.162C323.686 633.597 322.363 632.936 320.389 632.176C318.514 631.477 317.18 630.87 316.382 630.357C315.599 629.83 315.011 629.235 314.618 628.574C314.239 627.913 314.048 627.122 314.048 626.202C314.048 624.56 314.716 623.268 316.051 622.325C317.387 621.367 319.22 620.889 321.547 620.889C323.716 620.889 325.836 621.332 327.907 622.214L326.825 624.694C324.801 623.861 322.97 623.444 321.328 623.444C319.881 623.444 318.792 623.673 318.055 624.124C317.319 624.579 316.952 625.204 316.952 626C316.952 626.539 317.088 627 317.356 627.379C317.639 627.76 318.086 628.12 318.698 628.463C319.312 628.807 320.488 629.303 322.227 629.953C324.617 630.823 326.229 631.699 327.062 632.581C327.907 633.463 328.33 634.571 328.33 635.908Z" fill="#79799E"/>
<path d="M217.211 796.605C217.211 798.969 216.353 800.814 214.637 802.136C212.922 803.461 210.593 804.122 207.652 804.122C204.466 804.122 202.015 803.713 200.299 802.892V799.877C201.402 800.341 202.603 800.71 203.902 800.979C205.201 801.249 206.488 801.383 207.763 801.383C209.846 801.383 211.414 800.993 212.468 800.207C213.522 799.412 214.049 798.308 214.049 796.899C214.049 795.967 213.859 795.207 213.479 794.619C213.112 794.019 212.487 793.468 211.604 792.965C210.734 792.463 209.405 791.892 207.615 791.256C205.115 790.36 203.326 789.301 202.248 788.075C201.182 786.849 200.649 785.249 200.649 783.278C200.649 781.207 201.427 779.558 202.983 778.332C204.54 777.106 206.598 776.494 209.16 776.494C211.831 776.494 214.288 776.984 216.531 777.965L215.557 780.685C213.338 779.753 211.182 779.289 209.086 779.289C207.432 779.289 206.139 779.645 205.207 780.355C204.276 781.066 203.81 782.052 203.81 783.313C203.81 784.245 203.982 785.012 204.325 785.612C204.668 786.2 205.244 786.746 206.053 787.247C206.874 787.739 208.124 788.282 209.803 788.885C212.622 789.889 214.558 790.967 215.612 792.12C216.678 793.27 217.211 794.767 217.211 796.605ZM234.637 803.755L234.031 800.887H233.884C232.879 802.15 231.874 803.007 230.869 803.461C229.876 803.901 228.632 804.122 227.137 804.122C225.14 804.122 223.571 803.609 222.431 802.579C221.304 801.548 220.74 800.085 220.74 798.186C220.74 794.118 223.994 791.983 230.501 791.788L233.92 791.678V790.428C233.92 788.847 233.577 787.682 232.891 786.936C232.217 786.176 231.132 785.795 229.637 785.795C227.958 785.795 226.059 786.311 223.939 787.339L223.001 785.005C223.994 784.466 225.079 784.042 226.255 783.737C227.444 783.431 228.632 783.278 229.821 783.278C232.223 783.278 234 783.809 235.152 784.878C236.316 785.944 236.898 787.652 236.898 790.005V803.755H234.637ZM227.744 801.605C229.643 801.605 231.132 801.085 232.211 800.042C233.301 799 233.847 797.541 233.847 795.666V793.847L230.795 793.976C228.369 794.061 226.616 794.442 225.538 795.115C224.472 795.776 223.939 796.812 223.939 798.221C223.939 799.325 224.27 800.165 224.931 800.741C225.605 801.317 226.543 801.605 227.744 801.605ZM247.615 803.755L239.968 783.609H243.24L247.578 795.558C248.558 798.35 249.134 800.165 249.306 800.997H249.453C249.588 800.348 250.011 799.007 250.721 796.972C251.445 794.925 253.056 790.471 255.556 783.609H258.828L251.181 803.755H247.615ZM265.115 803.755H262.063V783.609H265.115V803.755ZM261.806 778.148C261.806 777.45 261.978 776.941 262.321 776.624C262.664 776.292 263.093 776.127 263.607 776.127C264.098 776.127 264.52 776.292 264.876 776.624C265.231 776.953 265.409 777.464 265.409 778.148C265.409 778.835 265.231 779.351 264.876 779.692C264.52 780.024 264.098 780.188 263.607 780.188C263.093 780.188 262.664 780.024 262.321 779.692C261.978 779.351 261.806 778.835 261.806 778.148ZM285.371 803.755V790.722C285.371 789.08 284.999 787.854 284.251 787.045C283.503 786.238 282.333 785.833 280.74 785.833C278.632 785.833 277.089 786.402 276.108 787.541C275.126 788.682 274.637 790.562 274.637 793.186V803.755H271.585V783.609H274.068L274.564 786.365H274.71C275.336 785.374 276.211 784.607 277.338 784.068C278.465 783.515 279.722 783.24 281.107 783.24C283.533 783.24 285.359 783.828 286.585 785.005C287.811 786.169 288.423 788.038 288.423 790.612V803.755H285.371ZM311.199 783.609V785.539L307.467 785.979C307.811 786.409 308.117 786.972 308.387 787.671C308.655 788.358 308.792 789.134 308.792 790.005C308.792 791.979 308.117 793.553 306.768 794.729C305.42 795.906 303.571 796.494 301.218 796.494C300.618 796.494 300.053 796.445 299.526 796.348C298.227 797.033 297.578 797.896 297.578 798.939C297.578 799.492 297.804 799.901 298.258 800.172C298.712 800.428 299.488 800.557 300.592 800.557H304.159C306.34 800.557 308.013 801.016 309.178 801.936C310.354 802.854 310.942 804.19 310.942 805.943C310.942 808.174 310.046 809.87 308.258 811.035C306.469 812.211 303.858 812.8 300.427 812.8C297.792 812.8 295.757 812.308 294.324 811.329C292.903 810.348 292.192 808.964 292.192 807.174C292.192 805.948 292.583 804.889 293.368 803.995C294.152 803.099 295.256 802.494 296.677 802.174C296.161 801.941 295.726 801.581 295.371 801.089C295.03 800.6 294.858 800.03 294.858 799.381C294.858 798.645 295.053 798.002 295.446 797.449C295.837 796.899 296.455 796.365 297.303 795.852C296.26 795.421 295.408 794.692 294.747 793.663C294.098 792.633 293.773 791.456 293.773 790.134C293.773 787.927 294.434 786.231 295.757 785.042C297.081 783.84 298.957 783.24 301.382 783.24C302.437 783.24 303.387 783.362 304.232 783.609H311.199ZM295.133 807.139C295.133 808.228 295.592 809.056 296.512 809.619C297.43 810.183 298.747 810.466 300.463 810.466C303.025 810.466 304.919 810.08 306.142 809.306C307.382 808.546 308.001 807.51 308.001 806.2C308.001 805.11 307.662 804.35 306.989 803.92C306.314 803.503 305.046 803.296 303.185 803.296H299.526C298.14 803.296 297.063 803.626 296.291 804.289C295.519 804.95 295.133 805.899 295.133 807.139ZM296.787 790.061C296.787 791.471 297.185 792.536 297.983 793.259C298.778 793.981 299.888 794.343 301.31 794.343C304.286 794.343 305.775 792.896 305.775 790.005C305.775 786.979 304.27 785.466 301.253 785.466C299.82 785.466 298.717 785.852 297.945 786.624C297.173 787.395 296.787 788.541 296.787 790.061ZM328.33 798.259C328.33 800.134 327.632 801.581 326.236 802.597C324.839 803.614 322.876 804.122 320.354 804.122C317.681 804.122 315.599 803.701 314.102 802.854V800.023C315.072 800.513 316.107 800.899 317.211 801.181C318.326 801.463 319.396 801.605 320.427 801.605C322.02 801.605 323.246 801.353 324.102 800.852C324.961 800.336 325.389 799.558 325.389 798.515C325.389 797.732 325.046 797.063 324.361 796.513C323.686 795.948 322.363 795.287 320.389 794.527C318.514 793.828 317.18 793.221 316.382 792.708C315.599 792.181 315.011 791.586 314.618 790.925C314.239 790.263 314.048 789.473 314.048 788.553C314.048 786.911 314.716 785.619 316.051 784.675C317.387 783.718 319.22 783.24 321.547 783.24C323.716 783.24 325.836 783.682 327.907 784.565L326.825 787.045C324.801 786.212 322.97 785.795 321.328 785.795C319.881 785.795 318.792 786.024 318.055 786.475C317.319 786.929 316.952 787.555 316.952 788.351C316.952 788.889 317.088 789.351 317.356 789.729C317.639 790.111 318.086 790.471 318.698 790.814C319.312 791.158 320.488 791.654 322.227 792.303C324.617 793.174 326.229 794.049 327.062 794.932C327.907 795.814 328.33 796.922 328.33 798.259Z" fill="#79799E"/>
<path d="M210.428 403.393L209.638 410.654L216.953 408.612L217.432 411.957L210.428 412.529L214.987 418.52L211.825 420.249L208.59 413.595L205.649 420.249L202.413 418.52L206.862 412.529L199.932 411.957L200.465 408.612L207.652 410.654L206.862 403.393H210.428ZM231.2 403.393L230.409 410.654L237.725 408.612L238.203 411.957L231.2 412.529L235.758 418.52L232.597 420.249L229.362 413.595L226.42 420.249L223.185 418.52L227.634 412.529L220.703 411.957L221.237 408.612L228.424 410.654L227.634 403.393H231.2ZM251.972 403.393L251.181 410.654L258.497 408.612L258.975 411.957L251.972 412.529L256.53 418.52L253.368 420.249L250.133 413.595L247.192 420.249L243.957 418.52L248.405 412.529L241.475 411.957L242.008 408.612L249.196 410.654L248.405 403.393H251.972ZM262.21 423.301V420.506H271.236V423.301H262.21ZM278.037 431.995L289.178 407.932H274.526V405.12H292.413V407.565L281.42 431.995H278.037ZM313.992 418.52C313.992 423.164 313.258 426.633 311.787 428.924C310.328 431.216 308.093 432.362 305.077 432.362C302.185 432.362 299.985 431.192 298.479 428.851C296.971 426.498 296.218 423.056 296.218 418.52C296.218 413.84 296.947 410.364 298.404 408.099C299.862 405.83 302.088 404.696 305.077 404.696C307.994 404.696 310.206 405.88 311.714 408.245C313.234 410.609 313.992 414.035 313.992 418.52ZM299.305 418.52C299.305 422.43 299.766 425.28 300.684 427.068C301.604 428.844 303.067 429.734 305.077 429.734C307.112 429.734 308.582 428.833 309.488 427.033C310.408 425.218 310.867 422.381 310.867 418.52C310.867 414.661 310.408 411.835 309.488 410.047C308.582 408.245 307.112 407.343 305.077 407.343C303.067 407.343 301.604 408.233 300.684 410.009C299.766 411.774 299.305 414.612 299.305 418.52ZM329.029 431.995H326.05V412.84C326.05 411.247 326.1 409.741 326.199 408.32C325.942 408.576 325.653 408.845 325.335 409.127C325.015 409.409 323.559 410.604 320.959 412.713L319.342 410.616L326.455 405.12H329.029V431.995Z" fill="#353550"/>
<path d="M210.428 561.038L209.638 568.299L216.953 566.257L217.432 569.602L210.428 570.174L214.987 576.165L211.825 577.894L208.59 571.24L205.649 577.894L202.413 576.165L206.862 570.174L199.932 569.602L200.465 566.257L207.652 568.299L206.862 561.038H210.428ZM231.2 561.038L230.409 568.299L237.725 566.257L238.203 569.602L231.2 570.174L235.758 576.165L232.597 577.894L229.362 571.24L226.42 577.894L223.185 576.165L227.634 570.174L220.703 569.602L221.237 566.257L228.424 568.299L227.634 561.038H231.2ZM251.972 561.038L251.181 568.299L258.497 566.257L258.975 569.602L251.972 570.174L256.53 576.165L253.368 577.894L250.133 571.24L247.192 577.894L243.957 576.165L248.405 570.174L241.475 569.602L242.008 566.257L249.196 568.299L248.405 561.038H251.972ZM262.21 580.946V578.151H271.236V580.946H262.21ZM278.037 589.64L289.178 565.577H274.526V562.765H292.413V565.21L281.42 589.64H278.037ZM313.992 576.165C313.992 580.809 313.258 584.278 311.787 586.569C310.328 588.861 308.093 590.007 305.077 590.007C302.185 590.007 299.985 588.838 298.479 586.496C296.971 584.143 296.218 580.701 296.218 576.165C296.218 571.485 296.947 568.01 298.404 565.744C299.862 563.475 302.088 562.341 305.077 562.341C307.994 562.341 310.206 563.525 311.714 565.89C313.234 568.254 313.992 571.68 313.992 576.165ZM299.305 576.165C299.305 580.075 299.766 582.925 300.684 584.713C301.604 586.489 303.067 587.379 305.077 587.379C307.112 587.379 308.582 586.478 309.488 584.678C310.408 582.863 310.867 580.026 310.867 576.165C310.867 572.306 310.408 569.48 309.488 567.692C308.582 565.89 307.112 564.988 305.077 564.988C303.067 564.988 301.604 565.878 300.684 567.654C299.766 569.419 299.305 572.257 299.305 576.165ZM335.389 589.64H317.723V587.012L324.801 579.896C326.959 577.715 328.38 576.16 329.067 575.228C329.752 574.297 330.267 573.391 330.61 572.508C330.954 571.626 331.126 570.675 331.126 569.659C331.126 568.224 330.69 567.092 329.82 566.257C328.949 565.412 327.742 564.988 326.199 564.988C325.083 564.988 324.022 565.174 323.017 565.541C322.025 565.908 320.916 566.577 319.69 567.544L318.074 565.468C320.549 563.41 323.246 562.379 326.161 562.379C328.686 562.379 330.664 563.028 332.1 564.327C333.533 565.614 334.25 567.348 334.25 569.53C334.25 571.233 333.773 572.918 332.815 574.586C331.86 576.252 330.071 578.36 327.448 580.908L321.566 586.661V586.809H335.389V589.64Z" fill="#353550"/>
<path d="M210.428 723.389L209.638 730.65L216.953 728.607L217.432 731.953L210.428 732.525L214.987 738.516L211.825 740.245L208.59 733.591L205.649 740.245L202.413 738.516L206.862 732.525L199.932 731.953L200.465 728.607L207.652 730.65L206.862 723.389H210.428ZM231.2 723.389L230.409 730.65L237.725 728.607L238.203 731.953L231.2 732.525L235.758 738.516L232.597 740.245L229.362 733.591L226.42 740.245L223.185 738.516L227.634 732.525L220.703 731.953L221.237 728.607L228.424 730.65L227.634 723.389H231.2ZM251.972 723.389L251.181 730.65L258.497 728.607L258.975 731.953L251.972 732.525L256.53 738.516L253.368 740.245L250.133 733.591L247.192 740.245L243.957 738.516L248.405 732.525L241.475 731.953L242.008 728.607L249.196 730.65L248.405 723.389H251.972ZM262.21 743.297V740.501H271.236V743.297H262.21ZM278.037 751.991L289.178 727.927H274.526V725.116H292.413V727.56L281.42 751.991H278.037ZM313.992 738.516C313.992 743.16 313.258 746.628 311.787 748.92C310.328 751.212 308.093 752.358 305.077 752.358C302.185 752.358 299.985 751.188 298.479 748.847C296.971 746.494 296.218 743.052 296.218 738.516C296.218 733.836 296.947 730.36 298.404 728.094C299.862 725.826 302.088 724.692 305.077 724.692C307.994 724.692 310.206 725.876 311.714 728.24C313.234 730.605 313.992 734.031 313.992 738.516ZM299.305 738.516C299.305 742.426 299.766 745.275 300.684 747.064C301.604 748.84 303.067 749.73 305.077 749.73C307.112 749.73 308.582 748.828 309.488 747.028C310.408 745.214 310.867 742.377 310.867 738.516C310.867 734.657 310.408 731.831 309.488 730.043C308.582 728.24 307.112 727.339 305.077 727.339C303.067 727.339 301.604 728.229 300.684 730.005C299.766 731.77 299.305 734.607 299.305 738.516ZM334.377 731.44C334.377 733.156 333.895 734.558 332.926 735.65C331.97 736.739 330.61 737.469 328.846 737.836V737.984C331.003 738.252 332.601 738.939 333.643 740.043C334.686 741.146 335.206 742.591 335.206 744.381C335.206 746.941 334.316 748.915 332.54 750.299C330.763 751.673 328.239 752.358 324.966 752.358C323.545 752.358 322.241 752.247 321.05 752.028C319.874 751.819 318.728 751.445 317.615 750.906V748.002C318.778 748.577 320.015 749.019 321.328 749.325C322.65 749.619 323.9 749.767 325.076 749.767C329.721 749.767 332.043 747.946 332.043 744.306C332.043 741.047 329.483 739.417 324.361 739.417H321.714V736.789H324.396C326.493 736.789 328.154 736.33 329.38 735.41C330.603 734.478 331.217 733.191 331.217 731.549C331.217 730.238 330.763 729.21 329.857 728.462C328.961 727.713 327.742 727.339 326.199 727.339C325.022 727.339 323.914 727.499 322.872 727.819C321.829 728.137 320.641 728.725 319.305 729.584L317.761 727.525C318.865 726.655 320.133 725.975 321.566 725.483C323.013 724.982 324.533 724.73 326.126 724.73C328.735 724.73 330.763 725.33 332.21 726.532C333.655 727.72 334.377 729.356 334.377 731.44Z" fill="#353550"/>
<path d="M740.764 1615.15H192.401C186.591 1615.15 181.88 1619.86 181.88 1625.67C181.88 1631.48 186.591 1636.19 192.401 1636.19H740.764C746.575 1636.19 751.285 1631.48 751.285 1625.67C751.285 1619.86 746.575 1615.15 740.764 1615.15Z" fill="#ECEEF8"/>
<path d="M192.536 1615.15H192.401C186.591 1615.15 181.88 1619.86 181.88 1625.67C181.88 1631.48 186.591 1636.19 192.401 1636.19H192.536C198.346 1636.19 203.057 1631.48 203.057 1625.67C203.057 1619.86 198.346 1615.15 192.536 1615.15Z" fill="#3634E3"/>
<path d="M207.174 1599.04L203.829 1590.49H193.057L189.748 1599.04H186.586L197.211 1572.05H199.84L210.41 1599.04H207.174ZM202.855 1587.68L199.729 1579.35C199.325 1578.3 198.909 1577 198.48 1575.47C198.21 1576.65 197.824 1577.94 197.321 1579.35L194.16 1587.68H202.855ZM229.086 1599.04H214.104V1572.16H229.086V1574.94H217.229V1583.6H228.369V1586.35H217.229V1596.24H229.086V1599.04ZM256.512 1585.34C256.512 1589.78 255.305 1593.18 252.891 1595.53C250.489 1597.87 247.027 1599.04 242.505 1599.04H235.06V1572.16H243.295C247.474 1572.16 250.721 1573.32 253.038 1575.64C255.354 1577.95 256.512 1581.19 256.512 1585.34ZM253.203 1585.46C253.203 1581.95 252.321 1579.31 250.556 1577.53C248.804 1575.75 246.193 1574.87 242.725 1574.87H238.185V1596.34H241.99C245.715 1596.34 248.516 1595.42 250.391 1593.6C252.266 1591.76 253.203 1589.05 253.203 1585.46ZM281.75 1599.04H278.773V1579.88C278.773 1578.29 278.823 1576.78 278.919 1575.36C278.663 1575.62 278.373 1575.89 278.056 1576.17C277.738 1576.45 276.279 1577.65 273.682 1579.76L272.063 1577.66L279.178 1572.16H281.75V1599.04ZM300.39 1582.62C303.22 1582.62 305.446 1583.33 307.062 1584.74C308.693 1586.14 309.507 1588.05 309.507 1590.49C309.507 1593.27 308.62 1595.46 306.841 1597.03C305.077 1598.62 302.639 1599.41 299.526 1599.41C296.5 1599.41 294.19 1598.92 292.597 1597.95V1595.01C293.453 1595.56 294.519 1596 295.794 1596.32C297.07 1596.62 298.326 1596.78 299.564 1596.78C301.719 1596.78 303.392 1596.27 304.58 1595.25C305.782 1594.23 306.382 1592.76 306.382 1590.84C306.382 1587.09 304.086 1585.22 299.488 1585.22C298.326 1585.22 296.768 1585.39 294.82 1585.75L293.239 1584.74L294.251 1572.16H307.615V1574.98H296.86L296.18 1583.05C297.59 1582.76 298.992 1582.62 300.39 1582.62ZM327.761 1599.04H324.709V1570.44H327.761V1599.04ZM342.742 1599.41C339.766 1599.41 337.413 1598.5 335.683 1596.69C333.968 1594.87 333.109 1592.35 333.109 1589.13C333.109 1585.88 333.907 1583.3 335.5 1581.39C337.104 1579.48 339.255 1578.52 341.951 1578.52C344.476 1578.52 346.474 1579.36 347.944 1581.02C349.415 1582.68 350.151 1584.87 350.151 1587.59V1589.52H336.271C336.333 1591.88 336.928 1593.68 338.055 1594.9C339.194 1596.13 340.794 1596.74 342.853 1596.74C345.022 1596.74 347.165 1596.29 349.285 1595.38V1598.1C348.208 1598.57 347.184 1598.9 346.217 1599.09C345.262 1599.3 344.102 1599.41 342.742 1599.41ZM341.916 1581.08C340.297 1581.08 339.006 1581.61 338.036 1582.66C337.081 1583.71 336.516 1585.17 336.344 1587.03H346.878C346.878 1585.11 346.45 1583.64 345.591 1582.62C344.735 1581.59 343.509 1581.08 341.916 1581.08ZM364.452 1581.26H359.323V1599.04H356.271V1581.26H352.669V1579.88L356.271 1578.78V1577.66C356.271 1572.71 358.433 1570.23 362.76 1570.23C363.826 1570.23 365.076 1570.45 366.511 1570.88L365.72 1573.32C364.544 1572.94 363.539 1572.75 362.706 1572.75C361.553 1572.75 360.702 1573.14 360.151 1573.91C359.598 1574.67 359.323 1575.9 359.323 1577.59V1578.89H364.452V1581.26ZM374.636 1596.89C375.174 1596.89 375.694 1596.85 376.198 1596.78C376.699 1596.69 377.099 1596.61 377.393 1596.52V1598.86C377.061 1599.02 376.572 1599.14 375.923 1599.24C375.285 1599.35 374.709 1599.41 374.193 1599.41C370.297 1599.41 368.349 1597.35 368.349 1593.25V1581.26H365.462V1579.79L368.349 1578.52L369.636 1574.22H371.4V1578.89H377.245V1581.26H371.4V1593.12C371.4 1594.33 371.687 1595.26 372.264 1595.91C372.84 1596.56 373.631 1596.89 374.636 1596.89Z" fill="#353550"/>
<path d="M707.424 1592.86H703.436V1599.04H700.514V1592.86H687.443V1590.2L700.201 1572.02H703.436V1590.09H707.424V1592.86ZM700.514 1590.09V1581.15C700.514 1579.4 700.575 1577.42 700.697 1575.22H700.551C699.963 1576.39 699.41 1577.37 698.895 1578.14L690.495 1590.09H700.514ZM718.932 1571.78C721.384 1571.78 723.325 1572.35 724.76 1573.49C726.193 1574.63 726.911 1576.2 726.911 1578.21C726.911 1579.54 726.499 1580.74 725.678 1581.83C724.857 1582.92 723.546 1583.92 721.744 1584.81C723.925 1585.85 725.476 1586.95 726.396 1588.1C727.313 1589.24 727.774 1590.56 727.774 1592.07C727.774 1594.3 726.996 1596.09 725.44 1597.42C723.883 1598.74 721.751 1599.41 719.043 1599.41C716.174 1599.41 713.97 1598.78 712.424 1597.53C710.88 1596.27 710.109 1594.49 710.109 1592.18C710.109 1589.11 711.984 1586.71 715.734 1584.99C714.043 1584.04 712.829 1583.01 712.095 1581.91C711.358 1580.79 710.991 1579.55 710.991 1578.18C710.991 1576.23 711.709 1574.68 713.142 1573.52C714.589 1572.36 716.518 1571.78 718.932 1571.78ZM713.123 1592.26C713.123 1593.73 713.631 1594.87 714.65 1595.69C715.678 1596.51 717.118 1596.93 718.97 1596.93C720.796 1596.93 722.217 1596.5 723.233 1595.64C724.25 1594.78 724.76 1593.6 724.76 1592.11C724.76 1590.92 724.28 1589.87 723.325 1588.95C722.37 1588.02 720.704 1587.11 718.325 1586.24C716.499 1587.03 715.177 1587.9 714.356 1588.86C713.535 1589.8 713.123 1590.93 713.123 1592.26ZM718.894 1574.26C717.363 1574.26 716.163 1574.63 715.292 1575.36C714.422 1576.1 713.986 1577.08 713.986 1578.3C713.986 1579.43 714.349 1580.4 715.071 1581.21C715.796 1582.02 717.13 1582.82 719.078 1583.63C720.831 1582.9 722.069 1582.11 722.793 1581.26C723.527 1580.42 723.894 1579.43 723.894 1578.3C723.894 1577.06 723.447 1576.09 722.553 1575.36C721.671 1574.63 720.452 1574.26 718.894 1574.26ZM739.979 1582.62C742.809 1582.62 745.035 1583.33 746.652 1584.74C748.282 1586.14 749.096 1588.05 749.096 1590.49C749.096 1593.27 748.209 1595.46 746.433 1597.03C744.668 1598.62 742.228 1599.41 739.115 1599.41C736.09 1599.41 733.779 1598.92 732.186 1597.95V1595.01C733.043 1595.56 734.111 1596 735.384 1596.32C736.659 1596.62 737.915 1596.78 739.153 1596.78C741.308 1596.78 742.981 1596.27 744.172 1595.25C745.372 1594.23 745.972 1592.76 745.972 1590.84C745.972 1587.09 743.675 1585.22 739.078 1585.22C737.915 1585.22 736.358 1585.39 734.41 1585.75L732.828 1584.74L733.84 1572.16H747.205V1574.98H736.45L735.77 1583.05C737.179 1582.76 738.584 1582.62 739.979 1582.62Z" fill="#79799E"/>
<path d="M723.05 133.175C703.558 133.175 687.756 148.977 687.756 168.469C687.756 187.961 703.558 203.763 723.05 203.763C724.114 203.763 725.172 203.715 726.226 203.62C727.208 203.532 728.177 203.398 729.142 203.229L729.513 203.164C747.433 199.82 759.859 183.377 758.184 165.224C756.506 147.07 741.28 133.181 723.05 133.175ZM720.215 201.285H720.132C719.217 201.204 718.309 201.082 717.408 200.925C717.356 200.916 717.304 200.91 717.255 200.9C716.375 200.743 715.502 200.547 714.641 200.319L714.431 200.266C713.591 200.038 712.758 199.773 711.94 199.479C711.855 199.449 711.77 199.421 711.683 199.39C710.881 199.095 710.09 198.764 709.314 198.406C709.217 198.363 709.121 198.322 709.024 198.276C708.262 197.923 707.514 197.525 706.782 197.107C706.678 197.049 706.575 196.99 706.471 196.932C705.749 196.511 705.043 196.059 704.351 195.582C704.248 195.51 704.142 195.439 704.039 195.366C703.359 194.884 702.697 194.372 702.05 193.837L701.874 193.682V183.763C701.883 176.619 707.671 170.831 714.815 170.822H731.285C738.429 170.831 744.217 176.619 744.226 183.763V193.683L744.071 193.813C743.412 194.363 742.737 194.882 742.045 195.372C741.951 195.437 741.859 195.498 741.767 195.561C741.069 196.047 740.351 196.505 739.617 196.934C739.525 196.988 739.431 197.038 739.339 197.091C738.596 197.514 737.838 197.914 737.069 198.274C736.979 198.316 736.89 198.354 736.8 198.392C736.017 198.754 735.222 199.086 734.412 199.384C734.33 199.413 734.25 199.439 734.177 199.468C733.351 199.763 732.516 200.03 731.671 200.259L731.469 200.31C730.605 200.538 729.735 200.734 728.852 200.892C728.803 200.901 728.751 200.908 728.702 200.916C727.801 201.073 726.89 201.195 725.975 201.277H725.892C724.951 201.358 724.008 201.402 723.055 201.402C722.102 201.402 721.154 201.366 720.215 201.285ZM746.579 191.502V183.763C746.57 175.32 739.727 168.479 731.285 168.469H714.815C706.373 168.479 699.53 175.32 699.521 183.763V191.501C686.85 178.568 686.992 157.834 699.836 145.075C712.683 132.316 733.417 132.316 746.264 145.075C759.108 157.834 759.25 178.568 746.579 191.501V191.502Z" fill="#1210A2" stroke="#1210A2" stroke-width="0.6"/>
<path d="M723.05 142.587C716.554 142.587 711.285 147.854 711.285 154.351C711.285 160.849 716.554 166.116 723.05 166.116C729.546 166.116 734.815 160.849 734.815 154.351C734.807 147.857 729.544 142.594 723.05 142.587ZM723.05 163.763C717.852 163.763 713.638 159.55 713.638 154.351C713.638 149.153 717.852 144.94 723.05 144.94C728.248 144.94 732.462 149.153 732.462 154.351C732.457 159.547 728.245 163.757 723.05 163.763Z" fill="#1210A2" stroke="#1210A2" stroke-width="0.6"/>
<path d="M138.744 1566.1H107.372C103.049 1566.1 99.5286 1569.62 99.5286 1573.94V1636.68C99.5286 1641.01 103.049 1644.53 107.372 1644.53H138.744C143.07 1644.53 146.587 1641.01 146.587 1636.68V1573.94C146.587 1569.62 143.07 1566.1 138.744 1566.1ZM143.45 1636.68C143.45 1639.28 141.338 1641.39 138.744 1641.39H107.372C104.777 1641.39 102.666 1639.28 102.666 1636.68V1573.94C102.666 1571.35 104.777 1569.23 107.372 1569.23H138.744C141.338 1569.23 143.45 1571.35 143.45 1573.94V1636.68Z" fill="#3634E3"/>
<path d="M126.195 1572.37H119.92C119.054 1572.37 118.352 1573.07 118.352 1573.94C118.352 1574.81 119.055 1575.51 119.92 1575.51H126.195C127.061 1575.51 127.763 1574.81 127.763 1573.94C127.763 1573.07 127.061 1572.37 126.195 1572.37Z" fill="#3634E3"/>
<path d="M123.057 1635.12C122.191 1635.12 121.489 1635.82 121.489 1636.69C121.489 1637.55 122.191 1638.25 123.057 1638.25C123.923 1638.25 124.626 1637.55 124.626 1636.69C124.626 1635.82 123.923 1635.12 123.057 1635.12Z" fill="#3634E3"/>
<path d="M145.018 1578.65H101.097C100.231 1578.65 99.5286 1579.35 99.5286 1580.22C99.5286 1581.08 100.231 1581.78 101.097 1581.78H145.018C145.884 1581.78 146.587 1581.08 146.587 1580.22C146.587 1579.35 145.884 1578.65 145.018 1578.65Z" fill="#3634E3"/>
<path d="M145.018 1628.84H101.097C100.231 1628.84 99.5286 1629.54 99.5286 1630.41C99.5286 1631.28 100.231 1631.98 101.097 1631.98H145.018C145.884 1631.98 146.587 1631.28 146.587 1630.41C146.587 1629.54 145.884 1628.84 145.018 1628.84Z" fill="#3634E3"/>
<path d="M36 1566.1C36 1553.1 46.5343 1542.57 59.5291 1542.57H765.402C778.397 1542.57 788.931 1553.1 788.931 1566.1V1664.92H36V1566.1Z" fill="#F8F8FC"/>
<path d="M135.116 1618.16L121.587 1604.63L135.116 1618.16ZM126.097 1593.35C126.097 1595.42 125.689 1597.48 124.895 1599.39C124.102 1601.31 122.94 1603.05 121.474 1604.51C120.008 1605.98 118.268 1607.14 116.353 1607.94C114.438 1608.73 112.386 1609.14 110.313 1609.14C108.24 1609.14 106.188 1608.73 104.273 1607.94C102.358 1607.14 100.618 1605.98 99.1517 1604.51C97.6861 1603.05 96.5235 1601.31 95.7301 1599.39C94.9369 1597.48 94.5287 1595.42 94.5287 1593.35C94.5287 1589.17 96.1917 1585.15 99.1517 1582.19C102.112 1579.23 106.127 1577.57 110.313 1577.57C114.499 1577.57 118.514 1579.23 121.474 1582.19C124.434 1585.15 126.097 1589.17 126.097 1593.35Z" stroke="#9595B7" stroke-width="2" stroke-linecap="round" stroke-linejoin="round"/>
<path d="M581.875 1584.92L563.052 1603.74L553.64 1594.33L539.523 1608.45M563.052 1584.92H581.875H563.052ZM581.875 1584.92V1603.74V1584.92Z" stroke="#9595B7" stroke-width="2" stroke-linecap="round" stroke-linejoin="round"/>
<path d="M270.94 1601.71C270.94 1604.15 270.046 1606.16 268.26 1607.75C266.474 1609.33 263.896 1610.31 260.526 1610.68V1616.16H257.164V1610.83C252.986 1610.76 249.557 1610.12 246.877 1608.91V1603.58C248.326 1604.28 250.02 1604.88 251.958 1605.37C253.896 1605.84 255.631 1606.09 257.164 1606.1V1596.65L255.041 1595.87C252.278 1594.81 250.256 1593.54 248.975 1592.08C247.711 1590.59 247.08 1588.77 247.08 1586.59C247.08 1584.27 247.981 1582.35 249.784 1580.85C251.604 1579.35 254.064 1578.44 257.164 1578.12V1573.88H260.526V1578.05C263.947 1578.17 267.19 1578.86 270.257 1580.12L268.412 1584.75C265.766 1583.7 263.138 1583.08 260.526 1582.88V1592.08L262.447 1592.81C265.649 1594.04 267.864 1595.34 269.094 1596.7C270.325 1598.07 270.94 1599.74 270.94 1601.71ZM264.974 1602.09C264.974 1601.11 264.629 1600.31 263.938 1599.68C263.264 1599.04 262.127 1598.43 260.526 1597.84V1605.9C263.492 1605.45 264.974 1604.18 264.974 1602.09ZM253.019 1586.54C253.019 1587.5 253.314 1588.3 253.904 1588.94C254.511 1589.58 255.597 1590.22 257.164 1590.84V1582.98C255.816 1583.18 254.789 1583.59 254.081 1584.22C253.373 1584.84 253.019 1585.62 253.019 1586.54Z" fill="#1311C0"/>
<path d="M708.933 1594.33H708.956H708.933ZM718.344 1594.33H718.368H718.344ZM727.756 1594.33H727.779H727.756ZM739.52 1594.33C739.52 1604.73 730.038 1613.16 718.344 1613.16C714.883 1613.17 711.462 1612.41 708.333 1610.92L697.168 1613.16L700.45 1604.4C698.373 1601.49 697.168 1598.04 697.168 1594.33C697.168 1583.94 706.65 1575.51 718.344 1575.51C730.038 1575.51 739.52 1583.94 739.52 1594.33Z" stroke="#9595B7" stroke-width="2" stroke-linecap="round" stroke-linejoin="round"/>
<path d="M400.701 1568.58C396.737 1569.02 392.979 1570.58 389.859 1573.06C386.739 1575.54 384.386 1578.86 383.066 1582.62C381.749 1586.39 381.518 1590.45 382.405 1594.34C383.292 1598.22 385.257 1601.78 388.078 1604.6C390.899 1607.42 394.457 1609.39 398.346 1610.28C402.233 1611.16 406.294 1610.93 410.056 1609.61C413.821 1608.29 417.136 1605.94 419.621 1602.82C422.106 1599.7 423.659 1595.94 424.101 1591.98H400.701V1568.58Z" stroke="#9595B7" stroke-width="2" stroke-linecap="round" stroke-linejoin="round"/>
<path d="M423.026 1582.57H410.113V1569.66C413.089 1570.71 415.795 1572.42 418.028 1574.65C420.261 1576.89 421.969 1579.59 423.026 1582.57Z" stroke="#9595B7" stroke-width="2" stroke-linecap="round" stroke-linejoin="round"/>
<path d="M200.798 1622.58H207.779C211.017 1622.58 213.355 1623.05 214.791 1624C216.239 1624.94 216.963 1626.43 216.963 1628.47C216.963 1629.84 216.609 1630.98 215.901 1631.89C215.194 1632.81 214.175 1633.38 212.845 1633.61V1633.78C214.497 1634.09 215.708 1634.7 216.48 1635.63C217.263 1636.54 217.654 1637.78 217.654 1639.34C217.654 1641.45 216.914 1643.11 215.435 1644.31C213.966 1645.5 211.918 1646.1 209.291 1646.1H200.798V1622.58ZM204.642 1632.3H208.342C209.95 1632.3 211.124 1632.05 211.864 1631.54C212.604 1631.03 212.974 1630.16 212.974 1628.93C212.974 1627.83 212.572 1627.03 211.767 1626.54C210.974 1626.05 209.709 1625.8 207.972 1625.8H204.642V1632.3ZM204.642 1635.42V1642.86H208.728C210.336 1642.86 211.548 1642.56 212.363 1641.95C213.188 1641.33 213.601 1640.35 213.601 1639.02C213.601 1637.8 213.183 1636.89 212.347 1636.3C211.51 1635.71 210.24 1635.42 208.535 1635.42H204.642ZM233.272 1646.1L232.516 1643.62H232.388C231.53 1644.7 230.667 1645.44 229.798 1645.84C228.93 1646.23 227.814 1646.42 226.453 1646.42C224.705 1646.42 223.338 1645.95 222.351 1645C221.375 1644.06 220.887 1642.73 220.887 1641C220.887 1639.17 221.568 1637.78 222.93 1636.85C224.292 1635.92 226.367 1635.41 229.155 1635.32L232.227 1635.22V1634.28C232.227 1633.14 231.959 1632.29 231.423 1631.73C230.897 1631.17 230.077 1630.88 228.962 1630.88C228.05 1630.88 227.176 1631.01 226.34 1631.28C225.504 1631.55 224.699 1631.87 223.927 1632.23L222.705 1629.53C223.67 1629.03 224.726 1628.65 225.874 1628.39C227.021 1628.12 228.104 1627.99 229.123 1627.99C231.385 1627.99 233.09 1628.48 234.238 1629.47C235.395 1630.45 235.974 1632 235.974 1634.11V1646.1H233.272ZM227.643 1643.52C229.016 1643.52 230.115 1643.14 230.94 1642.38C231.777 1641.61 232.195 1640.53 232.195 1639.15V1637.61L229.911 1637.7C228.131 1637.77 226.833 1638.07 226.018 1638.6C225.214 1639.13 224.812 1639.94 224.812 1641.03C224.812 1641.82 225.048 1642.44 225.52 1642.88C225.992 1643.31 226.699 1643.52 227.643 1643.52ZM245.03 1646.1H241.25V1621.07H245.03V1646.1ZM261.581 1646.1L260.825 1643.62H260.696C259.838 1644.7 258.975 1645.44 258.107 1645.84C257.238 1646.23 256.123 1646.42 254.761 1646.42C253.013 1646.42 251.646 1645.95 250.659 1645C249.684 1644.06 249.196 1642.73 249.196 1641C249.196 1639.17 249.877 1637.78 251.239 1636.85C252.6 1635.92 254.675 1635.41 257.463 1635.32L260.535 1635.22V1634.28C260.535 1633.14 260.267 1632.29 259.731 1631.73C259.206 1631.17 258.385 1630.88 257.27 1630.88C256.359 1630.88 255.485 1631.01 254.649 1631.28C253.812 1631.55 253.008 1631.87 252.236 1632.23L251.013 1629.53C251.978 1629.03 253.035 1628.65 254.182 1628.39C255.329 1628.12 256.412 1627.99 257.431 1627.99C259.694 1627.99 261.399 1628.48 262.546 1629.47C263.704 1630.45 264.283 1632 264.283 1634.11V1646.1H261.581ZM255.951 1643.52C257.324 1643.52 258.423 1643.14 259.249 1642.38C260.085 1641.61 260.503 1640.53 260.503 1639.15V1637.61L258.219 1637.7C256.439 1637.77 255.142 1638.07 254.327 1638.6C253.522 1639.13 253.12 1639.94 253.12 1641.03C253.12 1641.82 253.356 1642.44 253.828 1642.88C254.3 1643.31 255.008 1643.52 255.951 1643.52ZM285.209 1646.1H281.413V1635.16C281.413 1633.79 281.133 1632.76 280.576 1632.09C280.03 1631.41 279.155 1631.07 277.955 1631.07C276.357 1631.07 275.188 1631.55 274.449 1632.49C273.708 1633.43 273.338 1635.01 273.338 1637.23V1646.1H269.559V1628.31H272.517L273.049 1630.64H273.242C273.778 1629.79 274.541 1629.14 275.526 1628.68C276.512 1628.22 277.606 1627.99 278.806 1627.99C283.075 1627.99 285.209 1630.16 285.209 1634.5V1646.1ZM297.641 1646.42C294.95 1646.42 292.903 1645.64 291.498 1644.07C290.103 1642.49 289.406 1640.24 289.406 1637.3C289.406 1634.31 290.136 1632.01 291.594 1630.4C293.063 1628.79 295.18 1627.99 297.947 1627.99C299.825 1627.99 301.512 1628.33 303.013 1629.03L301.872 1632.07C300.274 1631.45 298.954 1631.14 297.914 1631.14C294.837 1631.14 293.3 1633.18 293.3 1637.27C293.3 1639.26 293.679 1640.76 294.441 1641.77C295.213 1642.77 296.34 1643.27 297.818 1643.27C299.503 1643.27 301.096 1642.85 302.597 1642.01V1645.31C301.921 1645.71 301.197 1645.99 300.425 1646.16C299.663 1646.33 298.736 1646.42 297.641 1646.42ZM314.547 1646.42C311.78 1646.42 309.613 1645.61 308.048 1644.01C306.493 1642.39 305.717 1640.16 305.717 1637.33C305.717 1634.42 306.439 1632.14 307.888 1630.48C309.335 1628.82 311.324 1627.99 313.855 1627.99C316.204 1627.99 318.058 1628.7 319.42 1630.13C320.782 1631.55 321.462 1633.51 321.462 1636.01V1638.05H309.608C309.662 1639.78 310.128 1641.11 311.008 1642.04C311.888 1642.97 313.126 1643.43 314.724 1643.43C315.775 1643.43 316.749 1643.33 317.651 1643.14C318.561 1642.93 319.538 1642.6 320.578 1642.14V1645.21C319.655 1645.65 318.724 1645.96 317.78 1646.15C316.836 1646.33 315.759 1646.42 314.547 1646.42ZM313.855 1630.85C312.653 1630.85 311.688 1631.23 310.959 1631.99C310.241 1632.75 309.813 1633.86 309.672 1635.32H317.747C317.726 1633.85 317.373 1632.74 316.686 1631.99C315.999 1631.23 315.055 1630.85 313.855 1630.85Z" fill="#1311C0"/>
<path d="M117.227 167.377C119.674 168.152 121.591 169.457 122.978 171.293C124.364 173.087 125.058 175.31 125.058 177.961C125.058 181.713 123.589 184.608 120.653 186.648C117.757 188.646 113.516 189.645 107.928 189.645H85.7828V146.822H106.705C111.925 146.822 115.922 147.822 118.695 149.82C121.509 151.818 122.916 154.53 122.916 157.956C122.916 160.036 122.407 161.892 121.387 163.523C120.408 165.155 119.022 166.439 117.227 167.377ZM95.6321 154.286V164.38H105.481C107.928 164.38 109.784 163.951 111.048 163.095C112.313 162.239 112.945 160.974 112.945 159.302C112.945 157.63 112.313 156.386 111.048 155.57C109.784 154.714 107.928 154.286 105.481 154.286H95.6321ZM107.194 182.182C109.804 182.182 111.762 181.754 113.067 180.897C114.413 180.041 115.086 178.715 115.086 176.921C115.086 173.373 112.455 171.598 107.194 171.598H95.6321V182.182H107.194ZM143.939 156.243C149.037 156.243 152.953 157.467 155.685 159.914C158.418 162.32 159.784 165.97 159.784 170.864V189.645H150.852V185.547C149.058 188.605 145.714 190.135 140.82 190.135C138.291 190.135 136.089 189.706 134.213 188.85C132.377 187.994 130.97 186.811 129.991 185.302C129.013 183.793 128.523 182.08 128.523 180.163C128.523 177.104 129.665 174.698 131.949 172.944C134.274 171.191 137.842 170.314 142.655 170.314H150.241C150.241 168.234 149.608 166.643 148.344 165.542C147.08 164.4 145.183 163.829 142.655 163.829C140.901 163.829 139.168 164.115 137.455 164.686C135.783 165.216 134.355 165.95 133.173 166.888L129.747 160.22C131.541 158.956 133.682 157.977 136.17 157.283C138.699 156.59 141.288 156.243 143.939 156.243ZM143.205 183.711C144.837 183.711 146.284 183.344 147.549 182.61C148.813 181.835 149.71 180.714 150.241 179.245V175.881H143.695C139.78 175.881 137.822 177.165 137.822 179.735C137.822 180.958 138.291 181.937 139.229 182.671C140.208 183.365 141.533 183.711 143.205 183.711ZM167.198 144.253H176.741V189.645H167.198V144.253ZM197.65 156.243C202.748 156.243 206.663 157.467 209.395 159.914C212.128 162.32 213.494 165.97 213.494 170.864V189.645H204.562V185.547C202.768 188.605 199.424 190.135 194.53 190.135C192.001 190.135 189.799 189.706 187.923 188.85C186.087 187.994 184.68 186.811 183.702 185.302C182.723 183.793 182.233 182.08 182.233 180.163C182.233 177.104 183.375 174.698 185.659 172.944C187.984 171.191 191.553 170.314 196.365 170.314H203.951C203.951 168.234 203.319 166.643 202.054 165.542C200.79 164.4 198.894 163.829 196.365 163.829C194.611 163.829 192.878 164.115 191.165 164.686C189.493 165.216 188.066 165.95 186.883 166.888L183.457 160.22C185.251 158.956 187.393 157.977 189.88 157.283C192.409 156.59 194.999 156.243 197.65 156.243ZM196.916 183.711C198.547 183.711 199.995 183.344 201.259 182.61C202.523 181.835 203.421 180.714 203.951 179.245V175.881H197.405C193.49 175.881 191.532 177.165 191.532 179.735C191.532 180.958 192.001 181.937 192.939 182.671C193.918 183.365 195.244 183.711 196.916 183.711ZM240.912 156.243C244.991 156.243 248.274 157.467 250.762 159.914C253.29 162.361 254.555 165.991 254.555 170.803V189.645H245.011V172.271C245.011 169.661 244.44 167.724 243.298 166.46C242.156 165.155 240.505 164.502 238.343 164.502C235.937 164.502 234.02 165.257 232.592 166.766C231.165 168.234 230.451 170.436 230.451 173.373V189.645H220.908V156.733H230.023V160.587C231.288 159.2 232.858 158.14 234.734 157.406C236.61 156.631 238.669 156.243 240.912 156.243ZM278.246 190.135C274.738 190.135 271.578 189.421 268.764 187.994C265.99 186.525 263.808 184.507 262.218 181.937C260.668 179.368 259.893 176.452 259.893 173.189C259.893 169.926 260.668 167.01 262.218 164.441C263.808 161.872 265.99 159.873 268.764 158.446C271.578 156.977 274.738 156.243 278.246 156.243C281.712 156.243 284.731 156.977 287.3 158.446C289.91 159.873 291.806 161.933 292.99 164.624L285.587 168.601C283.874 165.583 281.406 164.074 278.185 164.074C275.696 164.074 273.637 164.89 272.006 166.521C270.375 168.152 269.559 170.375 269.559 173.189C269.559 176.003 270.375 178.226 272.006 179.857C273.637 181.488 275.696 182.304 278.185 182.304C281.446 182.304 283.914 180.795 285.587 177.777L292.99 181.815C291.806 184.425 289.91 186.464 287.3 187.932C284.731 189.401 281.712 190.135 278.246 190.135ZM329.081 173.311C329.081 173.434 329.02 174.29 328.897 175.881H303.999C304.448 177.92 305.509 179.531 307.18 180.714C308.853 181.896 310.933 182.488 313.42 182.488C315.133 182.488 316.643 182.243 317.947 181.754C319.293 181.224 320.537 180.408 321.679 179.307L326.756 184.812C323.657 188.361 319.13 190.135 313.175 190.135C309.465 190.135 306.182 189.421 303.326 187.994C300.472 186.525 298.27 184.507 296.719 181.937C295.171 179.368 294.394 176.452 294.394 173.189C294.394 169.967 295.15 167.071 296.658 164.502C298.208 161.892 300.309 159.873 302.959 158.446C305.651 156.977 308.648 156.243 311.952 156.243C315.175 156.243 318.09 156.937 320.7 158.323C323.312 159.71 325.349 161.708 326.817 164.319C328.328 166.888 329.081 169.886 329.081 173.311ZM312.013 163.462C309.853 163.462 308.036 164.074 306.568 165.297C305.1 166.521 304.204 168.193 303.876 170.314H320.088C319.763 168.234 318.865 166.582 317.396 165.359C315.928 164.094 314.135 163.462 312.013 163.462Z" fill="#F8F8FC"/>
<path d="M127.764 490.818C153.753 490.818 174.822 469.749 174.822 443.759C174.822 417.77 153.753 396.701 127.764 396.701C101.774 396.701 80.7054 417.77 80.7054 443.759C80.7054 469.749 101.774 490.818 127.764 490.818Z" fill="#0D2062"/>
<path d="M119.788 452.676C120.497 435.133 130.83 419.736 146.478 409.703H136.144C123.39 419.682 115.241 433.578 114.651 449.189C114.178 460.509 117.781 471.187 124.276 480.307H127.228C122.091 471.991 119.375 462.601 119.788 452.676Z" fill="white" stroke="#0A0F4E" stroke-width="0.1"/>
<path d="M132.484 409.703H124.395C115.42 417.322 109.22 428.373 107.803 441.088C106.09 456.594 111.877 470.97 122.21 480.361H124.985C116.069 471.079 111.168 457.719 112.763 443.448C114.298 429.232 121.915 417.159 132.484 409.703Z" fill="#FFA600"/>
<path d="M132.484 409.703H124.395C115.42 417.322 109.22 428.373 107.803 441.088C106.09 456.594 111.877 470.97 122.21 480.361H124.985C116.069 471.079 111.168 457.719 112.763 443.448C114.298 429.232 121.915 417.159 132.484 409.703Z" stroke="#FFA600" stroke-width="0.05"/>
<path d="M141.283 440.122C141.283 434.005 139.275 428.372 135.791 423.652C137.149 427.621 137.74 431.859 137.917 436.205C138.33 448.277 132.249 458.47 123.628 466.517C134.256 462.225 141.283 451.604 141.283 440.122Z" fill="white"/>
<path d="M134.906 447.312C134.67 443.02 133.075 439.049 130.477 435.83C131.54 438.62 132.13 441.571 132.426 444.681C133.193 453.213 129.296 460.67 123.628 466.625C130.831 463.138 135.319 455.413 134.906 447.312Z" fill="#FFA600" stroke="#FFA600" stroke-width="0.05"/>
<path d="M127.764 648.463C153.753 648.463 174.822 627.394 174.822 601.404C174.822 575.415 153.753 554.346 127.764 554.346C101.774 554.346 80.7054 575.415 80.7054 601.404C80.7054 627.394 101.774 648.463 127.764 648.463Z" fill="#0D2062"/>
<path d="M119.788 610.322C120.497 592.778 130.83 577.381 146.478 567.348H136.144C123.39 577.327 115.241 591.223 114.651 606.835C114.178 618.155 117.781 628.832 124.276 637.952H127.228C122.091 629.637 119.375 620.246 119.788 610.322Z" fill="white" stroke="#0A0F4E" stroke-width="0.1"/>
<path d="M132.484 567.348H124.395C115.42 574.967 109.22 586.019 107.803 598.734C106.09 614.239 111.877 628.616 122.21 638.006H124.985C116.069 628.724 111.168 615.364 112.763 601.094C114.298 586.877 121.915 574.805 132.484 567.348Z" fill="#FFA600"/>
<path d="M132.484 567.348H124.395C115.42 574.967 109.22 586.019 107.803 598.734C106.09 614.239 111.877 628.616 122.21 638.006H124.985C116.069 628.724 111.168 615.364 112.763 601.094C114.298 586.877 121.915 574.805 132.484 567.348Z" stroke="#FFA600" stroke-width="0.05"/>
<path d="M141.283 597.767C141.283 591.65 139.275 586.017 135.791 581.297C137.149 585.266 137.74 589.504 137.917 593.85C138.33 605.922 132.249 616.115 123.628 624.162C134.256 619.87 141.283 609.249 141.283 597.767Z" fill="white"/>
<path d="M134.906 604.957C134.67 600.665 133.075 596.694 130.477 593.475C131.54 596.265 132.13 599.216 132.426 602.326C133.193 610.858 129.296 618.315 123.628 624.27C130.831 620.783 135.319 613.058 134.906 604.957Z" fill="#FFA600" stroke="#FFA600" stroke-width="0.05"/>
<path d="M127.764 810.813C153.753 810.813 174.822 789.745 174.822 763.755C174.822 737.766 153.753 716.697 127.764 716.697C101.774 716.697 80.7054 737.766 80.7054 763.755C80.7054 789.745 101.774 810.813 127.764 810.813Z" fill="#0D2062"/>
<path d="M119.788 772.673C120.497 755.129 130.83 739.732 146.478 729.699H136.144C123.39 739.678 115.241 753.574 114.651 769.186C114.178 780.505 117.781 791.183 124.276 800.303H127.228C122.091 791.988 119.375 782.597 119.788 772.673Z" fill="white" stroke="#0A0F4E" stroke-width="0.1"/>
<path d="M132.484 729.699H124.395C115.42 737.318 109.22 748.369 107.803 761.084C106.09 776.59 111.877 790.969 122.21 800.357H124.985C116.069 791.075 111.168 777.717 112.763 763.444C114.298 749.228 121.915 737.155 132.484 729.699Z" fill="#FFA600"/>
<path d="M132.484 729.699H124.395C115.42 737.318 109.22 748.369 107.803 761.084C106.09 776.59 111.877 790.969 122.21 800.357H124.985C116.069 791.075 111.168 777.717 112.763 763.444C114.298 749.228 121.915 737.155 132.484 729.699Z" stroke="#FFA600" stroke-width="0.05"/>
<path d="M141.283 760.118C141.283 754.003 139.275 748.367 135.791 743.647C137.149 747.617 137.74 751.857 137.917 756.203C138.33 768.273 132.249 778.466 123.628 786.515C134.256 782.221 141.283 771.6 141.283 760.118Z" fill="white"/>
<path d="M134.906 767.308C134.67 763.016 133.075 759.044 130.477 755.825C131.54 758.616 132.13 761.567 132.426 764.677C133.193 773.209 129.296 780.665 123.628 786.62C130.831 783.133 135.319 775.409 134.906 767.308Z" fill="#FFA600" stroke="#FFA600" stroke-width="0.05"/>
<path d="M540.217 443.759L537.709 437.348H529.629L527.147 443.759H524.777L532.744 423.52H534.716L542.643 443.759H540.217ZM536.977 435.239L534.634 428.995C534.33 428.204 534.017 427.235 533.697 426.084C533.495 426.967 533.205 427.936 532.829 428.995L530.457 435.239H536.977ZM556.934 443.759H545.697V423.604H556.934V425.684H548.04V432.178H556.396V434.246H548.04V441.663H556.934V443.759ZM577.786 433.489C577.786 436.816 576.88 439.362 575.068 441.126C573.268 442.882 570.671 443.759 567.28 443.759H561.697V423.604H567.873C571.007 423.604 573.442 424.472 575.179 426.209C576.918 427.945 577.786 430.374 577.786 433.489ZM575.304 433.571C575.304 430.943 574.642 428.962 573.318 427.63C572.005 426.296 570.047 425.63 567.445 425.63H564.04V441.733H566.894C569.687 441.733 571.788 441.049 573.195 439.679C574.6 438.301 575.304 436.263 575.304 433.571Z" fill="#626189"/>
<path d="M594.402 581.249V594.292C594.402 596.588 593.711 598.395 592.322 599.708C590.934 601.023 589.026 601.68 586.6 601.68C584.174 601.68 582.294 601.019 580.963 599.694C579.638 598.371 578.977 596.553 578.977 594.235V581.249H581.32V594.4C581.32 596.082 581.779 597.374 582.699 598.275C583.617 599.176 584.97 599.626 586.753 599.626C588.452 599.626 589.762 599.176 590.68 598.275C591.6 597.364 592.059 596.063 592.059 594.374V581.249H594.402ZM611.409 596.042C611.409 597.816 610.764 599.197 609.48 600.19C608.193 601.183 606.447 601.68 604.24 601.68C601.849 601.68 600.012 601.371 598.725 600.757V598.496C599.553 598.844 600.454 599.12 601.428 599.322C602.402 599.524 603.367 599.626 604.322 599.626C605.885 599.626 607.061 599.331 607.852 598.743C608.642 598.146 609.037 597.32 609.037 596.261C609.037 595.564 608.896 594.993 608.609 594.553C608.334 594.101 607.866 593.689 607.205 593.313C606.55 592.934 605.555 592.508 604.212 592.03C602.336 591.357 600.995 590.565 600.186 589.645C599.388 588.725 598.988 587.527 598.988 586.047C598.988 584.492 599.572 583.256 600.739 582.336C601.906 581.419 603.449 580.96 605.369 580.96C607.374 580.96 609.216 581.327 610.899 582.061L610.169 584.101C608.506 583.405 606.887 583.054 605.315 583.054C604.075 583.054 603.106 583.32 602.407 583.854C601.708 584.388 601.358 585.127 601.358 586.073C601.358 586.772 601.487 587.346 601.743 587.797C602.002 588.237 602.433 588.647 603.04 589.023C603.656 589.393 604.593 589.8 605.854 590.252C607.967 591.005 609.419 591.814 610.209 592.677C611.009 593.541 611.409 594.663 611.409 596.042ZM631.903 591.134C631.903 594.461 630.997 597.007 629.185 598.771C627.385 600.527 624.788 601.404 621.397 601.404H615.814V581.249H621.99C625.124 581.249 627.56 582.118 629.296 583.854C631.035 585.59 631.903 588.019 631.903 591.134ZM629.421 591.216C629.421 588.588 628.76 586.607 627.435 585.275C626.122 583.941 624.164 583.275 621.562 583.275H618.157V599.379H621.011C623.804 599.379 625.905 598.694 627.313 597.324C628.717 595.946 629.421 593.908 629.421 591.216Z" fill="#626189"/>
<path d="M537.864 763.755L535.356 757.343H527.276L524.794 763.755H522.424L530.391 743.515H532.363L540.29 763.755H537.864ZM534.624 755.235L532.281 748.991C531.977 748.2 531.664 747.231 531.344 746.08C531.142 746.962 530.853 747.932 530.476 748.991L528.104 755.235H534.624ZM554.582 763.755H543.344V743.6H554.582V745.68H545.688V752.174H554.043V754.242H545.688V761.659H554.582V763.755ZM575.433 753.485C575.433 756.812 574.527 759.358 572.716 761.122C570.916 762.877 568.318 763.755 564.927 763.755H559.344V743.6H565.52C568.654 743.6 571.09 744.468 572.826 746.205C574.565 747.941 575.433 750.369 575.433 753.485ZM572.951 753.567C572.951 750.939 572.29 748.958 570.965 747.626C569.652 746.292 567.694 745.626 565.092 745.626H561.687V761.729H564.542C567.334 761.729 569.436 761.045 570.843 759.675C572.247 758.296 572.951 756.259 572.951 753.567Z" fill="#626189"/>
<path d="M500.218 937.871L497.709 931.459H489.63L487.147 937.871H484.778L492.745 917.631H494.717L502.643 937.871H500.218ZM496.978 929.351L494.634 923.106C494.331 922.315 494.018 921.346 493.698 920.196C493.495 921.078 493.206 922.047 492.829 923.106L490.458 929.351H496.978ZM516.935 937.871H505.698V917.716H516.935V919.795H508.041V926.29H516.396V928.358H508.041V935.774H516.935V937.871ZM537.787 927.6C537.787 930.927 536.881 933.473 535.069 935.238C533.269 936.993 530.671 937.871 527.281 937.871H521.697V917.716H527.874C531.008 917.716 533.443 918.584 535.18 920.32C536.918 922.057 537.787 924.485 537.787 927.6ZM535.304 927.683C535.304 925.054 534.643 923.073 533.318 921.741C532.005 920.407 530.048 919.741 527.446 919.741H524.041V935.845H526.895C529.688 935.845 531.789 935.16 533.196 933.791C534.601 932.412 535.304 930.374 535.304 927.683Z" fill="#626189"/>
<path d="M788.931 519.052H36" stroke="#F8F8FC" stroke-width="2"/>
<path d="M788.931 681.403H36" stroke="#F8F8FC" stroke-width="2"/>
<path d="M504.408 262.59C500.716 262.59 497.799 263.823 495.653 266.289C493.526 268.74 492.46 272.103 492.46 276.376C492.46 280.773 493.486 284.173 495.54 286.578C497.608 288.968 500.549 290.164 504.363 290.164C506.707 290.164 509.38 289.743 512.382 288.9V292.324C510.053 293.197 507.182 293.632 503.766 293.632C498.817 293.632 494.996 292.131 492.3 289.128C489.617 286.126 488.279 281.86 488.279 276.331C488.279 272.867 488.921 269.835 490.208 267.231C491.509 264.627 493.38 262.621 495.815 261.211C498.264 259.802 501.144 259.097 504.455 259.097C507.977 259.097 511.057 259.741 513.69 261.027L512.036 264.382C509.495 263.187 506.951 262.59 504.408 262.59ZM530.156 267.531C531.273 267.531 532.276 267.623 533.165 267.806L532.636 271.345C531.596 271.115 530.676 270.999 529.881 270.999C527.843 270.999 526.095 271.827 524.641 273.482C523.201 275.136 522.481 277.197 522.481 279.663V293.173H518.667V267.99H521.815L522.25 272.653H522.436C523.37 271.016 524.495 269.752 525.812 268.863C527.13 267.973 528.577 267.531 530.156 267.531ZM548.043 293.632C544.32 293.632 541.379 292.5 539.219 290.232C537.076 287.964 536.003 284.818 536.003 280.787C536.003 276.729 536.998 273.505 538.991 271.115C540.998 268.724 543.685 267.531 547.057 267.531C550.212 267.531 552.708 268.571 554.546 270.656C556.384 272.724 557.304 275.458 557.304 278.858V281.27H539.956C540.033 284.227 540.774 286.472 542.184 288.004C543.61 289.536 545.607 290.3 548.181 290.3C550.892 290.3 553.574 289.733 556.224 288.601V292.001C554.876 292.583 553.598 292.997 552.386 293.241C551.191 293.503 549.744 293.632 548.043 293.632ZM547.01 270.724C544.989 270.724 543.372 271.383 542.16 272.7C540.967 274.018 540.262 275.839 540.047 278.169H553.214C553.214 275.764 552.678 273.926 551.605 272.653C550.532 271.366 549 270.724 547.01 270.724ZM580.501 289.794H580.294C578.532 292.354 575.896 293.632 572.388 293.632C569.096 293.632 566.529 292.507 564.692 290.255C562.868 288.004 561.958 284.801 561.958 280.651C561.958 276.498 562.875 273.275 564.715 270.976C566.553 268.679 569.111 267.531 572.388 267.531C575.805 267.531 578.423 268.771 580.247 271.253H580.546L580.386 269.437L580.294 267.668V257.42H584.108V293.173H581.005L580.501 289.794ZM572.871 290.439C575.475 290.439 577.36 289.733 578.525 288.324C579.703 286.9 580.294 284.611 580.294 281.456V280.651C580.294 277.082 579.696 274.538 578.501 273.023C577.322 271.491 575.431 270.724 572.826 270.724C570.588 270.724 568.873 271.597 567.678 273.343C566.499 275.075 565.908 277.526 565.908 280.696C565.908 283.912 566.499 286.34 567.678 287.98C568.859 289.62 570.588 290.439 572.871 290.439ZM595.562 293.173H591.748V267.99H595.562V293.173ZM591.426 261.165C591.426 260.292 591.642 259.656 592.07 259.258C592.499 258.845 593.035 258.638 593.677 258.638C594.291 258.638 594.819 258.845 595.263 259.258C595.708 259.672 595.929 260.307 595.929 261.165C595.929 262.023 595.708 262.666 595.263 263.095C594.819 263.509 594.291 263.716 593.677 263.716C593.035 263.716 592.499 263.509 592.07 263.095C591.642 262.666 591.426 262.023 591.426 261.165ZM611.315 290.484C611.988 290.484 612.639 290.439 613.268 290.347C613.896 290.239 614.392 290.133 614.762 290.025V292.943C614.348 293.143 613.734 293.303 612.922 293.425C612.127 293.564 611.407 293.632 610.762 293.632C605.891 293.632 603.456 291.067 603.456 285.936V270.955H599.849V269.115L603.456 267.531L605.063 262.153H607.27V267.99H614.576V270.955H607.27V285.773C607.27 287.291 607.63 288.456 608.35 289.267C609.07 290.079 610.058 290.484 611.315 290.484ZM646.058 262.59C642.366 262.59 639.446 263.823 637.303 266.289C635.173 268.74 634.11 272.103 634.11 276.376C634.11 280.773 635.136 284.173 637.187 286.578C639.256 288.968 642.197 290.164 646.011 290.164C648.354 290.164 651.027 289.743 654.029 288.9V292.324C651.702 293.197 648.83 293.632 645.413 293.632C640.465 293.632 636.644 292.131 633.947 289.128C631.267 286.126 629.926 281.86 629.926 276.331C629.926 272.867 630.571 269.835 631.858 267.231C633.159 264.627 635.027 262.621 637.463 261.211C639.914 259.802 642.794 259.097 646.103 259.097C649.627 259.097 652.705 259.741 655.34 261.027L653.686 264.382C651.142 263.187 648.599 262.59 646.058 262.59ZM675.803 293.173L675.043 289.59H674.86C673.603 291.166 672.347 292.239 671.093 292.806C669.85 293.357 668.295 293.632 666.427 293.632C663.931 293.632 661.971 292.99 660.545 291.703C659.135 290.415 658.432 288.585 658.432 286.211C658.432 281.126 662.498 278.46 670.632 278.216L674.907 278.077V276.514C674.907 274.538 674.476 273.084 673.62 272.147C672.778 271.199 671.422 270.724 669.552 270.724C667.453 270.724 665.079 271.366 662.429 272.653L661.258 269.736C662.498 269.063 663.853 268.533 665.323 268.15C666.811 267.766 668.295 267.576 669.782 267.576C672.785 267.576 675.006 268.242 676.446 269.576C677.9 270.908 678.629 273.044 678.629 275.985V293.173H675.803ZM667.185 290.484C669.561 290.484 671.422 289.834 672.768 288.531C674.133 287.23 674.815 285.406 674.815 283.063V280.787L671.001 280.95C667.966 281.056 665.775 281.531 664.429 282.373C663.095 283.201 662.429 284.496 662.429 286.258C662.429 287.634 662.844 288.684 663.669 289.404C664.512 290.124 665.683 290.484 667.185 290.484ZM697.528 267.531C698.645 267.531 699.65 267.623 700.537 267.806L700.01 271.345C698.968 271.115 698.048 270.999 697.253 270.999C695.215 270.999 693.469 271.827 692.013 273.482C690.573 275.136 689.853 277.197 689.853 279.663V293.173H686.038V267.99H689.187L689.624 272.653H689.808C690.742 271.016 691.869 269.752 693.184 268.863C694.502 267.973 695.951 267.531 697.528 267.531ZM721.92 289.794H721.713C719.951 292.354 717.316 293.632 713.808 293.632C710.516 293.632 707.949 292.507 706.111 290.255C704.288 288.004 703.377 284.801 703.377 280.651C703.377 276.498 704.295 273.275 706.135 270.976C707.972 268.679 710.53 267.531 713.808 267.531C717.224 267.531 719.843 268.771 721.666 271.253H721.965L721.805 269.437L721.713 267.668V257.42H725.527V293.173H722.424L721.92 289.794ZM714.29 290.439C716.895 290.439 718.779 289.733 719.944 288.324C721.123 286.9 721.713 284.611 721.713 281.456V280.651C721.713 277.082 721.116 274.538 719.92 273.023C718.742 271.491 716.85 270.724 714.245 270.724C712.008 270.724 710.292 271.597 709.097 273.343C707.918 275.075 707.328 277.526 707.328 280.696C707.328 283.912 707.918 286.34 709.097 287.98C710.278 289.62 712.008 290.439 714.29 290.439ZM749.412 286.303C749.412 288.646 748.539 290.453 746.793 291.726C745.047 292.997 742.595 293.632 739.44 293.632C736.101 293.632 733.497 293.105 731.629 292.046V288.51C732.838 289.121 734.132 289.604 735.511 289.957C736.906 290.31 738.245 290.484 739.532 290.484C741.523 290.484 743.054 290.171 744.127 289.543C745.2 288.9 745.737 287.926 745.737 286.625C745.737 285.644 745.308 284.809 744.45 284.119C743.607 283.416 741.953 282.587 739.487 281.639C737.141 280.766 735.473 280.006 734.478 279.364C733.497 278.705 732.76 277.962 732.271 277.136C731.796 276.307 731.558 275.319 731.558 274.171C731.558 272.117 732.393 270.503 734.064 269.322C735.732 268.126 738.024 267.531 740.934 267.531C743.645 267.531 746.294 268.082 748.885 269.185L747.529 272.286C745 271.244 742.711 270.724 740.659 270.724C738.85 270.724 737.487 271.006 736.567 271.573C735.65 272.14 735.188 272.922 735.188 273.917C735.188 274.592 735.358 275.166 735.694 275.642C736.047 276.117 736.607 276.569 737.372 276.997C738.139 277.425 739.61 278.046 741.784 278.858C744.772 279.945 746.786 281.041 747.826 282.143C748.885 283.246 749.412 284.632 749.412 286.303Z" fill="#A3ADF5"/>
<path d="M85.3239 259.58H94.8136C99.2712 259.58 102.496 260.246 104.487 261.579C106.479 262.912 107.474 265.018 107.474 267.898C107.474 269.889 106.915 271.536 105.797 272.837C104.694 274.124 103.078 274.959 100.949 275.343V275.573C106.05 276.446 108.6 279.126 108.6 283.616C108.6 286.618 107.581 288.961 105.544 290.646C103.522 292.331 100.688 293.173 97.0425 293.173H85.3239V259.58ZM89.2299 273.964H95.6637C98.4211 273.964 100.405 273.536 101.615 272.677C102.825 271.804 103.43 270.34 103.43 268.289C103.43 266.404 102.756 265.049 101.408 264.221C100.06 263.379 97.9157 262.957 94.9746 262.957H89.2299V273.964ZM89.2299 277.272V289.841H96.2383C98.9496 289.841 100.987 289.321 102.35 288.279C103.729 287.223 104.418 285.576 104.418 283.338C104.418 281.256 103.713 279.724 102.304 278.743C100.91 277.764 98.7811 277.272 95.9164 277.272H89.2299ZM130.28 293.173L129.522 289.59H129.338C128.082 291.166 126.826 292.239 125.57 292.806C124.329 293.357 122.774 293.632 120.905 293.632C118.408 293.632 116.447 292.99 115.023 291.703C113.614 290.415 112.909 288.585 112.909 286.211C112.909 281.126 116.976 278.46 125.11 278.216L129.384 278.077V276.514C129.384 274.538 128.955 273.084 128.097 272.147C127.255 271.199 125.899 270.724 124.03 270.724C121.932 270.724 119.557 271.366 116.907 272.653L115.735 269.736C116.976 269.063 118.332 268.533 119.802 268.15C121.288 267.766 122.774 267.576 124.26 267.576C127.262 267.576 129.484 268.242 130.923 269.576C132.379 270.908 133.106 273.044 133.106 275.985V293.173H130.28ZM121.663 290.484C124.038 290.484 125.899 289.834 127.247 288.531C128.61 287.23 129.292 285.406 129.292 283.063V280.787L125.478 280.95C122.445 281.056 120.254 281.531 118.906 282.373C117.573 283.201 116.907 284.496 116.907 286.258C116.907 287.634 117.321 288.684 118.148 289.404C118.99 290.124 120.162 290.484 121.663 290.484ZM157.75 293.173V276.882C157.75 274.83 157.283 273.298 156.349 272.286C155.414 271.275 153.951 270.771 151.96 270.771C149.325 270.771 147.395 271.482 146.17 272.907C144.944 274.331 144.331 276.684 144.331 279.962V293.173H140.517V267.99H143.619L144.239 271.437H144.423C145.204 270.195 146.3 269.237 147.709 268.564C149.118 267.875 150.688 267.531 152.419 267.531C155.453 267.531 157.735 268.265 159.267 269.736C160.799 271.192 161.565 273.526 161.565 276.745V293.173H157.75ZM172.721 280.282C173.379 279.347 174.383 278.124 175.731 276.606L183.865 267.99H188.391L178.189 278.719L189.104 293.173H184.485L175.593 281.27L172.721 283.752V293.173H168.952V257.42H172.721V276.376C172.721 277.218 172.659 278.522 172.537 280.282H172.721ZM226.65 293.173L222.468 282.489H209.003L204.867 293.173H200.915L214.196 259.442H217.482L230.694 293.173H226.65ZM221.25 278.973L217.344 268.564C216.839 267.247 216.318 265.631 215.782 263.716C215.445 265.186 214.962 266.802 214.334 268.564L210.382 278.973H221.25ZM244.332 293.632C240.686 293.632 237.86 292.514 235.853 290.279C233.862 288.025 232.866 284.849 232.866 280.743C232.866 276.529 233.877 273.275 235.899 270.976C237.936 268.679 240.832 267.531 244.585 267.531C245.795 267.531 247.005 267.66 248.215 267.922C249.425 268.18 250.375 268.486 251.064 268.839L249.893 272.079C249.05 271.743 248.131 271.467 247.135 271.253C246.139 271.023 245.259 270.908 244.493 270.908C239.376 270.908 236.818 274.171 236.818 280.696C236.818 283.79 237.439 286.164 238.679 287.82C239.936 289.474 241.789 290.3 244.24 290.3C246.339 290.3 248.491 289.848 250.697 288.945V292.324C249.012 293.197 246.89 293.632 244.332 293.632ZM266.287 293.632C262.642 293.632 259.815 292.514 257.809 290.279C255.817 288.025 254.822 284.849 254.822 280.743C254.822 276.529 255.833 273.275 257.855 270.976C259.892 268.679 262.787 267.531 266.54 267.531C267.75 267.531 268.961 267.66 270.171 267.922C271.381 268.18 272.331 268.486 273.02 268.839L271.849 272.079C271.005 271.743 270.086 271.467 269.091 271.253C268.095 271.023 267.214 270.908 266.448 270.908C261.332 270.908 258.774 274.171 258.774 280.696C258.774 283.79 259.394 286.164 260.635 287.82C261.891 289.474 263.745 290.3 266.196 290.3C268.294 290.3 270.446 289.848 272.653 288.945V292.324C270.967 293.197 268.846 293.632 266.287 293.632ZM299.917 280.559C299.917 284.663 298.881 287.872 296.813 290.185C294.745 292.484 291.888 293.632 288.244 293.632C285.992 293.632 283.992 293.105 282.246 292.046C280.5 290.99 279.152 289.474 278.202 287.498C277.251 285.521 276.778 283.209 276.778 280.559C276.778 276.453 277.804 273.258 279.856 270.976C281.91 268.679 284.759 267.531 288.404 267.531C291.926 267.531 294.724 268.703 296.792 271.046C298.874 273.39 299.917 276.559 299.917 280.559ZM280.729 280.559C280.729 283.776 281.373 286.227 282.66 287.912C283.947 289.597 285.839 290.439 288.336 290.439C290.832 290.439 292.724 289.604 294.011 287.933C295.312 286.248 295.964 283.79 295.964 280.559C295.964 277.357 295.312 274.929 294.011 273.275C292.724 271.604 290.816 270.771 288.289 270.771C285.792 270.771 283.907 271.59 282.637 273.227C281.366 274.867 280.729 277.31 280.729 280.559ZM309.74 267.99V284.326C309.74 286.38 310.206 287.912 311.14 288.921C312.074 289.933 313.538 290.439 315.531 290.439C318.163 290.439 320.086 289.719 321.298 288.279C322.523 286.839 323.135 284.489 323.135 281.225V267.99H326.949V293.173H323.801L323.25 289.794H323.043C322.262 291.037 321.175 291.985 319.78 292.644C318.401 293.303 316.825 293.632 315.046 293.632C311.982 293.632 309.686 292.905 308.154 291.451C306.637 289.994 305.879 287.667 305.879 284.465V267.99H309.74ZM351.824 293.173V276.882C351.824 274.83 351.356 273.298 350.422 272.286C349.488 271.275 348.024 270.771 346.034 270.771C343.398 270.771 341.469 271.482 340.243 272.907C339.017 274.331 338.403 276.684 338.403 279.962V293.173H334.589V267.99H337.693L338.311 271.437H338.495C339.278 270.195 340.373 269.237 341.782 268.564C343.191 267.875 344.761 267.531 346.492 267.531C349.525 267.531 351.808 268.265 353.339 269.736C354.871 271.192 355.638 273.526 355.638 276.745V293.173H351.824ZM371.16 290.484C371.833 290.484 372.485 290.439 373.113 290.347C373.742 290.239 374.238 290.133 374.605 290.025V292.943C374.193 293.143 373.579 293.303 372.767 293.425C371.972 293.564 371.252 293.632 370.607 293.632C365.737 293.632 363.302 291.067 363.302 285.936V270.955H359.692V269.115L363.302 267.531L364.909 262.153H367.116V267.99H374.422V270.955H367.116V285.773C367.116 287.291 367.476 288.456 368.196 289.267C368.916 290.079 369.904 290.484 371.16 290.484ZM395.435 286.303C395.435 288.646 394.562 290.453 392.817 291.726C391.071 292.997 388.619 293.632 385.464 293.632C382.125 293.632 379.52 293.105 377.652 292.046V288.51C378.861 289.121 380.156 289.604 381.534 289.957C382.927 290.31 384.268 290.484 385.556 290.484C387.546 290.484 389.078 290.171 390.151 289.543C391.224 288.9 391.76 287.926 391.76 286.625C391.76 285.644 391.33 284.809 390.473 284.119C389.631 283.416 387.977 282.587 385.508 281.639C383.165 280.766 381.497 280.006 380.499 279.364C379.52 278.705 378.784 277.962 378.294 277.136C377.819 276.307 377.581 275.319 377.581 274.171C377.581 272.117 378.417 270.503 380.087 269.322C381.756 268.126 384.047 267.531 386.958 267.531C389.668 267.531 392.318 268.082 394.906 269.185L393.551 272.286C391.024 271.244 388.734 270.724 386.68 270.724C384.873 270.724 383.511 271.006 382.591 271.573C381.671 272.14 381.212 272.922 381.212 273.917C381.212 274.592 381.381 275.166 381.718 275.642C382.071 276.117 382.628 276.569 383.396 276.997C384.16 277.425 385.631 278.046 387.807 278.858C390.793 279.945 392.81 281.041 393.849 282.143C394.906 283.246 395.435 284.632 395.435 286.303Z" fill="#1311C0"/>
<path d="M127.763 646.11C152.453 646.11 172.469 626.095 172.469 601.405C172.469 576.714 152.453 556.699 127.763 556.699C103.073 556.699 83.0581 576.714 83.0581 601.405C83.0581 626.095 103.073 646.11 127.763 646.11Z" fill="white" stroke="#EEEEEE" stroke-width="2"/>
<path d="M145.449 584.871H109.933V620.385H145.449V584.871Z" fill="white"/>
<path d="M145.545 620.385L163.303 602.628L145.545 584.871V620.385Z" fill="#DB0011"/>
<path d="M109.934 620.385L92.1757 602.628L109.934 584.871V620.385Z" fill="#DB0011"/>
<path d="M145.545 584.871L127.691 602.628L109.933 584.871H145.545Z" fill="#DB0011"/>
<path d="M109.933 620.388L127.691 602.63L145.545 620.388H109.933Z" fill="#DB0011"/>
<path d="M127.763 808.46C152.453 808.46 172.469 788.445 172.469 763.755C172.469 739.065 152.453 719.05 127.763 719.05C103.073 719.05 83.0581 739.065 83.0581 763.755C83.0581 788.445 103.073 808.46 127.763 808.46Z" fill="white" stroke="#EEEEEE" stroke-width="2"/>
<path d="M145.449 747.221H109.933V782.736H145.449V747.221Z" fill="white"/>
<path d="M145.545 782.736L163.303 764.979L145.545 747.221V782.736Z" fill="#DB0011"/>
<path d="M109.934 782.736L92.1757 764.979L109.934 747.221V782.736Z" fill="#DB0011"/>
<path d="M145.545 747.221L127.691 764.979L109.933 747.221H145.545Z" fill="#DB0011"/>
<path d="M109.933 782.736L127.691 764.979L145.545 782.736H109.933Z" fill="#DB0011"/>
<path d="M127.764 810.813C153.753 810.813 174.822 789.745 174.822 763.755C174.822 737.766 153.753 716.697 127.764 716.697C101.774 716.697 80.7054 737.766 80.7054 763.755C80.7054 789.745 101.774 810.813 127.764 810.813Z" fill="#FFA600"/>
<path d="M155.744 769.861C157.779 768.842 159.305 766.807 160.069 764.774C159.051 764.518 157.779 764.264 156.761 764.264C155.49 764.264 154.472 764.774 153.455 765.282C152.437 765.791 151.42 766.553 150.911 767.318C150.148 768.08 149.639 769.097 149.385 770.369C151.42 771.132 153.709 770.878 155.744 769.861Z" fill="white"/>
<path d="M152.692 762.991C151.166 765.28 148.876 767.061 146.078 767.569C145.57 764.772 146.078 762.228 147.605 759.685C149.131 757.395 151.42 755.614 154.218 755.106C154.727 757.904 154.218 760.701 152.692 762.991Z" fill="white"/>
<path d="M145.569 758.158C145.569 754.852 144.298 751.8 142.263 749.257C139.973 751.8 138.702 754.852 138.702 758.158C138.702 761.466 139.719 764.518 142.008 767.061C144.043 764.518 145.315 761.466 145.569 758.158Z" fill="white"/>
<path d="M134.886 755.87C132.597 752.308 129.29 749.256 125.474 747.221C124.966 751.546 125.729 755.87 127.764 759.685C130.053 763.247 133.36 766.299 137.175 768.334C137.684 763.755 136.921 759.685 134.886 755.87Z" fill="white"/>
<path d="M121.913 758.923C116.571 756.125 110.721 754.852 104.616 754.852C107.669 759.939 111.993 764.01 117.08 767.061C122.422 769.861 128.272 771.132 134.377 771.132C131.325 766.299 127.255 761.974 121.913 758.923Z" fill="white"/>
<path d="M110.721 770.115C102.835 770.37 95.2043 772.151 88.3364 775.202C95.4587 778.254 103.09 780.035 110.721 780.289C118.606 780.289 126.237 778.508 133.105 775.202C125.983 771.894 118.352 770.115 110.721 770.115Z" fill="white"/>
<path d="M226.124 959.047H222.112L205.589 933.673H205.424C205.644 936.649 205.754 939.381 205.754 941.861V959.047H202.508V928.812H206.478L222.96 954.084H223.125C223.098 953.71 223.036 952.52 222.939 950.506C222.843 948.48 222.808 947.033 222.836 946.162V928.812H226.124V959.047ZM243.072 959.461C239.721 959.461 237.074 958.44 235.13 956.4C233.2 954.36 232.235 951.527 232.235 947.901C232.235 944.247 233.131 941.346 234.924 939.193C236.73 937.042 239.149 935.967 242.182 935.967C245.022 935.967 247.27 936.906 248.924 938.781C250.578 940.642 251.406 943.103 251.406 946.162V948.334H235.792C235.861 950.995 236.53 953.016 237.798 954.393C239.08 955.772 240.88 956.461 243.196 956.461C245.636 956.461 248.049 955.953 250.434 954.932V957.993C249.22 958.515 248.069 958.889 246.98 959.108C245.905 959.343 244.602 959.461 243.072 959.461ZM242.141 938.842C240.321 938.842 238.867 939.435 237.777 940.621C236.702 941.807 236.068 943.447 235.875 945.543H247.725C247.725 943.379 247.242 941.725 246.277 940.579C245.312 939.421 243.933 938.842 242.141 938.842ZM264.176 956.628C264.782 956.628 265.368 956.586 265.934 956.503C266.499 956.407 266.947 956.31 267.278 956.214V958.84C266.906 959.019 266.354 959.164 265.623 959.275C264.907 959.397 264.259 959.461 263.679 959.461C259.295 959.461 257.103 957.15 257.103 952.532V939.049H253.857V937.395L257.103 935.967L258.551 931.13H260.536V936.381H267.112V939.049H260.536V952.388C260.536 953.753 260.86 954.8 261.508 955.532C262.156 956.261 263.045 956.628 264.176 956.628ZM300.491 959.047L296.333 945.751C296.072 944.936 295.583 943.089 294.865 940.207H294.7C294.15 942.621 293.665 944.482 293.253 945.791L288.971 959.047H285.002L278.818 936.381H282.416C283.877 942.075 284.987 946.412 285.745 949.39C286.517 952.367 286.959 954.374 287.07 955.407H287.234C287.387 954.621 287.627 953.607 287.959 952.367C288.303 951.113 288.599 950.12 288.849 949.39L293.004 936.381H296.726L300.78 949.39C301.552 951.76 302.077 953.753 302.352 955.367H302.517C302.573 954.87 302.717 954.103 302.952 953.07C303.199 952.037 304.641 946.473 307.274 936.381H310.829L304.564 959.047H300.491ZM334.086 947.694C334.086 951.388 333.154 954.277 331.293 956.357C329.432 958.426 326.862 959.461 323.58 959.461C321.554 959.461 319.754 958.986 318.182 958.033C316.611 957.082 315.399 955.717 314.542 953.939C313.688 952.16 313.26 950.077 313.26 947.694C313.26 943.998 314.185 941.125 316.032 939.071C317.879 937.002 320.443 935.967 323.726 935.967C326.895 935.967 329.413 937.024 331.274 939.132C333.147 941.242 334.086 944.096 334.086 947.694ZM316.818 947.694C316.818 950.588 317.396 952.795 318.554 954.31C319.712 955.828 321.415 956.586 323.662 956.586C325.909 956.586 327.613 955.835 328.77 954.332C329.942 952.816 330.528 950.602 330.528 947.694C330.528 944.812 329.942 942.626 328.77 941.139C327.613 939.635 325.895 938.885 323.622 938.885C321.375 938.885 319.679 939.621 318.535 941.096C317.389 942.572 316.818 944.772 316.818 947.694ZM350.041 935.967C351.048 935.967 351.949 936.052 352.749 936.217L352.274 939.4C351.337 939.193 350.509 939.092 349.791 939.092C347.958 939.092 346.387 939.835 345.076 941.325C343.782 942.814 343.133 944.668 343.133 946.887V959.047H339.7V936.381H342.533L342.926 940.579H343.093C343.933 939.104 344.947 937.967 346.133 937.167C347.318 936.367 348.62 935.967 350.041 935.967ZM363.885 956.628C364.492 956.628 365.078 956.586 365.643 956.503C366.21 956.407 366.657 956.31 366.989 956.214V958.84C366.615 959.019 366.064 959.164 365.335 959.275C364.617 959.397 363.968 959.461 363.389 959.461C359.005 959.461 356.812 957.15 356.812 952.532V939.049H353.568V937.395L356.812 935.967L358.262 931.13H360.245V936.381H366.822V939.049H360.245V952.388C360.245 953.753 360.57 954.8 361.217 955.532C361.866 956.261 362.756 956.628 363.885 956.628ZM386.624 959.047V944.386C386.624 942.536 386.203 941.158 385.363 940.249C384.52 939.339 383.205 938.885 381.412 938.885C379.029 938.885 377.283 939.532 376.182 940.828C375.092 942.125 374.546 944.247 374.546 947.198V959.047H371.113V926.868H374.546V936.609C374.546 937.781 374.492 938.753 374.382 939.525H374.589C375.264 938.435 376.222 937.581 377.462 936.96C378.718 936.327 380.144 936.009 381.744 936.009C384.516 936.009 386.588 936.671 387.967 937.995C389.36 939.304 390.057 941.393 390.057 944.261V959.047H386.624Z" fill="#79799E"/>
</g>
<path fill-rule="evenodd" clip-rule="evenodd" d="M3 103C3 47.7715 47.7715 3 103 3H719C774.229 3 819 47.7715 819 103V1585C819 1640.23 774.228 1685 719 1685H103C47.7715 1685 3 1640.23 3 1585V103ZM36 117C36 70.0558 74.0558 32 121 32H204.027C204.009 32.331 204 32.6644 204 33V70C204 91.5391 221.461 109 243 109H579C600.539 109 618 91.5391 618 70V33C618 32.6644 617.991 32.331 617.973 32H701C747.944 32 786 70.0558 786 117V1571C786 1617.94 747.944 1656 701 1656H121C74.0558 1656 36 1617.94 36 1571V117Z" fill="url(#paint0_linear)"/>
<path d="M204.027 32L206.424 32.1312L206.562 29.6H204.027V32ZM617.973 32V29.6H615.438L615.576 32.1312L617.973 32ZM103 0.6C46.446 0.6 0.6 46.446 0.6 103H5.4C5.4 49.097 49.097 5.4 103 5.4V0.6ZM719 0.6H103V5.4H719V0.6ZM821.4 103C821.4 46.446 775.554 0.6 719 0.6V5.4C772.903 5.4 816.6 49.097 816.6 103H821.4ZM821.4 1585V103H816.6V1585H821.4ZM719 1687.4C775.554 1687.4 821.4 1641.55 821.4 1585H816.6C816.6 1638.9 772.903 1682.6 719 1682.6V1687.4ZM103 1687.4H719V1682.6H103V1687.4ZM0.6 1585C0.6 1641.55 46.446 1687.4 103 1687.4V1682.6C49.097 1682.6 5.4 1638.9 5.4 1585H0.6ZM0.6 103V1585H5.4V103H0.6ZM121 29.6C72.7303 29.6 33.6 68.7303 33.6 117H38.4C38.4 71.3813 75.3813 34.4 121 34.4V29.6ZM204.027 29.6H121V34.4H204.027V29.6ZM206.4 33C206.4 32.7083 206.408 32.4186 206.424 32.1312L201.631 31.8688C201.61 32.2435 201.6 32.6206 201.6 33H206.4ZM206.4 70V33H201.6V70H206.4ZM243 106.6C222.786 106.6 206.4 90.2136 206.4 70H201.6C201.6 92.8646 220.135 111.4 243 111.4V106.6ZM579 106.6H243V111.4H579V106.6ZM615.6 70C615.6 90.2136 599.214 106.6 579 106.6V111.4C601.865 111.4 620.4 92.8646 620.4 70H615.6ZM615.6 33V70H620.4V33H615.6ZM615.576 32.1312C615.592 32.4185 615.6 32.7081 615.6 33H620.4C620.4 32.6208 620.39 32.2436 620.369 31.8688L615.576 32.1312ZM701 29.6H617.973V34.4H701V29.6ZM788.4 117C788.4 68.7303 749.27 29.6 701 29.6V34.4C746.619 34.4 783.6 71.3813 783.6 117H788.4ZM788.4 1571V117H783.6V1571H788.4ZM701 1658.4C749.27 1658.4 788.4 1619.27 788.4 1571H783.6C783.6 1616.62 746.619 1653.6 701 1653.6V1658.4ZM121 1658.4H701V1653.6H121V1658.4ZM33.6 1571C33.6 1619.27 72.7303 1658.4 121 1658.4V1653.6C75.3813 1653.6 38.4 1616.62 38.4 1571H33.6ZM33.6 117V1571H38.4V117H33.6Z" fill="black" fill-opacity="0.03"/>
<defs>
<filter id="filter0_d" x="32" y="289.173" width="760.931" height="1379.75" filterUnits="userSpaceOnUse" color-interpolation-filters="sRGB">
<feFlood flood-opacity="0" result="BackgroundImageFix"/>
<feColorMatrix in="SourceAlpha" type="matrix" values="0 0 0 0 0 0 0 0 0 0 0 0 0 0 0 0 0 0 127 0"/>
<feOffset/>
<feGaussianBlur stdDeviation="2"/>
<feColorMatrix type="matrix" values="0 0 0 0 0.0483839 0 0 0 0 0.0432 0 0 0 0 0.4968 0 0 0 0.3 0"/>
<feBlend mode="normal" in2="BackgroundImageFix" result="effect1_dropShadow"/>
<feBlend mode="normal" in="SourceGraphic" in2="effect1_dropShadow" result="shape"/>
</filter>
<linearGradient id="paint0_linear" x1="94.9871" y1="-266.102" x2="-807.843" y2="1325.25" gradientUnits="userSpaceOnUse">
<stop stop-color="#151516"/>
<stop offset="1" stop-color="#0B0B0C"/>
</linearGradient>
</defs>
</svg>
