<svg width="172" height="49" viewBox="0 0 172 49" fill="none" xmlns="http://www.w3.org/2000/svg">
<path d="M171.26 25.1676C171.26 22.31 169.079 20.9268 165.785 18.6012C162.49 16.2756 157.08 13.0228 153.85 11.1988C150.62 9.37479 145.306 6.63879 141.657 4.92118C138.007 3.20358 135.035 2.15478 133.242 2.15478C132.501 2.10284 131.758 2.22415 131.079 2.50791C130.4 2.79168 129.806 3.22908 129.35 3.78118C128.383 5.20539 127.791 6.82585 127.622 8.50839C127.252 10.9209 127.036 13.3522 126.976 15.7892C126.976 18.6012 126.879 25.1676 126.879 25.1676C126.879 25.1676 126.879 31.734 126.976 34.546C127.037 36.9829 127.252 39.4142 127.622 41.8268C127.796 43.5084 128.388 45.1278 129.35 46.554C129.806 47.1061 130.4 47.5435 131.079 47.8273C131.758 48.111 132.501 48.2323 133.242 48.1804C135.035 48.1804 137.974 47.0708 141.657 45.414C145.339 43.7572 150.62 40.9604 153.85 39.1364C157.08 37.3124 162.571 33.9836 165.785 31.7188C168.999 29.454 171.26 28.01 171.26 25.1676" fill="#6462E9"/>
<path d="M166.394 21.6904H165.7C165.545 21.6904 165.397 21.7481 165.288 21.8507C165.179 21.9533 165.118 22.0925 165.118 22.2376V28.1048C165.122 28.2488 165.185 28.3857 165.293 28.4875C165.401 28.5893 165.547 28.6482 165.7 28.652H166.394C166.545 28.6481 166.689 28.5887 166.795 28.4865C166.9 28.3843 166.959 28.2474 166.959 28.1048V22.2376C166.959 22.0951 166.9 21.9582 166.795 21.856C166.689 21.7538 166.545 21.6944 166.394 21.6904Z" fill="#3634E3"/>
<path d="M145.396 19.955H146.074C146.229 19.955 146.376 19.8974 146.486 19.7948C146.595 19.6921 146.656 19.553 146.656 19.4078V10.075C146.656 9.92991 146.595 9.79072 146.486 9.6881C146.376 9.58548 146.229 9.52783 146.074 9.52783H145.396C145.242 9.52783 145.094 9.58548 144.985 9.6881C144.876 9.79072 144.815 9.92991 144.815 10.075V19.4078C144.815 19.553 144.876 19.6921 144.985 19.7948C145.094 19.8974 145.242 19.955 145.396 19.955" fill="#3634E3"/>
<path d="M151.618 35.5984H150.939C150.785 35.5984 150.637 35.6561 150.528 35.7587C150.419 35.8613 150.358 36.0005 150.358 36.1457V36.7689C150.358 36.914 150.419 37.0532 150.528 37.1558C150.637 37.2584 150.785 37.3161 150.939 37.3161H151.618C151.697 37.3202 151.776 37.3091 151.85 37.2835C151.924 37.2578 151.992 37.2182 152.05 37.167C152.107 37.1157 152.153 37.054 152.184 36.9855C152.215 36.9171 152.231 36.8434 152.231 36.7689V36.1305C152.231 36.0586 152.216 35.9874 152.187 35.921C152.158 35.8547 152.115 35.7943 152.061 35.7435C152.007 35.6927 151.943 35.6524 151.872 35.6249C151.802 35.5974 151.726 35.5833 151.65 35.5833" fill="#3634E3"/>
<path d="M130.624 16.476H138.699C138.854 16.476 139.002 16.4184 139.111 16.3158C139.22 16.2131 139.281 16.074 139.281 15.9288V13.0104H142.382C142.536 13.0104 142.684 12.9528 142.793 12.8502C142.902 12.7475 142.963 12.6084 142.963 12.4632V8.34403C142.963 8.1989 142.902 8.05972 142.793 7.9571C142.684 7.85448 142.536 7.79683 142.382 7.79683H141.703C141.549 7.79683 141.401 7.85448 141.292 7.9571C141.183 8.05972 141.122 8.1989 141.122 8.34403V11.2624H139.313V6.59603C139.313 6.4509 139.252 6.31172 139.143 6.2091C139.034 6.10648 138.886 6.04883 138.732 6.04883H134.355C134.201 6.04883 134.053 6.10648 133.944 6.2091C133.835 6.31172 133.774 6.4509 133.774 6.59603V12.448C133.774 12.5932 133.835 12.7323 133.944 12.835C134.053 12.9376 134.201 12.9952 134.355 12.9952H137.472V14.728H131.933V8.34403C131.933 8.27217 131.918 8.20102 131.888 8.13463C131.859 8.06824 131.816 8.00791 131.762 7.9571C131.708 7.90629 131.644 7.86598 131.574 7.83848C131.503 7.81098 131.428 7.79683 131.351 7.79683H130.657C130.58 7.79683 130.505 7.81098 130.434 7.83848C130.364 7.86598 130.3 7.90629 130.246 7.9571C130.192 8.00791 130.149 8.06824 130.12 8.13463C130.09 8.20102 130.075 8.27217 130.075 8.34403V15.944C130.075 16.0159 130.09 16.0871 130.12 16.1534C130.149 16.2198 130.192 16.2802 130.246 16.331C130.3 16.3818 130.364 16.4221 130.434 16.4496C130.505 16.4771 130.58 16.4912 130.657 16.4912L130.624 16.476ZM137.472 11.2776H135.615V7.79683H137.472V11.2776Z" fill="#3634E3"/>
<path d="M162.693 19.9556H162.014C161.938 19.9556 161.863 19.9697 161.792 19.9972C161.721 20.0247 161.657 20.065 161.603 20.1158C161.549 20.1666 161.507 20.227 161.477 20.2934C161.448 20.3597 161.433 20.4309 161.433 20.5028V28.65H158.316C158.162 28.65 158.014 28.7076 157.905 28.8102C157.796 28.9128 157.735 29.052 157.735 29.1972V32.1156H155.894V29.1668C155.894 29.0202 155.833 28.8794 155.724 28.7744C155.616 28.6693 155.468 28.6083 155.312 28.6044H149.078C148.923 28.6083 148.775 28.6693 148.666 28.7744C148.558 28.8794 148.497 29.0202 148.497 29.1668V29.8052C148.497 29.877 148.512 29.9482 148.541 30.0146C148.57 30.0809 148.613 30.1413 148.667 30.1921C148.721 30.2429 148.785 30.2832 148.856 30.3107C148.926 30.3382 149.002 30.3524 149.078 30.3524H154.053V32.0852H146.656V26.902H151.614C151.768 26.902 151.916 26.8443 152.025 26.7417C152.134 26.6391 152.195 26.4999 152.195 26.3548V25.7164C152.195 25.5712 152.134 25.432 152.025 25.3294C151.916 25.2268 151.768 25.1692 151.614 25.1692H145.396C145.242 25.1692 145.094 25.2268 144.985 25.3294C144.876 25.432 144.815 25.5712 144.815 25.7164V33.3163C144.815 33.4629 144.875 33.6037 144.984 33.7087C145.093 33.8138 145.24 33.8748 145.396 33.8787H154.053V35.0643C154.052 35.2069 154.111 35.3438 154.217 35.446C154.323 35.5482 154.466 35.6076 154.618 35.6115H155.312C155.466 35.6115 155.614 35.5539 155.723 35.4513C155.832 35.3487 155.894 35.2095 155.894 35.0643V33.8787H158.994C159.15 33.8748 159.298 33.8138 159.407 33.7087C159.515 33.6037 159.576 33.4629 159.576 33.3163V30.3828H162.693C162.769 30.3828 162.845 30.3686 162.915 30.3411C162.986 30.3136 163.05 30.2733 163.104 30.2225C163.158 30.1717 163.201 30.1113 163.23 30.045C163.259 29.9786 163.274 29.9074 163.274 29.8356V20.5028C163.274 20.4309 163.259 20.3597 163.23 20.2934C163.201 20.227 163.158 20.1666 163.104 20.1158C163.05 20.065 162.986 20.0247 162.915 19.9972C162.845 19.9697 162.769 19.9556 162.693 19.9556" fill="#3634E3"/>
<path d="M147.937 35.5972H143.544C143.39 35.5972 143.242 35.6548 143.133 35.7574C143.024 35.8601 142.963 35.9992 142.963 36.1444V39.078H131.9V37.33H140.54C140.695 37.33 140.842 37.2723 140.951 37.1697C141.061 37.0671 141.122 36.9279 141.122 36.7828V36.1444C141.122 35.9992 141.061 35.8601 140.951 35.7574C140.842 35.6548 140.695 35.5972 140.54 35.5972H130.624C130.548 35.5972 130.472 35.6113 130.402 35.6388C130.331 35.6663 130.267 35.7066 130.213 35.7574C130.159 35.8083 130.116 35.8686 130.087 35.935C130.058 36.0014 130.043 36.0725 130.043 36.1444V40.2636C130.043 40.3354 130.058 40.4066 130.087 40.473C130.116 40.5394 130.159 40.5997 130.213 40.6505C130.267 40.7013 130.331 40.7416 130.402 40.7691C130.472 40.7966 130.548 40.8108 130.624 40.8108H144.239C144.393 40.8108 144.541 40.7531 144.65 40.6505C144.759 40.5479 144.82 40.4087 144.82 40.2636V37.33H146.661V38.5308C146.661 38.6733 146.72 38.8102 146.826 38.9124C146.931 39.0146 147.075 39.074 147.226 39.078H147.937C148.088 39.074 148.232 39.0146 148.338 38.9124C148.443 38.8102 148.502 38.6733 148.502 38.5308V36.1444C148.502 36.0018 148.443 35.8649 148.338 35.7627C148.232 35.6605 148.088 35.6011 147.937 35.5972Z" fill="#3634E3"/>
<path d="M133.14 42.5413H132.477C132.322 42.5452 132.174 42.6062 132.065 42.7113C131.957 42.8163 131.896 42.9571 131.896 43.1037V43.7269C131.896 43.8734 131.957 44.0142 132.065 44.1193C132.174 44.2243 132.322 44.2853 132.477 44.2893H133.14C133.297 44.2854 133.446 44.2249 133.558 44.1203C133.669 44.0156 133.733 43.8748 133.737 43.7269V43.1037C133.733 42.9557 133.669 42.8149 133.558 42.7102C133.446 42.6056 133.297 42.5451 133.14 42.5413" fill="#3634E3"/>
<path d="M136.839 42.5413H136.177C136.019 42.5451 135.87 42.6056 135.759 42.7102C135.647 42.8149 135.583 42.9557 135.579 43.1037V43.7269C135.583 43.8748 135.647 44.0156 135.759 44.1203C135.87 44.2249 136.019 44.2854 136.177 44.2893H136.839C136.996 44.2854 137.146 44.2249 137.257 44.1203C137.368 44.0156 137.432 43.8748 137.436 43.7269V43.1037C137.432 42.9557 137.368 42.8149 137.257 42.7102C137.146 42.6056 136.996 42.5451 136.839 42.5413" fill="#3634E3"/>
<path d="M130.64 32.1182C130.483 32.122 130.334 32.1825 130.222 32.2871C130.111 32.3918 130.047 32.5326 130.043 32.6806V33.3038C130.047 33.4517 130.111 33.5926 130.222 33.6972C130.334 33.8019 130.483 33.8623 130.64 33.8662H131.238C131.395 33.8623 131.545 33.8019 131.656 33.6972C131.767 33.5926 131.831 33.4517 131.836 33.3038V32.6806C131.831 32.5326 131.767 32.3918 131.656 32.2871C131.545 32.1825 131.395 32.122 131.238 32.1182" fill="#3634E3"/>
<path d="M134.337 32.1182C134.179 32.1182 134.027 32.1774 133.915 32.2829C133.803 32.3884 133.74 32.5314 133.74 32.6806V33.3038C133.74 33.4529 133.803 33.596 133.915 33.7015C134.027 33.8069 134.179 33.8662 134.337 33.8662H134.983C135.141 33.8623 135.29 33.8019 135.401 33.6972C135.513 33.5926 135.577 33.4517 135.581 33.3038V32.6806C135.577 32.5326 135.513 32.3918 135.401 32.2871C135.29 32.1825 135.141 32.122 134.983 32.1182" fill="#3634E3"/>
<path d="M137.439 32.6795V33.3027C137.439 33.4519 137.502 33.5949 137.614 33.7004C137.726 33.8059 137.878 33.8651 138.037 33.8651H142.381C142.537 33.8611 142.685 33.8002 142.793 33.6951C142.902 33.5901 142.963 33.4493 142.963 33.3027V25.7027C142.963 25.5576 142.901 25.4184 142.792 25.3158C142.683 25.2132 142.535 25.1555 142.381 25.1555H141.703C141.549 25.1555 141.401 25.2132 141.292 25.3158C141.183 25.4184 141.121 25.5576 141.121 25.7027V32.1019H138.037C137.878 32.1019 137.726 32.1612 137.614 32.2666C137.502 32.3721 137.439 32.5152 137.439 32.6643" fill="#3634E3"/>
<path d="M154.639 25.1694C154.483 25.1734 154.335 25.2344 154.227 25.3394C154.118 25.4445 154.057 25.5853 154.057 25.7318V26.3398C154.055 26.413 154.069 26.4858 154.097 26.5539C154.125 26.6221 154.168 26.6842 154.222 26.7366C154.276 26.7891 154.341 26.8307 154.413 26.8592C154.484 26.8876 154.561 26.9023 154.639 26.9022H155.301C155.379 26.9022 155.457 26.8877 155.53 26.8594C155.602 26.8312 155.668 26.7897 155.724 26.7375C155.779 26.6853 155.823 26.6233 155.853 26.5551C155.883 26.4868 155.899 26.4137 155.899 26.3398V25.7318C155.895 25.5839 155.83 25.4431 155.719 25.3384C155.608 25.2338 155.458 25.1733 155.301 25.1694" fill="#3634E3"/>
<path d="M152.797 14.7443H153.459C153.616 14.7404 153.766 14.6799 153.877 14.5753C153.988 14.4706 154.053 14.3298 154.057 14.1819V13.5739C154.057 13.4247 153.994 13.2817 153.882 13.1762C153.77 13.0707 153.618 13.0115 153.459 13.0115H152.797C152.639 13.0115 152.487 13.0707 152.374 13.1762C152.262 13.2817 152.199 13.4247 152.199 13.5739V14.1819C152.204 14.3298 152.268 14.4706 152.379 14.5753C152.49 14.6799 152.64 14.7404 152.797 14.7443" fill="#3634E3"/>
<path d="M142.364 14.7417H141.718C141.56 14.7455 141.411 14.806 141.3 14.9107C141.188 15.0153 141.124 15.1562 141.12 15.3041V15.9121C141.12 16.0613 141.183 16.2043 141.295 16.3098C141.407 16.4152 141.559 16.4745 141.718 16.4745H142.364C142.443 16.4766 142.521 16.4635 142.595 16.436C142.668 16.4084 142.735 16.3671 142.791 16.3144C142.847 16.2618 142.891 16.199 142.92 16.1298C142.949 16.0606 142.963 15.9865 142.961 15.9121V15.3041C142.961 15.1549 142.898 15.0119 142.786 14.9064C142.674 14.801 142.522 14.7417 142.364 14.7417Z" fill="#3634E3"/>
<path d="M138.683 21.6904H138.037C137.878 21.6904 137.726 21.7497 137.614 21.8552C137.502 21.9606 137.439 22.1037 137.439 22.2528V22.876C137.439 22.9499 137.455 23.023 137.485 23.0913C137.515 23.1595 137.559 23.2215 137.614 23.2737C137.67 23.3259 137.736 23.3674 137.808 23.3956C137.881 23.4239 137.958 23.4384 138.037 23.4384H138.683C138.84 23.4346 138.99 23.3741 139.101 23.2695C139.212 23.1648 139.276 23.024 139.28 22.876V22.2528C139.276 22.1049 139.212 21.9641 139.101 21.8594C138.99 21.7548 138.84 21.6943 138.683 21.6904Z" fill="#3634E3"/>
<path d="M158.979 25.1694H158.333C158.176 25.1733 158.026 25.2338 157.915 25.3384C157.804 25.4431 157.74 25.5839 157.736 25.7318V26.3398C157.736 26.489 157.799 26.6321 157.911 26.7375C158.023 26.843 158.175 26.9022 158.333 26.9022H158.979C159.058 26.9043 159.137 26.8912 159.211 26.8637C159.284 26.8362 159.351 26.7948 159.407 26.7422C159.463 26.6895 159.507 26.6267 159.536 26.5575C159.565 26.4883 159.579 26.4143 159.577 26.3398V25.7318C159.577 25.5827 159.514 25.4396 159.402 25.3342C159.29 25.2287 159.138 25.1694 158.979 25.1694" fill="#3634E3"/>
<path d="M130.622 30.3843H138.697C138.851 30.3843 138.999 30.3267 139.108 30.224C139.217 30.1214 139.278 29.9822 139.278 29.8371V25.7179C139.278 25.5728 139.217 25.4336 139.108 25.331C138.999 25.2284 138.851 25.1707 138.697 25.1707H135.58V19.9571H141.119V22.8755C141.123 23.0234 141.188 23.1643 141.299 23.2689C141.41 23.3736 141.56 23.4341 141.717 23.4379H158.997C159.074 23.4379 159.149 23.4237 159.22 23.3962C159.29 23.3687 159.355 23.3284 159.409 23.2776C159.463 23.2268 159.505 23.1665 159.535 23.1001C159.564 23.0337 159.579 22.9626 159.579 22.8907V17.0083C159.579 16.9364 159.564 16.8653 159.535 16.7989C159.505 16.7325 159.463 16.6722 159.409 16.6214C159.355 16.5706 159.29 16.5303 159.22 16.5028C159.149 16.4753 159.074 16.4611 158.997 16.4611H154.637C154.483 16.4611 154.335 16.5187 154.226 16.6214C154.117 16.724 154.056 16.8632 154.056 17.0083V18.2091H150.357V11.8099C150.357 11.6648 150.296 11.5256 150.187 11.423C150.078 11.3203 149.93 11.2627 149.776 11.2627H149.081C148.927 11.2627 148.779 11.3203 148.67 11.423C148.561 11.5256 148.5 11.6648 148.5 11.8099V21.6899H142.96V18.7715C142.96 18.6996 142.945 18.6285 142.916 18.5621C142.887 18.4957 142.844 18.4354 142.79 18.3846C142.736 18.3338 142.672 18.2935 142.602 18.266C142.531 18.2385 142.455 18.2243 142.379 18.2243H134.304C134.15 18.2243 134.002 18.2819 133.893 18.3846C133.784 18.4872 133.723 18.6264 133.723 18.7715V26.3715C133.727 26.514 133.79 26.6493 133.899 26.7486C134.007 26.848 134.153 26.9036 134.304 26.9035H137.421V28.6363H131.882V18.7715C131.882 18.6264 131.82 18.4872 131.711 18.3846C131.602 18.2819 131.454 18.2243 131.3 18.2243H130.606C130.451 18.2243 130.304 18.2819 130.195 18.3846C130.086 18.4872 130.024 18.6264 130.024 18.7715V29.8371C130.024 29.9822 130.086 30.1214 130.195 30.224C130.304 30.3267 130.451 30.3843 130.606 30.3843H130.622ZM150.341 19.9571H155.88V18.2243H157.722V21.6899H150.341V19.9571Z" fill="#3634E3"/>
<path d="M112.646 11.917C112.436 11.917 112.178 11.917 112.178 11.7498V10.3362C112.178 10.245 112.436 10.169 112.646 10.169H113.987C114.439 10.169 114.552 10.169 114.552 9.72819V7.56979C114.552 7.00739 114.552 6.39939 114.552 5.74579C114.552 5.71054 114.56 5.67565 114.574 5.64326C114.589 5.61088 114.611 5.58169 114.638 5.55748C114.665 5.53328 114.697 5.51457 114.733 5.50252C114.768 5.49047 114.805 5.48532 114.843 5.48739H116.054C116.264 5.48739 116.361 5.59379 116.361 5.74579C116.361 6.33859 116.361 6.74899 116.361 7.14419V8.95299C116.361 10.1082 116.361 10.8834 116.361 11.3698C116.348 11.4587 116.31 11.5426 116.25 11.6124C116.191 11.6821 116.111 11.7349 116.022 11.765C115.253 11.8815 114.475 11.9324 113.696 11.917H112.646ZM113.518 13.437C113.518 13.3549 113.552 13.2759 113.612 13.2165C113.672 13.157 113.754 13.1217 113.841 13.1178H114.956C115.002 13.1157 115.047 13.1225 115.091 13.1376C115.134 13.1527 115.173 13.1759 115.206 13.2057C115.239 13.2356 115.266 13.2715 115.284 13.3112C115.302 13.351 115.311 13.3938 115.311 13.437V14.5162C115.303 14.5982 115.261 14.674 115.195 14.7278C115.129 14.7816 115.043 14.8093 114.956 14.805H113.841C113.76 14.8017 113.682 14.7706 113.622 14.7175C113.563 14.6644 113.526 14.5929 113.518 14.5162V13.437ZM107.381 11.917C107.171 11.917 106.913 11.917 106.913 11.7498V10.3362C106.913 10.245 107.171 10.169 107.381 10.169H108.738C109.061 10.169 109.578 10.169 109.578 9.71299V5.79139C109.578 5.75614 109.585 5.72125 109.6 5.68886C109.615 5.65648 109.637 5.62729 109.664 5.60308C109.691 5.57888 109.723 5.56017 109.758 5.54812C109.794 5.53607 109.831 5.53092 109.868 5.53299H111.112C111.149 5.53076 111.185 5.53591 111.22 5.54811C111.254 5.5603 111.285 5.57926 111.311 5.60371C111.337 5.62817 111.358 5.65756 111.371 5.68992C111.383 5.72229 111.389 5.75688 111.387 5.79139V9.94099C111.516 10.1386 112.065 10.169 112.323 10.169H112.679V11.917H112.501C111.782 11.9662 111.064 11.8013 110.45 11.4458C109.848 11.775 109.159 11.9383 108.463 11.917H107.381ZM109.562 3.22259C109.562 3.13793 109.597 3.05674 109.661 2.99688C109.725 2.93702 109.811 2.90339 109.901 2.90339H111.047C111.091 2.90334 111.135 2.91168 111.175 2.9279C111.215 2.94411 111.252 2.96788 111.282 2.99774C111.312 3.0276 111.335 3.06293 111.351 3.10158C111.366 3.14024 111.373 3.18141 111.37 3.22259V4.28659C111.368 4.32653 111.358 4.36569 111.34 4.40183C111.322 4.43798 111.296 4.47039 111.265 4.49722C111.233 4.52404 111.196 4.54476 111.156 4.55817C111.116 4.57159 111.074 4.57744 111.031 4.57539H109.901C109.858 4.57744 109.816 4.57159 109.776 4.55817C109.736 4.54476 109.699 4.52404 109.668 4.49722C109.636 4.47039 109.61 4.43798 109.592 4.40183C109.574 4.36569 109.564 4.32653 109.562 4.28659V3.22259ZM97.0615 7.61539C97.223 7.61539 97.3038 7.70659 97.3038 7.87379C97.3038 8.04099 97.3038 8.39059 97.3038 8.49699C97.3038 9.78899 97.9982 10.169 99.9201 10.169H103.408C103.748 10.169 104.232 10.169 104.232 9.71299V1.80899C104.23 1.7718 104.236 1.73458 104.249 1.69962C104.263 1.66465 104.284 1.63266 104.311 1.60562C104.339 1.57859 104.371 1.55706 104.408 1.54237C104.444 1.52768 104.483 1.52013 104.523 1.52019H105.815C105.854 1.52013 105.894 1.52768 105.93 1.54237C105.966 1.55706 105.999 1.57859 106.026 1.60562C106.054 1.63266 106.075 1.66465 106.088 1.69962C106.102 1.73458 106.108 1.7718 106.106 1.80899V9.88019C106.219 10.0778 106.735 10.1082 107.01 10.1082H107.398V11.8562H107.22C106.535 11.8787 105.855 11.7485 105.233 11.4762C104.61 11.7585 103.922 11.8892 103.231 11.8562H99.5971C96.5124 11.8562 95.608 10.777 95.608 8.89219C95.5793 8.53804 95.5793 8.18234 95.608 7.82819C95.608 7.63059 95.7211 7.55459 95.9149 7.55459L97.0615 7.61539ZM99.1287 6.52099C99.1287 6.41459 99.2095 6.35379 99.3871 6.35379H99.5971C99.469 6.11863 99.4026 5.85805 99.4033 5.59379C99.4033 4.71219 100.001 4.24099 101.018 4.24099C101.263 4.24035 101.507 4.26585 101.745 4.31699C101.803 4.328 101.856 4.35889 101.891 4.40376C101.927 4.44862 101.944 4.50432 101.939 4.56019V5.04659C101.939 5.16819 101.939 5.21379 101.745 5.21379H101.164C101.08 5.20226 100.995 5.20848 100.914 5.23198C100.834 5.25548 100.76 5.29568 100.698 5.34962C100.636 5.40355 100.587 5.46986 100.556 5.54368C100.525 5.61749 100.512 5.69694 100.518 5.77619C100.511 5.87967 100.527 5.98336 100.566 6.08033C100.605 6.17731 100.666 6.26535 100.744 6.33859H101.842C102.003 6.33859 102.1 6.33859 102.1 6.52099V7.08339C102.1 7.20499 102.003 7.26579 101.842 7.26579H99.371C99.1933 7.26579 99.1126 7.26579 99.1126 7.08339L99.1287 6.52099ZM88.9381 2.61459C88.7766 2.61459 88.712 2.61459 88.712 2.44739V2.05219C88.712 1.96099 88.712 1.91539 88.9381 1.91539H89.2449C89.0879 1.68452 89.009 1.41418 89.0188 1.14019C89.0188 0.380192 89.4872 0.00019172 90.4562 0.00019172C90.6859 -0.00274276 90.9148 0.0280253 91.1345 0.0913909C91.2314 0.0913909 91.296 0.0913911 91.296 0.228191V0.592991C91.296 0.684191 91.296 0.729791 91.1183 0.729791H90.6015C90.1009 0.729791 89.8748 0.881792 89.8748 1.26179C89.8678 1.38576 89.8919 1.50954 89.9453 1.62309C89.9986 1.73664 90.0796 1.83678 90.1816 1.91539H91.1991C91.3444 1.91539 91.4252 1.91539 91.4252 2.03699V2.44739C91.4252 2.55379 91.4252 2.61459 91.1991 2.61459H88.9381ZM89.1965 3.73939C89.1941 3.70288 89.2 3.66632 89.2138 3.63212C89.2276 3.59792 89.2489 3.56686 89.2764 3.541C89.3039 3.51514 89.3369 3.49506 89.3732 3.48209C89.4096 3.46913 89.4484 3.46357 89.4872 3.46579H90.7792C90.8187 3.46372 90.8582 3.46927 90.8954 3.48209C90.9326 3.49491 90.9665 3.51473 90.9953 3.54035C91.024 3.56596 91.0469 3.59683 91.0625 3.63106C91.0781 3.66528 91.0861 3.70215 91.086 3.73939V11.6282C91.086 11.7048 91.0537 11.7782 90.9962 11.8324C90.9386 11.8866 90.8606 11.917 90.7792 11.917H89.4872C89.4476 11.917 89.4084 11.9095 89.3721 11.8948C89.3357 11.8801 89.3029 11.8586 89.2757 11.8316C89.2485 11.8045 89.2274 11.7725 89.2138 11.7376C89.2002 11.7026 89.1943 11.6654 89.1965 11.6282V3.73939ZM82.7365 11.917C82.5104 11.917 82.2681 11.917 82.2681 11.7498V10.3362C82.2681 10.245 82.5104 10.169 82.7365 10.169H84.2223C84.6745 10.169 84.7875 10.169 84.7875 9.72819V7.61539C84.7875 7.05299 84.7875 6.44499 84.7875 5.79139C84.7875 5.75614 84.7951 5.72125 84.8099 5.68886C84.8247 5.65648 84.8463 5.62729 84.8736 5.60308C84.9008 5.57888 84.933 5.56017 84.9682 5.54812C85.0034 5.53607 85.0408 5.53092 85.0782 5.53299H86.2733C86.3132 5.52626 86.3542 5.52791 86.3933 5.53785C86.4325 5.54778 86.4687 5.56574 86.4996 5.59045C86.5305 5.61515 86.5552 5.64598 86.5719 5.68072C86.5886 5.71546 86.597 5.75326 86.5963 5.79139C86.5963 6.36899 86.5963 6.79459 86.5963 7.18979V8.95299C86.5963 10.1082 86.5963 10.8834 86.5963 11.3698C86.5807 11.4576 86.5413 11.5401 86.4819 11.6093C86.4225 11.6786 86.3451 11.7322 86.2572 11.765C85.4884 11.8815 84.7101 11.9324 83.9316 11.917H82.7365ZM83.7216 13.437C83.7215 13.3549 83.755 13.2759 83.8152 13.2165C83.8753 13.157 83.9575 13.1217 84.0446 13.1178H85.159C85.2049 13.1157 85.2507 13.1225 85.2937 13.1376C85.3368 13.1527 85.3761 13.1759 85.4093 13.2057C85.4425 13.2356 85.469 13.2715 85.487 13.3112C85.5051 13.351 85.5143 13.3938 85.5143 13.437V14.5162C85.5061 14.5982 85.4645 14.674 85.3983 14.7278C85.3321 14.7816 85.2464 14.8093 85.159 14.805H84.0446C83.9628 14.8017 83.885 14.7706 83.8257 14.7175C83.7663 14.6644 83.7294 14.5929 83.7216 14.5162V13.437ZM75.8081 13.8626C75.8057 13.8301 75.8108 13.7975 75.8229 13.7669C75.8351 13.7364 75.854 13.7087 75.8785 13.6856C75.903 13.6626 75.9325 13.6447 75.9649 13.6333C75.9973 13.6219 76.032 13.6171 76.0665 13.6194H77.3747C78.8928 13.6194 79.6841 13.3762 79.6841 12.3426V11.9474H78.6182C78.1747 12.0049 77.7231 11.9667 77.2976 11.8359C76.872 11.7051 76.4835 11.485 76.1616 11.1922C75.8396 10.8994 75.5925 10.5416 75.439 10.1458C75.2854 9.75001 75.2294 9.32655 75.2752 8.90739V8.64899C75.2752 6.52099 76.6641 5.30499 79.1512 5.30499C79.8639 5.29502 80.575 5.37165 81.2668 5.53299C81.4445 5.53299 81.5091 5.63939 81.5091 5.79139V10.169H82.7849V11.917H81.4929V12.449C81.3153 14.6682 79.7649 15.2154 77.7946 15.2154C77.2191 15.2481 76.642 15.2481 76.0665 15.2154C75.8727 15.2154 75.8243 15.0938 75.8243 14.957L75.8081 13.8626ZM77.1001 8.74019C77.1001 9.77379 77.5362 10.2602 78.6182 10.2602H79.7003V6.91619C79.4098 6.90022 79.1186 6.90022 78.8282 6.91619C78.594 6.89977 78.3588 6.93161 78.139 7.0095C77.9193 7.08739 77.7202 7.20945 77.5557 7.36718C77.3911 7.52491 77.2652 7.71451 77.1865 7.92277C77.1078 8.13102 77.0784 8.35292 77.1001 8.57299V8.74019ZM67.6524 2.56899C67.6523 2.52776 67.6612 2.48694 67.6784 2.44903C67.6956 2.41112 67.7209 2.37691 67.7526 2.34847C67.7843 2.32004 67.8219 2.29797 67.863 2.28362C67.904 2.26927 67.9478 2.26293 67.9915 2.26499H69.1382C69.1799 2.26494 69.2211 2.27288 69.2595 2.28833C69.2978 2.30379 69.3324 2.32643 69.3611 2.35488C69.3898 2.38333 69.412 2.41699 69.4265 2.4538C69.4409 2.49061 69.4472 2.52981 69.445 2.56899V3.63299C69.4474 3.67349 69.4406 3.714 69.4252 3.75187C69.4098 3.78975 69.3861 3.82415 69.3556 3.85283C69.3251 3.8815 69.2886 3.90382 69.2483 3.91832C69.2081 3.93282 69.1651 3.93918 69.122 3.93699H67.9915C67.9478 3.93905 67.904 3.93271 67.863 3.91836C67.8219 3.90401 67.7843 3.88195 67.7526 3.85351C67.7209 3.82507 67.6956 3.79086 67.6784 3.75295C67.6612 3.71504 67.6523 3.67422 67.6524 3.63299V2.56899ZM61.4992 10.4426C61.4939 10.4055 61.4977 10.3677 61.5105 10.3322C61.5232 10.2967 61.5444 10.2645 61.5726 10.238C61.6007 10.2115 61.635 10.1915 61.6727 10.1796C61.7104 10.1676 61.7505 10.164 61.7899 10.169H63.6633V1.80899C63.6611 1.7718 63.667 1.73458 63.6806 1.69962C63.6943 1.66465 63.7153 1.63266 63.7425 1.60562C63.7698 1.57859 63.8025 1.55706 63.8389 1.54237C63.8753 1.52768 63.9144 1.52013 63.954 1.52019H65.2783C65.3165 1.52213 65.3539 1.53115 65.3884 1.54672C65.4229 1.5623 65.4538 1.58413 65.4793 1.61096C65.5048 1.63779 65.5244 1.66909 65.5371 1.70307C65.5497 1.73706 65.5551 1.77305 65.5529 1.80899V5.94339C66.5343 5.41698 67.6545 5.16395 68.7829 5.21379C71.2538 5.21379 72.8365 6.15619 72.8365 8.84659V9.40899C72.8391 10.072 72.7742 10.7337 72.6427 11.385C72.6279 11.4901 72.5747 11.587 72.4921 11.6591C72.4096 11.7312 72.303 11.774 72.1905 11.7802C71.6576 11.7802 69.5096 11.7802 68.686 11.7802H61.7899C61.7547 11.7823 61.7193 11.7775 61.6861 11.7662C61.6528 11.7549 61.6224 11.7374 61.5967 11.7146C61.5709 11.6918 61.5505 11.6643 61.5365 11.6337C61.5225 11.6032 61.5153 11.5702 61.5154 11.537L61.4992 10.4426ZM70.6401 10.245C70.8985 10.245 70.947 10.093 70.947 9.34819V9.15059C70.947 7.49379 70.1233 6.96179 68.2338 6.96179C67.2956 6.91856 66.3627 7.11834 65.5367 7.53939V10.2146H67.2648L70.6401 10.245ZM48.4016 9.08979C48.414 8.48863 48.4734 7.88915 48.5792 7.29619C48.5831 7.22482 48.615 7.15733 48.6687 7.1068C48.7224 7.05626 48.7941 7.02626 48.8699 7.02259H49.9843C50.1781 7.02259 50.2427 7.11379 50.2265 7.28099C50.2265 7.67619 50.2265 8.13219 50.2265 8.39059C50.2265 10.2754 50.5657 11.689 53.1497 11.689C53.5984 11.6928 54.0467 11.6623 54.4901 11.5978C54.4901 10.6858 54.4901 10.2754 54.4901 9.54579V8.34499C54.4901 6.27779 55.8144 5.30499 58.1885 5.30499C58.8867 5.30463 59.5837 5.36057 60.2718 5.47219C60.4333 5.47219 60.5141 5.57859 60.5141 5.74579V9.69779C60.5141 10.093 60.6756 10.169 61.1762 10.169H61.7899V11.917H60.6433C59.319 11.917 58.6407 11.613 58.6407 10.1994V6.94659C58.4044 6.92474 58.1664 6.92474 57.9301 6.94659C56.8319 6.94659 56.3151 7.34179 56.3151 8.54259V10.777C56.3151 11.4306 56.3151 12.297 56.3151 12.905C56.3151 13.0722 56.202 13.1634 55.9921 13.209C55.0406 13.3438 54.0796 13.4098 53.1174 13.4066C49.8874 13.4066 48.4823 11.8866 48.4823 9.12019L48.4016 9.08979ZM50.8079 14.6378C50.8079 14.5986 50.8163 14.5597 50.8327 14.5236C50.8491 14.4876 50.8732 14.455 50.9034 14.428C50.9337 14.401 50.9694 14.38 51.0085 14.3665C51.0476 14.3529 51.0893 14.3469 51.1309 14.349H52.0999C52.1416 14.3469 52.1832 14.3529 52.2223 14.3665C52.2614 14.38 52.2972 14.401 52.3274 14.428C52.3576 14.455 52.3817 14.4876 52.3981 14.5236C52.4145 14.5597 52.423 14.5986 52.4229 14.6378V15.489C52.4149 15.5642 52.3773 15.634 52.3176 15.6846C52.2579 15.7351 52.1803 15.763 52.0999 15.7626H51.1309C51.0906 15.7646 51.0503 15.7592 51.0122 15.7465C50.9741 15.7339 50.9391 15.7143 50.9091 15.6889C50.8791 15.6635 50.8547 15.6327 50.8374 15.5984C50.82 15.5641 50.81 15.5269 50.8079 15.489V14.6378ZM53.4888 14.6378C53.4865 14.5993 53.4928 14.5608 53.5074 14.5247C53.522 14.4887 53.5445 14.4559 53.5735 14.4287C53.6025 14.4014 53.6372 14.3802 53.6755 14.3665C53.7138 14.3527 53.7548 14.3468 53.7957 14.349H54.7808C54.8225 14.3469 54.8641 14.3529 54.9032 14.3665C54.9423 14.38 54.9781 14.401 55.0083 14.428C55.0385 14.455 55.0626 14.4876 55.079 14.5236C55.0954 14.5597 55.1039 14.5986 55.1038 14.6378V15.489C55.0958 15.5642 55.0582 15.634 54.9985 15.6846C54.9388 15.7351 54.8612 15.763 54.7808 15.7626H53.7149C53.6363 15.7627 53.5606 15.7344 53.5035 15.6834C53.4464 15.6325 53.4122 15.5629 53.4081 15.489L53.4888 14.6378ZM42.1838 1.91539C42.1815 1.87888 42.1874 1.84232 42.2011 1.80812C42.2149 1.77392 42.2362 1.74286 42.2637 1.717C42.2912 1.69114 42.3242 1.67106 42.3605 1.65809C42.3969 1.64513 42.4357 1.63957 42.4745 1.64179H43.7665C43.8053 1.63957 43.8442 1.64513 43.8805 1.65809C43.9168 1.67106 43.9498 1.69114 43.9773 1.717C44.0048 1.74286 44.0261 1.77392 44.0399 1.80812C44.0537 1.84232 44.0596 1.87888 44.0572 1.91539V11.689C44.0594 11.7262 44.0535 11.7634 44.0399 11.7984C44.0263 11.8333 44.0052 11.8653 43.978 11.8924C43.9508 11.9194 43.918 11.9409 43.8816 11.9556C43.8453 11.9703 43.8061 11.9778 43.7665 11.9778H42.4099C42.3703 11.9778 42.3312 11.9703 42.2948 11.9556C42.2584 11.9409 42.2256 11.9194 42.1984 11.8924C42.1712 11.8653 42.1501 11.8333 42.1365 11.7984C42.1229 11.7634 42.117 11.7262 42.1192 11.689L42.1838 1.91539ZM36.1599 10.397C36.1599 10.3058 36.4183 10.2298 36.6282 10.2298H37.9041C38.3563 10.2298 38.4693 10.2298 38.4693 9.78899V1.80899C38.4671 1.77305 38.4725 1.73706 38.4851 1.70307C38.4978 1.66909 38.5174 1.63779 38.5429 1.61096C38.5684 1.58413 38.5993 1.5623 38.6338 1.54672C38.6683 1.53115 38.7057 1.52213 38.7439 1.52019H40.0682C40.1064 1.52213 40.1438 1.53115 40.1783 1.54672C40.2127 1.5623 40.2436 1.58413 40.2691 1.61096C40.2946 1.63779 40.3143 1.66909 40.3269 1.70307C40.3395 1.73706 40.3449 1.77305 40.3427 1.80899V9.69779C40.3749 10.2344 40.3749 10.7724 40.3427 11.309C40.3302 11.3957 40.2937 11.4777 40.2371 11.547C40.1804 11.6164 40.1055 11.6705 40.0197 11.7042C39.2346 11.8198 38.4402 11.8707 37.6457 11.8562H36.709C36.499 11.8562 36.2406 11.8562 36.2406 11.689L36.1599 10.397ZM30.8788 10.397C30.8788 10.3058 31.1372 10.2298 31.3633 10.2298H32.6876C33.0268 10.2298 33.5274 10.2298 33.5274 9.77379V5.79139C33.5273 5.75614 33.5349 5.72125 33.5497 5.68886C33.5645 5.65648 33.5862 5.62729 33.6135 5.60308C33.6407 5.57888 33.6729 5.56017 33.7081 5.54812C33.7433 5.53607 33.7807 5.53092 33.8181 5.53299H35.0778C35.1145 5.53076 35.1512 5.53591 35.1856 5.54811C35.22 5.5603 35.2512 5.57926 35.2772 5.60371C35.3032 5.62817 35.3233 5.65756 35.3363 5.68992C35.3493 5.72229 35.3547 5.75688 35.3524 5.79139V9.94099C35.4654 10.1386 36.0307 10.169 36.2891 10.169H36.6282V11.917H36.4667C35.7202 11.9873 34.9701 11.8215 34.3349 11.4458C33.7321 11.7735 33.0443 11.9366 32.3485 11.917H31.2826C31.0565 11.917 30.7981 11.917 30.7981 11.7498L30.8788 10.397ZM32.2354 3.26819C32.2396 3.1862 32.2771 3.10886 32.3403 3.05225C32.4034 2.99563 32.4873 2.9641 32.5746 2.96419H33.5759C33.6204 2.96215 33.665 2.96839 33.7069 2.98257C33.7489 2.99675 33.7875 3.01859 33.8205 3.04682C33.8535 3.07506 33.8803 3.10915 33.8993 3.14713C33.9182 3.18512 33.9291 3.22626 33.9312 3.26819V4.33219C33.9194 4.41276 33.8768 4.48653 33.8114 4.53969C33.746 4.59285 33.6623 4.62175 33.5759 4.62099H32.5746C32.5321 4.62304 32.4897 4.61719 32.4497 4.60377C32.4096 4.59036 32.3728 4.56964 32.3413 4.54282C32.3098 4.51599 32.2842 4.48358 32.2661 4.44743C32.2479 4.41129 32.2375 4.37213 32.2354 4.33219V3.26819ZM34.9002 3.26819C34.9082 3.18487 34.9492 3.10743 35.015 3.05115C35.0808 2.99487 35.1666 2.96385 35.2555 2.96419H36.2568C36.2998 2.962 36.3428 2.96836 36.3831 2.98286C36.4233 2.99736 36.4599 3.01968 36.4903 3.04836C36.5208 3.07703 36.5445 3.11143 36.5599 3.14931C36.5753 3.18719 36.5821 3.22769 36.5798 3.26819V4.33219C36.5798 4.37143 36.5714 4.41027 36.555 4.44634C36.5385 4.4824 36.5145 4.51495 36.4843 4.54197C36.454 4.569 36.4183 4.58994 36.3792 4.60353C36.34 4.61711 36.2984 4.62306 36.2568 4.62099H35.2555C35.1681 4.62528 35.0824 4.59762 35.0161 4.5438C34.9499 4.48998 34.9084 4.41417 34.9002 4.33219V3.26819ZM22.61 11.9778C22.3839 11.9778 22.1417 11.8714 22.1417 11.8106V10.397C22.1417 10.3058 22.4001 10.2298 22.61 10.2298H28.8924L28.2141 8.81619C27.936 8.16295 27.4333 7.61629 26.7863 7.26359C26.1393 6.9109 25.3853 6.77253 24.6449 6.87059H23.8697C23.6598 6.87059 23.5629 6.87059 23.5629 6.65779V5.65459C23.5629 5.51779 23.6598 5.42659 23.8536 5.39619C24.316 5.30913 24.787 5.26837 25.2586 5.27459C26.3335 5.23136 27.3931 5.52608 28.2704 6.11229C29.1476 6.69849 29.7926 7.54284 30.1036 8.51219C30.3004 9.00526 30.5269 9.48738 30.7819 9.95619C30.8066 10.0161 30.8517 10.0665 30.9102 10.0995C30.9687 10.1326 31.0372 10.1463 31.1049 10.1386H31.2503V11.8866L22.61 11.9778ZM25.6462 13.4978C25.644 13.4566 25.6508 13.4154 25.666 13.3768C25.6813 13.3381 25.7047 13.3028 25.7349 13.2729C25.7651 13.2431 25.8015 13.2193 25.8418 13.2031C25.882 13.1869 25.9254 13.1785 25.9692 13.1786H27.0836C27.1294 13.1765 27.1753 13.1833 27.2183 13.1984C27.2613 13.2135 27.3007 13.2367 27.3339 13.2665C27.3671 13.2964 27.3935 13.3323 27.4116 13.372C27.4296 13.4118 27.4389 13.4546 27.4389 13.4978V14.577C27.4307 14.659 27.3891 14.7348 27.3229 14.7886C27.2567 14.8424 27.1709 14.8701 27.0836 14.8658H25.9692C25.8863 14.8659 25.8065 14.836 25.7463 14.7822C25.6862 14.7284 25.6504 14.655 25.6462 14.577V13.4978ZM19.3154 1.80899C19.3195 1.73506 19.3537 1.66545 19.4108 1.61454C19.4679 1.56362 19.5436 1.53529 19.6223 1.53539H20.9143C20.953 1.53317 20.9919 1.53873 21.0282 1.55169C21.0646 1.56466 21.0976 1.58474 21.1251 1.6106C21.1525 1.63646 21.1739 1.66752 21.1876 1.70172C21.2014 1.73592 21.2073 1.77248 21.205 1.80899V9.40899C21.205 10.017 21.4634 10.093 22.0125 10.093H22.4808V11.841H21.4149C20.1068 11.841 19.267 11.5066 19.267 9.92579L19.3154 1.80899ZM13.3399 13.8322C13.3399 13.6954 13.4368 13.6346 13.5822 13.6346H13.889C14.9711 13.6346 15.3587 13.5434 15.3587 12.4338V5.79139C15.3586 5.75614 15.3662 5.72125 15.381 5.68886C15.3958 5.65648 15.4175 5.62729 15.4447 5.60308C15.4719 5.57888 15.5041 5.56017 15.5393 5.54812C15.5745 5.53607 15.612 5.53092 15.6494 5.53299H16.9091C16.9444 5.53293 16.9794 5.53968 17.0118 5.55284C17.0443 5.56601 17.0735 5.58529 17.0977 5.60951C17.1219 5.63373 17.1406 5.66236 17.1526 5.69365C17.1646 5.72493 17.1697 5.7582 17.1675 5.79139V12.221C17.2174 12.8594 17.1067 13.4999 16.8445 14.0906C16.5966 14.468 16.2364 14.7687 15.8086 14.9551C15.3808 15.1416 14.9043 15.2057 14.4381 15.1394C14.1424 15.1597 13.8455 15.1597 13.5499 15.1394C13.4045 15.1394 13.3399 15.033 13.3399 14.881V13.8322ZM0.645997 9.05939C0.661891 8.45701 0.732129 7.85698 0.855948 7.26579C0.855948 7.06819 0.936699 6.99219 1.14665 6.99219H2.261C2.4225 6.99219 2.50325 7.08339 2.50325 7.25059C2.50325 7.64579 2.4225 8.10179 2.4225 8.36019C2.4225 10.245 2.76165 11.6586 5.34565 11.6586C5.78899 11.6625 6.23192 11.632 6.66995 11.5674C6.66995 10.6554 6.66995 10.245 6.66995 9.51539V8.31459C6.66995 6.23219 7.9781 5.27459 10.4652 5.27459C11.1529 5.2715 11.8394 5.32746 12.5163 5.44179C12.6616 5.44179 12.7585 5.54819 12.7585 5.71539V11.5978C12.7607 11.635 12.7548 11.6722 12.7412 11.7072C12.7276 11.7421 12.7065 11.7741 12.6793 11.8012C12.6521 11.8282 12.6193 11.8497 12.5829 11.8644C12.5465 11.8791 12.5074 11.8866 12.4678 11.8866H11.1919C11.1538 11.8846 11.1163 11.8756 11.0819 11.8601C11.0474 11.8445 11.0165 11.8227 10.991 11.7958C10.9655 11.769 10.9459 11.7377 10.9332 11.7037C10.9206 11.6697 10.9152 11.6337 10.9174 11.5978V6.94659C10.6648 6.9265 10.4109 6.9265 10.1583 6.94659C9.06015 6.94659 8.54335 7.34179 8.54335 8.54259V10.777C8.54335 11.4306 8.54335 12.297 8.54335 12.905C8.54335 13.0722 8.44645 13.1634 8.22035 13.209C7.26881 13.3432 6.30781 13.4092 5.34565 13.4066C2.11565 13.4066 0.694445 11.8866 0.694445 9.12019L0.645997 9.05939ZM3.0362 14.6378C3.03614 14.5986 3.04458 14.5597 3.061 14.5236C3.07742 14.4876 3.10148 14.455 3.13171 14.428C3.16193 14.401 3.1977 14.38 3.23681 14.3665C3.27592 14.3529 3.31756 14.3469 3.3592 14.349H4.31205C4.35497 14.3447 4.39837 14.349 4.43942 14.3616C4.48046 14.3742 4.51821 14.3948 4.55022 14.422C4.58223 14.4493 4.60777 14.4826 4.62517 14.5198C4.64257 14.557 4.65144 14.5972 4.6512 14.6378V15.489C4.643 15.5669 4.60316 15.6389 4.53998 15.6899C4.47679 15.7408 4.39514 15.7669 4.31205 15.7626H3.3592C3.31889 15.7646 3.27855 15.7592 3.24048 15.7465C3.20242 15.7339 3.16738 15.7143 3.13737 15.6889C3.10737 15.6635 3.08299 15.6327 3.06563 15.5984C3.04827 15.5641 3.03826 15.5269 3.0362 15.489V14.6378ZM5.70095 14.6378C5.70089 14.5986 5.70933 14.5597 5.72575 14.5236C5.74217 14.4876 5.76623 14.455 5.79645 14.428C5.82668 14.401 5.86244 14.38 5.90156 14.3665C5.94067 14.3529 5.98232 14.3469 6.02395 14.349H7.0091C7.05074 14.3469 7.09238 14.3529 7.13149 14.3665C7.17061 14.38 7.20637 14.401 7.23659 14.428C7.26682 14.455 7.29088 14.4876 7.3073 14.5236C7.32372 14.5597 7.33216 14.5986 7.3321 14.6378V15.489C7.32406 15.5642 7.28652 15.634 7.22679 15.6846C7.16707 15.7351 7.08946 15.763 7.0091 15.7626H6.02395C5.9436 15.763 5.86598 15.7351 5.80626 15.6846C5.74653 15.634 5.70898 15.5642 5.70095 15.489V14.6378ZM43.6212 19.1978H34.5933C34.3026 19.1978 33.5436 19.441 33.5436 20.5506V46.6946C33.5436 47.9258 34.5933 47.9258 34.5933 47.9258H43.605C52.7298 47.9258 59.0283 42.5602 59.0283 33.6226C59.0283 24.685 52.7298 19.1978 43.605 19.1978H43.6212ZM43.0721 44.3994H37.6618V22.5722H43.0721C50.0489 22.5722 54.3771 26.4938 54.3771 33.501C54.3771 40.5082 50.0166 44.2778 43.0721 44.2778V44.3994ZM90.1332 41.5874C89.794 40.9946 89.2449 41.2378 88.8896 41.5874C86.5096 43.4784 83.4934 44.5127 80.3786 44.5058C73.6763 44.5058 69.0736 39.4442 69.0736 33.2274C69.0009 31.8207 69.2344 30.4149 69.7598 29.0963C70.2851 27.7776 71.0913 26.5739 72.1288 25.559C73.1662 24.5441 74.4131 23.7395 75.7929 23.1945C77.1727 22.6496 78.6562 22.3757 80.1525 22.3898C82.8785 22.3868 85.5415 23.1604 87.7914 24.609C88.8896 25.2322 89.1319 25.2322 89.794 24.609C90.1332 24.001 90.6661 23.089 90.6661 23.089C90.6661 23.089 91.3121 22.2682 90.6661 21.8426C87.5871 19.7704 83.9052 18.6401 80.1202 18.605C78.0815 18.5572 76.0538 18.8993 74.1597 19.6108C72.2657 20.3222 70.5448 21.388 69.1013 22.7438C67.6578 24.0995 66.5217 25.717 65.7619 27.4981C65.002 29.2792 64.6342 31.187 64.6808 33.1058C64.6808 41.4658 70.9631 48.0018 80.1202 48.0018C84.221 48.0294 88.1948 46.6639 91.3121 44.1562C91.9581 43.761 91.6836 43.3962 91.4252 42.9098C91.0403 42.3938 90.608 41.9106 90.1332 41.4658V41.5874ZM113.05 32.4978C114.292 31.9846 115.338 31.1283 116.05 30.0424C116.763 28.9565 117.108 27.6924 117.039 26.4178C117.039 21.645 113.308 19.0002 108.044 19.0002H98.7573C98.3872 19.0193 98.0384 19.1693 97.7809 19.4202C97.5233 19.671 97.376 20.0042 97.3684 20.353V46.497C97.3684 46.8618 97.3684 47.7282 98.7573 47.7282H108.286C113.696 47.7282 118.073 45.053 118.073 39.4746C118.112 37.9698 117.648 36.4915 116.747 35.248C115.846 34.0044 114.553 33.0585 113.05 32.5434V32.4978ZM101.745 22.4962H108.044C108.664 22.4674 109.285 22.562 109.864 22.774C110.444 22.986 110.969 23.3105 111.407 23.7263C111.844 24.1422 112.183 24.6402 112.402 25.1877C112.622 25.7353 112.716 26.3201 112.679 26.9042C112.696 27.4738 112.586 28.0406 112.357 28.568C112.128 29.0955 111.784 29.572 111.347 29.967C110.911 30.362 110.392 30.6668 109.823 30.8618C109.254 31.0568 108.648 31.1378 108.044 31.0994H101.745V22.4962ZM108.625 44.2778H101.81V34.4738H108.625C109.324 34.4315 110.024 34.5321 110.677 34.7689C111.33 35.0057 111.922 35.3729 112.41 35.8453C112.898 36.3177 113.271 36.884 113.504 37.5053C113.738 38.1266 113.825 38.7881 113.761 39.4442C113.823 40.0935 113.732 40.7478 113.496 41.3607C113.26 41.9736 112.883 42.5302 112.394 42.9912C111.904 43.4522 111.312 43.8063 110.661 44.0287C110.01 44.251 109.315 44.336 108.625 44.2778V44.2778ZM17.3774 20.429C16.9414 19.5626 16.7476 19.0762 15.4233 19.0762H12.8716C12.4295 19.0347 11.987 19.1506 11.6312 19.401C11.2755 19.6514 11.0323 20.0182 10.9497 20.429C10.6752 21.1282 0 46.9378 0 46.9378C0.0017396 47.059 0.0299993 47.1785 0.0830221 47.2889C0.136045 47.3994 0.212688 47.4983 0.308166 47.5796C0.403644 47.6609 0.515908 47.7228 0.637945 47.7615C0.759981 47.8001 0.889169 47.8146 1.01745 47.8042H3.7468C3.94079 47.7853 4.12574 47.7174 4.2821 47.6077C4.43845 47.498 4.56041 47.3506 4.63505 47.181L7.5905 39.581H20.7366L23.6598 47.181C23.7357 47.3527 23.8601 47.5015 24.0195 47.6114C24.179 47.7213 24.3673 47.7879 24.5642 47.8042H27.1482C28.2625 47.8042 28.2625 46.9378 28.2625 46.9378L17.3774 20.429ZM8.89865 36.2978L11.951 28.2874L14.1636 23.089L16.3115 28.2874L19.2993 36.2978H8.89865ZM58.9637 13.4066C58.9615 13.3654 58.9682 13.3242 58.9835 13.2856C58.9987 13.2469 59.0222 13.2116 59.0524 13.1817C59.0826 13.1519 59.1189 13.1281 59.1592 13.1119C59.1995 13.0957 59.2429 13.0873 59.2867 13.0874H60.401C60.4477 13.0853 60.4943 13.092 60.5383 13.1069C60.5822 13.1219 60.6226 13.1448 60.6571 13.1745C60.6916 13.2041 60.7195 13.2399 60.7393 13.2797C60.7591 13.3196 60.7704 13.3627 60.7725 13.4066V14.4858C60.7604 14.569 60.7155 14.645 60.6467 14.6985C60.5779 14.752 60.4902 14.7792 60.401 14.7746H59.2867C59.2037 14.7747 59.1239 14.7448 59.0638 14.691C59.0037 14.6372 58.9678 14.5638 58.9637 14.4858V13.4066Z" fill="#3634E3"/>
</svg>
