<svg width="67" height="44" viewBox="0 0 67 44" fill="none" xmlns="http://www.w3.org/2000/svg">
<path d="M0 28.1716C0.129832 27.8088 0.107253 27.4177 0.163701 27.0436C0.615291 24.0224 1.84023 21.398 4.08124 19.3007C6.00049 17.5038 8.29231 16.4268 10.8551 15.9337C12.7461 15.5709 14.6484 15.5086 16.5451 15.8997C18.9329 16.3928 20.9255 17.5945 22.6077 19.3403C22.8561 19.5954 23.0875 19.8732 23.3302 20.1339C23.4206 20.2303 23.4149 20.2926 23.3302 20.389C22.3706 21.5453 21.4166 22.696 20.4739 23.8637C20.3328 24.0394 20.2707 23.9317 20.1748 23.841C19.2998 22.9567 18.3232 22.2142 17.2056 21.67C12.9098 19.5727 6.87545 21.5907 5.70132 27.4687C5.19328 30.0138 5.53762 32.4399 7.02222 34.6165C8.36005 36.5834 10.2567 37.6661 12.5937 37.9778C15.5008 38.369 17.8886 37.275 19.9546 35.3081C20.3554 34.9283 20.3498 34.9226 20.7054 35.3591C21.5634 36.402 22.4158 37.445 23.2794 38.4767C23.4093 38.6354 23.4036 38.7091 23.2681 38.8621C22.0319 40.3019 20.5981 41.4865 18.8595 42.2744C17.0475 43.0964 15.1395 43.3741 13.1695 43.2777C11.6228 43.2041 10.1043 42.9433 8.65358 42.3935C4.1772 40.7043 1.38299 37.5244 0.338692 32.8253C0.191926 32.1735 0.101608 31.5046 0.0564487 30.8357C0.0508038 30.7904 0.0564487 30.7394 0 30.7167C0 29.8721 0 29.0219 0 28.1716Z" fill="#3634E3"/>
<path d="M46.4008 0C46.604 0.113367 46.8355 0.0793568 47.05 0.0963618C49.9289 0.334432 52.6948 1.04864 55.3366 2.20498C59.9428 4.21724 63.7136 7.27814 66.6264 11.3934C66.6828 11.467 66.728 11.5464 66.7788 11.6258C66.728 11.7278 66.6433 11.6881 66.5756 11.6881C64.6394 11.6881 62.7032 11.6881 60.7614 11.6938C60.5751 11.6938 60.4678 11.6144 60.3549 11.4954C57.9897 9.08634 55.2463 7.26681 52.0739 6.11614C49.212 5.07883 46.2653 4.67071 43.234 4.92012C37.815 5.36791 33.2483 7.63525 29.4267 11.4727C29.263 11.6371 29.1106 11.6938 28.8848 11.6938C27.022 11.6881 25.1592 11.6881 23.2964 11.6881C23.1948 11.6881 23.0931 11.6881 22.9972 11.6881C22.9633 11.5917 23.0254 11.5464 23.0649 11.5011C26.0623 7.22146 29.9742 4.0812 34.7724 2.05761C37.1771 1.04297 39.6834 0.413789 42.2744 0.13604C42.6131 0.10203 42.9631 0.124704 43.2905 0.00566847C44.3291 1.29653e-07 45.3678 0 46.4008 0Z" fill="#3634E3"/>
<path d="M53.6601 36.8103C53.5021 37.4394 53.3553 38.0233 53.2086 38.6071C52.9545 39.6047 52.6892 40.5967 52.4521 41.5943C52.39 41.8607 52.2602 42.0081 52.0288 42.1328C50.2224 43.1191 48.2975 43.4479 46.2992 43.0568C43.8945 42.5863 42.4664 41.0048 41.7664 38.7035C41.535 37.9326 41.4277 37.139 41.4277 36.3284C41.4277 31.3687 41.4221 26.4089 41.4334 21.4547C41.4334 21.2053 41.3826 21.126 41.1172 21.126C39.7794 21.143 38.4472 21.126 37.1094 21.1373C36.8836 21.1373 36.8046 21.0976 36.8046 20.8482C36.8159 19.3574 36.8159 17.861 36.8046 16.3702C36.8046 16.1435 36.8667 16.0925 37.0868 16.0925C38.4416 16.1038 39.7963 16.0925 41.1511 16.1038C41.3656 16.1038 41.4334 16.0585 41.4334 15.8317C41.4221 14.1879 41.4334 12.5441 41.4221 10.9003C41.4221 10.7132 41.4785 10.6169 41.6422 10.5318C43.2679 9.67025 44.8937 8.79733 46.5081 7.91873C46.7452 7.78836 46.7734 7.84504 46.7734 8.08311C46.7678 10.6452 46.7734 13.2016 46.7621 15.7637C46.7621 16.0641 46.8468 16.1095 47.1177 16.1095C48.766 16.0981 50.4087 16.1095 52.057 16.0981C52.2602 16.0981 52.3223 16.1378 52.3223 16.3589C52.311 17.8723 52.311 19.3801 52.3223 20.8936C52.3223 21.0976 52.2659 21.143 52.0683 21.143C50.3918 21.1373 48.7209 21.143 47.0444 21.1316C46.8299 21.1316 46.7621 21.1826 46.7621 21.4094C46.7678 26.0177 46.7678 30.6261 46.7678 35.2401C46.7678 35.6369 46.779 36.0337 46.8581 36.4248C47.1177 37.6662 47.8459 38.2784 49.1273 38.3237C50.2676 38.3634 51.3175 38.0346 52.3223 37.5415C52.7626 37.3147 53.1747 37.0767 53.6601 36.8103Z" fill="#3634E3"/>
<path d="M26.5478 29.4188C26.5478 25.0825 26.5478 20.7463 26.5421 16.4156C26.5421 16.1549 26.5929 16.0642 26.8752 16.0642C28.4952 16.0812 30.1097 16.0755 31.7298 16.0642C31.9443 16.0642 32.012 16.1096 32.012 16.342C32.0064 25.0712 32.0064 33.7948 32.012 42.524C32.012 42.7564 31.9386 42.7961 31.7298 42.7961C30.104 42.7904 28.4727 42.7848 26.8469 42.8018C26.5816 42.8018 26.5421 42.7224 26.5478 42.4843C26.5478 38.1254 26.5478 33.7721 26.5478 29.4188Z" fill="#3634E3"/>
<path d="M63.3242 29.4188C63.3242 33.7721 63.3242 38.1311 63.3299 42.4843C63.3299 42.7281 63.2791 42.8018 63.0251 42.7961C61.3993 42.7848 59.768 42.7848 58.1423 42.7961C57.9334 42.7961 57.8544 42.7564 57.8544 42.524C57.86 33.7948 57.86 25.0655 57.8544 16.3363C57.8544 16.1322 57.8939 16.0642 58.114 16.0642C59.7623 16.0755 61.405 16.0755 63.0533 16.0642C63.2904 16.0642 63.3242 16.1436 63.3242 16.3533C63.3242 20.7122 63.3242 25.0655 63.3242 29.4188Z" fill="#3634E3"/>
</svg>
