<svg width="111" height="34" viewBox="0 0 111 34" fill="none" xmlns="http://www.w3.org/2000/svg">
<path d="M0 16.4999V32.7999H4.9C7.6 32.7999 9.8 32.7999 9.8 32.7999C9.7 32.6999 9.6 32.4999 9.5 32.3999C8.8 31.5999 8.1 30.6999 7.6 29.8999C7.3 29.3999 6.9 28.7999 6.9 28.7999C6.9 28.6999 6.8 28.6999 6.8 28.5999C6.2 27.4999 5.6 26.2999 5.1 25.0999L4.9 24.5999C4.8 24.4999 4.4 23.2999 4.4 22.8999C3.8 20.6999 3.6 18.3999 3.7 16.0999C3.8 14.4999 4 12.9999 4.4 11.3999C4.5 10.9999 4.6 10.6999 4.7 10.0999C5.3 8.29985 6 6.59985 6.9 4.89985L7.2 4.29985C7.3 4.09985 7.5 3.89985 7.5 3.89985C8.1 2.99985 8.7 1.99985 9.4 1.19985L9.7 0.899854L10 0.499854C10.1 0.399854 10.1 0.299854 10.2 0.199854C10.2 0.199854 7.9 0.199854 5.1 0.199854H0V16.4999ZM13.8 0.199854C13.7 0.299854 13.7 0.399854 13.6 0.499854C12.9 1.19985 12.2 1.99985 11.6 2.79985L11.4 3.09985L11.2 3.39985C11.2 3.49985 11.1 3.59985 11 3.59985C10.9 3.69985 9.7 5.59985 9.3 6.19985L9 6.79985C8.8 7.09985 8.5 7.79985 8.3 8.29985C8 8.89985 7.9 9.09985 7.7 9.69985C7.6 9.99985 7.5 10.2999 7.4 10.3999C7 11.2999 6.8 12.2999 6.5 13.1999C5.9 15.6999 5.8 18.2999 6 20.8999C6.1 21.3999 6.3 22.7999 6.3 22.9999C6.3 23.1999 6.4 23.3999 6.4 23.5999L6.5 24.0999C6.5 24.1999 6.6 24.2999 6.6 24.3999C6.7 24.7999 7 25.5999 7.1 25.8999L7.2 26.0999C7.2 26.1999 7.3 26.2999 7.3 26.3999C7.3 26.4999 7.4 26.5999 7.4 26.5999C7.4 26.6999 8.2 28.2999 8.4 28.6999C8.6 29.0999 8.7 29.1999 8.9 29.4999L9.2 29.9999C9.4 30.2999 9.2 29.8999 9.1 29.5999C9 29.2999 8.9 29.0999 8.8 28.9999L8.6 28.5999C8.6 28.4999 8.4 28.1999 8.4 27.9999C8.4 27.7999 8.2 27.5999 8.2 27.4999C8.2 27.4999 8.2 27.3999 8.2 27.2999C8.2 27.2999 8.2 27.1999 8.2 27.0999C8 26.4999 7.8 25.8999 7.7 25.2999L7.6 24.9999C7.6 24.8999 7.6 24.7999 7.6 24.7999C7.6 24.6999 7.6 24.5999 7.6 24.4999C7.3 22.9999 7.1 21.4999 7.1 19.9999C7 18.0999 7.1 16.2999 7.5 14.4999C7.7 13.6999 7.7 13.3999 7.9 12.6999C8 12.2999 8.3 11.4999 8.3 11.2999L8.4 10.9999L8.5 10.6999C8.5 10.5999 8.6 10.4999 8.6 10.2999C8.6 10.0999 8.7 9.89985 8.8 9.89985L8.9 9.59985C9 9.29985 9.9 7.49985 10 7.29985L10.2 7.19985C10.6 6.39985 11.1 5.59985 11.7 4.89985L12 4.49985C12.2 4.29985 12.3 4.09985 12.3 4.09985L12.6 3.69985C13.5 2.59985 14.5 1.59985 15.6 0.599854C15.7 0.499854 15.8 0.399854 15.9 0.299854C15.5 0.299854 15.2 0.299854 14.8 0.299854C14.5 0.199854 14.2 0.199854 13.8 0.199854ZM20.4 0.199854C20.3 0.299854 20.2 0.399854 20.1 0.499854C19.9 0.599854 19.3 1.09985 19 1.29985L18.7 1.49985C17.5 2.49985 16.4 3.59985 15.4 4.69985L15.2 5.09985C15.2 5.19985 14.5 5.99985 14.2 6.39985L13.8 6.89985C13.7 7.09985 12.9 8.29985 12.9 8.29985C12.8 8.49985 12.7 8.59985 12.6 8.69985C12.5 8.79985 12.4 8.99985 12.3 9.19985C12.3 9.19985 12.3 9.19985 12.3 9.29985C12.2 9.29985 11.3 11.1999 11.1 11.7999C11 11.9999 11 12.0999 10.9 12.2999V12.3999C10.9 12.4999 10.9 12.4999 10.9 12.5999L10.8 12.7999C10.7 12.8999 10.4 13.9999 10.3 14.1999C10.2 14.3999 10.2 14.3999 10.2 14.4999C10 15.0999 9.8 16.1999 9.7 16.6999C9.6 17.5999 9.5 17.7999 9.4 18.6999C9.3 19.3999 9.3 22.9999 9.4 23.7999C9.5 24.6999 9.6 25.4999 9.8 26.3999C9.9 26.8999 10.1 27.7999 10.2 27.8999C10.2 27.9999 10.2 27.9999 10.2 28.0999C10.2 28.1999 10.2 28.1999 10.2 28.2999C10.3 28.3999 10.3 28.5999 10.4 28.7999C10.6 29.2999 10.7 29.7999 10.8 29.9999L10.9 30.2999C10.9 30.2999 11 30.4999 11.1 30.6999C11.2 30.8999 11.3 30.9999 11.3 30.9999C11.3 30.9999 11.6 31.6999 11.7 31.7999C11.8 31.8999 11.8 31.9999 11.9 32.0999L12.2 32.6999L12.4 32.9999H22.5V0.0998535H21.5C20.6 0.0998535 20.3 0.0998539 20.4 0.199854ZM24.3 16.4999V32.7999H110.6V0.0998535H24.3V16.4999ZM40.7 6.99985C40.7 7.79985 40.7 8.49985 40.8 8.49985C40.8 8.49985 40.9 8.49985 40.9 8.39985C41.5 7.79985 42.5 7.89985 43.1 8.59985C43.2 8.69985 43.3 8.79985 43.3 8.89985L43.5 9.19985C43.5 9.29985 43.5 9.29985 43.5 9.39985C43.5 9.49985 43.5 9.49985 43.5 9.49985C43.6 10.1999 43.7 10.8999 43.6 11.5999V12.2999H40.6C37.4 12.2999 37.5 12.2999 37.2 11.9999C36.9 11.6999 36.8 11.3999 36.7 10.3999C36.6 9.39985 36.6 9.39985 36.4 9.59985C36.2 9.79985 36.2 9.89985 36.2 10.8999C36.3 11.5999 36.2 12.2999 35.9 12.9999C35.7 13.4999 35 14.0999 34.8 14.0999H34.7C34.1 14.2999 33.4 14.2999 32.9 14.0999C32.9 14.0999 32.8 14.0999 32.7 14.0999H32.6C32.6 14.0999 32.5 13.9999 32.4 13.9999C31.9 13.6999 31.5 13.1999 31.3 12.5999C31.3 12.4999 31.2 12.2999 31.2 12.1999C31.1 11.3999 31.2 10.5999 31.5 9.89985C31.7 9.49985 31.6 9.49985 32.2 9.89985C32.8 10.2999 32.7 10.2999 32.6 10.4999C32.4 10.8999 32.3 11.2999 32.4 11.6999C32.5 12.4999 32.7 12.6999 33.4 12.8999C34 13.0999 34.5 12.7999 34.9 12.3999L35 12.1999V10.9999C35 9.29985 35.2 8.89985 35.8 8.49985C36.4 8.29985 37.1 8.19985 37.8 8.29985C37.9 8.29985 37.9 8.49985 37.9 9.59985C37.9 11.1999 37.8 10.9999 38.6 10.9999H39.2L39.3 10.5999L39.4 10.1999V7.89985C39.4 6.59985 39.4 5.49985 39.4 5.49985C39.6 5.49985 39.8 5.49985 40 5.49985H40.6L40.7 6.99985ZM49.7 8.99985V12.4999H48.5C48.1 12.4999 47.7 12.4999 47.3 12.4999C47.3 12.8999 46.1 14.1999 45.7 14.1999H45.6H45.4L45.1 14.2999C44.7 14.4999 44.6 14.2999 44.6 13.5999V12.9999H44.7C45.1 12.9999 45.6 12.7999 45.9 12.4999L46 12.3999H45.7C45.4 12.3999 45.2 12.2999 45 12.1999C43.7 11.5999 43.8 8.99985 45.2 8.29985C46.3 7.79985 47.4 8.69985 47.4 10.1999C47.4 10.3999 47.4 10.5999 47.4 10.7999V10.9999H48.5V5.39985H49.7V8.99985ZM51.5 8.89985V12.2999H50.4V8.99985C50.4 7.19985 50.4 5.59985 50.4 5.59985C50.4 5.59985 50.4 5.49985 51 5.49985H51.6L51.5 8.89985ZM76.3 8.89985V12.2999H75.1V8.99985C75.1 7.19985 75.1 5.59985 75.1 5.59985C75.1 5.59985 75.1 5.49985 75.7 5.49985H76.3V8.89985ZM80 8.19985C80 11.2999 80 11.0999 80.4 11.0999C80.8 11.0999 80.8 10.9999 81 10.4999C81.4 8.99985 82 8.29985 82.8 8.29985C84.8 8.29985 85 12.3999 83 12.4999C82.6 12.4999 82.2 12.3999 81.9 12.1999L81.7 11.9999L81.6 12.0999C81.3 12.3999 81.2 12.4999 80.5 12.4999C79.4 12.4999 79.1 12.1999 79 11.1999C78.9 10.7999 78.9 5.79985 79 5.59985C79.1 5.39985 79.1 5.49985 79.6 5.49985H80.2L80 8.19985ZM88.8 8.89985V12.2999H84.7V11.5999V10.8999H85.9V8.89985V6.89985H87V10.8999H87.6V8.19985C87.6 6.69985 87.6 5.49985 87.6 5.39985C87.6 5.29985 87.8 5.29985 88.2 5.29985H88.8V8.89985ZM90.7 8.89985V12.2999H89.5V8.89985C89.5 6.99985 89.5 5.49985 89.5 5.49985C89.5 5.49985 89.7 5.39985 90.1 5.39985H90.7V8.89985ZM98.8 8.09985V10.7999L98.9 10.8999C99.3 10.9999 99.6 10.9999 100 10.8999C100 10.8999 100.1 10.5999 100.1 9.59985C100.1 8.09985 100 8.19985 100.7 8.19985C101.4 8.19985 101.3 8.09985 101.3 9.59985C101.3 11.0999 101.2 10.9999 102 10.9999H102.6V9.59985V8.29985H102.7C102.9 8.29985 103.1 8.29985 103.3 8.29985H103.8V12.3999H101.4L101.1 12.2999L100.8 12.1999L100.6 12.2999C100 12.4999 99.2 12.4999 98.6 12.2999C98.4 12.1999 98.3 12.1999 98.3 12.1999C98.3 12.1999 98 12.3999 96 12.3999C93.8 12.3999 93.6 12.3999 93.1 11.9999C92.6 11.2999 92.4 10.4999 92.6 9.69985C92.7 9.29985 92.7 9.29985 93 9.39985C93.6 9.39985 93.9 9.49985 93.8 9.69985C93.7 10.8999 93.7 10.9999 94.4 11.0999C95.4 11.1999 96.5 11.1999 97.5 11.0999C97.6 10.9999 97.6 10.9999 97.6 8.29985V5.59985H98.8V8.09985ZM37.9 6.59985C38 6.59985 38 6.69985 38 7.19985C38 7.79985 38 7.79985 37.3 7.79985C36.9 7.79985 36.8 7.79985 36.8 7.69985C36.7 7.39985 36.7 6.99985 36.8 6.69985C37.1 6.59985 37.5 6.59985 37.9 6.59985ZM71.1 6.59985C71.1 6.79985 71.1 6.89985 71.1 7.09985C71.1 7.29985 71.1 7.49985 71.1 7.59985C70.7 7.69985 70.4 7.69985 70 7.59985C69.9 7.19985 69.9 6.89985 70 6.49985C70.4 6.49985 70.8 6.49985 71.1 6.59985ZM72.7 6.59985C72.7 6.79985 72.7 6.89985 72.7 7.09985C72.7 7.69985 72.7 7.69985 72.1 7.69985C71.9 7.69985 71.7 7.69985 71.5 7.69985C71.4 7.29985 71.4 6.99985 71.5 6.59985C71.9 6.49985 72.3 6.49985 72.7 6.59985ZM101.2 7.09985V7.69985H100.7C100 7.69985 100.1 7.69985 100.1 7.09985C100.1 6.49985 100 6.49985 100.7 6.59985H101.2V7.09985ZM16.1 6.79985C16.2 6.89985 16.2 6.89985 16.3 6.99985C16.3 7.09985 16.4 7.09985 16.4 7.09985C16.4 7.09985 16.9 8.09985 17.1 8.39985C17.4 8.99985 17.6 9.59985 17.8 10.2999V10.3999C17.8 10.4999 17.9 10.4999 17.9 10.5999C17.9 10.6999 17.9 10.8999 18 10.9999C18.3 11.9999 18.4 13.0999 18.4 14.1999C18.4 15.0999 18.4 15.9999 18.2 16.8999C18.2 17.0999 18.1 17.2999 18.1 17.3999C18.1 17.4999 18.1 17.5999 18 17.5999V17.6999C18 17.7999 18 17.7999 18 17.8999C18 17.9999 17.9 18.1999 17.8 18.4999C17.7 18.7999 17.6 19.0999 17.6 19.0999C17.6 19.0999 17.2 19.5999 17.2 19.6999C17.2 19.7999 16.5 21.0999 16.4 21.2999L16.3 21.4999C16 21.9999 15.7 22.3999 15.4 22.7999L15 23.1999C14.4 23.8999 13.7 24.5999 12.9 25.0999C12.9 25.0999 12.9 25.0999 12.8 25.0999C12.5 25.2999 12.2 25.4999 12 25.6999C11.9 25.6999 11.9 25.7999 11.8 25.7999C11.5 25.9999 10.9 26.2999 10.9 26.1999C11 26.0999 11.1 25.9999 11.2 25.8999C11.7 25.2999 12.2 24.5999 12.7 23.7999C12.8 23.6999 12.8 23.5999 12.9 23.3999C13.2 22.7999 13.5 22.1999 13.8 21.5999L13.9 21.1999C14.7 18.6999 14.7 16.0999 14.1 13.5999L14 13.1999C14 13.0999 13.9 12.9999 13.9 12.8999C13.9 12.7999 13.9 12.7999 13.9 12.6999V12.5999C13.8 12.4999 13.8 12.1999 13.9 12.1999C14.6 13.0999 15.1 14.1999 15.4 15.2999C15.5 15.6999 15.5 15.7999 15.7 16.4999C15.7 16.6999 15.7 17.1999 15.8 17.7999C15.8 18.7999 15.8 18.8999 16 18.3999C16 18.2999 16.1 18.1999 16.1 18.0999V17.9999V17.8999C16.1 17.8999 16.2 17.7999 16.2 17.6999C16.2 17.5999 16.2 17.4999 16.3 17.3999C17.2 13.9999 17.1 10.3999 16.2 6.99985C15.9 6.69985 16 6.59985 16.1 6.79985ZM64.8 7.89985C65.3 8.39985 65.6 8.99985 65.9 9.69985C66 10.1999 66.1 10.7999 66 11.2999C65.7 12.2999 65.3 12.4999 63.8 12.4999H62.9V11.1999H63.8C64.3 11.1999 64.7 11.1999 64.7 11.1999C64.7 11.1999 64.7 11.1999 64.8 11.0999C64.9 10.6999 64.8 10.2999 64.5 9.89985C64.5 9.89985 64.5 9.89985 64.5 9.79985C64.4 9.59985 64.2 9.29985 64 9.09985L63.8 8.89985L63.7 8.79985L63.9 8.59985C64.1 8.29985 64.3 7.99985 64.6 7.79985C64.7 7.79985 64.8 7.89985 64.8 7.89985ZM96.6 7.99985C96.7 8.09985 96.6 8.89985 96.5 8.89985H96.4C96.3 8.79985 96.1 8.89985 96.1 8.99985C96.1 9.09985 96.1 9.19985 96.4 9.29985H96.6V10.1999H95.8C94.9 10.1999 95 10.2999 95 9.69985C95 9.39985 95 9.39985 95.1 9.29985C95.2 9.19985 95.2 9.19985 95.2 8.89985C95.2 8.59985 95.3 8.19985 95.6 8.09985C96.1 7.79985 96.4 7.79985 96.6 7.99985ZM60.1 8.39985C60.2 8.79985 60.2 9.29985 60.2 9.69985C60.2 11.1999 60.1 11.0999 60.9 11.0999H61.5V9.69985C61.5 8.89985 61.5 8.29985 61.5 8.29985C61.9 8.19985 62.3 8.29985 62.6 8.39985C62.6 8.49985 62.6 9.19985 62.6 10.3999V12.3999H61.2C59.7 12.3999 59.6 12.3999 59.4 12.0999C59.2 11.7999 59 11.4999 59 10.5999C59 9.69985 59 9.59985 58.8 9.69985C58.6 9.79985 58.5 9.89985 58.5 10.7999C58.6 11.4999 58.5 12.1999 58.3 12.8999V12.9999C58.3 13.2999 57.7 13.8999 57.2 14.0999C56.9 14.2999 56.5 14.3999 56.1 14.3999C55.7 14.3999 55.2 14.2999 54.8 14.0999C53.7 13.2999 53.2 11.8999 53.6 10.5999C53.8 9.79985 54 9.59985 54.2 9.69985L54.7 9.99985C55.1 10.1999 55.1 10.2999 55 10.3999C54.8 10.7999 54.8 11.0999 54.7 11.4999C54.6 12.1999 55.2 12.8999 56 12.9999C56.2 12.9999 56.3 12.9999 56.5 12.8999C56.6 12.8999 56.7 12.8999 56.7 12.7999C56.7 12.7999 56.7 12.7999 56.8 12.7999C56.9 12.7999 57.1 12.5999 57.3 12.3999C57.5 12.1999 57.4 12.0999 57.4 10.8999C57.4 9.09985 57.6 8.59985 58.4 8.39985C58.9 8.39985 59.5 8.39985 60.1 8.39985ZM74.5 8.39985C74.6 9.09985 74.6 9.79985 74.5 10.4999V12.4999H72.1C69.3 12.4999 69.2 12.4999 68.7 12.0999C68.4 11.8999 68.2 11.4999 68.1 11.1999C68 10.6999 68 10.0999 68.1 9.59985L68.2 9.39985H68.5C69.1 9.39985 69.4 9.49985 69.4 9.59985C69.4 9.69985 69.4 9.89985 69.4 10.1999C69.4 11.0999 69.5 11.1999 71.8 11.1999H73.3V9.79985C73.3 8.69985 73.3 8.49985 73.4 8.39985C73.8 8.29985 74.1 8.29985 74.5 8.39985V8.39985ZM78.2 10.1999C78.2 13.1999 78 13.6999 76.7 14.1999C76.3 14.3999 76.3 14.3999 76.2 13.5999C76.1 12.7999 76.2 12.7999 76.4 12.7999C76.6 12.7999 76.7 12.6999 76.8 12.4999C77 12.2999 77 12.0999 77 10.0999C77 9.09985 77 8.19985 77 8.19985C77 8.19985 77.1 8.09985 77.6 8.09985H78.1L78.2 10.1999ZM41.4 9.39985C41.1 9.69985 40.8 9.99985 40.6 10.3999C40.3 11.0999 40.2 10.9999 41.4 10.9999H42.4V10.3999C42.4 10.1999 42.4 9.99985 42.3 9.79985V9.69985C42.4 9.39985 41.8 9.19985 41.4 9.39985ZM45.5 9.39985C45.1 9.79985 45.1 10.3999 45.4 10.7999C45.6 10.8999 45.9 10.9999 46.2 10.9999H46.5V10.6999C46.4 9.59985 46 8.99985 45.5 9.39985ZM82.5 9.59985C82.2 9.99985 82.1 10.3999 82 10.7999C82.3 10.9999 82.7 11.0999 83 10.8999C83.5 10.4999 83 9.19985 82.5 9.59985ZM87.1 12.8999C87.2 12.8999 87.2 12.9999 87.2 13.2999C87.2 13.7999 87.1 13.7999 86.9 13.7999C86.7 13.7999 86.7 13.6999 86.6 13.7999C86.5 13.8999 86.6 14.0999 86.9 14.0999H87.1V14.9999H86.3H85.5V14.4999C85.5 14.0999 85.5 13.9999 85.6 13.9999C85.7 13.9999 85.7 13.9999 85.7 13.6999C85.7 13.1999 86.1 12.7999 86.6 12.7999C86.8 12.6999 86.9 12.6999 87.1 12.8999ZM62.5 13.4999V13.9999H61.3V12.9999H61.9H62.5V13.4999ZM103.8 13.4999V13.9999H102.6V12.9999H103.8V13.4999ZM33.4 14.9999C33.5 15.2999 33.5 15.6999 33.4 16.0999C33.2 16.0999 33 16.0999 32.8 16.0999H32.2V15.5999C32.2 15.3999 32.2 15.1999 32.2 14.9999C32.6 14.8999 33 14.8999 33.4 14.9999ZM34.9 14.9999C34.9 15.1999 34.9 15.2999 34.9 15.4999C34.9 16.0999 34.9 16.0999 34.3 16.0999C33.7 16.0999 33.7 16.0999 33.7 15.4999C33.7 14.8999 33.7 14.8999 34.3 14.8999C34.8 14.8999 34.9 14.8999 34.9 14.9999ZM55.4 15.4999V15.9999H54.8H54.2V14.8999H54.8H55.4V15.4999ZM57 15.4999V15.9999H56.5C55.8 15.9999 55.8 15.9999 55.8 15.4999C55.8 14.9999 55.8 14.8999 56.4 14.8999H56.9V15.4999H57ZM50 17.8999C50.1 18.3999 50 18.9999 49.9 19.4999C49.3 19.5999 48.8 19.5999 48.2 19.4999C48.1 18.9999 48.1 18.4999 48.2 17.8999C48.8 17.7999 49.4 17.7999 50 17.8999ZM36.7 19.0999V19.7999H35H33.2V21.8999H36.3V23.2999H34.7H33.2V25.6999H34.8C36.9 25.6999 36.6 25.5999 36.6 26.4999V27.1999H34C33.1 27.1999 32.2 27.1999 31.3 27.1999C31.2 27.0999 31.2 18.2999 31.3 18.2999C31.4 18.2999 32.5 18.2999 34 18.2999H36.7V19.0999ZM82.9 19.3999C85.2 23.9999 85.6 24.6999 85.7 24.7999C85.8 24.8999 85.8 23.3999 85.8 21.5999V18.2999H87.6V22.6999C87.7 24.1999 87.6 25.6999 87.5 27.1999C86.8 27.2999 86 27.2999 85.3 27.1999C85.2 27.0999 84.5 25.6999 84 24.5999L83.6 23.6999C83.6 23.6999 83.4 23.2999 83.2 22.8999L82.4 21.3999L82 20.6999V27.1999H81.9C81.9 27.1999 81.5 27.1999 81 27.1999H80.2V18.1999H82.5L82.9 19.3999ZM92.9 18.3999C93.2 18.4999 93.5 18.5999 93.7 18.6999C94.7 19.1999 95.2 20.4999 94.6 21.5999C94.4 22.0999 94 22.3999 93.5 22.5999C93.3 22.6999 93.2 22.7999 93.4 22.7999C94.2 22.8999 94.8 23.4999 95 24.2999C95.2 25.0999 95 25.8999 94.5 26.5999C94.2 26.8999 93.9 27.0999 93.5 27.2999C92.5 27.5999 91.5 27.5999 90.4 27.5999H88.8V18.5999H90.7C91.5 18.3999 92.2 18.3999 92.9 18.3999ZM99.9 18.3999C100.3 18.4999 100.7 18.4999 101.1 18.6999C102.3 18.9999 103.2 19.8999 103.6 21.0999C103.6 21.1999 103.7 21.2999 103.7 21.4999C103.9 22.3999 103.9 23.2999 103.7 24.1999C103.3 25.7999 102 26.9999 100.4 27.1999C99 27.3999 97.6 27.3999 96.2 27.3999C96.1 27.3999 96.1 26.8999 96.1 22.8999V18.4999H97.8C98.8 18.3999 99.7 18.3999 99.9 18.3999ZM63.7 19.7999C63.7 20.2999 63.7 20.6999 63.7 20.6999H64.4H65.2V21.2999V21.8999H64.5C63.9 21.8999 63.8 21.8999 63.7 21.9999C63.6 23.1999 63.6 24.4999 63.8 25.6999C64 26.0999 64.4 26.1999 64.9 25.9999L65.2 25.8999V25.9999C65.2 26.1999 65.2 26.4999 65.2 26.6999V27.2999H65C64 27.6999 62.8 27.2999 62.1 26.3999C61.8 25.8999 61.8 25.7999 61.8 23.6999V21.8999H61.2H60.6V20.5999H61.8V19.9999C61.8 19.2999 61.8 19.2999 62.4 19.0999L62.9 18.8999C63 18.8999 63 18.8999 63.1 18.8999H63.2C63.3 18.7999 63.4 18.7999 63.5 18.7999C63.6 19.2999 63.7 19.5999 63.7 19.7999ZM90.7 20.9999V22.0999H91.3C91.5 22.0999 91.8 22.0999 92 22.0999L92.3 21.9999C92.7 21.8999 93 21.4999 93 21.0999C93 20.2999 92.5 19.9999 91.2 19.9999H90.7V20.9999ZM97.9 22.9999V25.9999H98.7C100.2 26.1999 101.6 25.0999 101.8 23.5999C102 22.4999 101.7 21.3999 100.9 20.6999L100.7 20.5999C100.6 20.4999 100.4 20.3999 100.3 20.2999C99.8 20.0999 99.2 19.8999 98.6 19.9999H98L97.9 22.9999ZM41.8 20.6999C42.3 20.7999 42.7 21.1999 43 21.5999L43.1 21.6999L43.2 21.4999C44 20.3999 46 20.1999 46.8 21.1999C47.2 21.7999 47.3 21.8999 47.3 24.7999V27.2999H47.2C47.1 27.2999 46.8 27.2999 46.3 27.2999H45.5V24.9999C45.5 24.1999 45.5 23.2999 45.4 22.4999C45.2 21.9999 44.6 21.6999 44.1 21.9999C43.9 22.0999 43.7 22.2999 43.6 22.4999C43.3 22.9999 43.3 23.2999 43.3 25.4999V27.2999H43.2C43.1 27.2999 42.8 27.2999 42.3 27.2999H41.5V24.9999C41.5 22.2999 41.5 22.1999 41 21.9999C40.5 21.7999 39.5 22.1999 39.5 22.7999V22.8999C39.3 23.6999 39.3 24.4999 39.4 25.2999V27.2999H39.3C39.3 27.2999 38.9 27.2999 38.4 27.2999H37.6V20.5999H38.4H39.2V21.1999V21.5999L39.5 21.2999C40.1 20.6999 41 20.4999 41.8 20.6999ZM54.8 20.6999C54.9 21.2999 54.9 21.8999 54.8 22.3999C54.7 22.3999 54.6 22.3999 54.5 22.3999C53.9 22.1999 53.2 22.4999 52.9 23.0999C52.9 23.0999 52.9 23.0999 52.9 23.1999C52.7 23.6999 52.7 23.8999 52.6 25.6999C52.6 26.2999 52.6 26.8999 52.5 27.4999C51.9 27.5999 51.4 27.5999 50.8 27.4999C50.7 25.2999 50.7 23.0999 50.8 20.8999C51.1 20.8999 51.3 20.8999 51.6 20.8999H52.3V21.4999C52.3 22.0999 52.3 22.1999 52.5 21.8999C52.5 21.7999 52.6 21.6999 52.6 21.6999C52.6 21.6999 52.6 21.6999 52.6 21.5999C52.6 21.4999 53.2 20.8999 53.6 20.7999C54 20.6999 54.3 20.6999 54.7 20.7999L54.8 20.6999ZM58.8 20.7999C59.5 20.8999 60.1 21.2999 60.4 21.8999C60.7 22.4999 60.7 22.7999 60.7 24.5999C60.7 25.3999 60.7 26.2999 60.7 26.6999C60.7 27.5999 60.8 27.4999 60 27.4999C59.2 27.4999 59.2 27.4999 59.2 26.8999V26.4999L59.1 26.5999C58.9 26.7999 58.7 26.9999 58.4 27.1999C58.2 27.2999 57.9 27.3999 57.6 27.4999C56.6 27.6999 55.5 27.2999 54.9 26.3999L54.8 26.0999C54.7 25.6999 54.7 25.1999 54.8 24.7999C55 24.2999 55.3 23.7999 55.9 23.5999C56.6 23.2999 57.3 23.1999 58 23.1999C58.3 23.1999 58.7 23.1999 59 23.1999C59 22.8999 58.9 22.5999 58.8 22.3999C58.4 21.6999 56.8 21.6999 55.8 22.3999C55.5 22.5999 55.5 22.5999 55.5 21.6999C55.5 20.7999 55.5 20.9999 55.9 20.7999C56.2 20.6999 56.6 20.5999 56.9 20.4999C57.5 20.6999 58.1 20.6999 58.8 20.7999ZM69.3 20.7999C70.7 21.1999 71.5 22.2999 71.5 24.0999V24.6999H69.2H66.9V24.8999C67 25.5999 67.6 26.0999 68.3 26.1999C68.7 26.2999 69.2 26.1999 69.6 26.1999L69.9 26.0999C70.1 25.9999 70.3 25.9999 70.5 25.8999C71 25.5999 71 25.5999 71 26.3999V27.0999L70.8 27.1999C69.9 27.6999 67.5 27.7999 67.1 27.3999H67C66.4 27.0999 65.9 26.5999 65.6 25.9999C65.6 25.8999 65.5 25.7999 65.5 25.7999C65.1 24.5999 65.1 23.2999 65.7 22.1999C65.7 22.0999 65.8 21.9999 65.9 21.9999C65.9 21.9999 65.9 21.9999 65.9 21.8999C66.1 21.6999 66.3 21.3999 66.5 21.2999C67.4 20.6999 68.4 20.4999 69.3 20.7999ZM75.3 20.6999L75.8 20.7999C76.3 20.8999 76.2 20.7999 76.2 21.2999C76.1 22.0999 76.1 22.1999 76 22.1999C74.5 21.7999 73.6 21.8999 73.6 22.5999C73.7 22.8999 73.9 23.1999 74.3 23.1999C74.3 23.1999 74.4 23.1999 74.5 23.1999C74.6 23.2999 74.8 23.2999 74.9 23.2999C75.9 23.5999 76.5 24.0999 76.6 24.8999C76.7 25.4999 76.5 26.0999 76.1 26.5999C75.9 26.7999 75.6 26.9999 75.4 27.0999C75.3 27.0999 75.3 27.0999 75.2 27.1999C74.4 27.4999 73.5 27.4999 72.7 27.2999L72.1 27.1999C71.8 27.1999 71.8 27.0999 71.8 26.6999C71.8 26.4999 71.8 26.2999 71.8 26.0999C71.8 25.7999 71.9 25.6999 72 25.7999C72.5 25.9999 73 26.1999 73.5 26.0999C74.3 26.0999 74.7 25.8999 74.7 25.3999C74.7 24.8999 74.5 24.7999 73.2 24.3999C72.2 24.1999 71.5 23.1999 71.7 22.0999C71.8 21.3999 72.3 20.8999 73 20.6999C73.1 20.5999 73.3 20.5999 73.4 20.5999C73.5 20.5999 73.5 20.5999 73.6 20.5999C74.1 20.5999 74.7 20.5999 75.3 20.6999ZM50 24.0999V27.3999H48.2V24.1999C48.2 22.3999 48.2 20.8999 48.2 20.8999V20.7999H49.1H50V24.0999ZM68.1 21.8999C67.5 22.0999 67.1 22.5999 67 23.1999V23.3999H69.8V23.1999C69.8 22.3999 69.2 21.7999 68.4 21.8999C68.4 21.8999 68.3 21.8999 68.1 21.8999ZM90.8 23.3999C90.8 23.3999 90.8 23.9999 90.8 24.6999V25.8999H91.5C92.5 25.8999 93.3 25.5999 93.3 25.1999V25.0999C93.4 24.7999 93.4 24.4999 93.3 24.2999C93.1 23.7999 92.7 23.4999 91.9 23.4999C91.5 23.2999 91.1 23.2999 90.8 23.3999ZM57.6 24.3999H57.4C57.3 24.3999 57.2 24.3999 57.2 24.3999H57.1C56.7 24.3999 56.4 24.9999 56.4 25.4999C56.5 26.1999 57.9 26.2999 58.5 25.6999C58.8 25.2999 59 24.7999 59 24.2999C58.6 24.1999 58.1 24.1999 57.6 24.3999Z" fill="#3634E3"/>
<path d="M10.2 0.199951C10.1 0.299951 10.1 0.399951 9.99997 0.499951L9.69997 0.899951L9.39997 1.19995C8.69997 2.09995 8.09997 2.99995 7.49997 3.89995C7.49997 3.89995 7.39997 4.09995 7.19997 4.29995L6.89997 4.89995C6.19997 6.19995 5.59998 7.69995 5.09998 9.09995V8.69995C5.19998 8.29995 5.59997 7.29995 5.79997 6.89995L5.99997 6.39995C6.29997 5.79995 6.49997 5.29995 6.89997 4.69995C7.09997 4.39995 7.19997 4.09995 7.19997 4.09995C7.19997 4.09995 7.69997 3.19995 7.79997 2.99995L7.99997 2.69995C8.19997 2.39995 8.39997 2.09995 8.89997 1.49995C8.99997 1.39995 9.09998 1.19995 9.09998 1.19995C9.59998 0.999951 9.89997 0.599951 10.2 0.199951ZM13.7 0.199951C13.6 0.399951 13.4 0.599951 13.3 0.699951C12.7 1.29995 12.1 2.09995 11.6 2.69995C11.4 2.99995 10.8 3.79995 10.6 3.99995C10.5 4.09995 10.4 4.19995 10.4 4.29995L10.3 4.39995C10.3 4.39995 10.2 4.59995 9.99997 4.89995C9.89997 4.99995 9.79997 5.19995 9.69997 5.39995C9.69997 5.49995 9.59998 5.59995 9.59998 5.59995C9.39998 5.79995 9.29997 6.09995 9.29997 6.09995C9.39997 5.89995 9.59997 5.69995 9.69997 5.49995C9.99997 4.99995 10.9 3.69995 10.9 3.69995C11 3.59995 11 3.59995 11.1 3.49995L11.3 3.19995L11.5 2.89995C12.1 2.09995 12.8 1.29995 13.5 0.599951C13.7 0.299951 13.8 0.199951 13.7 0.199951C13.6 0.199951 13.7 0.199951 13.7 0.199951ZM15.7 0.399951C14.6 1.39995 13.5 2.49995 12.5 3.69995L12.2 4.09995C12.2 4.09995 12 4.29995 11.9 4.49995L11.6 4.89995C11.1 5.59995 10.6 6.39995 10.2 7.09995L9.99997 7.49995C9.79997 7.79995 8.99997 9.49995 8.89997 9.79995L8.69997 10.2C8.59997 10.4 8.49997 10.7 8.39997 10.9C8.49997 10.7 8.59997 10.5 8.69997 10.3C9.09997 9.39995 9.49997 8.39995 9.99997 7.49995C10.5 6.69995 11.1 5.69995 11.5 5.09995C11.8 4.79995 12.2 4.19995 12.2 4.19995C12.3 4.09995 12.4 3.99995 12.5 3.89995C12.6 3.69995 12.8 3.59995 12.8 3.49995L13 3.29995C13.8 2.29995 14.7 1.39995 15.7 0.499951C15.8 0.399951 15.9 0.299951 16 0.199951C16 0.199951 15.9 0.199951 15.7 0.399951ZM20.3 0.199951C20.2 0.299951 20.1 0.399951 19.9 0.499951L19.5 0.799952L19.3 0.999951C17.7 2.29995 16.3 3.69995 15 5.19995L14.7 5.59995C14.7 5.59995 14.5 5.89995 14.3 6.09995C14.1 6.29995 14 6.49995 13.9 6.59995C13.3 7.39995 12.7 8.29995 12.3 9.19995L20.3 0.199951ZM12.3 9.19995C12.4 8.99995 12.5 8.89995 12.6 8.69995C12.7 8.59995 12.8 8.39995 12.9 8.29995C12.9 8.29995 13.7 6.99995 13.8 6.89995L14.2 6.39995C14.5 5.99995 15.1 5.19995 15.2 5.09995L15.5 4.79995C16.5 3.59995 17.6 2.59995 18.8 1.59995L19.1 1.39995C19.3 1.19995 20 0.699951 20.2 0.599951C20.4 0.499951 20.5 0.299952 20.4 0.299952V0.399951L12.3 9.19995ZM39.5 5.49995C39.5 5.49995 39.5 6.59995 39.5 7.89995V10.3L39.4 10.7L39.2 11H38.6H38H38.5C39.1 11 39.1 11 39.2 10.7C39.2 10.6 39.3 10.5 39.3 10.4C39.3 10.4 39.4 9.49995 39.4 7.89995L39.5 5.49995H40.1H40.6V6.99995C40.6 8.69995 40.6 8.59995 40.9 8.39995C41.2 8.19995 41.5 7.99995 41.9 7.99995C42.5 7.99995 43 8.29995 43.2 8.79995C43.3 8.89995 43.3 8.99995 43.3 8.99995C43.3 8.99995 42.8 8.19995 42.5 7.99995C41.9 7.79995 41.3 7.89995 40.8 8.29995L40.7 8.39995C40.7 8.39995 40.7 7.69995 40.6 6.89995V5.49995H40C39.9 5.49995 39.7 5.49995 39.5 5.49995ZM48.6 8.19995V11H47.5V10.8C47.5 10.6 47.5 10.4 47.5 10.2C47.5 8.69995 46.5 7.69995 45.3 8.29995C43.9 8.99995 43.8 11.6 45.1 12.2C45.3 12.3 45.6 12.4 45.8 12.4H46.1L46 12.5C45.7 12.8 45.2 13 44.8 13C44.7 13 44.7 13 44.7 13.2V13.4V13.2C44.7 13.1 44.8 13 44.9 13C45.7 12.9 46.7 12.2 46 12.2C45 12.1 44.3 11.3 44.3 10.3V10.2C44.3 9.99995 44.3 9.89995 44.3 9.69995L44.4 9.39995C44.6 8.69995 45.2 8.19995 46 8.19995C47 8.19995 47.5 8.99995 47.5 10.5C47.5 11.1 47.4 11.1 48.2 11.1H48.7L48.6 8.19995V5.49995H49.1H49.6V12.3H47.3L47.1 12.7C46.7 13.5 46 14 45.2 14.2C44.6 14.3 44.7 14.4 44.6 13.9L44.5 13.5V13.8C44.5 14.3 44.6 14.4 45 14.3L45.3 14.2L45.6 14.1H45.7C46.1 14.1 47.3 12.9 47.3 12.4C47.7 12.4 48.1 12.4 48.5 12.4H49.7V5.39995H48.6V8.19995ZM50.4 5.49995C50.4 5.59995 50.4 7.09995 50.4 8.99995V12.3H51.6V5.49995H51C50.4 5.49995 50.4 5.49995 50.4 5.49995ZM75.1 5.59995C75.1 5.69995 75.1 7.19995 75.1 8.99995V12.3H76.3V5.39995H75.7C75.2 5.49995 75.2 5.49995 75.1 5.59995ZM78.8 5.59995C78.8 5.69995 78.8 10.8 78.8 11C78.8 11.1 78.8 9.99995 78.8 8.39995V5.59995L79.8 5.49995C79.8 5.49995 79.8 6.69995 79.8 8.19995C79.8 10.8 79.8 10.9 79.9 11C80 11.1 80 11.1 79.9 11C79.8 10.1 79.8 9.09995 79.8 8.19995V5.49995H79.2C78.7 5.49995 78.6 5.49995 78.6 5.59995H78.8ZM87.5 5.49995C87.5 5.49995 87.5 6.79995 87.5 8.29995V11H86.9V6.99995H86.4C86.2 6.99995 86 6.99995 85.8 6.99995C86 6.99995 86.1 6.99995 86.3 6.99995H86.9V8.99995V11H87.5V8.19995V5.49995H88.2H88.7V12.3H86.7H84.7V11.8C84.7 11 84.6 11.1 85.3 11.1C85.5 11.1 85.7 11.1 85.9 11.1C85.7 11.1 85.5 11.1 85.3 11.1H84.7V11.8V12.5H88.8V5.49995H88.2C87.8 5.49995 87.6 5.49995 87.6 5.59995L87.5 5.49995ZM89.6 5.49995C89.6 5.49995 89.6 7.09995 89.6 8.89995V12.3H90.8V5.39995H90.2C89.8 5.49995 89.6 5.49995 89.6 5.49995ZM97.7 8.19995C97.8 9.09995 97.7 10.1 97.6 11C97.5 11.1 97.5 11.1 96.2 11.1H94.9H96.2H97.5L97.6 11L97.7 10.9V5.59995H98.8V8.19995C98.8 11.1 98.8 11 99 11C99 11 99 11 98.9 10.9L98.8 10.8V5.39995H97.6L97.7 8.19995ZM51.5 5.59995C51.5 5.69995 51.5 7.19995 51.5 8.99995V12.3H51H50.5V5.49995H51C51.4 5.49995 51.4 5.49995 51.5 5.59995ZM76.3 8.89995V12.3H75.2V8.89995C75.2 6.99995 75.2 5.49995 75.2 5.49995C75.4 5.49995 75.5 5.49995 75.7 5.49995H76.2L76.3 8.89995ZM90.6 8.89995V12.3H90.2H89.6V8.99995C89.6 7.19995 89.6 5.69995 89.6 5.59995C89.6 5.49995 89.6 5.49995 90.2 5.49995H90.7L90.6 8.89995ZM9.19997 6.09995L9.09998 6.39995C8.79998 6.79995 7.99997 8.69995 7.69997 9.19995C7.49997 9.59995 7.29997 10.1 7.19997 10.6C7.19997 10.6 7.19997 10.6 7.29997 10.5C7.29997 10.4 7.29997 10.4 7.39997 10.3C7.39997 10.3 7.49997 9.89995 7.69997 9.59995C7.89997 9.09995 7.99997 8.89995 8.29997 8.19995C8.59997 7.49995 8.79998 7.09995 9.09998 6.49995C9.09998 6.39995 9.19997 6.29995 9.19997 6.09995C9.29997 6.09995 9.29997 6.09995 9.19997 6.09995ZM36.9 6.49995C36.8 6.79995 36.8 7.19995 36.9 7.49995C36.9 7.59995 37 7.59995 37.4 7.59995C38.1 7.59995 38.1 7.59995 38.1 6.99995C38.1 6.59995 38.1 6.49995 38 6.39995C37.6 6.39995 37.2 6.39995 36.9 6.49995ZM70.1 6.49995C70 6.89995 70 7.19995 70.1 7.59995C70.5 7.69995 70.8 7.69995 71.2 7.59995C71.2 7.39995 71.2 7.19995 71.2 7.09995C71.2 6.89995 71.2 6.79995 71.2 6.59995C70.8 6.49995 70.4 6.49995 70.1 6.49995ZM71.6 6.49995C71.5 6.89995 71.5 7.19995 71.6 7.59995C71.8 7.59995 72 7.59995 72.2 7.59995C72.8 7.59995 72.8 7.59995 72.8 6.99995C72.8 6.39995 72.8 6.39995 72.2 6.39995L71.6 6.49995ZM100.1 6.49995C100 6.89995 100 7.19995 100.1 7.59995C100.3 7.59995 100.5 7.59995 100.7 7.59995H101.2V6.49995H100.7C100.5 6.49995 100.3 6.49995 100.1 6.49995ZM37.9 6.59995C37.9 6.79995 37.9 6.89995 37.9 7.09995V7.49995H36.8V7.09995C36.8 6.49995 36.8 6.49995 37.3 6.49995C37.7 6.49995 37.8 6.49995 37.9 6.59995ZM71.1 6.99995V7.49995H70.1V6.49995H70.6H71.1V6.99995ZM72.7 6.99995V7.49995H71.6V7.09995C71.6 6.49995 71.6 6.49995 72.2 6.49995H72.7V6.99995ZM101.2 7.09995V7.59995H100.2V7.09995C100.2 6.49995 100.2 6.49995 100.8 6.59995H101.2V7.09995ZM15.9 6.79995C15.9 6.89995 15.9 6.99995 16 7.09995C16.1 7.49995 16.3 8.19995 16.4 8.59995C16.5 8.99995 16.5 9.09995 16.5 9.19995C16.5 9.29995 16.5 9.49995 16.5 9.59995C16.5 9.69995 16.6 9.99995 16.6 9.89995C16.5 8.99995 16.3 8.09995 16.1 7.19995C15.9 6.39995 16.7 7.79995 17.2 9.09995L17.3 9.29995L17.5 9.89995C17.5 10.1 17.6 10.2 17.7 10.4C17.5 9.79995 17.3 9.09995 17 8.49995C16.9 8.19995 16.4 7.19995 16.4 7.19995L16.3 7.09995C16.1 6.79995 15.9 6.59995 15.9 6.79995ZM64.2 7.89995C64.1 8.09995 63.9 8.29995 63.8 8.39995L63.6 8.59995L63.7 8.69995L63.9 8.89995C64.1 9.09995 64.3 9.29995 64.4 9.59995C64.4 9.59995 64.4 9.59995 64.4 9.69995C64.5 9.79995 64.5 9.89995 64.6 9.99995C64.7 10.2 64.7 10.3 64.7 10.3C64.5 9.79995 64.2 9.29995 63.9 8.89995L63.6 8.59995L63.7 8.39995L63.9 8.09995C64.1 8.09995 64.2 7.99995 64.2 7.89995C64.5 7.59995 64.4 7.59995 64.7 7.89995C66 9.39995 66.3 11.1 65.4 11.9C65.1 12.2 64.8 12.3 63.8 12.3H62.9V11.1H63.7H62.9V12.4H63.8C65.2 12.4 65.7 12.2 66 11.2C66.1 10.7 66 10.1 65.9 9.59995C65.6 8.99995 65.3 8.39995 64.8 7.79995C64.4 7.49995 64.5 7.49995 64.2 7.89995ZM95.7 7.79995C95.4 7.99995 95.2 8.29995 95.3 8.59995C95.3 8.89995 95.3 8.89995 95.2 8.99995C95.1 9.09995 95.1 9.09995 95.1 9.39995C95.1 9.99995 95 9.89995 95.9 9.89995H96.7V8.99995H96.5C96.2 8.99995 96.1 8.89995 96.2 8.69995C96.3 8.49995 96.4 8.49995 96.5 8.59995C96.6 8.69995 96.8 8.39995 96.8 7.99995C96.6 7.79995 96 7.69995 95.7 7.79995ZM96.5 7.89995C96.6 7.99995 96.5 8.69995 96.4 8.69995C96.1 8.59995 96 8.59995 96 8.79995C96 8.99995 96.1 8.99995 96.4 8.99995H96.6V9.79995H95.2V9.39995C95.2 8.99995 95.2 8.99995 95.3 8.99995C95.4 8.99995 95.4 8.99995 95.4 8.59995C95.4 8.29995 95.5 7.99995 95.8 7.89995C96.1 7.79995 96.4 7.79995 96.6 7.79995L96.5 7.89995ZM82.5 8.19995C81.8 8.29995 81.3 9.09995 81 10.4C81 10.6 80.9 10.7 80.8 10.9C80.7 11 80.7 11 80.8 11C80.9 11 81 10.7 81.1 10.5C81.2 9.99995 81.3 9.89995 81.3 9.79995C81.3 9.69995 81.4 9.59995 81.4 9.49995C82.2 7.39995 84.4 7.99995 84.4 10.3C84.5 11 84.2 11.6 83.6 12C83 12.3 82.3 12.2 81.9 11.8C81.7 11.6 81.7 11.6 81.5 11.8C81.3 12 81.1 12.1 80.4 12.1C79.6 12.1 79.2 11.9 79.1 11.4C79 10.9 78.9 10.9 79 11.1C79 11.4 79.2 11.6 79.3 11.8C80 12.2 80.9 12.2 81.6 11.7L81.7 11.6L81.9 11.8C82.5 12.3 83.5 12.2 84 11.6C84.1 11.5 84.1 11.4 84.2 11.3C84.9 9.99995 83.9 7.89995 82.5 8.19995ZM36.6 8.19995C36.8 8.19995 37 8.29995 37.2 8.19995H38V9.49995C38 10.2 38 10.8 38 10.8H38.1C38.1 10.8 38.1 10.8 38.1 10.7C38 10.3 38 9.79995 38 9.29995C38 8.19995 38 7.99995 37.9 7.99995C37.4 8.09995 37 8.09995 36.6 8.19995ZM58.6 8.19995C58.5 8.19995 58.7 8.19995 59.2 8.19995H60V9.49995C60 11.1 59.9 11 60.8 11H61.4V9.59995V8.39995H62.5V12.4H61.2C59.8 12.4 59.7 12.4 59.4 12.1C59.1 11.8 59 11.5 59 10.5C59 9.49995 59 9.49995 58.7 9.59995C58.4 9.69995 58.2 9.79995 58.2 11.2C58.2 11.7 58.2 12.2 58.1 12.6C58.1 12.7 58 12.7 58 12.8C58 12.8 58 12.8 58 12.7L58.1 12.5C58.2 11.9 58.3 11.3 58.2 10.7C58.2 9.79995 58.2 9.69995 58.5 9.59995C58.8 9.49995 58.7 9.49995 58.7 10.5C58.7 11.5 58.8 11.7 59.1 12C59.4 12.3 59.5 12.3 60.9 12.3H62.2V10.3C62.2 8.99995 62.2 8.29995 62.2 8.29995C61.8 8.19995 61.5 8.19995 61.1 8.19995C61.1 8.19995 61.1 8.79995 61.1 9.59995V11H60.5C59.7 11 59.8 11.1 59.8 9.59995C59.8 9.19995 59.8 8.69995 59.7 8.29995C59.2 8.19995 58.8 8.19995 58.3 8.29995L58.6 8.19995ZM73.3 8.29995C73.2 8.39995 73.2 8.59995 73.2 9.69995V11H71.6C72.4 11 73.1 11 73.2 11H73.3V8.29995H73.8H74.3V12.3H72C69.2 12.3 69 12.3 68.5 11.8C68 11.1 67.9 10.3 68.1 9.39995L68.2 9.19995H68.4C68.9 9.19995 69.3 9.29995 69.3 9.39995V9.49995V9.39995C69.4 9.19995 69.1 9.09995 68.3 9.09995H68.1L68 9.29995C67.9 9.79995 67.9 10.4 68 10.9C68.1 11.3 68.3 11.6 68.6 11.8C69.1 12.2 69.2 12.2 72 12.2H74.4V10.2C74.5 9.49995 74.5 8.79995 74.4 8.09995C73.9 8.19995 73.6 8.19995 73.3 8.29995ZM77 8.29995C77 8.29995 77 9.19995 77 10.2C77 12.2 77 12.3 76.8 12.6C76.7 12.7 76.5 12.8 76.4 12.9C76.2 12.9 76.1 13 76.2 13.7C76.3 14.4 76.3 14.5 76.7 14.3C77.3 14.1 77.7 13.8 78 13.2C78.1 12.9 78.2 12.5 78.1 12.7V12.8C78 13.3 77.7 13.7 77.2 14C76.9 14.1 76.7 14.2 76.4 14.3C76.3 14 76.3 13.7 76.3 13.4V13L76.5 12.9C77.1 12.7 77.2 12.6 77.2 10.2V8.29995H77.8C78.1 8.29995 78.4 8.29995 78.3 8.29995C77.8 8.19995 77.4 8.19995 77 8.29995ZM100.2 8.29995C100.1 8.29995 100.1 8.49995 100.1 9.69995C100.1 10.1 100.1 10.6 100 11L100.2 8.29995ZM100 11C100.2 11 100.2 10.8 100.2 9.59995V8.29995H100.7H101.2V9.59995C101.2 11.1 101.1 11 101.9 11C102.7 11 102.6 11.1 102.6 9.59995V8.29995H103.2H103.7V12.3H101.4L101.2 12.2C100.9 12.1 100.8 12 100.8 12.1C100.8 12.4 99.1 12.4 98.6 12.1C98.5 12 98.5 12 98.4 12.1C98 12.4 98.1 12.3 96.1 12.3C94.1 12.3 94 12.3 93.6 12.1C93.2 11.9 92.9 11.5 92.8 11.1C92.8 11 92.8 11 92.8 11.1C92.9 11.4 93 11.7 93.2 11.9C93.7 12.3 93.9 12.4 96.1 12.4C98.1 12.4 98.2 12.4 98.4 12.2C98.6 12 98.5 12.1 98.7 12.3C99.3 12.5 100.1 12.5 100.7 12.3L100.9 12.2L101.2 12.3L101.5 12.4H103.9V8.29995H103.4C103.2 8.29995 103 8.29995 102.8 8.29995H102.7V9.69995V11.1H102.1C101.3 11.1 101.4 11.2 101.4 9.69995C101.4 9.29995 101.4 8.79995 101.4 8.39995C101 8.29995 100.7 8.29995 100.3 8.39995L100 11ZM36 8.49995C35.3 8.89995 35.2 9.19995 35.2 11V12.2L35.1 12.4C34.7 13 33.8 13.2 33.2 12.7C33 12.6 32.9 12.4 32.8 12.3C32.7 12.2 32.7 12.1 32.7 12C32.7 11.9 32.7 11.9 32.7 11.8C32.6 11.7 32.6 11.9 32.7 12.1C33.1 12.8 33.9 13.1 34.7 12.8C34.8 12.7 34.9 12.7 35 12.6C35.2 12.4 35.2 12.2 35.2 11.1C35.1 10.5 35.1 9.99995 35.2 9.39995C35.3 8.89995 35.7 8.49995 36.2 8.39995C36.3 8.39995 36.3 8.39995 36.2 8.39995C36.1 8.39995 36 8.49995 35.9 8.49995H36ZM58 8.49995C57.7 8.69995 57.2 9.29995 57.3 9.39995C57.4 9.49995 57.3 9.39995 57.4 9.39995C57.5 8.99995 57.8 8.59995 58.2 8.49995C58.3 8.49995 58.4 8.39995 58.4 8.39995C58.2 8.49995 58.1 8.49995 58 8.49995ZM43.4 9.19995C43.4 9.29995 43.5 9.49995 43.5 9.29995C43.5 9.29995 43.5 9.19995 43.4 9.19995ZM4.99997 9.49995L4.79997 9.99995C4.69997 10.4 4.59997 10.7 4.49997 11.1C4.49997 11.1 4.49997 11.1 4.49997 11C4.49997 10.9 4.59997 10.5 4.69997 10.4C4.79997 10.3 4.79997 10.2 4.79997 9.99995L4.99997 9.49995C5.09997 9.39995 5.09998 9.29995 5.09998 9.19995C5.09998 9.29995 4.99997 9.39995 4.99997 9.49995ZM41.7 9.29995C41.2 9.39995 40.9 9.89995 40.5 10.8C40.5 10.9 40.5 10.9 40.5 11V11.1H42.6V10.7C42.6 10.5 42.6 10.3 42.6 10.1C42.6 9.99995 42.6 9.99995 42.6 10.5V11.1H41.6C40.4 11.1 40.5 11.2 40.8 10.5C41.2 9.59995 41.9 9.09995 42.3 9.59995C42.4 9.69995 42.4 9.69995 42.5 9.79995V9.89995C42.6 9.99995 42.5 9.79995 42.4 9.59995C42.3 9.29995 42 9.19995 41.7 9.29995ZM45.7 9.19995C45 9.49995 45 11 45.7 10.9C45.8 10.9 45.8 10.9 45.7 10.9C45 10.7 45.2 9.19995 45.9 9.19995C46.3 9.19995 46.5 9.59995 46.5 10.7C46.5 10.8 46.5 10.8 46.5 10.6C46.6 9.69995 46.2 8.99995 45.7 9.19995ZM92.9 9.29995V9.39995C92.9 9.49995 92.9 9.49995 92.9 9.39995C92.9 9.29995 94.1 9.29995 94 9.49995C93.8 9.99995 93.9 10.6 94.3 10.9C94.5 11 94.9 11.1 94.7 11C94.6 11 94.6 11 94.5 11C94 11 93.9 10.7 94 9.59995C94 9.49995 94 9.49995 93.7 9.39995C93.5 9.29995 93.2 9.29995 92.9 9.29995ZM12.2 9.49995C12 9.79995 11.5 11 11.2 11.5C11.2 11.5 11.1 11.7 11.1 11.8C11 12.1 10.9 12.3 11 12.2C11.1 12.1 11.1 11.9 11.3 11.6C11.5 11.3 11.7 10.7 12 10.2C12.3 9.39995 12.4 8.99995 12.2 9.49995ZM43.6 9.69995C43.6 9.99995 43.7 9.99995 43.6 9.69995C43.7 9.69995 43.7 9.59995 43.7 9.49995C43.7 9.49995 43.7 9.49995 43.6 9.69995ZM57.2 9.49995C57.2 9.59995 57.2 9.69995 57.2 9.69995C57.2 9.79995 57.2 9.79995 57.3 9.69995C57.3 9.69995 57.3 9.59995 57.2 9.49995C57.3 9.49995 57.3 9.49995 57.2 9.49995ZM82.5 9.49995C82.2 9.79995 82 10.2 82 10.7V10.9L82.2 11C82.7 11.3 83.2 11.1 83.3 10.6C83.4 9.99995 83 9.39995 82.5 9.49995ZM36.6 9.59995C36.3 9.69995 36.3 9.89995 36.3 10.9C36.3 12.4 36.1 13 35.6 13.6C34.7 14.6 33.1 14.6 32.2 13.7C31.9 13.4 31.7 13 31.6 12.6C31.6 12.5 31.5 12.4 31.5 12.4C31.6 13.1 32 13.7 32.6 14C32.7 14 32.8 14.1 32.8 14.1C32.8 14.1 32.8 14.1 32.9 14.1C33 14.1 33 14.1 33.1 14.1C33.7 14.3 34.4 14.3 34.9 14.1H35C35.3 14.1 35.9 13.5 36.1 13C36.4 12.4 36.5 11.6 36.4 10.9C36.4 9.89995 36.4 9.79995 36.6 9.59995C36.8 9.39995 36.9 9.39995 36.9 9.99995C36.9 9.59995 36.9 9.59995 36.6 9.59995ZM83 9.69995C83.3 10.1 83.4 10.6 83.1 11C82.8 11.1 82.4 11.1 82.1 10.9C82.1 10.6 82.2 10.3 82.3 9.99995C82.5 9.59995 82.8 9.49995 83 9.69995ZM31.7 9.99995C31.6 10.2 31.6 10.3 31.5 10.5C31.5 10.6 31.5 10.6 31.6 10.3C31.7 10.1 31.8 9.89995 31.9 9.79995C32.1 9.89995 32.4 10.1 32.6 10.2L32.7 10.3C32.8 10.3 32.7 10.4 32.7 10.6C32.6 10.9 32.5 11.2 32.5 11.5C32.5 11.5 32.5 11.5 32.6 11.4C32.6 11.2 32.7 11 32.8 10.8C32.9 10.5 32.9 10.5 32.4 10.2C31.9 9.89995 32 9.59995 31.7 9.99995ZM92.8 9.79995C92.8 10.2 92.8 10.6 92.8 11.1C92.8 10.9 92.8 10.7 92.8 10.5V9.79995C92.8 9.69995 92.8 9.69995 92.8 9.79995ZM53.9 9.79995C53.8 9.99995 53.7 10.2 53.6 10.4C53.4 11.1 53.3 11.8 53.5 12.5C53.6 12.8 53.6 12.8 53.6 12.8C53.6 12.7 53.6 12.6 53.6 12.5C53.4 11.7 53.5 10.9 53.8 10.1C54 9.69995 54 9.69995 54.6 10.2L54.9 10.4L54.8 10.7C54.7 10.9 54.7 11 54.7 11.2V11.4V11.2C54.7 11.1 54.8 11 54.8 10.9C54.8 10.8 54.9 10.7 54.9 10.6C55 10.4 55 10.4 54.6 10.2L54.2 9.79995C54 9.69995 54 9.69995 53.9 9.79995ZM69.3 10.1C69.3 10.2 69.3 10.4 69.3 10.6C69.3 10.7 69.3 10.7 69.3 10.3C69.3 9.69995 69.3 9.59995 69.3 10.1ZM16.7 10.2C16.7 10.3 16.7 10.5 16.7 10.6C16.7 10.8 16.7 10.5 16.7 10.2V9.89995V10.2ZM43.5 11.1V12.3H40.6C37.7 12.3 37.7 12.3 37.5 12.2C37.1 12 36.9 11.6 36.8 11.1V10.8V11C36.8 11.5 37.1 12 37.6 12.2C38.6 12.3 39.7 12.3 40.7 12.2H43.7V11.3C43.7 10.8 43.7 10.3 43.7 10.1C43.7 9.89995 43.7 9.99995 43.6 11L43.5 11.1ZM57.2 11C57.2 12 57.2 12.1 57.1 12.3C57 12.5 56.7 12.7 56.6 12.7C56.5 12.7 56.5 12.7 56.5 12.7C56.4 12.8 56.3 12.8 56.3 12.8C55.6 13 54.9 12.6 54.6 12C54.6 11.9 54.5 11.8 54.5 11.9C54.5 12.5 55.4 13.1 56.2 12.9C57 12.7 57.2 12.4 57.2 10.9V9.89995V11ZM65 10.5C65 10.8 65 10.8 64.8 10.9H64.7H64.8C65 10.9 65.1 10.6 65 10.4V10.2V10.5ZM17.9 10.4C17.9 10.4 17.9 10.6 18 10.9C18.2 11.6 18.3 12.2 18.3 12.9C18.3 13.2 18.3 13.2 18.3 13.1C18.3 12.8 18.3 12.5 18.2 12.3C18.1 11.7 18.1 11.5 18 11C18 10.9 17.9 10.7 17.9 10.6C17.9 10.5 17.8 10.3 17.9 10.4ZM31.5 10.5C31.5 10.6 31.5 10.6 31.5 10.7C31.5 10.8 31.5 10.8 31.5 10.7C31.5 10.6 31.5 10.6 31.5 10.5C31.5 10.4 31.5 10.4 31.5 10.5ZM69.4 10.5C69.4 10.7 69.9 10.9 70.1 10.9C70.3 10.9 70.1 10.9 70 10.8C69.8 10.8 69.6 10.7 69.5 10.5C69.5 10.5 69.4 10.5 69.4 10.5ZM7.29997 10.6V10.7C7.29997 10.7 7.29997 10.7 7.29997 10.6C7.29997 10.5 7.39997 10.6 7.29997 10.6C7.29997 10.5 7.29997 10.5 7.29997 10.6ZM7.09998 11.1C7.09998 11.2 6.99997 11.3 6.99997 11.5C6.99997 11.6 6.59998 12.8 6.59998 12.9C6.59998 13 6.69997 12.9 6.69997 12.7C6.69997 12.5 6.89998 11.9 7.09998 11.3C7.19998 11.1 7.19997 11 7.19997 10.8C7.19997 10.9 7.09998 11 7.09998 11.1ZM8.59998 10.9C8.49998 11.1 8.49997 11.3 8.39997 11.4C8.19997 11.9 8.09997 12.5 7.89997 13C7.99997 12.9 7.99997 12.8 7.99997 12.7L8.09998 12.3C8.29998 11.8 8.49998 11.3 8.59998 10.9C8.59998 10.8 8.59998 10.8 8.59998 10.9ZM17 12.4C17 12.8 17 13.3 17 13.8C17 13.4 17 11.5 17 11.1C16.9 11.5 16.9 12 17 12.4ZM31.5 10.9C31.5 11.3 31.5 11.6 31.5 12C31.5 11.8 31.5 11.6 31.5 11.4C31.5 10.8 31.5 10.8 31.5 10.9ZM46.1 10.9C46.2 10.9 46.3 10.9 46.4 10.9C46.5 10.9 46.4 10.9 46.2 10.9C46 10.9 46 10.9 46.1 10.9ZM80.5 10.9C80.6 10.9 80.7 10.9 80.8 10.9C80.9 10.9 80.8 10.9 80.7 10.9C80.6 10.9 80.4 10.9 80.5 10.9ZM99.5 10.9C99.7 10.9 99.8 10.9 100 10.9C100.1 10.9 100 10.9 99.8 10.9C99.6 10.9 99.3 10.9 99.5 10.9ZM4.59998 11.3C4.59998 11.4 4.59998 11.4 4.59998 11.5C4.59998 11.5 4.69998 11.2 4.59998 11.3C4.69998 11.2 4.69998 11.1 4.59998 11.3ZM54.7 11.4C54.7 11.6 54.7 11.6 54.7 11.5C54.7 11.4 54.7 11.3 54.7 11.2C54.7 11.2 54.7 11.3 54.7 11.4ZM32.6 11.5C32.6 11.6 32.6 11.7 32.6 11.6C32.6 11.5 32.6 11.4 32.6 11.4C32.6 11.3 32.6 11.4 32.6 11.5ZM4.49997 11.6C4.49997 11.7 4.49997 11.8 4.49997 11.8C4.49997 11.9 4.49997 11.9 4.49997 11.8C4.59997 11.8 4.59997 11.7 4.49997 11.6C4.49997 11.6 4.49997 11.5 4.49997 11.6ZM78.3 12C78.3 12.1 78.3 12.3 78.3 12.4C78.4 12.2 78.4 12 78.4 11.8C78.4 11.7 78.4 11.7 78.3 12ZM4.19997 12.2C4.19997 12.3 4.19997 12.4 4.19997 12.5C4.19997 12.6 4.19998 12.8 4.09998 12.9C3.89998 13.8 3.79997 14.8 3.79997 15.8C3.79997 15.6 3.89997 15.4 3.89997 15.2C3.99997 14.4 4.09997 13.6 4.19997 12.8C4.19997 12.5 4.29997 12.3 4.19997 12.2C4.29997 12.1 4.29997 12.1 4.19997 12.2ZM10.8 12.4C10.8 12.5 10.7 12.6 10.8 12.7C10.9 12.8 10.8 12.7 10.8 12.6C10.8 12.5 10.8 12.5 10.8 12.4C10.9 12.3 10.9 12.3 10.9 12.2C10.9 12.3 10.8 12.3 10.8 12.4ZM13.7 12.4C13.7 12.5 13.7 12.6 13.8 12.6V12.7C13.8 12.8 13.8 12.8 13.8 12.9C13.8 13 13.9 13 13.9 13.1C13.9 13.2 13.9 13.2 13.9 13.2C13.9 13.1 13.9 12.9 13.8 12.8C13.6 12.3 13.6 12.3 14 12.8C14.5 13.5 14.9 14.2 15.2 15C15.3 15.4 15.4 15.6 15.4 15.4C15.1 14.3 14.6 13.2 13.9 12.2C13.7 12.2 13.7 12.2 13.7 12.4ZM10.6 12.9C10.4 13.4 10.2 13.9 10.1 14.5V14.2C10.1 14.1 10.3 13.7 10.4 13.4C10.6 12.8 10.7 12.5 10.6 12.9ZM53.5 12.7C53.7 13.2 54.1 13.7 54.6 14C54.8 14.1 54.9 14.1 55.2 14.2C55.6 14.3 56.1 14.3 56.5 14.2C57.2 13.9 58 13.2 58 12.8C58 12.8 57.9 12.8 57.9 13C57.2 14.2 55.7 14.5 54.6 13.9C54.2 13.7 53.9 13.3 53.7 12.9C53.6 12.8 53.6 12.7 53.5 12.7ZM86.2 12.9C85.9 13.1 85.8 13.4 85.8 13.7C85.8 14 85.8 14 85.7 14C85.7 14 85.6 14 85.6 14.1C85.6 14.1 85.6 14.2 85.6 14.1L85.7 14C85.8 14 85.8 13.9 85.8 13.6C85.8 13.4 85.8 13.2 85.9 13.1C86.2 12.7 87 12.7 87 13C87 13.1 87 13.1 87 13C87 12.9 86.4 12.6 86 12.9H86.2ZM61.2 13.5C61.2 13.7 61.2 13.9 61.2 14C61.3 13.9 61.3 13.7 61.2 13.5V13H62.3V13.5C62.3 13.8 62.3 14 62.3 14C62.3 13.8 62.3 13.6 62.3 13.5V13H61.7H61.1L61.2 13.5ZM102.4 13.6C102.4 13.8 102.4 14 102.4 14.1C102.5 13.9 102.5 13.7 102.4 13.6V13.1H103.5V13.6C103.5 13.8 103.5 13.9 103.5 14.1C103.5 13.9 103.5 13.7 103.5 13.6V13.1H102.3L102.4 13.6ZM6.09998 13.3C6.09998 13.4 6.09998 13.5 6.09998 13.5C6.09998 13.5 6.19997 13.2 6.19997 13.1C6.19997 13 6.19998 13.1 6.09998 13.3ZM7.49997 13.2C7.49997 13.3 7.49997 13.3 7.49997 13.4C7.49997 13.5 7.49997 13.5 7.49997 13.4C7.59997 13.4 7.59997 13.3 7.49997 13.2ZM13.8 13.4C13.8 13.5 13.8 13.5 13.8 13.6C13.8 13.7 13.8 13.7 13.8 13.6C13.8 13.5 13.8 13.4 13.8 13.4C13.8 13.4 13.8 13.3 13.8 13.4ZM86.8 13.5C86.8 13.7 86.7 13.8 86.6 13.7C86.5 13.6 86.2 13.7 86.3 13.9C86.4 14.1 86.4 14.2 86.7 14.2H86.9V15H86.2C86 15 85.7 15 85.4 15C85.7 15 85.9 15 86.2 15H87V14.1H86.8C86.5 14.1 86.4 14 86.5 13.8C86.6 13.6 86.6 13.7 86.8 13.8C87 13.9 86.9 13.8 86.8 13.5L86.9 13.3L86.8 13.5ZM18.2 14.2C18.2 14.6 18.2 14.8 18.2 14.6C18.2 14.4 18.2 14.1 18.2 13.9C18.2 13.7 18.2 13.8 18.2 14.2ZM6.29997 13.6C6.29997 13.7 6.29997 13.8 6.29997 13.8V13.9V13.7C6.29997 13.6 6.29997 13.4 6.29997 13.6ZM7.59998 13.7C7.59998 13.8 7.59997 13.9 7.49997 14L7.39997 14.5C7.39997 14.6 7.29997 14.9 7.29997 15C7.29997 15.3 7.19997 16.2 7.19997 16.3C7.19997 16.4 7.19997 16.4 7.29997 16C7.39997 15.4 7.49998 14.7 7.59998 14.1C7.59998 13.9 7.69997 13.8 7.69997 13.6C7.69997 13.6 7.69998 13.6 7.59998 13.7ZM14.2 13.7C14.2 13.9 14.3 14.1 14.3 13.9C14.3 13.8 14.3 13.8 14.2 13.7C14.2 13.6 14.2 13.6 14.2 13.7ZM6.19997 14.1C6.19997 14.2 6.19997 14.3 6.19997 14.4V14.6V14.4C6.19997 14.1 6.19997 13.9 6.19997 14.1ZM14.2 14.2C14.2 14.4 14.3 14.6 14.3 14.4C14.3 14.3 14.3 14.2 14.2 14.2C14.3 14.1 14.3 14.1 14.2 14.2ZM16.7 14.5C16.7 14.6 16.7 14.8 16.7 14.9V15.2V14.9C16.7 14.8 16.7 14.6 16.7 14.5C16.7 14.3 16.7 14.3 16.7 14.5ZM6.09998 14.7C6.09998 14.8 6.09998 14.9 6.09998 15C6.09998 15.1 6.09997 15.4 5.99997 15.8C5.89997 16.7 5.79997 17.7 5.79997 18.6V18.7C5.79997 17.5 5.89998 16.3 6.09998 15.1C6.09998 14.9 6.09998 14.7 6.09998 14.6C6.19998 14.5 6.19998 14.6 6.09998 14.7ZM14.3 14.6C14.3 14.6 14.3 14.9 14.4 15.1C14.6 16.5 14.6 17.9 14.4 19.3C14.4 19.5 14.4 19.6 14.4 19.8C14.4 19.8 14.4 19.8 14.5 19.3C14.6 18.1 14.6 16.8 14.5 15.6C14.5 15.4 14.4 15.1 14.4 14.9C14.4 14.7 14.3 14.4 14.3 14.6ZM9.99997 14.7C9.89997 15.1 9.89997 15.2 9.89997 15.3C9.89997 15.4 9.99997 15.2 9.99997 15C9.99997 14.8 10.1 14.5 9.99997 14.7ZM32.3 15C32.3 15.2 32.3 15.4 32.3 15.6V16.1H32.8C33 16.1 33.2 16.1 33.4 16.1C33.5 15.8 33.5 15.4 33.4 15C33 14.9 32.6 14.9 32.3 15ZM33.8 15C33.8 15.2 33.8 15.3 33.8 15.5C33.8 16.1 33.8 16.1 34.4 16.1C35 16.1 35 16.1 35 15.5C35 14.9 35 14.9 34.4 14.9C33.9 14.9 33.8 14.9 33.8 15ZM54.3 15C54.3 15 54.3 15.1 54.3 15C54.6 14.9 55 14.9 55.3 15C55.4 15.2 55.4 15.3 55.4 15.5V16H54.8C54.4 16 54.2 16 54.2 16C54.2 16 54.3 16.1 54.8 16H55.4V14.9H54.8C54.3 15 54.3 15 54.3 15ZM55.8 15C55.7 15.3 55.7 15.7 55.8 16C56 16 56.2 16 56.4 16H56.9V14.9H56.4C55.9 15 55.9 15 55.8 15ZM33.3 15.5V16H32.8H32.3V15.6C32.3 15 32.3 15 32.9 15H33.4L33.3 15.5ZM34.9 15.5V16H34.3H33.8V15.6C33.8 15 33.8 15 34.4 15H34.9V15.5ZM56.9 15.1C56.9 15.3 56.9 15.4 56.9 15.6V16H56.4H55.9V15.5C55.9 14.9 55.9 15 56.4 15C56.9 15 56.9 15 56.9 15.1ZM18.2 15.4C18.1 16 18 16.6 17.9 17.2C17.9 17.3 17.9 17.4 17.9 17.6C17.9 17.6 17.9 17.6 18 17.3C18 17.1 18.1 17 18.1 16.8C18.2 16.3 18.2 15.7 18.3 15.2C18.2 15.1 18.2 15.1 18.2 15.4ZM16.6 15.3C16.6 15.4 16.6 15.5 16.6 15.6C16.6 15.7 16.6 15.8 16.6 16C16.4 16.5 16.3 16.9 16.2 17.4C16.2 17.4 16.2 17.4 16.3 17.3C16.3 17.2 16.3 17.1 16.4 17C16.4 16.9 16.4 16.8 16.4 16.7C16.4 16.6 16.4 16.6 16.4 16.5C16.4 16.1 16.5 15.7 16.6 15.3C16.5 15.3 16.5 15.3 16.4 15.3H16.6ZM9.69997 15.5C9.69997 15.6 9.69998 15.7 9.59998 15.9C9.49998 16.1 9.49997 16.2 9.49997 16.3C9.39997 16.8 9.29997 17.6 9.39997 17.4C9.39997 17.3 9.39997 17.2 9.39997 17.2C9.39997 17.1 9.39997 17 9.39997 16.8C9.49997 16.3 9.59997 15.9 9.69997 15.4C9.69997 15.4 9.69997 15.4 9.69997 15.5ZM15.2 15.7C15.2 15.8 15.2 15.8 15.2 15.9C15.2 16 15.2 16 15.2 15.9C15.3 15.9 15.3 15.8 15.2 15.7C15.2 15.6 15.2 15.6 15.2 15.7ZM3.59998 16.7C3.59998 17.1 3.59998 17.8 3.59998 18.2C3.59998 18.9 3.59998 18.9 3.59998 17.4C3.59998 15.7 3.59998 15.5 3.59998 16.7ZM15.3 16.1C15.3 16.3 15.4 16.5 15.4 16.3C15.4 16.3 15.4 16.2 15.3 16.1C15.3 16 15.3 16 15.3 16.1ZM6.99997 16.7C6.99997 16.9 6.99997 17.1 6.99997 17.2V17.5V17.2C6.99997 17 6.99997 16.9 6.99997 16.7V16.4V16.7ZM15.5 16.9C15.5 17.1 15.5 17.7 15.5 18.2C15.5 19 15.5 19.2 15.6 19C15.6 18.9 15.6 18.9 15.7 18.8C15.9 18.4 16 17.9 15.9 18V18.1V18.2C15.9 18.3 15.8 18.4 15.8 18.5C15.6 19 15.6 18.9 15.6 17.8C15.6 17.4 15.6 17 15.5 16.6C15.5 16.5 15.5 16.7 15.5 16.9ZM16.1 17.4C16 17.5 16.1 17.7 16.1 17.6C16.2 17.5 16.2 17.4 16.1 17.4C16.1 17.3 16.1 17.3 16.1 17.4ZM9.39997 17.8C9.39997 17.9 9.39997 18 9.39997 18.2C9.39997 18.2 9.49997 17.8 9.49997 17.7C9.49997 17.6 9.39997 17.6 9.39997 17.8ZM16.1 17.7C16 17.8 16.1 18 16.1 17.8C16.1 17.8 16.1 17.8 16.1 17.7C16.1 17.6 16.1 17.6 16.1 17.7ZM17.8 17.8C17.8 17.9 17.8 18 17.8 18C17.8 18 17.9 17.8 17.9 17.7C17.9 17.6 17.8 17.7 17.8 17.8ZM7.09998 18.6C7.09998 19.1 7.09998 19.7 7.09998 20.1C7.09998 20.6 7.09998 20.6 7.09998 19.3C7.09998 17.6 7.09998 17.3 7.09998 18.6ZM48.2 17.9C48.5 18 48.8 18 49 18H49.8V19.5H48.2V18.7V17.9L48.3 18.7C48.3 19.7 48.2 19.6 49.1 19.6C50 19.6 50.1 19.7 50.1 18.7C50.1 18.4 50.1 18.1 50.1 17.9C49.5 17.8 48.9 17.8 48.4 17.9H48.2ZM17.8 18.1C17.8 18.2 17.8 18.4 17.8 18.2C17.8 18.2 17.8 18.2 17.8 18.1C17.8 18 17.8 18 17.8 18.1ZM9.39997 18.6C9.39997 18.8 9.39997 18.9 9.39997 19.1V19.2V19C9.39997 18.8 9.39997 18.7 9.39997 18.6V18.3V18.6ZM17.6 18.5C17.6 18.6 17.5 18.8 17.5 18.8C17.5 18.8 17.4 19.1 17.3 19.3C16.7 20.7 15.9 22 14.9 23.2C14.2 24 13.5 24.6 12.6 25.2L12.4 25.2999C12 25.5999 11.5 25.8 11.1 26C11.1 26 11.1 25.8999 11.2 25.7999L11.5 25.4C11.5 25.3 11.6 25.3 11.7 25.2C11.7 25.1 12.2 24.5 12.2 24.4L12.3 24.2999C12.8 23.5999 13.2 22.9 13.5 22.1C13.4 22.2 13.4 22.3 13.3 22.4C13.2 22.6 13 22.9 12.9 23.1C12.8 23.2 12.8 23.3 12.7 23.5C12.2 24.2 11.7 25 11.2 25.6C11.1 25.7 11 25.8 10.9 25.9C10.9 26 11.5 25.7 11.8 25.5C11.8 25.5 11.9 25.4 12 25.4C12.3 25.2 12.6 24.9999 12.8 24.7999C12.8 24.7999 12.8 24.7999 12.9 24.7999C13.6 24.1999 14.3 23.5 14.9 22.8L15.2 22.4C15.5 22 15.8 21.6 16.1 21.1L16.2 20.9C16.3 20.8 16.5 20.4 16.6 20.1C16.8 19.8 16.9 19.4 17.1 19.1L17.2 18.8C17.3 18.5 17.4 18.3 17.5 18C17.6 18.3 17.5 18.4 17.6 18.5ZM31.3 18.4C31.2 18.5 31.3 27.2999 31.3 27.2999C32.2 27.2999 33.1 27.2999 34 27.2999H36.6V26.6C36.6 25.7 36.9 25.7999 34.8 25.7999H33.2V23.5H34.8H36.4V22H33.2V19.9H34.9H36.6V18.5H33.9C32.5 18.4 31.3 18.4 31.3 18.4ZM81.2 18.4H82.3L82.6 19L85.1 23.7999C85.4 24.2999 85.6 24.8 85.7 24.9C85.8 25 85.8 24.8 85.8 21.7V18.4H87.5V22.9V27.2999H86.5C85.4 27.2999 85.4 27.3 85.3 27.2L84.7 26L83.9 24.4C83.8 24.2 83.7 24 83.6 23.9C83.6 23.9 85.3 27.2 85.3 27.4C86 27.5 86.8 27.5 87.5 27.4C87.6 25.9 87.6 24.4 87.6 22.9V18.5H85.8V21.8C85.8 23.6 85.8 25 85.7 25C85.6 25 85.3 24.2 82.9 19.6L82.4 18.6H80.1L81.2 18.4ZM88.9 22.9V27.4H90.5C91.5 27.5 92.6 27.4 93.6 27.1C94.2 26.9 95 26.0999 95 25.7999C95 25.7999 94.9 25.8 94.9 26C94.7 26.3 94.5 26.5 94.2 26.7H94.1C93.8 26.9 93.5 27.1 93.2 27.2C92.3 27.4 91.4 27.4 90.4 27.4H88.9V18.5H90.9C93.1 18.5 93.1 18.5 93.7 18.8C94.2 19 94.5 19.4 94.7 19.9C94.7 20 94.7 20 94.8 19.9C94.9 19.7 94.3 18.9 93.8 18.7C93.5 18.6 93.2 18.5 92.9 18.4C92.2 18.3 91.5 18.3 90.8 18.4H88.9V22.9ZM96.1 22.9C96.1 26.9 96.1 27.4 96.2 27.4C97.6 27.5 99 27.4 100.4 27.2C101.3 27 102.1 26.6 102.8 26C103.1 25.7 103.3 25.4 103.4 25C103.4 25 103.4 25 103.3 25.1C102.7 26.2 101.7 26.9 100.4 27.1C99 27.3 97.6 27.2999 96.2 27.2999C96.2 27.2999 96.2 26.2 96.1 22.9L96.2 18.4H97.8C100.8 18.4 102 18.8 103 20.1C103.9 21.6 104 23.4 103.4 25C103.4 25.1 103.4 25.1 103.4 25C103.5 24.7 103.6 24.5 103.7 24.2C103.9 23.3 103.9 22.4 103.7 21.5C103.7 21.4 103.6 21.2 103.6 21.1C103.2 19.9 102.3 19 101.1 18.7C100.7 18.6 100.3 18.5 99.9 18.4C99.8 18.4 98.9 18.4 97.9 18.4H96.2V22.9H96.1ZM36.6 19.1V19.8H33.1V20.9C33.1 21.3 33.1 21.7 33.1 22C33.6 22.1 34.2 22.1 34.7 22.1H36.3V23.5H34.7H33.1V26H34.8H36.5V27.2999H33.9C33 27.3999 32.1 27.3999 31.3 27.2999C31.3 27.2999 31.3 25.3 31.3 22.8V18.4H36.6V19.1ZM63.5 18.9C63.4 18.9 63.4 18.9 63.3 19H63.2C63.1 19 63.1 19 63 19L62.5 19.2C61.9 19.4 61.9 19.3 61.9 20.1V20.7H61.3C61.1 20.7 60.9 20.7 60.7 20.7C60.9 20.7 61.1 20.7 61.3 20.7H61.9V20.1V19.5L62.6 19.3C63 19 63.3 18.9 63.5 18.9H63.6V20.7H65.2V21.9H63.7V23.7C63.7 25.5 63.7 25.5 63.8 25.7C63.9 25.9 64.1 26.1 64.2 26.1C64.3 26.1 64.2 26.1 64.1 26C63.7 25.8 63.7 25.7999 63.7 23.7999C63.6 23.1999 63.6 22.6 63.7 22C63.7 22 63.9 21.9 64.5 21.9H65.2V21.3V20.7H64.5H63.8C63.8 20.7 63.8 20.3 63.8 19.8C63.8 19.5 63.8 19.2 63.7 18.9H63.5ZM3.79997 19.2C3.89997 20 3.99998 20.7 4.09998 21.5C4.09998 21.6 4.19997 21.8 4.19997 21.9C4.19997 22 4.19997 22.1 4.29997 22.1C4.29997 22.1 4.29997 22.1 4.19997 21.6C3.99997 20.9 3.89997 20.2 3.89997 19.5C3.89997 19.1 3.79997 18.9 3.79997 19.2ZM5.89997 19.5C5.89997 20 5.99997 20.6 5.99997 21.1C5.99997 21.3 5.99998 21.6 6.09998 21.7C6.09998 22 6.19997 22.2 6.19997 22.1C6.19997 21.9 6.19997 21.7 6.19997 21.6C6.19997 21.3 6.09998 20.9 6.09998 20.8C6.09998 20.6 6.09998 20.4 6.09998 20.2C6.09998 20 6.09998 19.8 6.09998 19.6V19.3V19.6L5.89997 19.5ZM9.39997 19.8C9.39997 20.4 9.39997 22 9.39997 22.5C9.39997 22 9.39997 21.6 9.39997 21.1C9.39997 19.3 9.39997 19 9.39997 19.8ZM14.4 19.9C14.3 19.9 14.2 20.1 14.2 20.2C14.2 20.2 14.3 20 14.3 19.9C14.3 19.8 14.3 19.9 14.3 20L14.4 19.9ZM90.6 19.9C90.6 19.9 90.6 20.4 90.6 21V22H91.9H91.3H90.7L90.6 19.9L91.2 19.8C92.5 19.8 93 20.1 93 20.9C93 21.3 92.8 21.7 92.3 21.8C92 21.9 91.9 21.9 92.1 21.9C92.7 21.9 93.2 21.4 93.2 20.8C93.2 20.2 92.7 19.8 92.1 19.8C91.7 19.8 91.2 19.8 90.6 19.9ZM98 19.9C98 19.9 98 21.3 98 23V26H98.8C99.3 26 99.8 25.9999 100.2 25.7999C100.9 25.4999 102 24.3 101.8 23.9C101.8 23.8 101.8 23.9 101.7 24C101.3 25.3 100 26.1 98.7 26H97.9L98 19.9H98.6C99.2 19.9 99.7 20 100.3 20.2C100.4 20.3 100.6 20.4 100.7 20.5L100.9 20.7C101.3 21 101.6 21.5 101.7 22C101.7 22.1 101.7 22.1 101.8 22.1C101.7 21.8 101.6 21.5 101.4 21.2C101 20.7 100.5 20.3 100 20.1C99.2 19.8 98.5 19.8 98 19.9ZM94.8 20.7C94.9 21.3 94.7 21.8 94.2 22.2C94 22.4 93.7 22.6 93.4 22.7C93.3 22.7 93 22.9 93.1 22.9C93.2 22.9 93.2 22.9 93.2 22.9C93.3 22.8 93.4 22.8 93.4 22.8C93.9 22.6 94.4 22.2 94.6 21.6C94.7 21.2 94.7 20.7 94.7 20.3C94.8 20.3 94.8 20.5 94.8 20.7ZM14.1 20.6C14.1 20.7 14 20.8 14 20.9C14.1 20.7 14.1 20.5 14.2 20.4C14.2 20.3 14.2 20.4 14.1 20.6ZM40.6 20.7C40.8 20.7 41 20.7 41.2 20.7C41.4 20.7 41.6 20.7 41.7 20.7C41.5 20.7 41.3 20.7 41.2 20.7C41 20.7 40.8 20.7 40.6 20.7ZM44.6 20.7C44.8 20.7 45 20.7 45.2 20.7C45.4 20.7 45.6 20.7 45.8 20.7C45.6 20.7 45.4 20.7 45.2 20.7C45 20.7 44.8 20.7 44.6 20.7ZM53.9 20.7C53.9 20.7 54 20.7 54.2 20.7C54.8 20.7 54.8 20.6 54.8 21.6V22.4H54.5C54.3 22.4 54.3 22.4 54.4 22.4L54.7 22.5H54.9V21.7C54.9 21.4 54.9 21.1 54.9 20.8C54.5 20.6 54.2 20.6 53.9 20.7ZM57 20.7C57.3 20.7 57.5 20.7 57.8 20.7C58.1 20.7 58.3 20.7 58.6 20.7C58.1 20.6 57.5 20.6 57 20.7ZM67.8 20.7C68.3 20.7 68.7 20.7 69.2 20.7C68.7 20.7 68.2 20.7 67.8 20.7ZM73.8 20.7C74.1 20.7 74.4 20.7 74.6 20.7C74.9 20.7 75.1 20.7 75.4 20.7C74.8 20.6 74.3 20.6 73.8 20.7ZM40.1 20.9C39.9 21 39.7 21.2 39.5 21.3L39.2 21.6V21.2V20.8H38.4H37.6V27.5H38.4C38.8 27.5 39.2 27.5 39.3 27.5H39.4V23.7V25.5V27.2999H39.3C39.2 27.2999 38.9 27.2999 38.5 27.2999H37.8V24V20.7H39.2V21.2C39.2 21.7 39.2 21.7 39.6 21.4C39.8 21.2 40 21 40.3 20.9C40.5 20.8 40.6 20.7 40.6 20.7C40.5 20.7 40.3 20.8 40.1 20.9ZM42.1 20.7C42.5 20.8 42.9 21.1 43.1 21.5L43.2 21.7L43.3 21.6C43.6 21.2 43.9 20.9 44.4 20.8C44.5 20.8 44.6 20.7 44.6 20.7C44.4 20.7 43.6 21.2 43.4 21.5L43.2 21.7L43.1 21.6C42.9 21.1 42.5 20.8 42.1 20.7C42 20.7 42 20.7 42.1 20.7ZM46.2 20.8C46.9 21.2 47.2 21.9 47.2 22.7C47.2 23.3 47.2 27.2999 47.2 27.2999C47.2 27.2999 47 27.2999 46.4 27.2999H45.6V25C45.6 23.7 45.6 22.7 45.6 22.7C45.6 22.7 45.6 27.1999 45.6 27.2999C46.2 27.3999 46.7 27.3999 47.3 27.2999C47.4 25.4999 47.4 23.8 47.2 22C47.1 21.5 46.8 21 46.2 20.8C45.9 20.6 45.9 20.6 46.2 20.8ZM53.5 20.7C53.2 20.9 53 21.1 52.9 21.4V21.5C52.9 21.5 52.8 21.6 52.8 21.7C52.7 22 52.7 21.9 52.6 21.3V20.7H51.7C51.4 20.7 51.2 20.7 50.9 20.7C50.8 22.9 50.8 25.0999 50.9 27.2999C51.5 27.3999 52 27.3999 52.6 27.2999C52.7 26.6999 52.7 26.1 52.7 25.5C52.7 23.7 52.7 23.5 53 23C53.1 22.6 53.4 22.3 53.8 22.3C53.9 22.3 54 22.3 53.9 22.2C53.6 22.2 53.2 22.5 53 22.9C52.8 23.3 52.8 23.5 52.7 25.4C52.7 26.3 52.7 27.2 52.7 27.2C52.7 27.2 52.7 27.2999 51.9 27.2999H51.1V20.9H52.6V21.6C52.6 22.1 52.6 22.3 52.6 22.2C52.7 21.6 53 21.1 53.5 20.7C53.7 20.7 53.8 20.6 53.7 20.6C53.6 20.7 53.5 20.8 53.5 20.7ZM56.5 20.7C56.4 20.7 56.6 20.7 56.8 20.7C57 20.7 56.9 20.7 56.8 20.7C56.6 20.7 56.6 20.7 56.5 20.7ZM58.8 20.7C58.9 20.7 58.9 20.7 59 20.7C59.3 20.8 59.7 21 59.9 21.2C60.5 21.8 60.6 22.3 60.6 24.7C60.6 25.6 60.6 26.5 60.6 26.7C60.6 26.1 60.6 25.6 60.6 25C60.6 22.6 60.6 22.3 60.3 21.7C60 21.3 59.5 20.9 58.8 20.7C58.7 20.8 58.7 20.8 58.8 20.7ZM67.2 20.8C67 20.9 66.7 21 66.5 21.1C66.3 21.3 66 21.5 65.9 21.7C65.9 21.7 65.9 21.7 65.9 21.8C65.7 22.1 65.5 22.4 65.4 22.8C65.4 22.8 65.5 22.7 65.5 22.5C65.7 21.8 66.2 21.2 66.9 20.9L67.2 20.8C67.3 20.8 67.3 20.8 67.4 20.8C67.4 20.8 67.5 20.8 67.6 20.8C67.6 20.7 67.5 20.7 67.2 20.8ZM69.3 20.8C69.4 20.8 69.4 20.8 69.5 20.8C70.2 21 70.8 21.5 71.1 22.2C71.2 22.3 71.2 22.4 71.2 22.4C71.2 22 70.5 21.2 69.9 20.9C69.6 20.7 69.1 20.6 69.3 20.8ZM73 20.8C72.3 21.1 71.7 21.8 71.7 22.3C71.7 22.4 71.7 22.4 71.8 22.2C71.9 21.7 72.3 21.2 72.8 21L73 20.8C73.1 20.8 73.2 20.8 73.3 20.8C73.3 20.8 73.4 20.8 73.5 20.8C73.6 20.7 73.3 20.8 73 20.8ZM75.5 20.8C75.6 20.8 75.7 20.8 75.8 20.8C75.9 20.8 75.9 20.8 75.8 20.8C75.7 20.8 75.6 20.8 75.5 20.8C75.4 20.8 75.4 20.8 75.5 20.8ZM81.8 24.1C81.8 26.6 81.8 27.4 81.8 27.4C81.3 27.5 80.7 27.5 80.2 27.4C80.7 27.5 81.3 27.5 81.8 27.5H81.9V20.9L82.3 21.6L83.1 23.1C83.6 24 83.5 23.9 83.5 23.9C83.5 23.9 82 20.8 81.9 20.8C81.8 20.8 81.8 21.6 81.8 24.1ZM49.1 20.8H50V27.2999H48.2V24V27.2999H50V20.7H48.2L49.1 20.8ZM55.9 20.9C55.4 21.1 55.5 21 55.5 21.8C55.5 22.6 55.5 22.7 55.9 22.4C56 22.3 56.1 22.3 56.1 22.3H56.2C56.2 22.2 56.2 22.3 55.9 22.4C55.6 22.5 55.6 22.6 55.6 21.8C55.6 21.2 55.6 21.2 55.7 21.1C55.8 21.1 55.8 21.1 55.9 21L56.2 20.9L56.5 20.8H56.6H56.5C56.1 20.9 56 20.9 55.9 20.9ZM76.1 20.9H76.2V21.4C76.2 21.7 76.2 21.8 76.2 21.7C76.2 21.5 76.2 21.4 76.2 21.2C76.2 20.9 76.2 20.8 76.1 20.9C76 20.9 75.8 20.9 76.1 20.9ZM13.9 21V21.2C13.7 21.8 13.4 22.4 13.4 22.4C13.4 22.4 13.4 22.4 13.5 22.3C13.6 22.2 13.6 22.1 13.7 21.9C13.8 21.6 14 21.3 14 20.9C14 20.9 14 20.9 14 21H13.9ZM7.09998 21.3C7.09998 21.5 7.09998 21.7 7.09998 21.9V22.2V21.9C7.09998 21.7 7.09998 21.4 7.09998 21.3V20.9V21.3ZM57.1 21.9L56.6 22L56.3 22.1C56.3 22.1 56.2 22.1 56.3 22.1C56.4 22.1 56.5 22.1 56.6 22C57.6 21.7 58.6 21.8 58.8 22.3C58.9 22.6 59 22.8 59 23.1C59 22.8 59 22.6 58.9 22.3C58.7 22 57.9 21.7 57.1 21.9ZM68.2 21.9C67.7 22 67.1 22.6 67.1 22.9C67.1 22.9 67.2 22.8 67.2 22.7C67.5 22 68.3 21.7 69 22C69.4 22.2 69.7 22.5 69.8 22.9C69.8 23 69.9 23.1 69.9 23C69.9 22.2 69 21.7 68.2 21.9ZM74.3 21.8C73.9 21.8 73.6 22.1 73.6 22.5C73.6 22.9 73.8 22.9999 74.7 23.2999C75.9 23.6999 76.4 24.1 76.5 25C76.7 26 76.1 26.9 75.2 27.2L74.9 27.2999C74.2 27.4999 73.5 27.5 72.7 27.4L72.2 27.2999C71.7 27.1999 71.7 27.2 71.7 26.9V26.6V26.9C71.7 27.2 71.7 27.3 72 27.4L72.6 27.5C73.4 27.7 74.3 27.6 75.1 27.4C75.2 27.4 75.2 27.2999 75.3 27.2999C75.6 27.1999 75.8 26.9999 76 26.7999C76.7 25.9999 76.7 24.7 75.9 24C75.8 23.9 75.8 23.8999 75.7 23.7999C75.4 23.5999 75.1 23.5 74.8 23.4C74.7 23.4 74.5 23.2999 74.4 23.2999C74.4 23.2999 74.3 23.2999 74.2 23.2999C73.9 23.2999 73.6 23 73.5 22.7C73.5 22 74.4 21.8 75.9 22.3C76 22.3 76 22.3 76 22.2C76 22.1 76 22.1 76 22.2C76 22.3 75.9 22.3 75.5 22.2C75.1 22.1 74.6 22.1 74.2 22.1L74.3 21.8ZM40.4 22C40.1 22.1 39.7 22.3 39.7 22.5C39.7 22.7 39.7 22.6 39.7 22.6C39.6 22.7 39.5 22.9 39.5 23.1V23C39.5 22.4 40.4 21.9 41 22.2C41.6 22.5 41.5 22.5 41.5 25.2V27.5H42.3C42.7 27.5 43.1 27.5 43.2 27.5V23.7V25.5C43.2 26.1 43.2 26.6999 43.2 27.2999C43.2 27.2999 43 27.4 42.4 27.4H41.6V25.2C41.6 22.7 41.6 22.5 41.3 22.2C41 22 40.7 21.9 40.4 22ZM44.4 22C44 22.1 43.4 22.6 43.5 23C43.8 22.2 44.4 21.9 45 22.1C45.1 22.1 45.1 22.1 45.1 22.1C45 22.1 45 22 44.9 22H44.7C44.5 22 44.4 22 44.4 22ZM61.2 22.1H61.8V23.9C61.8 24.9 61.8 25.7999 61.9 25.7999C62 25.7999 61.9 25 61.9 23.9V22H60.6L61.2 22.1ZM101.7 22.1C101.7 22.4 101.8 22.5 101.8 22.3C101.8 22.2 101.8 22.1 101.7 22.1C101.8 22 101.8 22 101.7 22.1ZM45.2 22.2C45.3 22.3 45.3 22.4 45.4 22.5C45.4 22.6 45.4 22.6 45.4 22.5C45.4 22.4 45.1 22 45.1 22C45.1 22.1 45.1 22.2 45.2 22.2ZM7.19997 22.3C7.29997 23 7.29997 23.7 7.49997 24.4C7.49997 24.5 7.59998 24.6999 7.59998 24.7999C7.59998 24.8999 7.59998 24.9 7.59998 24.9C7.59998 24.8 7.59998 24.6 7.59998 24.5C7.49998 23.9 7.39997 23.6 7.39997 23.2C7.19997 22.4 7.19997 22.2 7.19997 22.3ZM4.29997 22.4C4.29997 22.5 4.29997 22.5 4.29997 22.6C4.39997 22.7 4.39997 22.6 4.29997 22.4C4.29997 22.3 4.29997 22.3 4.29997 22.4ZM6.19997 22.5C6.19997 22.6 6.19997 22.7 6.19997 22.7C6.29997 22.8 6.29997 22.7 6.19997 22.5V22.3V22.5ZM71.2 22.5C71.3 23 71.4 23.5 71.4 24V24.5H69.2H66.9V24.7C66.9 24.8 66.9 24.9 67 24.9C67 24.9 67 24.8999 67 24.7999V24.6H69.3H71.6V24C71.6 23.7 71.6 23.4 71.5 23.2C71.5 22.9 71.4 22.7 71.3 22.4C71.2 22.4 71.2 22.5 71.2 22.5ZM71.8 22.7C71.8 22.8 71.8 22.9 71.8 22.8C71.8 22.7 71.8 22.6 71.8 22.5C71.8 22.5 71.8 22.5 71.8 22.7ZM101.9 22.9C101.9 23.1 101.9 23.2 101.9 23C101.9 22.9 101.9 22.8 101.9 22.7C101.9 22.6 101.9 22.7 101.9 22.9ZM4.39997 22.8C4.39997 22.9 4.89997 24.3 4.89997 24.6C4.89997 24.7 4.99997 24.8 4.99997 24.9C4.99997 25 5.09998 25.1 5.09998 25.1C5.09998 24.9 4.99997 24.8 4.99997 24.6C4.89997 24.3 4.79997 23.9999 4.69997 23.7999C4.59997 23.5999 4.59998 23.4 4.59998 23.4L4.49997 23.1C4.49997 22.8 4.39997 22.7 4.39997 22.8ZM93.7 22.9C94.2 23.1 94.6 23.4 94.9 23.9C94.9 24 95 24 95 24C95 24 94.6 23.4 94.3 23.2C94 23 93.8 22.9 93.5 22.9C93.4 22.8 93.5 22.9 93.7 22.9ZM6.29997 23C6.29997 23.1 6.29997 23.1 6.29997 23.2C6.39997 23.3 6.39997 23.1 6.29997 23C6.29997 22.9 6.19997 22.8 6.29997 23ZM65.4 23C65.4 23.1 65.4 23.2 65.4 23.2C65.4 23.3 65.4 23.3 65.4 23.2C65.4 23.1 65.4 22.9 65.4 23ZM67 23.2C67 23.3 67 23.4 67 23.4V23.5H68.5C70.1 23.5 70.1 23.4999 70 23.2999C69.9 23.0999 70 23.1999 70 23.2999V23.5H67.2V23.2C67.2 23 67.2 22.9 67.2 23.1L67 23.2ZM71.9 23.1C71.9 23.6 72.5 24.3 73.3 24.5C73.7 24.6 74.1 24.8 74.5 24.9C74.8 25.1 74.9 25.4999 74.7 25.7999C74.6 25.8999 74.6 26 74.5 26C74.4 26 74.3 26.1 74.3 26.1C74.3 26.1 74.9 25.7 74.9 25.4C74.9 25.1 74.6 24.7 73.9 24.5C72.6 24.3 72.2 24 71.9 23.1C72 23.1 72 23.1 71.9 23.1ZM39.3 23.2C39.3 23.3 39.3 23.4 39.3 23.5C39.3 23.5 39.3 23.4999 39.4 23.2999C39.4 23.1999 39.4 23.1 39.4 23C39.4 23 39.4 23 39.3 23.2ZM43.3 23.1C43.3 23.2 43.3 23.3 43.3 23.4C43.3 23.5 43.3 23.4999 43.4 23.2999C43.4 23.2999 43.4 23.2 43.3 23.1C43.4 23 43.4 23 43.3 23.1ZM9.29997 23.2999C9.29997 23.4999 9.29997 23.5999 9.29997 23.7999V24V23.7C9.29997 23.6 9.29997 23.3999 9.29997 23.2999V23.1V23.2999ZM6.39997 23.2999C6.49997 23.6999 6.59997 24 6.69997 24.4C6.79997 24.5 6.79997 24.7 6.79997 24.9C6.79997 25 6.79997 25 6.89997 25.1V25.2C6.89997 25.3 6.89997 25.2999 6.89997 25.2999C6.99997 25.2999 6.89997 25.3 6.79997 24.9C6.69997 24.7 6.69998 24.5 6.59998 24.4C6.49998 24.3 6.49997 24.1 6.49997 24.1L6.39997 23.6C6.39997 23.3 6.39997 23.1999 6.39997 23.2999ZM56.9 23.2999C56.9 23.2999 57.1 23.2999 57.4 23.2999H58C57.7 23.2999 57.3 23.2999 56.9 23.2999ZM101.7 23.5C101.7 23.6 101.7 23.6999 101.7 23.7999C101.7 23.7999 101.8 23.5 101.8 23.4C101.8 23.3 101.8 23.4 101.7 23.5ZM90.7 23.4C90.6 23.8 90.6 24.3 90.6 24.7V26H91.3C92.4 26 92.8 25.9 93.1 25.4C93.2 25.2 93.3 25.1 93.2 25.1V25.2C93.2 25.6 92.4 25.9 91.4 25.9H90.7V24.6V23.4H91.3C91.6 23.4 92 23.4 92.1 23.4C92.2 23.4 92.4 23.4 92.3 23.4C91.7 23.3 91.2 23.3 90.7 23.4ZM56.3 23.4C55.6 23.6 55 24.0999 54.7 24.7999C54.6 25.1999 54.6 25.6 54.7 26.1L54.8 26.4C54.8 26.5 54.9 26.6 54.9 26.6C54.9 26.6 54.9 26.4999 54.8 26.2999C54.5 25.4999 54.7 24.7 55.3 24.1C55.7 23.8 56.1 23.6 56.6 23.5C56.8 23.5 56.8 23.5 56.6 23.5C56.5 23.4 56.4 23.4 56.3 23.4ZM65.3 23.5C65.3 23.9 65.3 24.3 65.3 24.7C65.3 24.5 65.3 24.3 65.3 24.1C65.3 23.3 65.3 23.3 65.3 23.5ZM92.6 23.6C92.9 23.7 93.1 24 93.2 24.2C93.2 24.3 93.2 24.2999 93.3 24.2999C93.4 24.0999 92.8 23.5 92.5 23.5C92.4 23.4 92.5 23.4 92.6 23.6ZM95 24C95 24 95 24.0999 95.1 24.2999C95.2 24.6999 95.2 25.1 95.1 25.5C95.1 25.6 95.1 25.6999 95.1 25.7999C95.1 25.7999 95.1 25.8 95.2 25.5C95.3 25.1 95.3 24.6999 95.2 24.2999C95.2 23.9999 95 23.9 95 24ZM9.39997 24.2999C9.39997 24.3999 9.39997 24.5 9.39997 24.7V24.9V24.6C9.49997 24.5 9.49997 24.3999 9.39997 24.2999C9.39997 24.1999 9.39997 24.1999 9.39997 24.2999ZM57.6 24.2999C56.7 24.4999 56.2 25.1999 56.6 25.7999C56.7 25.8999 56.9 26.1 57 26.1C57.1 26.1 57 26.1 56.9 26C56.3 25.8 56.4 24.8 57 24.5C57.4 24.3 57.9 24.1999 58.4 24.2999C59.2 24.2999 59.2 24.2 59.1 24.7C58.9 25.7 58.5 26.1 57.6 26.1C57.3 26.1 57.1 26.1 57.2 26.1C57.7 26.2 58.3 26.1 58.7 25.7C59 25.3 59.2 24.8 59.2 24.2C58.6 24.2 58.1 24.1999 57.6 24.2999ZM93.4 24.6C93.4 24.8 93.4 24.8999 93.4 24.7999C93.4 24.6999 93.4 24.6 93.4 24.5C93.4 24.3 93.4 24.4 93.4 24.6ZM65.4 24.9C65.4 25 65.4 25.1 65.4 25.2L65.5 25.4C65.5 25.4 65.5 25.5 65.5 25.4C65.5 25.3 65.5 25.2 65.4 25C65.4 24.8 65.3 24.7 65.4 24.9ZM7.49997 24.9C7.49997 25 7.49997 25.1 7.49997 25.2C7.49997 25.3 7.59998 25.4 7.59998 25.5C7.59998 25.6 7.59998 25.6 7.59998 25.6C7.59998 25.5 7.59997 25.3 7.49997 25.2C7.49997 24.8 7.49997 24.8 7.49997 24.9ZM9.29997 24.9C9.29997 25 9.49997 25.9 9.49997 26C9.49997 26.1 9.49997 26.1999 9.49997 26.2999C9.49997 26.3999 9.49997 26.5 9.49997 26.6C9.49997 26.7 9.59998 26.8 9.59998 26.9C9.59998 27 9.59998 27 9.59998 27C9.59998 26.8 9.59997 26.7 9.49997 26.5C9.39997 25.9 9.29997 25.6999 9.29997 25.2999C9.29997 24.8999 9.29997 24.7 9.29997 24.9ZM66.8 25C66.9 25.4 67.2 25.7 67.6 25.9C68.1 26.1 68.7 26.2 69.3 26.1C69.3 26.1 69.2 26.1 68.9 26.1C67.9 26.1 67.3 25.9 66.9 25.2C66.9 25 66.8 25 66.8 25ZM4.99997 25.2999C4.99997 25.3999 4.99998 25.4 5.09998 25.5C5.09998 25.6 5.19997 25.6999 5.29997 25.7999C5.69997 26.6999 6.09998 27.5 6.59998 28.4C6.59998 28.5 6.69997 28.5 6.69997 28.6C6.69997 28.6 7.09997 29.2 7.39997 29.7C7.99997 30.6 8.59997 31.4 9.29997 32.2C9.39997 32.3 9.49998 32.5 9.59998 32.6C9.59998 32.6 9.59997 32.4999 9.39997 32.2999C9.19997 32.0999 8.69997 31.5 8.39997 31.1C7.89997 30.5 7.39997 29.8 6.99997 29.1V29C6.99997 28.9 6.89997 28.8 6.79997 28.7C6.19997 27.7 5.69997 26.6 5.19997 25.5C5.19997 25.4 5.09997 25.1999 4.99997 25.2999ZM6.79997 25.2999C6.79997 25.3999 6.79997 25.5 6.89997 25.6C6.89997 25.7 6.99997 25.8 6.99997 25.7C6.99997 25.6 6.99997 25.5 6.89997 25.4C6.89997 25.3 6.79997 25.2999 6.79997 25.2999ZM65.4 25.5C65.7 26.2 66.3 26.8 67 27.1H67.1C67.5 27.5 69.9 27.4 70.8 26.9L71 26.7999V26.2C71 25.4 71 25.4 70.5 25.7C70.3 25.8 70.1 25.9 69.9 25.9C69.6 26 69.5 26 69.6 26C69.9 25.9 70.3 25.8 70.6 25.6C70.7 25.5 70.8 25.5 70.9 25.5C70.9 25.7 70.9 25.9 70.9 26.2V26.9L70.8 27C70.4 27.2 70.1 27.3 69.7 27.4C69.1 27.5 68.4 27.5 67.8 27.4C67.2 27.3 66.6 27 66.2 26.6C66 26.4 65.8 26.2 65.7 25.9C65.4 25.5 65.3 25.4 65.4 25.5ZM7.59998 25.6C7.69998 26 7.79997 26.3999 7.89997 26.7999L7.99997 27.1C7.99997 27.1 7.99997 27.2 7.99997 27.1C7.99997 27 7.99997 26.8 7.89997 26.7C7.79997 26.3 7.69998 26.2 7.59998 25.9C7.49998 25.6 7.49998 25.5 7.59998 25.6ZM71.7 25.7C71.7 25.8 71.7 25.9 71.7 26.1V26.4V26.1C71.8 25.7 71.7 25.8 72 25.9C72.2 26 72.4 26.1 72.6 26.1C72.6 26.1 72.5 26 72.3 25.9C72.1 25.9 72 25.8 71.9 25.7C71.8 25.6 71.7 25.6 71.7 25.7ZM61.7 25.7999C61.7 25.8999 61.7 25.9 61.7 26C61.8 26 61.8 25.8999 61.7 25.7999C61.7 25.5999 61.7 25.4999 61.7 25.7999ZM7.19997 25.9C7.19997 25.9 7.39997 26.3 7.49997 26.6C7.69997 27 7.69997 27.1 7.69997 27.1C7.69997 27.1 7.69997 27 7.39997 26.4C7.39997 26.3 7.29997 26.3 7.29997 26.2V26.1V26L7.19997 25.9ZM65.1 26.1C65 26.1 64.9 26.2 64.9 26.2C65 26.2 65.1 26.2 65.1 26.1C65.4 26.1 65.4 26.1999 65.4 26.7999V27.4L65.2 27.5C64.6 27.6 64.1 27.6 63.5 27.5C63 27.4 62.6 27.1 62.4 26.7C62.4 26.6 62.3 26.6 62.3 26.6C62.3 26.8 62.9 27.4 63.4 27.5C64 27.6 64.6 27.6 65.2 27.5L65.4 27.4V26.7999C65.4 25.9999 65.4 26 65.1 26.1ZM73.1 26.2C73.5 26.2 73.8 26.2 74.2 26.2C74 26.2 73.8 26.2 73.6 26.2C73.5 26.2 73.3 26.2 73.1 26.2ZM59.1 26.5C59 26.6 58.9 26.6999 58.8 26.7999C57.8 27.5999 56.4 27.5999 55.4 26.7999C55.2 26.6999 55.1 26.6 55.2 26.6C55.8 27.3 56.8 27.6 57.7 27.4C58 27.3 58.2 27.2 58.5 27.1C58.8 27 59.4 26.2999 59.2 26.2999C59 26.2999 59.1 26.5 59.1 26.5ZM59.2 26.9C59.2 27.5 59.2 27.4 60 27.4C60.8 27.4 60.8 27.4 60.8 27.2C60.8 27 60.8 27.1 60.8 27.2V27.2999H60.2C59.4 27.2999 59.4 27.2999 59.4 26.7999V26.4V26.7999L59.2 26.9ZM7.89997 27.1L8.79997 28.9L8.99997 29.2C9.39997 29.9 9.79997 30.6 10.3 31.2C10.3 31.2 10.3 31.1999 10.3 31.2999C10.3 31.3999 10.3 31.4 10.3 31.4C10.3 31.4 10.3 31.4 10.3 31.5C10.3 31.6 10.3 31.6 10.3 31.5C10.3 31.4 10.3 31.3999 10.3 31.2999C9.69997 30.2999 9.29997 29.2999 8.79997 28.2999C8.69997 28.0999 8.69998 27.8999 8.59998 27.7999C8.69998 28.0999 8.79997 28.4999 8.99997 28.7999L9.19997 29.2C9.19997 29.3 9.39997 29.5999 9.49997 29.7999C9.59997 29.9999 9.79998 30.5 9.59998 30.2L9.19997 29.7L8.89997 29.2C8.89997 29.1 8.79997 29 8.69997 28.9C8.49997 28.5 7.89997 27.3 7.89997 27.1C7.89997 27.2 7.89997 27.2 7.89997 27.1ZM9.99997 27.1C9.99997 27.3 10.1 27.5 10.2 27.7C10.2 27.5 10.1 27.3 9.99997 27.1C10.1 27.1 10.1 27.1 9.99997 27.1ZM8.49997 27.5V27.6C8.59997 27.6 8.59997 27.5 8.49997 27.5C8.49997 27.4 8.49997 27.4 8.49997 27.5ZM10.3 27.9C10.4 28.1 10.6 29 10.8 29.4C11 29.8 11.1 30.2 11.5 31C11.5 31.1 11.6 31.2 11.6 31.2C11.6 31.1 11.5 31 11.5 30.9C11.3 30.5 11.2 30.3 11.2 30.2L11.1 29.9C11 29.7 10.8 29.1 10.7 28.7C10.6 28.6 10.5 28.3999 10.4 28.2999C10.2 28.0999 10.2 28.1 10.3 27.9C10.2 27.9 10.2 28 10.3 27.9C10.2 27.9 10.2 27.9 10.3 27.9ZM11.6 31.5C11.8 31.9 12 32.2999 12.3 32.7999C12.4 32.9999 12.3 32.8 12.2 32.5L11.9 32C11.9 31.9 11.8 31.8 11.7 31.7V31.6V31.5" fill="#6462E9"/>
<path d="M10.1999 0.2C10.1999 0.2 9.49993 1.2 9.39993 1.3C9.29993 1.4 9.29993 1.4 9.19993 1.6C8.69993 2.3 8.49993 2.6 8.29993 2.8L8.09993 3.1C7.99993 3.2 7.49993 4.1 7.49993 4.2C7.49993 4.2 7.29993 4.5 7.19993 4.8C6.89993 5.4 6.59993 5.9 6.29993 6.5L6.09993 7C5.89993 7.4 5.49993 8.4 5.39993 8.8C5.39993 8.9 5.29993 9.1 5.29993 9.1C5.29993 9.1 5.09993 9.6 4.99993 10.1C4.99993 10.2 4.89993 10.4 4.89993 10.5C4.89993 10.6 4.79993 10.9 4.69993 11.2C4.69993 11.3 4.59993 11.4 4.59993 11.6C4.29993 12.8 4.09993 14 3.99993 15.2C3.89993 16 3.89993 19.1 3.99993 19.8C4.09993 20.9 4.29993 22 4.59993 23.1L4.69993 23.4C4.69993 23.5 4.69993 23.5 4.79993 23.6C4.79993 23.6 4.89993 23.8 4.89993 24C4.99993 24.3 5.29993 25.2 5.39993 25.3L5.49993 25.6L5.69993 26.1C6.19993 27.2 6.69993 28.2 7.29993 29.2C7.39993 29.3 7.39993 29.4 7.49993 29.5C7.49993 29.5 7.49993 29.5 7.49993 29.6C7.89993 30.3 8.39993 31 8.89993 31.6C9.19993 32 9.69993 32.6 9.89993 32.8C9.99993 32.9 10.0999 33 10.0999 33.1C10.4999 33.1 10.7999 33.1 11.1999 33.1C11.0999 32.9 10.8999 32.6 10.6999 32.4C10.6999 32.4 10.6999 32.4 10.6999 32.3C10.6999 32.2 10.5999 32.2 10.5999 32.1C10.5999 32.1 10.4999 32 10.4999 31.9C10.4999 31.9 10.4999 31.9 10.4999 31.8C10.4999 31.7 10.4999 31.8 10.4999 31.8C10.4999 31.8 10.4999 31.8 10.4999 31.7C10.4999 31.6 10.4999 31.6 10.4999 31.6V31.5C10.4999 31.5 10.4999 31.5 10.4999 31.4C10.4999 31.3 10.4999 31.3 10.4999 31.4C10.4999 31.5 10.4999 31.5 10.4999 31.4C10.4999 31.3 10.4999 31.3 10.3999 31.3C10.2999 31.3 10.2999 31.2 10.1999 31.1C9.89993 30.7 9.39993 29.8 9.09993 29.3C8.99993 29.2 8.89993 29 8.89993 28.9C8.89993 28.8 8.09993 27.4 7.99993 27L7.79993 26.7C7.79993 26.6 7.59993 26.3 7.49993 26C7.39993 25.7 7.29993 25.5 7.29993 25.4C7.29993 25.3 7.29993 25.3 7.29993 25.2V25.1C7.29993 25.1 7.19993 25 7.19993 24.9C7.19993 24.8 7.09993 24.6 6.99993 24.3C6.89993 24 6.79993 23.7 6.79993 23.6C6.79993 23.5 6.69993 23.3 6.69993 23.2L6.59993 22.9C6.59993 22.8 6.59993 22.6 6.49993 22.5C5.99993 19.8 5.99993 17 6.49993 14.4C6.69993 13.5 6.89993 12.5 7.19993 11.6L7.39993 10.9C7.89993 9.3 8.59993 7.8 9.39993 6.3C9.49993 6.2 9.59993 6 9.59993 5.9C9.59993 5.8 9.79993 5.6 9.79993 5.5C9.89993 5.4 9.89993 5.4 9.89993 5.3C9.99993 5.1 10.0999 5 10.1999 4.8C10.3999 4.5 10.4999 4.3 10.4999 4.3C10.4999 4.3 10.4999 4.2 10.5999 4.2C10.6999 4.1 10.7999 4 10.7999 3.9C10.8999 3.7 11.4999 2.9 11.7999 2.6C12.2999 2 12.8999 1.3 13.4999 0.599999C13.6999 0.499999 13.7999 0.299999 13.8999 0.0999994C13.2999 -5.73695e-07 12.6999 0 12.1999 0C11.4999 0 10.8999 0.0999998 10.1999 0.2ZM39.4999 8C39.4999 9.3 39.4999 9.9 39.4999 9.2V6.8C39.4999 6.1 39.4999 6.6 39.4999 8ZM87.5999 8.3C87.5999 9.8 87.5999 11.1 87.5999 11C87.5999 10.9 87.5999 9.8 87.5999 8.3V5.5V8.3ZM51.3999 8.9C51.3999 10.8 51.3999 11.5 51.3999 10.6C51.3999 9.7 51.3999 8.2 51.3999 7.2C51.3999 6.2 51.3999 7.1 51.3999 8.9ZM79.8999 8.1C79.8999 9.5 79.8999 10.1 79.8999 9.4V6.8C79.8999 6.2 79.8999 6.7 79.8999 8.1ZM89.5999 8.9C89.5999 10.8 89.5999 11.5 89.5999 10.6C89.5999 9.7 89.5999 8.2 89.5999 7.2C89.5999 6.2 89.5999 7.1 89.5999 8.9ZM37.0999 6.6H37.5999C37.6999 6.6 37.5999 6.6 37.2999 6.6C36.9999 6.6 36.9999 6.6 37.0999 6.6ZM70.2999 6.6H70.7999C70.8999 6.6 70.7999 6.6 70.4999 6.6C70.1999 6.6 70.1999 6.6 70.2999 6.6ZM72.0999 6.6H72.5999V7.1V7.6V6.6H72.0999ZM100.2 6.5C100.4 6.5 100.5 6.5 100.7 6.5C101.1 6.5 101.2 6.5 101.2 6.5C101.2 6.5 101.2 6.6 101.2 6.5C100.8 6.5 100.5 6.4 100.2 6.5ZM36.7999 7C36.7999 7.3 36.7999 7.4 36.7999 7.2C36.7999 7 36.7999 6.9 36.7999 6.7C36.7999 6.6 36.7999 6.7 36.7999 7ZM37.8999 7C37.8999 7.3 37.8999 7.4 37.8999 7.2C37.8999 7 37.8999 6.9 37.8999 6.7C37.8999 6.6 37.8999 6.7 37.8999 7ZM71.5999 7C71.5999 7.3 71.5999 7.4 71.5999 7.2C71.5999 7 71.5999 6.9 71.5999 6.7C71.5999 6.6 71.5999 6.7 71.5999 7ZM85.7999 7C85.7999 7.1 85.7999 11 85.7999 11C85.7999 11 85.7999 10.1 85.7999 9V7H86.2999C85.9999 7 85.7999 7 85.7999 7ZM37.8999 9.6V10.9V9.6C37.8999 9.2 37.8999 8.8 37.8999 8.4C37.8999 8.8 37.8999 9.2 37.8999 9.6ZM74.2999 10.3C74.2999 11.4 74.2999 11.8 74.2999 11.3V9.3C74.2999 8.8 74.2999 9.2 74.2999 10.3ZM78.0999 10.1C78.0999 11 78.0999 11.4 78.0999 10.9C78.0999 10.4 78.0999 9.6 78.0999 9.2C78.0999 8.8 78.0999 9.1 78.0999 10.1ZM96.2999 9.1H96.4999C96.5999 9.1 96.4999 9.1 96.3999 9.1C96.2999 9.1 96.1999 9.1 96.2999 9.1ZM58.8999 10.2V10.9V10.2C58.8999 10 58.8999 9.8 58.8999 9.6C58.8999 9.8 58.8999 10 58.8999 10.2ZM36.7999 10.2C36.7999 10.6 36.7999 10.7 36.7999 10.5C36.7999 10.3 36.7999 10 36.7999 9.8C36.7999 9.6 36.7999 9.9 36.7999 10.2ZM95.4999 9.8C95.6999 9.8 95.9999 9.8 96.1999 9.8C96.3999 9.8 96.1999 9.8 95.7999 9.8C95.3999 9.8 95.2999 9.8 95.4999 9.8ZM43.4999 10.1C43.4999 10.2 43.4999 10.3 43.4999 10.2C43.4999 10.1 43.4999 10 43.4999 10C43.4999 10 43.4999 10 43.4999 10.1ZM83.2999 10.4C83.2999 10.5 83.2999 10.6 83.2999 10.4C83.2999 10.4 83.2999 10.4 83.2999 10.3C83.2999 10.3 83.2999 10.3 83.2999 10.4ZM36.1999 11.3C36.1999 11.7 36.1999 11.9 36.1999 11.7C36.1999 11.5 36.1999 11.2 36.1999 10.9C36.1999 10.6 36.1999 10.9 36.1999 11.3ZM16.6999 10.8C16.6999 10.9 16.6999 11 16.6999 10.8C16.6999 10.8 16.6999 10.8 16.6999 10.7C16.6999 10.7 16.6999 10.7 16.6999 10.8ZM69.9999 11.1C70.0999 11.1 70.0999 11.1 70.1999 11.1C70.0999 11.1 70.0999 11.1 69.9999 11.1C69.8999 11.1 69.9999 11.1 69.9999 11.1ZM94.6999 11.1C94.7999 11.1 94.7999 11.1 94.8999 11.1C94.7999 11.1 94.7999 11.1 94.6999 11.1C94.5999 11.1 94.6999 11.1 94.6999 11.1ZM84.6999 11.7C84.6999 12 84.6999 12.2 84.6999 12C84.6999 11.8 84.6999 11.6 84.6999 11.4C84.6999 11.3 84.6999 11.4 84.6999 11.7ZM13.7999 12.4C13.7999 12.5 13.7999 12.6 13.8999 12.6C13.9999 12.9 14.0999 13.2 14.1999 13.5C14.1999 13.6 14.2999 13.8 14.2999 13.9C14.2999 14 14.3999 14.2 14.3999 14.3C14.8999 16.5 14.6999 18.9 14.0999 21.1C13.5999 22.3 13.0999 23.5 12.2999 24.6L12.1999 24.7C12.1999 24.7 11.6999 25.4 11.6999 25.5C11.5999 25.6 11.5999 25.6 11.4999 25.7L11.1999 26.1C11.0999 26.2 10.9999 26.3 11.0999 26.3C11.2999 26.2 11.5999 26.1 11.7999 25.9L11.8999 25.8C11.9999 25.8 11.9999 25.8 11.9999 25.7C11.9999 25.6 11.9999 25.7 11.9999 25.7H12.0999C12.0999 25.7 12.0999 25.6 12.1999 25.6V25.5C12.2999 25.4 12.3999 25.2 12.4999 25.2C13.9999 23.9 14.9999 22.1 15.3999 20.2C15.3999 20.1 15.4999 19.9 15.4999 19.8C15.4999 19.7 15.4999 19.6 15.4999 19.5C15.4999 19.4 15.4999 19.3 15.4999 19.3L15.5999 19.1C15.5999 19 15.5999 19 15.5999 19C15.5999 19 15.4999 18.9 15.5999 18.3C15.5999 17.6 15.5999 16.9 15.4999 16.2C15.2999 15.2 14.9999 14.3 14.4999 13.4C14.2999 13 14.0999 12.6 13.7999 12.3V12.4ZM44.3999 13.4C44.3999 13.5 44.3999 13.5 44.3999 13.4C44.3999 13.4 44.3999 13.3 44.3999 13.4C44.3999 13.3 44.3999 13.3 44.3999 13.4ZM61.3999 14.1C61.5999 14.1 61.6999 14.1 61.8999 14.1C61.9999 14.1 61.8999 14.1 61.5999 14.1C61.2999 14.1 61.2999 14.1 61.3999 14.1ZM102.7 14.1C102.9 14.1 103 14.1 103.2 14.1C103.3 14.1 103.2 14.1 102.9 14.1C102.6 14.1 102.6 14.1 102.7 14.1ZM16.4999 14.3C16.4999 14.4 16.4999 14.5 16.4999 14.3C16.4999 14.3 16.4999 14.3 16.4999 14.2C16.4999 14.2 16.4999 14.2 16.4999 14.3ZM85.3999 14.5C85.3999 14.7 85.3999 14.8 85.3999 14.7C85.3999 14.6 85.3999 14.5 85.3999 14.3C85.3999 14.2 85.3999 14.3 85.3999 14.5ZM32.2999 15C32.4999 15 32.6999 15 32.7999 15C32.8999 15 32.7999 15 32.4999 15C32.1999 15 32.1999 15 32.2999 15ZM33.5999 15C33.5999 15 33.5999 15.2 33.5999 15.5V15.9V15.4V15H34.0999C34.2999 15 34.3999 15 34.5999 15C34.2999 14.9 33.9999 14.9 33.5999 15ZM54.3999 15C54.5999 15 54.6999 15 54.8999 15C54.9999 15 54.8999 15 54.5999 15C54.2999 15 54.2999 15 54.3999 15ZM55.6999 15C55.6999 15 55.7999 15 55.9999 15C56.5999 15 56.6999 15 56.1999 15C56.0999 15 55.8999 15 55.6999 15ZM32.0999 15.5C32.0999 15.8 32.0999 15.9 32.0999 15.7C32.0999 15.5 32.0999 15.4 32.0999 15.2C32.0999 15.1 32.0999 15.2 32.0999 15.5ZM54.0999 15.5C54.0999 15.8 54.0999 15.9 54.0999 15.7C54.0999 15.5 54.0999 15.4 54.0999 15.2C54.0999 15.1 54.0999 15.2 54.0999 15.5ZM55.1999 15.5C55.1999 15.8 55.1999 15.9 55.1999 15.7C55.1999 15.5 55.1999 15.4 55.1999 15.2C55.1999 15.1 55.1999 15.3 55.1999 15.5ZM56.6999 15.5C56.6999 15.8 56.6999 15.9 56.6999 15.7C56.6999 15.5 56.6999 15.4 56.6999 15.2C56.6999 15.1 56.6999 15.2 56.6999 15.5ZM7.09993 17.7C7.09993 17.7 7.09993 17.8 7.09993 17.7C7.09993 17.7 7.09993 17.6 7.09993 17.7C7.09993 17.6 7.09993 17.6 7.09993 17.7ZM49.8999 18.8C49.8999 19 49.8999 19.3 49.8999 19.5C49.8999 19.3 49.8999 19 49.8999 18.8V18V18.8ZM31.3999 22.9C31.3999 25.3 31.3999 26.3 31.3999 25.1C31.3999 23.9 31.3999 21.9 31.3999 20.7C31.3999 19.5 31.3999 20.4 31.3999 22.9ZM80.0999 22.9C80.0999 25.3 80.0999 26.3 80.0999 25.1C80.0999 23.9 80.0999 21.9 80.0999 20.7C80.0999 19.5 80.0999 20.4 80.0999 22.9ZM7.09993 20.8C7.09993 20.9 7.09993 20.9 7.09993 20.8C7.09993 20.8 7.09993 20.7 7.09993 20.8C7.09993 20.7 7.09993 20.7 7.09993 20.8ZM81.7999 20.8C81.7999 20.8 81.7999 22.3 81.7999 24.1C81.7999 21.1 81.7999 20.8 81.7999 20.8C81.8999 20.8 81.8999 20.8 81.7999 20.8C81.7999 20.7 81.7999 20.8 81.7999 20.8C81.6999 20.8 81.6999 20.7 81.7999 20.8ZM54.6999 21.6C54.6999 22 54.6999 22.2 54.6999 22V21.2C54.6999 21 54.6999 21.2 54.6999 21.6ZM49.8999 24.1V27.4V24.1C49.8999 22.3 49.8999 20.9 49.8999 20.9C49.8999 20.9 49.8999 22.3 49.8999 24.1ZM60.6999 21.4C60.6999 21.7 60.6999 21.9 60.6999 21.7C60.6999 21.5 60.6999 21.2 60.6999 21.1C60.6999 21 60.6999 21.1 60.6999 21.4ZM76.0999 21.8C76.0999 21.9 76.0999 21.9 76.0999 21.8C76.0999 21.7 76.0999 21.7 76.0999 21.8ZM90.8999 22.1C91.0999 22.1 91.1999 22.1 91.3999 22.1C91.4999 22.1 91.3999 22.1 91.0999 22.1C90.7999 22.1 90.7999 22.1 90.8999 22.1ZM53.8999 22.2H54.1999C54.2999 22.2 54.1999 22.2 53.9999 22.2C53.7999 22.2 53.7999 22.2 53.8999 22.2ZM9.19993 22.5C9.19993 22.6 9.19993 22.6 9.19993 22.5C9.19993 22.5 9.19993 22.5 9.19993 22.4C9.19993 22.4 9.19993 22.4 9.19993 22.5ZM103.7 22.9C103.7 23.1 103.7 23.2 103.7 23.1C103.7 23 103.7 22.8 103.7 22.7C103.7 22.6 103.7 22.7 103.7 22.9ZM47.1999 25.1C47.1999 26.3 47.1999 26.8 47.1999 26.2C47.1999 25.6 47.1999 24.6 47.1999 24C47.1999 23.4 47.1999 23.9 47.1999 25.1ZM58.4999 23.3H57.9999H58.4999C58.5999 23.3 58.7999 23.3 58.9999 23.3H58.4999ZM91.4999 23.4C91.5999 23.4 91.5999 23.4 91.6999 23.4C91.6999 23.4 91.6999 23.4 91.4999 23.4ZM33.8999 23.4H35.4999C35.8999 23.4 35.5999 23.4 34.6999 23.4C33.7999 23.4 33.4999 23.4 33.8999 23.4ZM67.5999 23.4H68.9999C69.3999 23.4 69.0999 23.4 68.2999 23.4C67.4999 23.4 67.2999 23.4 67.5999 23.4ZM14.1999 23.9L13.9999 24.1L14.1999 23.9C14.3999 23.8 14.3999 23.7 14.3999 23.7L14.1999 23.9ZM71.3999 24.1C71.3999 24.2 71.3999 24.2 71.3999 24.1C71.3999 24.1 71.3999 24.1 71.3999 24C71.3999 24 71.3999 24 71.3999 24.1ZM43.1999 25.7C43.1999 26.6 43.1999 27 43.1999 26.5C43.1999 26 43.1999 25.3 43.1999 24.9C43.1999 24.5 43.1999 24.8 43.1999 25.7ZM58.2999 24.3C58.4999 24.3 58.7999 24.3 58.9999 24.3C58.8999 24.3 58.6999 24.3 58.5999 24.3C58.3999 24.3 58.2999 24.3 58.2999 24.3ZM97.8999 26C98.0999 26 98.1999 26 98.3999 26H98.8999H98.3999C98.2999 26 98.0999 26 97.8999 26ZM33.9999 26C34.4999 26 35.2999 26 35.6999 26C36.0999 26 35.7999 26 34.7999 26C33.7999 26 33.5999 26 33.9999 26ZM90.8999 26C90.9999 26 91.1999 26 91.2999 26C91.3999 26 91.2999 26 91.0999 26C90.8999 26 90.7999 26 90.8999 26ZM33.9999 27.3H31.3999H33.9999C35.6999 27.3 36.5999 27.3 36.5999 27.3H33.9999ZM50.9999 27.3C51.2999 27.3 51.4999 27.3 51.7999 27.3H52.5999H51.7999C51.4999 27.3 51.1999 27.3 50.9999 27.3ZM59.1999 27.3C59.6999 27.3 60.0999 27.3 60.5999 27.3C60.3999 27.3 60.0999 27.3 59.8999 27.3C59.6999 27.3 59.4999 27.3 59.1999 27.3ZM86.2999 27.3H85.2999H86.2999C86.5999 27.3 86.9999 27.3 87.2999 27.3H86.2999ZM37.8999 27.3H38.6999C38.8999 27.3 38.6999 27.3 38.2999 27.3C37.8999 27.3 37.6999 27.3 37.8999 27.3ZM41.8999 27.3H42.6999C42.8999 27.3 42.6999 27.3 42.2999 27.3C41.8999 27.3 41.6999 27.3 41.8999 27.3ZM45.8999 27.3H46.6999C46.8999 27.3 46.6999 27.3 46.2999 27.3C45.8999 27.3 45.6999 27.3 45.8999 27.3ZM80.3999 27.3H81.1999C81.3999 27.3 81.1999 27.3 80.7999 27.3C80.3999 27.3 80.1999 27.3 80.3999 27.3ZM89.5999 27.3H91.1999C91.6999 27.3 91.2999 27.3 90.3999 27.3C89.4999 27.3 89.0999 27.3 89.5999 27.3ZM96.7999 27.3H98.1999C98.5999 27.3 98.2999 27.3 97.4999 27.3C96.6999 27.3 96.4999 27.3 96.8999 27.3" fill="#6462E9"/>
</svg>
