<svg width="66" height="59" viewBox="0 0 66 59" fill="none" xmlns="http://www.w3.org/2000/svg">
<path d="M62.3983 56.9117V55.5809H61.4061C60.074 55.5809 59.2721 55.1192 58.6876 54.0193C58.3342 53.354 58.307 53.1638 58.3478 52.2405C58.4022 50.8961 58.8779 50.0542 59.8837 49.5518C60.4546 49.2531 60.7264 49.1988 61.7187 49.2123C62.3033 49.2072 62.8868 49.2664 63.4585 49.3889L64.0294 49.5518V58.0523L63.5264 58.1474C62.3439 58.3375 62.3983 58.3918 62.3983 56.9117ZM62.2352 54.1551C62.3575 54.1551 62.3983 53.707 62.3983 52.3898V50.6246H61.6915C60.9303 50.6381 60.6993 50.7468 60.3187 51.3035C59.9925 51.7788 60.0196 52.8787 60.3595 53.449C60.6585 53.9379 61.3653 54.3181 61.7866 54.223C61.9333 54.1844 62.0837 54.1616 62.2352 54.1551V54.1551Z" fill="#3634E3"/>
<path d="M30.5924 55.4451C29.7361 55.1735 29.342 54.7254 29.2604 53.9106C29.1381 52.6206 29.6546 52.159 31.6798 51.6565C32.672 51.4121 32.8352 51.3306 32.8759 51.0726C32.9575 50.4751 32.074 50.3801 30.5109 50.8418C30.2662 50.9097 30.1847 50.8282 29.9944 50.3394C29.8721 50.027 29.8177 49.7147 29.8721 49.6604C29.9264 49.6061 30.375 49.4431 30.8643 49.3209C31.8973 49.0629 32.9711 49.1308 33.6235 49.4975C34.3711 49.932 34.507 50.4208 34.5614 52.9601L34.6157 55.2278L33.6915 55.4451C32.5769 55.6895 31.408 55.6895 30.5924 55.4451ZM32.74 54.2094C32.9983 54.1279 33.039 54.0329 33.039 53.3946C33.039 52.9873 32.9983 52.6614 32.9439 52.6614C32.74 52.6614 31.5575 53.0552 31.2856 53.2045C30.674 53.5304 31.1361 54.2909 31.9381 54.2909C32.2073 54.2889 32.4758 54.2616 32.74 54.2094V54.2094Z" fill="#3634E3"/>
<path d="M36.3282 55.4993C35.6214 55.3363 35.5534 55.187 35.8252 54.508C36.0155 54.0735 36.0971 54.0056 36.3417 54.0871C36.6469 54.1568 36.9554 54.2111 37.266 54.25C37.7961 54.3043 37.9456 54.2772 38.1903 54.0327C38.598 53.6254 38.4214 53.3674 37.334 52.8785C36.1379 52.3218 35.866 52.0366 35.7981 51.2083C35.7301 50.4207 36.0563 49.8097 36.7359 49.443C37.266 49.1579 38.9922 49.1171 39.6039 49.3751L39.9709 49.5381L39.7398 50.1084C39.6175 50.4343 39.5087 50.7059 39.4951 50.733C39.2513 50.7103 39.0101 50.6649 38.7748 50.5973C38.2311 50.475 37.9864 50.475 37.7146 50.5973C37.1437 50.8688 37.3612 51.1947 38.5437 51.7786C39.8213 52.4168 40.134 52.7835 40.134 53.6525C40.134 54.4401 39.7942 55.024 39.1553 55.3363C38.5981 55.6079 37.1573 55.6894 36.3282 55.4993Z" fill="#3634E3"/>
<path d="M53.7671 55.4859C52.639 55.0922 51.9458 54.1009 51.8234 52.7294C51.6332 50.2308 53.373 48.6421 55.6293 49.2667C56.7982 49.5926 57.4914 50.6518 57.505 52.0912V52.9331H55.5341C53.3866 52.9331 53.305 52.9738 53.8487 53.6528C54.3244 54.2638 55.0448 54.3589 56.3768 53.9515C56.6215 53.87 56.7031 53.9379 56.8934 54.3725C57.0021 54.6576 57.0701 54.9699 57.0429 55.0514C56.8662 55.5131 54.6642 55.7983 53.7671 55.4859ZM55.8739 51.4937C55.8739 51.195 55.1264 50.4889 54.8001 50.4889C54.1885 50.4889 53.5633 51.032 53.5633 51.5752C53.5633 51.6567 54.0798 51.711 54.7186 51.711C55.6836 51.711 55.8739 51.6702 55.8739 51.4937V51.4937Z" fill="#3634E3"/>
<path d="M19.5823 53.3133C19.5823 52.0912 19.5415 50.7876 19.5007 50.4074L19.4192 49.7149L20.2755 49.4705C21.4037 49.131 23.0347 49.1174 23.6056 49.4297C24.0134 49.647 24.0677 49.647 24.7609 49.389C26.1338 48.8594 27.5066 49.2396 28.0095 50.2852C28.2541 50.774 28.2813 51.1271 28.2813 53.1775V55.5131H26.6503V53.3405C26.6503 51.3444 26.6231 51.1407 26.3784 50.8963C26.1664 50.7068 25.8877 50.6091 25.6037 50.6247C24.693 50.6247 24.693 50.6111 24.7338 53.1911L24.7745 55.5131H23.1163V53.4627C23.1163 50.9234 23.0075 50.6247 22.0017 50.6247C21.0503 50.6247 21.0774 50.5296 21.0774 53.1504V55.5131H19.5823V53.3133Z" fill="#3634E3"/>
<path d="M41.1942 50.9779V46.456L41.7107 46.361C41.9826 46.3203 42.3496 46.2388 42.5263 46.198C42.8253 46.1166 42.8253 46.1166 42.8253 47.8139V49.5113L43.4097 49.3076C44.1301 49.0496 45.3263 49.1583 45.802 49.5113C46.536 50.0409 46.6311 50.4754 46.6311 53.1098V55.5133H45V53.3678C45 50.8692 44.9185 50.6248 44.0486 50.6248C43.7464 50.6227 43.4466 50.678 43.1651 50.7878L42.8253 50.9371V55.5133H41.1942V50.9779Z" fill="#3634E3"/>
<path d="M47.8816 52.6343L47.9223 49.7556L48.6699 49.4976C49.4175 49.226 51.5243 49.0902 51.7281 49.2939C51.7825 49.3482 51.7417 49.6469 51.633 49.9728C51.4155 50.5975 51.4835 50.5839 50.0019 50.611L49.4854 50.6246V55.5131H47.8544L47.8816 52.6343Z" fill="#3634E3"/>
<path d="M30.1167 47.8681C29.9536 47.2571 30.0895 47.0806 30.8643 46.8226C32.9711 46.1164 33.5012 43.8216 32.0468 41.7711C31.9109 41.5675 31.9653 41.4452 32.4546 40.9564C33.0255 40.3861 33.0255 40.3861 33.3245 40.6577C33.7459 41.0379 34.2216 41.9069 34.4119 42.6538L34.5614 43.292H38.0682V42.871C38.0682 42.355 37.7012 41.5539 37.3614 41.3502C37.2255 41.2551 37.1167 41.1193 37.1167 41.0515C37.1167 40.8613 37.9595 40.033 38.1497 40.033C38.34 40.033 38.9517 40.712 39.2099 41.228C39.3741 41.6185 39.4839 42.0297 39.5361 42.4501L39.6313 43.2241L40.3653 43.2648L41.0857 43.3056L40.9905 42.6538C40.8954 42.0156 40.4876 41.2551 40.2294 41.2551C40.1614 41.2551 40.107 41.1737 40.107 41.0786C40.107 40.8749 40.9362 40.033 41.14 40.033C41.3439 40.033 41.942 40.6984 42.1866 41.1872C42.34 41.5937 42.4405 42.0181 42.4857 42.4501L42.5808 43.292H44.0488V42.7081C44.0781 41.9668 43.8311 41.241 43.3556 40.6712L42.9342 40.1417L43.3828 39.68C43.6274 39.422 43.8993 39.2183 43.9808 39.2183C44.2119 39.2183 44.7963 39.8972 45.1362 40.5626C45.3285 40.9925 45.4479 41.4514 45.4896 41.9205C45.6255 43.4414 45.4896 43.3327 47.1206 43.2648C48.874 43.1834 48.9963 43.1155 49.9886 41.4588C51.1983 39.422 52.0954 38.8109 53.1828 39.259C53.74 39.4899 54.1478 40.0059 54.841 41.3095C55.1672 41.9341 55.3303 42.4229 55.3303 42.7896V43.3327L57.1517 43.2648C58.1439 43.2241 59.041 43.1426 59.1497 43.0747C59.2993 42.9797 59.34 42.2871 59.34 39.3677V35.7828L60.0876 35.6062C60.3414 35.5385 60.6006 35.4931 60.8624 35.4705C60.876 35.484 60.9031 37.4937 60.9303 39.938L60.9711 44.3783L60.0604 44.582C59.3536 44.745 58.2527 44.7857 55.2216 44.7857C51.4158 44.7857 51.2798 44.7721 50.6954 44.4734L50.0837 44.1746L49.6352 44.4734L49.173 44.7857H34.5478L34.3303 45.5461C33.9361 46.8905 32.6449 47.841 30.8371 48.1126C30.2255 48.2076 30.1983 48.194 30.1167 47.8681ZM53.4954 43.1155C53.5739 43.058 53.6321 42.9769 53.6615 42.8841C53.6908 42.7913 53.6897 42.6916 53.6585 42.5995C53.5362 42.1378 52.7886 40.9971 52.5439 40.9021C52.2177 40.7799 51.7692 41.1601 51.3478 41.9205L50.9672 42.5995L51.3342 42.8439C51.6468 43.0476 52.3264 43.2241 53.0332 43.2784C53.198 43.2612 53.3563 43.2053 53.4954 43.1155V43.1155Z" fill="#3634E3"/>
<path d="M21.0641 44.609C19.6505 44.2152 19.0388 43.3461 19.0388 41.7302C19.0381 41.0858 19.1532 40.4465 19.3786 39.8427C19.8408 38.5392 19.9495 38.4441 20.6563 38.7972C20.9553 38.9601 21.2136 39.1366 21.2136 39.2045C21.1453 39.476 21.0497 39.7399 20.9281 39.9921C20.3573 41.2957 20.6019 42.4771 21.5398 42.9931C22.3825 43.4548 27.833 43.2375 27.534 42.7622C27.5068 42.6944 27.2078 42.6129 26.8951 42.5586C26.497 42.4819 26.1092 42.3589 25.7398 42.1919C24.7612 41.7167 24.6524 40.6711 25.4408 39.4218C25.9437 38.6206 26.5417 38.2676 27.3573 38.2676C27.901 38.2676 28.0641 38.3355 28.4582 38.7293C29.8718 40.1415 29.9942 42.3549 28.7165 43.6041C27.7243 44.5683 27.1942 44.7041 24.2718 44.7448C22.5048 44.7719 21.499 44.7312 21.0641 44.609ZM28.0233 41.0784C27.8466 40.6303 27.0718 39.7613 26.8408 39.7613C26.7456 39.7613 26.5553 39.9106 26.433 40.1008C26.2155 40.4266 26.2291 40.4674 26.4466 40.7118C26.6641 40.9562 28.0097 41.5537 28.1184 41.4587C28.1072 41.3277 28.0751 41.1993 28.0233 41.0784V41.0784Z" fill="#3634E3"/>
<path d="M62.2622 40.3046V35.8371L62.8467 35.6877C63.1593 35.6062 63.5263 35.5112 63.6622 35.4704C63.8797 35.4025 63.8933 35.6877 63.8933 40.0873V44.7857H62.2622V40.3046Z" fill="#3634E3"/>
<path d="M39.3591 37.5887L38.829 37.0456L39.3591 36.5024L39.8892 35.9593L40.3785 36.4345L40.8678 36.9098L41.3707 36.4074L41.8736 35.8914L42.4445 36.4753L43.029 37.0456L42.4581 37.6159L41.8736 38.1862L41.3979 37.7245L40.9222 37.2628L40.4736 37.6974C40.3228 37.8658 40.1489 38.012 39.9571 38.1319C39.9164 38.1319 39.6445 37.8875 39.3591 37.5887Z" fill="#3634E3"/>
<path d="M25.631 37.0456L25.101 36.5025L25.6718 35.9321L26.2427 35.3618L26.7184 35.8235L27.1942 36.2852L27.6699 35.8235L28.1456 35.3618L28.7301 35.9321L29.301 36.5025L28.7301 37.0728L28.1456 37.6431L27.6699 37.1814L27.1942 36.7197L26.7456 37.1542C26.5947 37.3226 26.4209 37.4689 26.2291 37.5888C26.1883 37.5888 25.9165 37.3444 25.631 37.0456Z" fill="#3634E3"/>
<path d="M40.311 35.9591L39.7809 35.4159L40.311 34.8728L40.8411 34.3296L41.3576 34.832C41.643 35.1036 41.8741 35.4023 41.8741 35.4838C41.8741 35.6332 41.045 36.5022 40.909 36.5022C40.8683 36.5022 40.5964 36.2578 40.311 35.9591Z" fill="#3634E3"/>
<path d="M17.4758 32.0756C14.311 31.7386 11.1819 31.1252 8.12436 30.2424C5.20203 29.4005 0.567084 27.6352 0.458346 27.3229C0.376793 27.0785 4.49524 25.4626 7.49912 24.5664C12.338 23.0998 16.3884 22.4888 21.0778 22.4888C26.27 22.5023 30.5515 23.2628 35.9613 25.1503C38.1632 25.9107 41.0855 27.16 41.0855 27.3229C41.0719 27.5945 36.5865 29.3462 33.5826 30.2424C29.138 31.5731 26.1748 32.0348 21.4855 32.0891C19.5826 32.1163 17.7748 32.1027 17.4758 32.0756Z" fill="#3634E3"/>
<path d="M38.6796 23.5074C32.6174 22.7877 28.2679 21.2804 24.4485 18.5374C21.1432 16.1458 18.3208 13.151 16.1301 9.71104C15.7087 9.05924 15.3689 8.47534 15.3689 8.39387C15.3689 8.21734 17.2446 8.21734 19.0524 8.39387C25.3864 9.03209 30.4019 10.9467 34.6563 14.3687C36.1922 15.6043 38.4621 17.9128 39.7126 19.5287C40.5825 20.6422 42.4175 23.3444 42.4175 23.5209C42.4175 23.6024 39.4136 23.6024 38.6796 23.5074Z" fill="#3634E3"/>
<path d="M56.3765 23.0319C55.4522 22.869 55.4522 22.9097 56.3357 21.2259C57.8852 18.1978 60.6581 16.7856 64.192 17.193C64.6806 17.2437 65.1661 17.3207 65.6464 17.4238C65.7687 17.546 65.3882 18.4694 64.8037 19.4607C63.0775 22.4073 60.1144 23.6702 56.3765 23.0319Z" fill="#3634E3"/>
<path d="M43.4095 19.8002C38.4347 16.6499 35.7434 13.0786 34.5745 8.12224C34.2891 6.9137 34.2211 6.23475 34.1667 3.74978C34.1124 1.44135 34.126 0.789551 34.2619 0.789551C34.5473 0.789551 36.6269 2.10672 37.891 3.08441C39.3454 4.21147 41.1803 6.11254 42.0231 7.38897C43.2999 9.3099 44.1951 11.4582 44.66 13.7168C45.1085 16.0524 45.2036 20.6285 44.8095 20.615C44.7279 20.6014 44.1027 20.2483 43.4095 19.8002Z" fill="#3634E3"/>
<path d="M52.9786 20.1259C52.8155 19.8408 52.7475 17.8718 52.8698 16.9077C53.1185 15.039 53.8836 13.2765 55.0793 11.8182C56.275 10.3598 57.8539 9.26326 59.6388 8.65165C60.0601 8.51586 60.4407 8.43439 60.4815 8.47512C60.5223 8.51586 60.563 9.45281 60.563 10.5391C60.5495 12.318 60.5087 12.6439 60.1961 13.5944C59.6796 15.1424 58.8368 16.4596 57.5728 17.7225C56.6621 18.6187 56.2135 18.9446 55.1805 19.447C53.8621 20.0852 53.1009 20.3161 52.9786 20.1259Z" fill="#3634E3"/>
<path d="M48.3575 18.6188C45.5439 14.2735 45.2584 9.5887 47.5283 5.28414C48.1264 4.15708 49.2002 2.56833 49.3769 2.55475C49.5536 2.54117 50.8992 4.80887 51.3478 5.8273C52.1633 7.68763 52.3808 8.78753 52.3944 10.9059C52.3944 13.16 52.1225 14.3957 51.1982 16.3375C50.5866 17.6139 49.4041 19.4064 49.1186 19.5014C49.0235 19.5286 48.6837 19.1348 48.3575 18.6188Z" fill="#3634E3"/>
<path d="M17.4758 32.0756C14.311 31.7386 11.1819 31.1252 8.12436 30.2424C5.20203 29.4005 0.567084 27.6352 0.458346 27.3229C0.376793 27.0785 4.49524 25.4626 7.49912 24.5664C12.338 23.0998 16.3884 22.4888 21.0778 22.4888C26.27 22.5023 30.5515 23.2628 35.9613 25.1503C38.1632 25.9107 41.0855 27.16 41.0855 27.3229C41.0719 27.5945 36.5865 29.3462 33.5826 30.2424C29.138 31.5731 26.1748 32.0348 21.4855 32.0891C19.5826 32.1163 17.7748 32.1027 17.4758 32.0756Z" fill="#3634E3"/>
<path d="M38.6796 23.5074C32.6174 22.7877 28.2679 21.2804 24.4485 18.5374C21.1432 16.1458 18.3208 13.151 16.1301 9.71104C15.7087 9.05924 15.3689 8.47534 15.3689 8.39387C15.3689 8.21734 17.2446 8.21734 19.0524 8.39387C25.3864 9.03209 30.4019 10.9467 34.6563 14.3687C36.1922 15.6043 38.4621 17.9128 39.7126 19.5287C40.5825 20.6422 42.4175 23.3444 42.4175 23.5209C42.4175 23.6024 39.4136 23.6024 38.6796 23.5074Z" fill="#3634E3"/>
<path d="M56.3765 23.0319C55.4522 22.869 55.4522 22.9097 56.3357 21.2259C57.8852 18.1978 60.6581 16.7856 64.192 17.193C64.6806 17.2437 65.1661 17.3207 65.6464 17.4238C65.7687 17.546 65.3882 18.4694 64.8037 19.4607C63.0775 22.4073 60.1144 23.6702 56.3765 23.0319Z" fill="#3634E3"/>
<path d="M43.4095 19.8002C38.4347 16.6499 35.7434 13.0786 34.5745 8.12224C34.2891 6.9137 34.2211 6.23475 34.1667 3.74978C34.1124 1.44135 34.126 0.789551 34.2619 0.789551C34.5473 0.789551 36.6269 2.10672 37.891 3.08441C39.3454 4.21147 41.1803 6.11254 42.0231 7.38897C43.2999 9.3099 44.1951 11.4582 44.66 13.7168C45.1085 16.0524 45.2036 20.6285 44.8095 20.615C44.7279 20.6014 44.1027 20.2483 43.4095 19.8002Z" fill="#3634E3"/>
<path d="M52.9786 20.1259C52.8155 19.8408 52.7475 17.8718 52.8698 16.9077C53.1185 15.039 53.8836 13.2765 55.0793 11.8182C56.275 10.3598 57.8539 9.26326 59.6388 8.65165C60.0601 8.51586 60.4407 8.43439 60.4815 8.47512C60.5223 8.51586 60.563 9.45281 60.563 10.5391C60.5495 12.318 60.5087 12.6439 60.1961 13.5944C59.6796 15.1424 58.8368 16.4596 57.5728 17.7225C56.6621 18.6187 56.2135 18.9446 55.1805 19.447C53.8621 20.0852 53.1009 20.3161 52.9786 20.1259Z" fill="#3634E3"/>
<path d="M48.3575 18.6188C45.5439 14.2735 45.2584 9.5887 47.5283 5.28414C48.1264 4.15708 49.2002 2.56833 49.3769 2.55475C49.5536 2.54117 50.8992 4.80887 51.3478 5.8273C52.1633 7.68763 52.3808 8.78753 52.3944 10.9059C52.3944 13.16 52.1225 14.3957 51.1982 16.3375C50.5866 17.6139 49.4041 19.4064 49.1186 19.5014C49.0235 19.5286 48.6837 19.1348 48.3575 18.6188Z" fill="#3634E3"/>
<path d="M22.369 32.0213C22.4234 31.9398 22.3554 31.288 22.2331 30.5547C21.9204 28.803 21.934 25.8564 22.2331 24.0775C22.3554 23.3307 22.4913 22.6789 22.5321 22.6246C22.8039 22.1629 28.8933 23.0455 32.5632 24.0775C35.8389 25.0009 41.1399 27.0378 41.0447 27.3365C40.9088 27.8389 33.8136 30.3375 30.2525 31.125C27.3981 31.7768 22.1651 32.3607 22.369 32.0213Z" fill="#3634E3"/>
<path d="M38.6797 23.5074C35.3768 23.1272 32.5632 22.5026 30.4428 21.6878C28.8661 21.0903 26.4603 19.9225 26.5962 19.8139C26.6642 19.7732 26.8817 19.2164 27.0855 18.5782C27.8069 16.4361 28.943 14.4567 30.4292 12.7528L31.0816 12.0195L31.8972 12.4541C33.8409 13.4861 36.9399 16.2019 39.0467 18.714C40.0253 19.8818 42.4176 23.2766 42.4176 23.5074C42.4176 23.6025 39.4545 23.6025 38.6797 23.5074Z" fill="#3634E3"/>
<path d="M56.3765 23.032C55.4522 22.8691 55.4522 22.9098 56.3357 21.226C56.9745 19.9903 58.3202 18.5238 59.2445 18.0485C59.8289 17.7498 59.8561 17.7498 60.1144 17.9942C61.025 18.7818 61.9493 20.4791 62.1804 21.7148C62.2619 22.2037 62.2619 22.2037 61.4872 22.5567C60.0464 23.1814 58.2794 23.3443 56.3765 23.032Z" fill="#3634E3"/>
<path d="M43.342 19.7594C41.5342 18.6052 40.0119 17.383 38.8294 16.1202C37.6876 14.9117 36.1653 12.6983 36.1653 12.2502C36.1653 11.8835 37.4022 10.8108 38.7342 10.0232C39.7536 9.41215 41.5614 8.71962 42.2818 8.63815C42.7167 8.59741 42.7711 8.63815 43.1245 9.27636C43.6682 10.2676 44.307 12.0872 44.6061 13.4859C45.0954 15.7943 45.2313 20.6284 44.8099 20.6149C44.7284 20.6013 44.0624 20.2211 43.342 19.7594Z" fill="#3634E3"/>
<path d="M52.9378 20.0582C52.7339 19.7187 52.829 16.6634 53.0737 15.7265C53.3999 14.518 54.3649 12.5626 54.5688 12.7119C54.8094 12.8388 55.0652 12.9347 55.33 12.9971C56.4578 13.347 57.4901 13.951 58.3475 14.7624L59.2038 15.5635L58.9319 16.0931C58.796 16.3783 58.1708 17.1116 57.5591 17.7226C56.6484 18.6324 56.2271 18.9311 55.1805 19.4472C53.7261 20.1533 53.1009 20.3162 52.9378 20.0582Z" fill="#3634E3"/>
<path d="M48.3575 18.6189C47.0254 16.5821 46.3186 14.6402 46.1012 12.5355C45.9109 10.5258 45.8837 10.5937 46.7672 10.3221C47.841 9.99621 50.4778 10.0098 51.6468 10.3493L52.5167 10.6073L52.4215 11.8022C52.3035 13.3775 51.8885 14.9164 51.1982 16.3376C50.5866 17.6141 49.4041 19.4065 49.1186 19.5015C49.0235 19.5287 48.6837 19.1349 48.3575 18.6189Z" fill="#3634E3"/>
<path d="M33.9768 29.1289C33.7458 28.0833 33.7594 26.481 33.9904 25.5033C34.0856 25.0959 34.1807 24.7157 34.2079 24.6614C34.3438 24.4441 41.0584 27.0242 41.1128 27.3229C41.1399 27.5402 35.6215 29.7264 34.5613 29.9165C34.1671 29.9844 34.1671 29.9708 33.9768 29.1289Z" fill="#3634E3"/>
<path d="M38.0679 23.4529C37.5107 23.385 36.899 23.2899 36.7087 23.2492C36.5643 23.199 36.413 23.1715 36.2602 23.1677C36.165 23.1949 36.1922 22.9912 36.464 21.9049C36.6815 21.0086 37.3611 19.8952 38.1223 19.1347L38.8427 18.415L39.7262 19.5557C40.5961 20.6556 42.4175 23.3442 42.4175 23.5208C42.4175 23.643 39.2776 23.5887 38.0679 23.4529Z" fill="#3634E3"/>
<path d="M56.3765 23.0319C55.6697 22.9097 55.6018 22.8689 55.6833 22.5973C55.8736 21.9727 56.7299 20.479 56.9066 20.479C57.2328 20.479 58.1163 21.4839 58.293 22.0542C58.5921 23.0862 58.5513 23.1948 57.8173 23.1812C57.4503 23.1677 56.8115 23.0998 56.3765 23.0319Z" fill="#3634E3"/>
<path d="M43.5729 19.9224C42.9749 19.5422 42.0778 18.9175 41.5749 18.5509L40.6642 17.8584L41.3302 17.2066C42.1019 16.4395 43.0789 15.9114 44.1438 15.6857L44.9593 15.4956L44.9865 16.514C45.0001 17.0844 45.0409 17.5868 45.0817 17.6411C45.2176 17.8584 44.9593 20.6149 44.8098 20.6013C44.7283 20.6013 44.171 20.289 43.5729 19.9224Z" fill="#3634E3"/>
<path d="M52.9785 20.1259C52.8562 19.9086 52.7203 17.7903 52.8154 17.5051C52.9242 17.1385 53.6717 17.1249 54.4601 17.478C54.9358 17.6952 56.0096 18.7408 56.0096 18.9852C56.0096 19.121 53.93 20.058 53.4407 20.153C53.2232 20.1938 53.0193 20.1802 52.9785 20.1259Z" fill="#3634E3"/>
<path d="M48.3571 18.6188C47.6503 17.5189 47.1746 16.6227 47.1746 16.3647C47.1746 16.0659 47.8542 15.8351 48.9551 15.7536C49.7979 15.6993 50.0969 15.74 50.627 15.9709L51.2658 16.256L50.926 16.9078C50.4911 17.7769 49.3221 19.4335 49.1182 19.5014C49.0231 19.5286 48.6833 19.1348 48.3571 18.6188Z" fill="#3634E3"/>
</svg>
