<svg width="147" height="63" viewBox="0 0 147 63" fill="none" xmlns="http://www.w3.org/2000/svg">
<path d="M2.392 22.176H15.41V27.926H2.392V22.176ZM41.4974 31.928V38H17.1634V33.17L29.5834 21.44C30.9021 20.1827 31.7914 19.1093 32.2514 18.22C32.7114 17.3 32.9414 16.3953 32.9414 15.506C32.9414 14.218 32.4967 13.2367 31.6074 12.562C30.7487 11.8567 29.4761 11.504 27.7894 11.504C26.3787 11.504 25.1061 11.78 23.9714 12.332C22.8367 12.8533 21.8861 13.6507 21.1194 14.724L15.6914 11.228C16.9487 9.35733 18.6814 7.90067 20.8894 6.858C23.0974 5.78467 25.6274 5.248 28.4794 5.248C30.8714 5.248 32.9567 5.64667 34.7354 6.444C36.5447 7.21067 37.9401 8.31467 38.9214 9.756C39.9334 11.1667 40.4394 12.838 40.4394 14.77C40.4394 16.518 40.0714 18.1587 39.3354 19.692C38.5994 21.2253 37.1734 22.9733 35.0574 24.936L27.6514 31.928H41.4974ZM56.9024 38.552C54.2344 38.552 51.8577 37.8927 49.7724 36.574C47.687 35.2553 46.0464 33.354 44.8504 30.87C43.685 28.3553 43.1024 25.3653 43.1024 21.9C43.1024 18.4347 43.685 15.46 44.8504 12.976C46.0464 10.4613 47.687 8.54466 49.7724 7.226C51.8577 5.90733 54.2344 5.248 56.9024 5.248C59.5704 5.248 61.947 5.90733 64.0324 7.226C66.1177 8.54466 67.743 10.4613 68.9084 12.976C70.1044 15.46 70.7024 18.4347 70.7024 21.9C70.7024 25.3653 70.1044 28.3553 68.9084 30.87C67.743 33.354 66.1177 35.2553 64.0324 36.574C61.947 37.8927 59.5704 38.552 56.9024 38.552ZM56.9024 32.25C58.865 32.25 60.3984 31.4067 61.5024 29.72C62.637 28.0333 63.2044 25.4267 63.2044 21.9C63.2044 18.3733 62.637 15.7667 61.5024 14.08C60.3984 12.3933 58.865 11.55 56.9024 11.55C54.9704 11.55 53.437 12.3933 52.3024 14.08C51.1984 15.7667 50.6464 18.3733 50.6464 21.9C50.6464 25.4267 51.1984 28.0333 52.3024 29.72C53.437 31.4067 54.9704 32.25 56.9024 32.25ZM74.9671 5.8H89.5951C93.0911 5.8 96.1731 6.47466 98.8411 7.824C101.54 9.14267 103.625 11.0133 105.097 13.436C106.6 15.8587 107.351 18.68 107.351 21.9C107.351 25.12 106.6 27.9413 105.097 30.364C103.625 32.7867 101.54 34.6727 98.8411 36.022C96.1731 37.3407 93.0911 38 89.5951 38H74.9671V5.8ZM89.2271 31.882C92.4471 31.882 95.0077 30.9927 96.9091 29.214C98.8411 27.4047 99.8071 24.9667 99.8071 21.9C99.8071 18.8333 98.8411 16.4107 96.9091 14.632C95.0077 12.8227 92.4471 11.918 89.2271 11.918H82.4191V31.882H89.2271ZM141.123 5.8V38H133.671V24.798H119.043V38H111.591V5.8H119.043V18.496H133.671V5.8H141.123Z" fill="#DD8C2C"/>
<path d="M14.74 58L14.72 48.72L10.12 56.4H8.96L4.36 48.84V58H1.88V44H4.02L9.58 53.28L15.04 44H17.18L17.2 58H14.74ZM20.7816 44H23.3816V58H20.7816V44ZM39.4083 44V58H37.2683L29.5483 48.52V58H26.9683V44H29.1083L36.8283 53.48V44H39.4083ZM58.207 50.72C58.9804 50.9733 59.5937 51.4 60.047 52C60.5004 52.5867 60.727 53.32 60.727 54.2C60.727 55.4133 60.2604 56.3533 59.327 57.02C58.3937 57.6733 57.0337 58 55.247 58H48.287V44H54.847C56.5004 44 57.7737 44.3267 58.667 44.98C59.5604 45.62 60.007 46.5067 60.007 47.64C60.007 48.3333 59.847 48.9467 59.527 49.48C59.207 50.0133 58.767 50.4267 58.207 50.72ZM50.887 46.04V49.9H54.567C55.4737 49.9 56.167 49.74 56.647 49.42C57.1404 49.0867 57.387 48.6067 57.387 47.98C57.387 47.34 57.1404 46.86 56.647 46.54C56.167 46.2067 55.4737 46.04 54.567 46.04H50.887ZM55.087 55.96C57.1004 55.96 58.107 55.2867 58.107 53.94C58.107 52.5933 57.1004 51.92 55.087 51.92H50.887V55.96H55.087ZM72.3819 54.76H65.3819L64.0019 58H61.3219L67.6219 44H70.1819L76.5019 58H73.7819L72.3819 54.76ZM71.5219 52.72L68.8819 46.6L66.2619 52.72H71.5219ZM78.0823 44H80.6823V55.8H88.0023V58H78.0823V44ZM99.0327 54.76H92.0327L90.6527 58H87.9727L94.2727 44H96.8327L103.153 58H100.433L99.0327 54.76ZM98.1727 52.72L95.5327 46.6L92.9127 52.72H98.1727ZM117.173 44V58H115.033L107.313 48.52V58H104.733V44H106.873L114.593 53.48V44H117.173ZM127.205 58.2C125.791 58.2 124.511 57.8933 123.365 57.28C122.231 56.6533 121.338 55.7933 120.685 54.7C120.045 53.6067 119.725 52.3733 119.725 51C119.725 49.6267 120.051 48.3933 120.705 47.3C121.358 46.2067 122.251 45.3533 123.385 44.74C124.531 44.1133 125.811 43.8 127.225 43.8C128.371 43.8 129.418 44 130.365 44.4C131.311 44.8 132.111 45.38 132.765 46.14L131.085 47.72C130.071 46.6267 128.825 46.08 127.345 46.08C126.385 46.08 125.525 46.2933 124.765 46.72C124.005 47.1333 123.411 47.7133 122.985 48.46C122.558 49.2067 122.345 50.0533 122.345 51C122.345 51.9467 122.558 52.7933 122.985 53.54C123.411 54.2867 124.005 54.8733 124.765 55.3C125.525 55.7133 126.385 55.92 127.345 55.92C128.825 55.92 130.071 55.3667 131.085 54.26L132.765 55.86C132.111 56.62 131.305 57.2 130.345 57.6C129.398 58 128.351 58.2 127.205 58.2ZM145.556 55.82V58H135.056V44H145.276V46.18H137.656V49.82H144.416V51.96H137.656V55.82H145.556Z" fill="#DD8C2C"/>
</svg>
